M48
; DRILL file {KiCad (5.1.0)-1} date 5/21/2019 3:47:18 PM
; FORMAT={-:-/ absolute / inch / decimal}
; #@! TF.CreationDate,2019-05-21T15:47:18-04:00
; #@! TF.GenerationSoftware,Kicad,Pcbnew,(5.1.0)-1
; #@! TF.FileFunction,Plated,1,2,PTH
FMAT,2
INCH
T1C0.0300
T2C0.0433
%
G90
G05
T1
X3.65Y-3.2
X3.75Y-3.2
X3.85Y-3.2
X4.15Y-2.5
X4.15Y-2.6
X4.15Y-2.7
X4.15Y-2.8
X4.15Y-2.9
X4.15Y-3.0
X4.15Y-3.1
X4.15Y-3.2
X4.15Y-3.3
X4.15Y-3.4
X4.15Y-3.5
X4.15Y-3.6
X4.75Y-2.5
X4.75Y-2.6
X4.75Y-2.7
X4.75Y-2.8
X4.75Y-2.9
X4.75Y-3.0
X4.75Y-3.1
X4.75Y-3.2
X4.75Y-3.3
X4.75Y-3.4
X4.75Y-3.5
X4.75Y-3.6
X3.5Y-2.05
X3.6Y-2.05
X3.7Y-2.05
X6.75Y-1.9
X6.8Y-3.3
X6.85Y-1.9
X6.95Y-1.9
X7.0Y-3.3
X7.05Y-1.9
X6.1Y-1.9
X6.15Y-3.3
X6.2Y-1.9
X6.3Y-1.9
X6.35Y-3.3
X6.4Y-1.9
X3.65Y-3.8
X3.75Y-3.8
X3.85Y-3.8
X3.65Y-3.6
X3.75Y-3.6
X3.85Y-3.6
X3.65Y-3.4
X3.75Y-3.4
X3.85Y-3.4
X3.5Y-2.25
X3.6Y-2.25
X3.7Y-2.25
X4.95Y-2.4
X4.95Y-2.5
X4.95Y-2.6
X4.95Y-2.7
X4.95Y-2.8
X4.95Y-2.9
X4.95Y-3.0
X4.95Y-3.1
X4.95Y-3.2
X4.95Y-3.3
X4.95Y-3.4
X5.75Y-2.4
X5.75Y-2.5
X5.75Y-2.6
X5.75Y-2.7
X5.75Y-2.8
X5.75Y-2.9
X5.75Y-3.0
X5.75Y-3.1
X5.75Y-3.2
X5.75Y-3.3
X5.75Y-3.4
X4.8Y-2.0
X4.9Y-2.0
X5.0Y-2.0
X3.65Y-3.0
X3.75Y-3.0
X3.85Y-3.0
X3.65Y-2.8
X3.75Y-2.8
X3.85Y-2.8
X4.25Y-2.0
X4.35Y-2.0
X4.45Y-2.0
X6.15Y-3.6
X6.25Y-3.6
X6.35Y-3.6
X6.8Y-3.6
X6.9Y-3.6
X7.0Y-3.6
T2
X3.6Y-2.55
X3.7Y-2.55
X3.8Y-2.55
T0
M30
