M48
; DRILL file {KiCad (5.1.0)-1} date 5/24/2019 9:31:24 AM
; FORMAT={-:-/ absolute / inch / decimal}
; #@! TF.CreationDate,2019-05-24T09:31:24-04:00
; #@! TF.GenerationSoftware,Kicad,Pcbnew,(5.1.0)-1
; #@! TF.FileFunction,Plated,1,2,PTH
FMAT,2
INCH
T1C0.0300
T2C0.0433
%
G90
G05
T1
X6.125Y-3.6
X6.225Y-3.6
X6.325Y-3.6
X4.15Y-1.84
X4.25Y-1.84
X4.35Y-1.84
X3.65Y-3.4
X3.75Y-3.4
X3.85Y-3.4
X3.65Y-3.2
X3.75Y-3.2
X3.85Y-3.2
X3.65Y-3.6
X3.75Y-3.6
X3.85Y-3.6
X6.075Y-1.9
X6.125Y-3.3
X6.175Y-1.9
X6.275Y-1.9
X6.325Y-3.3
X6.375Y-1.9
X3.65Y-2.8
X3.75Y-2.8
X3.85Y-2.8
X4.15Y-2.5
X4.15Y-2.6
X4.15Y-2.7
X4.15Y-2.8
X4.15Y-2.9
X4.15Y-3.0
X4.15Y-3.1
X4.15Y-3.2
X4.15Y-3.3
X4.15Y-3.4
X4.15Y-3.5
X4.15Y-3.6
X4.75Y-2.5
X4.75Y-2.6
X4.75Y-2.7
X4.75Y-2.8
X4.75Y-2.9
X4.75Y-3.0
X4.75Y-3.1
X4.75Y-3.2
X4.75Y-3.3
X4.75Y-3.4
X4.75Y-3.5
X4.75Y-3.6
X4.82Y-1.8
X4.82Y-1.9
X4.82Y-2.0
X4.95Y-2.4
X4.95Y-2.5
X4.95Y-2.6
X4.95Y-2.7
X4.95Y-2.8
X4.95Y-2.9
X4.95Y-3.0
X4.95Y-3.1
X4.95Y-3.2
X4.95Y-3.3
X4.95Y-3.4
X5.75Y-2.4
X5.75Y-2.5
X5.75Y-2.6
X5.75Y-2.7
X5.75Y-2.8
X5.75Y-2.9
X5.75Y-3.0
X5.75Y-3.1
X5.75Y-3.2
X5.75Y-3.3
X5.75Y-3.4
X6.7Y-3.6
X6.8Y-3.6
X6.9Y-3.6
X3.65Y-2.975
X3.75Y-2.975
X3.85Y-2.975
X6.65Y-1.9
X6.7Y-3.3
X6.75Y-1.9
X6.85Y-1.9
X6.9Y-3.3
X6.95Y-1.9
X3.65Y-3.8
X3.75Y-3.8
X3.85Y-3.8
X5.55Y-1.8
X5.65Y-1.8
X5.75Y-1.8
X4.15Y-2.24
X4.25Y-2.24
X4.35Y-2.24
T2
X3.6Y-2.525
X3.7Y-2.525
X3.8Y-2.525
X5.0Y-1.8
X5.4Y-1.8
T0
M30
