G04 #@! TF.GenerationSoftware,KiCad,Pcbnew,(5.1.0)-1*
G04 #@! TF.CreationDate,2019-05-24T09:31:27-04:00*
G04 #@! TF.ProjectId,Tardis Board,54617264-6973-4204-926f-6172642e6b69,rev?*
G04 #@! TF.SameCoordinates,Original*
G04 #@! TF.FileFunction,Copper,L1,Top*
G04 #@! TF.FilePolarity,Positive*
%FSLAX46Y46*%
G04 Gerber Fmt 4.6, Leading zero omitted, Abs format (unit mm)*
G04 Created by KiCad (PCBNEW (5.1.0)-1) date 2019-05-24 09:31:27*
%MOMM*%
%LPD*%
G04 APERTURE LIST*
%ADD10C,1.524000*%
%ADD11O,2.200000X2.200000*%
%ADD12R,2.200000X2.200000*%
%ADD13O,1.905000X2.000000*%
%ADD14R,1.905000X2.000000*%
%ADD15C,0.250000*%
%ADD16C,0.254000*%
G04 APERTURE END LIST*
D10*
X95250000Y-96520000D03*
X97790000Y-96520000D03*
X92710000Y-96520000D03*
X95250000Y-91440000D03*
X97790000Y-91440000D03*
X92710000Y-91440000D03*
X95250000Y-86360000D03*
X97790000Y-86360000D03*
X92710000Y-86360000D03*
X95250000Y-81280000D03*
X97790000Y-81280000D03*
X92710000Y-81280000D03*
X95250000Y-75565000D03*
X97790000Y-75565000D03*
X92710000Y-75565000D03*
X95250000Y-71120000D03*
X97790000Y-71120000D03*
X92710000Y-71120000D03*
D11*
X137160000Y-45720000D03*
D12*
X127000000Y-45720000D03*
D10*
X107950000Y-46736000D03*
X110490000Y-46736000D03*
X105410000Y-46736000D03*
X155575000Y-83820000D03*
X160655000Y-83820000D03*
X154305000Y-48260000D03*
X156845000Y-48260000D03*
X159385000Y-48260000D03*
X161925000Y-48260000D03*
D13*
X96520000Y-64135000D03*
X93980000Y-64135000D03*
D14*
X91440000Y-64135000D03*
D10*
X125730000Y-60960000D03*
X125730000Y-63500000D03*
X125730000Y-66040000D03*
X125730000Y-68580000D03*
X125730000Y-71120000D03*
X125730000Y-73660000D03*
X125730000Y-76200000D03*
X125730000Y-78740000D03*
X125730000Y-81280000D03*
X125730000Y-83820000D03*
X125730000Y-86360000D03*
X146050000Y-86360000D03*
X146050000Y-83820000D03*
X146050000Y-81280000D03*
X146050000Y-78740000D03*
X146050000Y-76200000D03*
X146050000Y-73660000D03*
X146050000Y-71120000D03*
X146050000Y-68580000D03*
X146050000Y-66040000D03*
X146050000Y-63500000D03*
X146050000Y-60960000D03*
X105410000Y-91440000D03*
X105410000Y-88900000D03*
X105410000Y-86360000D03*
X105410000Y-83820000D03*
X105410000Y-81280000D03*
X105410000Y-78740000D03*
X105410000Y-76200000D03*
X105410000Y-73660000D03*
X105410000Y-71120000D03*
X105410000Y-68580000D03*
X105410000Y-66040000D03*
X105410000Y-63500000D03*
X120650000Y-63500000D03*
X120650000Y-66040000D03*
X120650000Y-68580000D03*
X120650000Y-71120000D03*
X120650000Y-73660000D03*
X120650000Y-76200000D03*
X120650000Y-78740000D03*
X120650000Y-81280000D03*
X120650000Y-83820000D03*
X120650000Y-86360000D03*
X120650000Y-88900000D03*
X120650000Y-91440000D03*
X170180000Y-83820000D03*
X175260000Y-83820000D03*
X168910000Y-48260000D03*
X171450000Y-48260000D03*
X173990000Y-48260000D03*
X176530000Y-48260000D03*
X158115000Y-91440000D03*
X155575000Y-91440000D03*
X160655000Y-91440000D03*
X107950000Y-56896000D03*
X110490000Y-56896000D03*
X105410000Y-56896000D03*
X122428000Y-48260000D03*
X122428000Y-45720000D03*
X122428000Y-50800000D03*
X143510000Y-45720000D03*
X146050000Y-45720000D03*
X140970000Y-45720000D03*
X172720000Y-91440000D03*
X170180000Y-91440000D03*
X175260000Y-91440000D03*
D15*
X175260000Y-83820000D02*
X175260000Y-91440000D01*
X146050000Y-81280000D02*
X149860000Y-77470000D01*
X149860000Y-77470000D02*
X149860000Y-49530000D01*
X149860000Y-49530000D02*
X153670000Y-45720000D01*
X171450000Y-45720000D02*
X173990000Y-48260000D01*
X153670000Y-45720000D02*
X171450000Y-45720000D01*
X110490000Y-62738000D02*
X110490000Y-56896000D01*
X105410000Y-66040000D02*
X107188000Y-66040000D01*
X107188000Y-66040000D02*
X110490000Y-62738000D01*
X91440000Y-64817500D02*
X91440000Y-64770000D01*
X91440000Y-65385000D02*
X92710000Y-66655000D01*
X91440000Y-64135000D02*
X91440000Y-65385000D01*
X92710000Y-66655000D02*
X97810000Y-66655000D01*
X100965000Y-63500000D02*
X105410000Y-63500000D01*
X97810000Y-66655000D02*
X100965000Y-63500000D01*
X120650000Y-63500000D02*
X125730000Y-63500000D01*
X120650000Y-66040000D02*
X125730000Y-66040000D01*
X120650000Y-68580000D02*
X125730000Y-68580000D01*
X120650000Y-71120000D02*
X125730000Y-71120000D01*
X120650000Y-73660000D02*
X125730000Y-73660000D01*
X120650000Y-76200000D02*
X125730000Y-76200000D01*
X120650000Y-78740000D02*
X125730000Y-78740000D01*
X120650000Y-81280000D02*
X125730000Y-81280000D01*
X99060000Y-46736000D02*
X105410000Y-46736000D01*
X93980000Y-64770000D02*
X93980000Y-51816000D01*
X93980000Y-51816000D02*
X99060000Y-46736000D01*
X97790000Y-96520000D02*
X97790000Y-95250000D01*
X97790000Y-95250000D02*
X101600000Y-91440000D01*
X101600000Y-84455000D02*
X104775000Y-81280000D01*
X101600000Y-91440000D02*
X101600000Y-84455000D01*
X104140000Y-78740000D02*
X104775000Y-78740000D01*
X100330000Y-82550000D02*
X104140000Y-78740000D01*
X100330000Y-87630000D02*
X100330000Y-82550000D01*
X97790000Y-91440000D02*
X97790000Y-90170000D01*
X97790000Y-90170000D02*
X100330000Y-87630000D01*
X103505000Y-76200000D02*
X104775000Y-76200000D01*
X102870000Y-76835000D02*
X103505000Y-76200000D01*
X97790000Y-86360000D02*
X97790000Y-83820000D01*
X102870000Y-76835000D02*
X100965000Y-78740000D01*
X100965000Y-78740000D02*
X100965000Y-80010000D01*
X100965000Y-80010000D02*
X100965000Y-80645000D01*
X100965000Y-80645000D02*
X97790000Y-83820000D01*
X102870000Y-73660000D02*
X104775000Y-73660000D01*
X97790000Y-81280000D02*
X97790000Y-78740000D01*
X97790000Y-78740000D02*
X102870000Y-73660000D01*
X97790000Y-76200000D02*
X97790000Y-74930000D01*
X97790000Y-74930000D02*
X101600000Y-71120000D01*
X101600000Y-71120000D02*
X104775000Y-71120000D01*
X99060000Y-68580000D02*
X104775000Y-68580000D01*
X160655000Y-83820000D02*
X160655000Y-91440000D01*
X159385000Y-73660000D02*
X159385000Y-48260000D01*
X146050000Y-83820000D02*
X149225000Y-83820000D01*
X149225000Y-83820000D02*
X159385000Y-73660000D01*
X107315000Y-83820000D02*
X111577001Y-79557999D01*
X111577001Y-79557999D02*
X111577001Y-63317001D01*
X104775000Y-83820000D02*
X107315000Y-83820000D01*
X145288001Y-60198001D02*
X146050000Y-60960000D01*
X140970000Y-55880000D02*
X145288001Y-60198001D01*
X119014002Y-55880000D02*
X140970000Y-55880000D01*
X118943001Y-55951001D02*
X114371001Y-55951001D01*
X118943001Y-55951001D02*
X119014002Y-55880000D01*
X111577001Y-63317001D02*
X118943001Y-55951001D01*
X114371001Y-55951001D02*
X113792000Y-55372000D01*
X109474000Y-55372000D02*
X107950000Y-56896000D01*
X113792000Y-55372000D02*
X109474000Y-55372000D01*
X123505630Y-45720000D02*
X127000000Y-45720000D01*
X122428000Y-45720000D02*
X123505630Y-45720000D01*
X137160000Y-45720000D02*
X140970000Y-45720000D01*
X107315000Y-83820000D02*
X107315000Y-97790000D01*
X107315000Y-97790000D02*
X104775000Y-100330000D01*
X104775000Y-100330000D02*
X94615000Y-100330000D01*
X92710000Y-98425000D02*
X92710000Y-96520000D01*
X94615000Y-100330000D02*
X92710000Y-98425000D01*
X92710000Y-95442370D02*
X92710000Y-91440000D01*
X92710000Y-96520000D02*
X92710000Y-95442370D01*
X92710000Y-91440000D02*
X92710000Y-86360000D01*
X92710000Y-81280000D02*
X92710000Y-75565000D01*
X92710000Y-75565000D02*
X92710000Y-71120000D01*
X92710000Y-81280000D02*
X92710000Y-86360000D01*
X97790000Y-71120000D02*
X97790000Y-69850000D01*
X97790000Y-69850000D02*
X99060000Y-68580000D01*
D16*
G36*
X178190890Y-42443075D02*
G01*
X178105000Y-42874872D01*
X178105000Y-43315128D01*
X178190890Y-43746925D01*
X178359369Y-44153669D01*
X178603962Y-44519729D01*
X178915271Y-44831038D01*
X179281331Y-45075631D01*
X179688075Y-45244110D01*
X180119872Y-45330000D01*
X180560128Y-45330000D01*
X180991925Y-45244110D01*
X181108041Y-45196013D01*
X181483000Y-45758452D01*
X181483000Y-101561548D01*
X181152445Y-102057380D01*
X180991925Y-101990890D01*
X180560128Y-101905000D01*
X180119872Y-101905000D01*
X179688075Y-101990890D01*
X179281331Y-102159369D01*
X178915271Y-102403962D01*
X178603962Y-102715271D01*
X178359369Y-103081331D01*
X178190890Y-103488075D01*
X178105000Y-103919872D01*
X178105000Y-104360128D01*
X178190890Y-104791925D01*
X178359369Y-105198669D01*
X178415717Y-105283000D01*
X89194283Y-105283000D01*
X89250631Y-105198669D01*
X89419110Y-104791925D01*
X89505000Y-104360128D01*
X89505000Y-103919872D01*
X89419110Y-103488075D01*
X89250631Y-103081331D01*
X89006038Y-102715271D01*
X88694729Y-102403962D01*
X88328669Y-102159369D01*
X87921925Y-101990890D01*
X87490128Y-101905000D01*
X87049872Y-101905000D01*
X86755062Y-101963641D01*
X86487000Y-101561548D01*
X86487000Y-63135000D01*
X89849428Y-63135000D01*
X89849428Y-65135000D01*
X89861688Y-65259482D01*
X89897998Y-65379180D01*
X89956963Y-65489494D01*
X90036315Y-65586185D01*
X90133006Y-65665537D01*
X90243320Y-65724502D01*
X90363018Y-65760812D01*
X90487500Y-65773072D01*
X90785674Y-65773072D01*
X90805026Y-65809276D01*
X90872108Y-65891015D01*
X90900000Y-65925001D01*
X90928998Y-65948799D01*
X92146201Y-67166003D01*
X92169999Y-67195001D01*
X92285724Y-67289974D01*
X92417753Y-67360546D01*
X92561014Y-67404003D01*
X92672667Y-67415000D01*
X92672676Y-67415000D01*
X92709999Y-67418676D01*
X92747322Y-67415000D01*
X97772678Y-67415000D01*
X97810000Y-67418676D01*
X97847322Y-67415000D01*
X97847333Y-67415000D01*
X97958986Y-67404003D01*
X98102247Y-67360546D01*
X98234276Y-67289974D01*
X98350001Y-67195001D01*
X98373804Y-67165997D01*
X101279802Y-64260000D01*
X104237659Y-64260000D01*
X104324880Y-64390535D01*
X104519465Y-64585120D01*
X104748273Y-64738005D01*
X104825515Y-64770000D01*
X104748273Y-64801995D01*
X104519465Y-64954880D01*
X104324880Y-65149465D01*
X104171995Y-65378273D01*
X104066686Y-65632510D01*
X104013000Y-65902408D01*
X104013000Y-66177592D01*
X104066686Y-66447490D01*
X104171995Y-66701727D01*
X104324880Y-66930535D01*
X104519465Y-67125120D01*
X104748273Y-67278005D01*
X104825515Y-67310000D01*
X104748273Y-67341995D01*
X104519465Y-67494880D01*
X104324880Y-67689465D01*
X104237659Y-67820000D01*
X99097322Y-67820000D01*
X99059999Y-67816324D01*
X99022676Y-67820000D01*
X99022667Y-67820000D01*
X98911014Y-67830997D01*
X98767753Y-67874454D01*
X98635724Y-67945026D01*
X98519999Y-68039999D01*
X98496201Y-68068997D01*
X97278998Y-69286201D01*
X97250000Y-69309999D01*
X97226202Y-69338997D01*
X97226201Y-69338998D01*
X97155026Y-69425724D01*
X97084454Y-69557754D01*
X97040998Y-69701015D01*
X97026324Y-69850000D01*
X97030001Y-69887332D01*
X97030001Y-69947658D01*
X96899465Y-70034880D01*
X96704880Y-70229465D01*
X96551995Y-70458273D01*
X96522308Y-70529943D01*
X96517636Y-70516977D01*
X96455656Y-70401020D01*
X96215565Y-70334040D01*
X95429605Y-71120000D01*
X96215565Y-71905960D01*
X96455656Y-71838980D01*
X96519485Y-71703240D01*
X96551995Y-71781727D01*
X96704880Y-72010535D01*
X96899465Y-72205120D01*
X97128273Y-72358005D01*
X97382510Y-72463314D01*
X97652408Y-72517000D01*
X97927592Y-72517000D01*
X98197490Y-72463314D01*
X98451727Y-72358005D01*
X98680535Y-72205120D01*
X98875120Y-72010535D01*
X99028005Y-71781727D01*
X99133314Y-71527490D01*
X99187000Y-71257592D01*
X99187000Y-70982408D01*
X99133314Y-70712510D01*
X99028005Y-70458273D01*
X98875120Y-70229465D01*
X98680535Y-70034880D01*
X98680167Y-70034634D01*
X99374802Y-69340000D01*
X104237659Y-69340000D01*
X104324880Y-69470535D01*
X104519465Y-69665120D01*
X104748273Y-69818005D01*
X104825515Y-69850000D01*
X104748273Y-69881995D01*
X104519465Y-70034880D01*
X104324880Y-70229465D01*
X104237659Y-70360000D01*
X101637325Y-70360000D01*
X101600000Y-70356324D01*
X101562675Y-70360000D01*
X101562667Y-70360000D01*
X101451014Y-70370997D01*
X101307753Y-70414454D01*
X101175724Y-70485026D01*
X101059999Y-70579999D01*
X101036201Y-70608997D01*
X97433694Y-74211505D01*
X97382510Y-74221686D01*
X97128273Y-74326995D01*
X96899465Y-74479880D01*
X96704880Y-74674465D01*
X96551995Y-74903273D01*
X96522308Y-74974943D01*
X96517636Y-74961977D01*
X96455656Y-74846020D01*
X96215565Y-74779040D01*
X95429605Y-75565000D01*
X96215565Y-76350960D01*
X96455656Y-76283980D01*
X96519485Y-76148240D01*
X96551995Y-76226727D01*
X96704880Y-76455535D01*
X96899465Y-76650120D01*
X97128273Y-76803005D01*
X97382510Y-76908314D01*
X97652408Y-76962000D01*
X97772973Y-76962000D01*
X97790000Y-76963677D01*
X97807027Y-76962000D01*
X97927592Y-76962000D01*
X98197490Y-76908314D01*
X98451727Y-76803005D01*
X98680535Y-76650120D01*
X98875120Y-76455535D01*
X99028005Y-76226727D01*
X99133314Y-75972490D01*
X99187000Y-75702592D01*
X99187000Y-75427408D01*
X99133314Y-75157510D01*
X99028005Y-74903273D01*
X98973340Y-74821461D01*
X101914802Y-71880000D01*
X104237659Y-71880000D01*
X104324880Y-72010535D01*
X104519465Y-72205120D01*
X104748273Y-72358005D01*
X104825515Y-72390000D01*
X104748273Y-72421995D01*
X104519465Y-72574880D01*
X104324880Y-72769465D01*
X104237659Y-72900000D01*
X102907323Y-72900000D01*
X102870000Y-72896324D01*
X102832677Y-72900000D01*
X102832667Y-72900000D01*
X102721014Y-72910997D01*
X102577753Y-72954454D01*
X102445723Y-73025026D01*
X102362083Y-73093668D01*
X102329999Y-73119999D01*
X102306201Y-73148997D01*
X97278998Y-78176201D01*
X97250000Y-78199999D01*
X97226202Y-78228997D01*
X97226201Y-78228998D01*
X97155026Y-78315724D01*
X97084454Y-78447754D01*
X97040998Y-78591015D01*
X97026324Y-78740000D01*
X97030001Y-78777332D01*
X97030000Y-80107659D01*
X96899465Y-80194880D01*
X96704880Y-80389465D01*
X96551995Y-80618273D01*
X96522308Y-80689943D01*
X96517636Y-80676977D01*
X96455656Y-80561020D01*
X96215565Y-80494040D01*
X95429605Y-81280000D01*
X96215565Y-82065960D01*
X96455656Y-81998980D01*
X96519485Y-81863240D01*
X96551995Y-81941727D01*
X96704880Y-82170535D01*
X96899465Y-82365120D01*
X97128273Y-82518005D01*
X97382510Y-82623314D01*
X97652408Y-82677000D01*
X97858199Y-82677000D01*
X97278998Y-83256201D01*
X97250000Y-83279999D01*
X97226202Y-83308997D01*
X97226201Y-83308998D01*
X97155026Y-83395724D01*
X97084454Y-83527754D01*
X97057342Y-83617135D01*
X97040998Y-83671014D01*
X97033417Y-83747983D01*
X97026324Y-83820000D01*
X97030001Y-83857332D01*
X97030000Y-85187659D01*
X96899465Y-85274880D01*
X96704880Y-85469465D01*
X96551995Y-85698273D01*
X96522308Y-85769943D01*
X96517636Y-85756977D01*
X96455656Y-85641020D01*
X96215565Y-85574040D01*
X95429605Y-86360000D01*
X96215565Y-87145960D01*
X96455656Y-87078980D01*
X96519485Y-86943240D01*
X96551995Y-87021727D01*
X96704880Y-87250535D01*
X96899465Y-87445120D01*
X97128273Y-87598005D01*
X97382510Y-87703314D01*
X97652408Y-87757000D01*
X97927592Y-87757000D01*
X98197490Y-87703314D01*
X98451727Y-87598005D01*
X98680535Y-87445120D01*
X98875120Y-87250535D01*
X99028005Y-87021727D01*
X99133314Y-86767490D01*
X99187000Y-86497592D01*
X99187000Y-86222408D01*
X99133314Y-85952510D01*
X99028005Y-85698273D01*
X98875120Y-85469465D01*
X98680535Y-85274880D01*
X98550000Y-85187659D01*
X98550000Y-84134801D01*
X99570001Y-83114801D01*
X99570000Y-87315197D01*
X97278998Y-89606201D01*
X97250000Y-89629999D01*
X97226202Y-89658997D01*
X97226201Y-89658998D01*
X97155026Y-89745724D01*
X97084454Y-89877754D01*
X97040998Y-90021015D01*
X97026324Y-90170000D01*
X97030001Y-90207332D01*
X97030001Y-90267658D01*
X96899465Y-90354880D01*
X96704880Y-90549465D01*
X96551995Y-90778273D01*
X96522308Y-90849943D01*
X96517636Y-90836977D01*
X96455656Y-90721020D01*
X96215565Y-90654040D01*
X95429605Y-91440000D01*
X96215565Y-92225960D01*
X96455656Y-92158980D01*
X96519485Y-92023240D01*
X96551995Y-92101727D01*
X96704880Y-92330535D01*
X96899465Y-92525120D01*
X97128273Y-92678005D01*
X97382510Y-92783314D01*
X97652408Y-92837000D01*
X97927592Y-92837000D01*
X98197490Y-92783314D01*
X98451727Y-92678005D01*
X98680535Y-92525120D01*
X98875120Y-92330535D01*
X99028005Y-92101727D01*
X99133314Y-91847490D01*
X99187000Y-91577592D01*
X99187000Y-91302408D01*
X99133314Y-91032510D01*
X99028005Y-90778273D01*
X98875120Y-90549465D01*
X98680535Y-90354880D01*
X98680167Y-90354634D01*
X100840000Y-88194802D01*
X100840000Y-91125198D01*
X97278998Y-94686201D01*
X97250000Y-94709999D01*
X97226202Y-94738997D01*
X97226201Y-94738998D01*
X97155026Y-94825724D01*
X97084454Y-94957754D01*
X97040998Y-95101015D01*
X97026324Y-95250000D01*
X97030001Y-95287332D01*
X97030001Y-95347658D01*
X96899465Y-95434880D01*
X96704880Y-95629465D01*
X96551995Y-95858273D01*
X96522308Y-95929943D01*
X96517636Y-95916977D01*
X96455656Y-95801020D01*
X96215565Y-95734040D01*
X95429605Y-96520000D01*
X96215565Y-97305960D01*
X96455656Y-97238980D01*
X96519485Y-97103240D01*
X96551995Y-97181727D01*
X96704880Y-97410535D01*
X96899465Y-97605120D01*
X97128273Y-97758005D01*
X97382510Y-97863314D01*
X97652408Y-97917000D01*
X97927592Y-97917000D01*
X98197490Y-97863314D01*
X98451727Y-97758005D01*
X98680535Y-97605120D01*
X98875120Y-97410535D01*
X99028005Y-97181727D01*
X99133314Y-96927490D01*
X99187000Y-96657592D01*
X99187000Y-96382408D01*
X99133314Y-96112510D01*
X99028005Y-95858273D01*
X98875120Y-95629465D01*
X98680535Y-95434880D01*
X98680167Y-95434634D01*
X102111004Y-92003798D01*
X102140001Y-91980001D01*
X102234974Y-91864276D01*
X102305546Y-91732247D01*
X102349003Y-91588986D01*
X102360000Y-91477333D01*
X102360000Y-91477325D01*
X102363676Y-91440000D01*
X102360000Y-91402675D01*
X102360000Y-88972017D01*
X104008090Y-88972017D01*
X104049078Y-89244133D01*
X104142364Y-89503023D01*
X104204344Y-89618980D01*
X104444435Y-89685960D01*
X105230395Y-88900000D01*
X104444435Y-88114040D01*
X104204344Y-88181020D01*
X104087244Y-88430048D01*
X104020977Y-88697135D01*
X104008090Y-88972017D01*
X102360000Y-88972017D01*
X102360000Y-84769801D01*
X104666462Y-82463340D01*
X104748273Y-82518005D01*
X104825515Y-82550000D01*
X104748273Y-82581995D01*
X104519465Y-82734880D01*
X104324880Y-82929465D01*
X104171995Y-83158273D01*
X104066686Y-83412510D01*
X104013000Y-83682408D01*
X104013000Y-83802973D01*
X104011323Y-83820000D01*
X104013000Y-83837027D01*
X104013000Y-83957592D01*
X104066686Y-84227490D01*
X104171995Y-84481727D01*
X104324880Y-84710535D01*
X104519465Y-84905120D01*
X104748273Y-85058005D01*
X104825515Y-85090000D01*
X104748273Y-85121995D01*
X104519465Y-85274880D01*
X104324880Y-85469465D01*
X104171995Y-85698273D01*
X104066686Y-85952510D01*
X104013000Y-86222408D01*
X104013000Y-86497592D01*
X104066686Y-86767490D01*
X104171995Y-87021727D01*
X104324880Y-87250535D01*
X104519465Y-87445120D01*
X104748273Y-87598005D01*
X104819943Y-87627692D01*
X104806977Y-87632364D01*
X104691020Y-87694344D01*
X104624040Y-87934435D01*
X105410000Y-88720395D01*
X106195960Y-87934435D01*
X106128980Y-87694344D01*
X105993240Y-87630515D01*
X106071727Y-87598005D01*
X106300535Y-87445120D01*
X106495120Y-87250535D01*
X106555000Y-87160918D01*
X106555000Y-88164098D01*
X106375565Y-88114040D01*
X105589605Y-88900000D01*
X106375565Y-89685960D01*
X106555000Y-89635902D01*
X106555000Y-90639082D01*
X106495120Y-90549465D01*
X106300535Y-90354880D01*
X106071727Y-90201995D01*
X106000057Y-90172308D01*
X106013023Y-90167636D01*
X106128980Y-90105656D01*
X106195960Y-89865565D01*
X105410000Y-89079605D01*
X104624040Y-89865565D01*
X104691020Y-90105656D01*
X104826760Y-90169485D01*
X104748273Y-90201995D01*
X104519465Y-90354880D01*
X104324880Y-90549465D01*
X104171995Y-90778273D01*
X104066686Y-91032510D01*
X104013000Y-91302408D01*
X104013000Y-91577592D01*
X104066686Y-91847490D01*
X104171995Y-92101727D01*
X104324880Y-92330535D01*
X104519465Y-92525120D01*
X104748273Y-92678005D01*
X105002510Y-92783314D01*
X105272408Y-92837000D01*
X105547592Y-92837000D01*
X105817490Y-92783314D01*
X106071727Y-92678005D01*
X106300535Y-92525120D01*
X106495120Y-92330535D01*
X106555001Y-92240918D01*
X106555001Y-97475196D01*
X104460199Y-99570000D01*
X94929802Y-99570000D01*
X93470000Y-98110199D01*
X93470000Y-97692341D01*
X93600535Y-97605120D01*
X93720090Y-97485565D01*
X94464040Y-97485565D01*
X94531020Y-97725656D01*
X94780048Y-97842756D01*
X95047135Y-97909023D01*
X95322017Y-97921910D01*
X95594133Y-97880922D01*
X95853023Y-97787636D01*
X95968980Y-97725656D01*
X96035960Y-97485565D01*
X95250000Y-96699605D01*
X94464040Y-97485565D01*
X93720090Y-97485565D01*
X93795120Y-97410535D01*
X93948005Y-97181727D01*
X93977692Y-97110057D01*
X93982364Y-97123023D01*
X94044344Y-97238980D01*
X94284435Y-97305960D01*
X95070395Y-96520000D01*
X94284435Y-95734040D01*
X94044344Y-95801020D01*
X93980515Y-95936760D01*
X93948005Y-95858273D01*
X93795120Y-95629465D01*
X93720090Y-95554435D01*
X94464040Y-95554435D01*
X95250000Y-96340395D01*
X96035960Y-95554435D01*
X95968980Y-95314344D01*
X95719952Y-95197244D01*
X95452865Y-95130977D01*
X95177983Y-95118090D01*
X94905867Y-95159078D01*
X94646977Y-95252364D01*
X94531020Y-95314344D01*
X94464040Y-95554435D01*
X93720090Y-95554435D01*
X93600535Y-95434880D01*
X93470000Y-95347659D01*
X93470000Y-92612341D01*
X93600535Y-92525120D01*
X93720090Y-92405565D01*
X94464040Y-92405565D01*
X94531020Y-92645656D01*
X94780048Y-92762756D01*
X95047135Y-92829023D01*
X95322017Y-92841910D01*
X95594133Y-92800922D01*
X95853023Y-92707636D01*
X95968980Y-92645656D01*
X96035960Y-92405565D01*
X95250000Y-91619605D01*
X94464040Y-92405565D01*
X93720090Y-92405565D01*
X93795120Y-92330535D01*
X93948005Y-92101727D01*
X93977692Y-92030057D01*
X93982364Y-92043023D01*
X94044344Y-92158980D01*
X94284435Y-92225960D01*
X95070395Y-91440000D01*
X94284435Y-90654040D01*
X94044344Y-90721020D01*
X93980515Y-90856760D01*
X93948005Y-90778273D01*
X93795120Y-90549465D01*
X93720090Y-90474435D01*
X94464040Y-90474435D01*
X95250000Y-91260395D01*
X96035960Y-90474435D01*
X95968980Y-90234344D01*
X95719952Y-90117244D01*
X95452865Y-90050977D01*
X95177983Y-90038090D01*
X94905867Y-90079078D01*
X94646977Y-90172364D01*
X94531020Y-90234344D01*
X94464040Y-90474435D01*
X93720090Y-90474435D01*
X93600535Y-90354880D01*
X93470000Y-90267659D01*
X93470000Y-87532341D01*
X93600535Y-87445120D01*
X93720090Y-87325565D01*
X94464040Y-87325565D01*
X94531020Y-87565656D01*
X94780048Y-87682756D01*
X95047135Y-87749023D01*
X95322017Y-87761910D01*
X95594133Y-87720922D01*
X95853023Y-87627636D01*
X95968980Y-87565656D01*
X96035960Y-87325565D01*
X95250000Y-86539605D01*
X94464040Y-87325565D01*
X93720090Y-87325565D01*
X93795120Y-87250535D01*
X93948005Y-87021727D01*
X93977692Y-86950057D01*
X93982364Y-86963023D01*
X94044344Y-87078980D01*
X94284435Y-87145960D01*
X95070395Y-86360000D01*
X94284435Y-85574040D01*
X94044344Y-85641020D01*
X93980515Y-85776760D01*
X93948005Y-85698273D01*
X93795120Y-85469465D01*
X93720090Y-85394435D01*
X94464040Y-85394435D01*
X95250000Y-86180395D01*
X96035960Y-85394435D01*
X95968980Y-85154344D01*
X95719952Y-85037244D01*
X95452865Y-84970977D01*
X95177983Y-84958090D01*
X94905867Y-84999078D01*
X94646977Y-85092364D01*
X94531020Y-85154344D01*
X94464040Y-85394435D01*
X93720090Y-85394435D01*
X93600535Y-85274880D01*
X93470000Y-85187659D01*
X93470000Y-82452341D01*
X93600535Y-82365120D01*
X93720090Y-82245565D01*
X94464040Y-82245565D01*
X94531020Y-82485656D01*
X94780048Y-82602756D01*
X95047135Y-82669023D01*
X95322017Y-82681910D01*
X95594133Y-82640922D01*
X95853023Y-82547636D01*
X95968980Y-82485656D01*
X96035960Y-82245565D01*
X95250000Y-81459605D01*
X94464040Y-82245565D01*
X93720090Y-82245565D01*
X93795120Y-82170535D01*
X93948005Y-81941727D01*
X93977692Y-81870057D01*
X93982364Y-81883023D01*
X94044344Y-81998980D01*
X94284435Y-82065960D01*
X95070395Y-81280000D01*
X94284435Y-80494040D01*
X94044344Y-80561020D01*
X93980515Y-80696760D01*
X93948005Y-80618273D01*
X93795120Y-80389465D01*
X93720090Y-80314435D01*
X94464040Y-80314435D01*
X95250000Y-81100395D01*
X96035960Y-80314435D01*
X95968980Y-80074344D01*
X95719952Y-79957244D01*
X95452865Y-79890977D01*
X95177983Y-79878090D01*
X94905867Y-79919078D01*
X94646977Y-80012364D01*
X94531020Y-80074344D01*
X94464040Y-80314435D01*
X93720090Y-80314435D01*
X93600535Y-80194880D01*
X93470000Y-80107659D01*
X93470000Y-76737341D01*
X93600535Y-76650120D01*
X93720090Y-76530565D01*
X94464040Y-76530565D01*
X94531020Y-76770656D01*
X94780048Y-76887756D01*
X95047135Y-76954023D01*
X95322017Y-76966910D01*
X95594133Y-76925922D01*
X95853023Y-76832636D01*
X95968980Y-76770656D01*
X96035960Y-76530565D01*
X95250000Y-75744605D01*
X94464040Y-76530565D01*
X93720090Y-76530565D01*
X93795120Y-76455535D01*
X93948005Y-76226727D01*
X93977692Y-76155057D01*
X93982364Y-76168023D01*
X94044344Y-76283980D01*
X94284435Y-76350960D01*
X95070395Y-75565000D01*
X94284435Y-74779040D01*
X94044344Y-74846020D01*
X93980515Y-74981760D01*
X93948005Y-74903273D01*
X93795120Y-74674465D01*
X93720090Y-74599435D01*
X94464040Y-74599435D01*
X95250000Y-75385395D01*
X96035960Y-74599435D01*
X95968980Y-74359344D01*
X95719952Y-74242244D01*
X95452865Y-74175977D01*
X95177983Y-74163090D01*
X94905867Y-74204078D01*
X94646977Y-74297364D01*
X94531020Y-74359344D01*
X94464040Y-74599435D01*
X93720090Y-74599435D01*
X93600535Y-74479880D01*
X93470000Y-74392659D01*
X93470000Y-72292341D01*
X93600535Y-72205120D01*
X93720090Y-72085565D01*
X94464040Y-72085565D01*
X94531020Y-72325656D01*
X94780048Y-72442756D01*
X95047135Y-72509023D01*
X95322017Y-72521910D01*
X95594133Y-72480922D01*
X95853023Y-72387636D01*
X95968980Y-72325656D01*
X96035960Y-72085565D01*
X95250000Y-71299605D01*
X94464040Y-72085565D01*
X93720090Y-72085565D01*
X93795120Y-72010535D01*
X93948005Y-71781727D01*
X93977692Y-71710057D01*
X93982364Y-71723023D01*
X94044344Y-71838980D01*
X94284435Y-71905960D01*
X95070395Y-71120000D01*
X94284435Y-70334040D01*
X94044344Y-70401020D01*
X93980515Y-70536760D01*
X93948005Y-70458273D01*
X93795120Y-70229465D01*
X93720090Y-70154435D01*
X94464040Y-70154435D01*
X95250000Y-70940395D01*
X96035960Y-70154435D01*
X95968980Y-69914344D01*
X95719952Y-69797244D01*
X95452865Y-69730977D01*
X95177983Y-69718090D01*
X94905867Y-69759078D01*
X94646977Y-69852364D01*
X94531020Y-69914344D01*
X94464040Y-70154435D01*
X93720090Y-70154435D01*
X93600535Y-70034880D01*
X93371727Y-69881995D01*
X93117490Y-69776686D01*
X92847592Y-69723000D01*
X92572408Y-69723000D01*
X92302510Y-69776686D01*
X92048273Y-69881995D01*
X91819465Y-70034880D01*
X91624880Y-70229465D01*
X91471995Y-70458273D01*
X91366686Y-70712510D01*
X91313000Y-70982408D01*
X91313000Y-71257592D01*
X91366686Y-71527490D01*
X91471995Y-71781727D01*
X91624880Y-72010535D01*
X91819465Y-72205120D01*
X91950001Y-72292341D01*
X91950000Y-74392659D01*
X91819465Y-74479880D01*
X91624880Y-74674465D01*
X91471995Y-74903273D01*
X91366686Y-75157510D01*
X91313000Y-75427408D01*
X91313000Y-75702592D01*
X91366686Y-75972490D01*
X91471995Y-76226727D01*
X91624880Y-76455535D01*
X91819465Y-76650120D01*
X91950001Y-76737341D01*
X91950000Y-80107659D01*
X91819465Y-80194880D01*
X91624880Y-80389465D01*
X91471995Y-80618273D01*
X91366686Y-80872510D01*
X91313000Y-81142408D01*
X91313000Y-81417592D01*
X91366686Y-81687490D01*
X91471995Y-81941727D01*
X91624880Y-82170535D01*
X91819465Y-82365120D01*
X91950000Y-82452341D01*
X91950001Y-85187659D01*
X91819465Y-85274880D01*
X91624880Y-85469465D01*
X91471995Y-85698273D01*
X91366686Y-85952510D01*
X91313000Y-86222408D01*
X91313000Y-86497592D01*
X91366686Y-86767490D01*
X91471995Y-87021727D01*
X91624880Y-87250535D01*
X91819465Y-87445120D01*
X91950001Y-87532341D01*
X91950000Y-90267659D01*
X91819465Y-90354880D01*
X91624880Y-90549465D01*
X91471995Y-90778273D01*
X91366686Y-91032510D01*
X91313000Y-91302408D01*
X91313000Y-91577592D01*
X91366686Y-91847490D01*
X91471995Y-92101727D01*
X91624880Y-92330535D01*
X91819465Y-92525120D01*
X91950001Y-92612341D01*
X91950000Y-95347659D01*
X91819465Y-95434880D01*
X91624880Y-95629465D01*
X91471995Y-95858273D01*
X91366686Y-96112510D01*
X91313000Y-96382408D01*
X91313000Y-96657592D01*
X91366686Y-96927490D01*
X91471995Y-97181727D01*
X91624880Y-97410535D01*
X91819465Y-97605120D01*
X91950000Y-97692341D01*
X91950000Y-98387677D01*
X91946324Y-98425000D01*
X91950000Y-98462322D01*
X91950000Y-98462332D01*
X91960997Y-98573985D01*
X92004454Y-98717246D01*
X92075026Y-98849276D01*
X92114871Y-98897826D01*
X92169999Y-98965001D01*
X92199003Y-98988804D01*
X94051201Y-100841003D01*
X94074999Y-100870001D01*
X94190724Y-100964974D01*
X94322753Y-101035546D01*
X94466014Y-101079003D01*
X94577667Y-101090000D01*
X94577677Y-101090000D01*
X94615000Y-101093676D01*
X94652323Y-101090000D01*
X104737678Y-101090000D01*
X104775000Y-101093676D01*
X104812322Y-101090000D01*
X104812333Y-101090000D01*
X104923986Y-101079003D01*
X105067247Y-101035546D01*
X105199276Y-100964974D01*
X105315001Y-100870001D01*
X105338804Y-100840997D01*
X107826008Y-98353795D01*
X107855001Y-98330001D01*
X107878795Y-98301008D01*
X107878799Y-98301004D01*
X107949973Y-98214277D01*
X107949974Y-98214276D01*
X108020546Y-98082247D01*
X108064003Y-97938986D01*
X108075000Y-97827333D01*
X108075000Y-97827324D01*
X108078676Y-97790001D01*
X108075000Y-97752678D01*
X108075000Y-84134801D01*
X112088005Y-80121797D01*
X112117002Y-80098000D01*
X112211975Y-79982275D01*
X112282547Y-79850246D01*
X112326004Y-79706985D01*
X112337001Y-79595332D01*
X112337001Y-79595331D01*
X112340678Y-79557999D01*
X112337001Y-79520666D01*
X112337001Y-63631802D01*
X112606395Y-63362408D01*
X119253000Y-63362408D01*
X119253000Y-63637592D01*
X119306686Y-63907490D01*
X119411995Y-64161727D01*
X119564880Y-64390535D01*
X119759465Y-64585120D01*
X119988273Y-64738005D01*
X120065515Y-64770000D01*
X119988273Y-64801995D01*
X119759465Y-64954880D01*
X119564880Y-65149465D01*
X119411995Y-65378273D01*
X119306686Y-65632510D01*
X119253000Y-65902408D01*
X119253000Y-66177592D01*
X119306686Y-66447490D01*
X119411995Y-66701727D01*
X119564880Y-66930535D01*
X119759465Y-67125120D01*
X119988273Y-67278005D01*
X120065515Y-67310000D01*
X119988273Y-67341995D01*
X119759465Y-67494880D01*
X119564880Y-67689465D01*
X119411995Y-67918273D01*
X119306686Y-68172510D01*
X119253000Y-68442408D01*
X119253000Y-68717592D01*
X119306686Y-68987490D01*
X119411995Y-69241727D01*
X119564880Y-69470535D01*
X119759465Y-69665120D01*
X119988273Y-69818005D01*
X120065515Y-69850000D01*
X119988273Y-69881995D01*
X119759465Y-70034880D01*
X119564880Y-70229465D01*
X119411995Y-70458273D01*
X119306686Y-70712510D01*
X119253000Y-70982408D01*
X119253000Y-71257592D01*
X119306686Y-71527490D01*
X119411995Y-71781727D01*
X119564880Y-72010535D01*
X119759465Y-72205120D01*
X119988273Y-72358005D01*
X120065515Y-72390000D01*
X119988273Y-72421995D01*
X119759465Y-72574880D01*
X119564880Y-72769465D01*
X119411995Y-72998273D01*
X119306686Y-73252510D01*
X119253000Y-73522408D01*
X119253000Y-73797592D01*
X119306686Y-74067490D01*
X119411995Y-74321727D01*
X119564880Y-74550535D01*
X119759465Y-74745120D01*
X119988273Y-74898005D01*
X120065515Y-74930000D01*
X119988273Y-74961995D01*
X119759465Y-75114880D01*
X119564880Y-75309465D01*
X119411995Y-75538273D01*
X119306686Y-75792510D01*
X119253000Y-76062408D01*
X119253000Y-76337592D01*
X119306686Y-76607490D01*
X119411995Y-76861727D01*
X119564880Y-77090535D01*
X119759465Y-77285120D01*
X119988273Y-77438005D01*
X120065515Y-77470000D01*
X119988273Y-77501995D01*
X119759465Y-77654880D01*
X119564880Y-77849465D01*
X119411995Y-78078273D01*
X119306686Y-78332510D01*
X119253000Y-78602408D01*
X119253000Y-78877592D01*
X119306686Y-79147490D01*
X119411995Y-79401727D01*
X119564880Y-79630535D01*
X119759465Y-79825120D01*
X119988273Y-79978005D01*
X120065515Y-80010000D01*
X119988273Y-80041995D01*
X119759465Y-80194880D01*
X119564880Y-80389465D01*
X119411995Y-80618273D01*
X119306686Y-80872510D01*
X119253000Y-81142408D01*
X119253000Y-81417592D01*
X119306686Y-81687490D01*
X119411995Y-81941727D01*
X119564880Y-82170535D01*
X119759465Y-82365120D01*
X119988273Y-82518005D01*
X120065515Y-82550000D01*
X119988273Y-82581995D01*
X119759465Y-82734880D01*
X119564880Y-82929465D01*
X119411995Y-83158273D01*
X119306686Y-83412510D01*
X119253000Y-83682408D01*
X119253000Y-83957592D01*
X119306686Y-84227490D01*
X119411995Y-84481727D01*
X119564880Y-84710535D01*
X119759465Y-84905120D01*
X119988273Y-85058005D01*
X120065515Y-85090000D01*
X119988273Y-85121995D01*
X119759465Y-85274880D01*
X119564880Y-85469465D01*
X119411995Y-85698273D01*
X119306686Y-85952510D01*
X119253000Y-86222408D01*
X119253000Y-86497592D01*
X119306686Y-86767490D01*
X119411995Y-87021727D01*
X119564880Y-87250535D01*
X119759465Y-87445120D01*
X119988273Y-87598005D01*
X120065515Y-87630000D01*
X119988273Y-87661995D01*
X119759465Y-87814880D01*
X119564880Y-88009465D01*
X119411995Y-88238273D01*
X119306686Y-88492510D01*
X119253000Y-88762408D01*
X119253000Y-89037592D01*
X119306686Y-89307490D01*
X119411995Y-89561727D01*
X119564880Y-89790535D01*
X119759465Y-89985120D01*
X119988273Y-90138005D01*
X120065515Y-90170000D01*
X119988273Y-90201995D01*
X119759465Y-90354880D01*
X119564880Y-90549465D01*
X119411995Y-90778273D01*
X119306686Y-91032510D01*
X119253000Y-91302408D01*
X119253000Y-91577592D01*
X119306686Y-91847490D01*
X119411995Y-92101727D01*
X119564880Y-92330535D01*
X119759465Y-92525120D01*
X119988273Y-92678005D01*
X120242510Y-92783314D01*
X120512408Y-92837000D01*
X120787592Y-92837000D01*
X121057490Y-92783314D01*
X121311727Y-92678005D01*
X121540535Y-92525120D01*
X121660090Y-92405565D01*
X154789040Y-92405565D01*
X154856020Y-92645656D01*
X155105048Y-92762756D01*
X155372135Y-92829023D01*
X155647017Y-92841910D01*
X155919133Y-92800922D01*
X156178023Y-92707636D01*
X156293980Y-92645656D01*
X156360960Y-92405565D01*
X155575000Y-91619605D01*
X154789040Y-92405565D01*
X121660090Y-92405565D01*
X121735120Y-92330535D01*
X121888005Y-92101727D01*
X121993314Y-91847490D01*
X122047000Y-91577592D01*
X122047000Y-91512017D01*
X154173090Y-91512017D01*
X154214078Y-91784133D01*
X154307364Y-92043023D01*
X154369344Y-92158980D01*
X154609435Y-92225960D01*
X155395395Y-91440000D01*
X155754605Y-91440000D01*
X156540565Y-92225960D01*
X156780656Y-92158980D01*
X156844485Y-92023240D01*
X156876995Y-92101727D01*
X157029880Y-92330535D01*
X157224465Y-92525120D01*
X157453273Y-92678005D01*
X157707510Y-92783314D01*
X157977408Y-92837000D01*
X158252592Y-92837000D01*
X158522490Y-92783314D01*
X158776727Y-92678005D01*
X159005535Y-92525120D01*
X159200120Y-92330535D01*
X159353005Y-92101727D01*
X159385000Y-92024485D01*
X159416995Y-92101727D01*
X159569880Y-92330535D01*
X159764465Y-92525120D01*
X159993273Y-92678005D01*
X160247510Y-92783314D01*
X160517408Y-92837000D01*
X160792592Y-92837000D01*
X161062490Y-92783314D01*
X161316727Y-92678005D01*
X161545535Y-92525120D01*
X161665090Y-92405565D01*
X169394040Y-92405565D01*
X169461020Y-92645656D01*
X169710048Y-92762756D01*
X169977135Y-92829023D01*
X170252017Y-92841910D01*
X170524133Y-92800922D01*
X170783023Y-92707636D01*
X170898980Y-92645656D01*
X170965960Y-92405565D01*
X170180000Y-91619605D01*
X169394040Y-92405565D01*
X161665090Y-92405565D01*
X161740120Y-92330535D01*
X161893005Y-92101727D01*
X161998314Y-91847490D01*
X162052000Y-91577592D01*
X162052000Y-91512017D01*
X168778090Y-91512017D01*
X168819078Y-91784133D01*
X168912364Y-92043023D01*
X168974344Y-92158980D01*
X169214435Y-92225960D01*
X170000395Y-91440000D01*
X170359605Y-91440000D01*
X171145565Y-92225960D01*
X171385656Y-92158980D01*
X171449485Y-92023240D01*
X171481995Y-92101727D01*
X171634880Y-92330535D01*
X171829465Y-92525120D01*
X172058273Y-92678005D01*
X172312510Y-92783314D01*
X172582408Y-92837000D01*
X172857592Y-92837000D01*
X173127490Y-92783314D01*
X173381727Y-92678005D01*
X173610535Y-92525120D01*
X173805120Y-92330535D01*
X173958005Y-92101727D01*
X173990000Y-92024485D01*
X174021995Y-92101727D01*
X174174880Y-92330535D01*
X174369465Y-92525120D01*
X174598273Y-92678005D01*
X174852510Y-92783314D01*
X175122408Y-92837000D01*
X175397592Y-92837000D01*
X175667490Y-92783314D01*
X175921727Y-92678005D01*
X176150535Y-92525120D01*
X176345120Y-92330535D01*
X176498005Y-92101727D01*
X176603314Y-91847490D01*
X176657000Y-91577592D01*
X176657000Y-91302408D01*
X176603314Y-91032510D01*
X176498005Y-90778273D01*
X176345120Y-90549465D01*
X176150535Y-90354880D01*
X176020000Y-90267659D01*
X176020000Y-84992341D01*
X176150535Y-84905120D01*
X176345120Y-84710535D01*
X176498005Y-84481727D01*
X176603314Y-84227490D01*
X176657000Y-83957592D01*
X176657000Y-83682408D01*
X176603314Y-83412510D01*
X176498005Y-83158273D01*
X176345120Y-82929465D01*
X176150535Y-82734880D01*
X175921727Y-82581995D01*
X175667490Y-82476686D01*
X175397592Y-82423000D01*
X175122408Y-82423000D01*
X174852510Y-82476686D01*
X174598273Y-82581995D01*
X174369465Y-82734880D01*
X174174880Y-82929465D01*
X174021995Y-83158273D01*
X173916686Y-83412510D01*
X173863000Y-83682408D01*
X173863000Y-83957592D01*
X173916686Y-84227490D01*
X174021995Y-84481727D01*
X174174880Y-84710535D01*
X174369465Y-84905120D01*
X174500000Y-84992341D01*
X174500001Y-90267659D01*
X174369465Y-90354880D01*
X174174880Y-90549465D01*
X174021995Y-90778273D01*
X173990000Y-90855515D01*
X173958005Y-90778273D01*
X173805120Y-90549465D01*
X173610535Y-90354880D01*
X173381727Y-90201995D01*
X173127490Y-90096686D01*
X172857592Y-90043000D01*
X172582408Y-90043000D01*
X172312510Y-90096686D01*
X172058273Y-90201995D01*
X171829465Y-90354880D01*
X171634880Y-90549465D01*
X171481995Y-90778273D01*
X171452308Y-90849943D01*
X171447636Y-90836977D01*
X171385656Y-90721020D01*
X171145565Y-90654040D01*
X170359605Y-91440000D01*
X170000395Y-91440000D01*
X169214435Y-90654040D01*
X168974344Y-90721020D01*
X168857244Y-90970048D01*
X168790977Y-91237135D01*
X168778090Y-91512017D01*
X162052000Y-91512017D01*
X162052000Y-91302408D01*
X161998314Y-91032510D01*
X161893005Y-90778273D01*
X161740120Y-90549465D01*
X161665090Y-90474435D01*
X169394040Y-90474435D01*
X170180000Y-91260395D01*
X170965960Y-90474435D01*
X170898980Y-90234344D01*
X170649952Y-90117244D01*
X170382865Y-90050977D01*
X170107983Y-90038090D01*
X169835867Y-90079078D01*
X169576977Y-90172364D01*
X169461020Y-90234344D01*
X169394040Y-90474435D01*
X161665090Y-90474435D01*
X161545535Y-90354880D01*
X161415000Y-90267659D01*
X161415000Y-84992341D01*
X161545535Y-84905120D01*
X161665090Y-84785565D01*
X169394040Y-84785565D01*
X169461020Y-85025656D01*
X169710048Y-85142756D01*
X169977135Y-85209023D01*
X170252017Y-85221910D01*
X170524133Y-85180922D01*
X170783023Y-85087636D01*
X170898980Y-85025656D01*
X170965960Y-84785565D01*
X170180000Y-83999605D01*
X169394040Y-84785565D01*
X161665090Y-84785565D01*
X161740120Y-84710535D01*
X161893005Y-84481727D01*
X161998314Y-84227490D01*
X162052000Y-83957592D01*
X162052000Y-83892017D01*
X168778090Y-83892017D01*
X168819078Y-84164133D01*
X168912364Y-84423023D01*
X168974344Y-84538980D01*
X169214435Y-84605960D01*
X170000395Y-83820000D01*
X170359605Y-83820000D01*
X171145565Y-84605960D01*
X171385656Y-84538980D01*
X171502756Y-84289952D01*
X171569023Y-84022865D01*
X171581910Y-83747983D01*
X171540922Y-83475867D01*
X171447636Y-83216977D01*
X171385656Y-83101020D01*
X171145565Y-83034040D01*
X170359605Y-83820000D01*
X170000395Y-83820000D01*
X169214435Y-83034040D01*
X168974344Y-83101020D01*
X168857244Y-83350048D01*
X168790977Y-83617135D01*
X168778090Y-83892017D01*
X162052000Y-83892017D01*
X162052000Y-83682408D01*
X161998314Y-83412510D01*
X161893005Y-83158273D01*
X161740120Y-82929465D01*
X161665090Y-82854435D01*
X169394040Y-82854435D01*
X170180000Y-83640395D01*
X170965960Y-82854435D01*
X170898980Y-82614344D01*
X170649952Y-82497244D01*
X170382865Y-82430977D01*
X170107983Y-82418090D01*
X169835867Y-82459078D01*
X169576977Y-82552364D01*
X169461020Y-82614344D01*
X169394040Y-82854435D01*
X161665090Y-82854435D01*
X161545535Y-82734880D01*
X161316727Y-82581995D01*
X161062490Y-82476686D01*
X160792592Y-82423000D01*
X160517408Y-82423000D01*
X160247510Y-82476686D01*
X159993273Y-82581995D01*
X159764465Y-82734880D01*
X159569880Y-82929465D01*
X159416995Y-83158273D01*
X159311686Y-83412510D01*
X159258000Y-83682408D01*
X159258000Y-83957592D01*
X159311686Y-84227490D01*
X159416995Y-84481727D01*
X159569880Y-84710535D01*
X159764465Y-84905120D01*
X159895000Y-84992341D01*
X159895001Y-90267659D01*
X159764465Y-90354880D01*
X159569880Y-90549465D01*
X159416995Y-90778273D01*
X159385000Y-90855515D01*
X159353005Y-90778273D01*
X159200120Y-90549465D01*
X159005535Y-90354880D01*
X158776727Y-90201995D01*
X158522490Y-90096686D01*
X158252592Y-90043000D01*
X157977408Y-90043000D01*
X157707510Y-90096686D01*
X157453273Y-90201995D01*
X157224465Y-90354880D01*
X157029880Y-90549465D01*
X156876995Y-90778273D01*
X156847308Y-90849943D01*
X156842636Y-90836977D01*
X156780656Y-90721020D01*
X156540565Y-90654040D01*
X155754605Y-91440000D01*
X155395395Y-91440000D01*
X154609435Y-90654040D01*
X154369344Y-90721020D01*
X154252244Y-90970048D01*
X154185977Y-91237135D01*
X154173090Y-91512017D01*
X122047000Y-91512017D01*
X122047000Y-91302408D01*
X121993314Y-91032510D01*
X121888005Y-90778273D01*
X121735120Y-90549465D01*
X121660090Y-90474435D01*
X154789040Y-90474435D01*
X155575000Y-91260395D01*
X156360960Y-90474435D01*
X156293980Y-90234344D01*
X156044952Y-90117244D01*
X155777865Y-90050977D01*
X155502983Y-90038090D01*
X155230867Y-90079078D01*
X154971977Y-90172364D01*
X154856020Y-90234344D01*
X154789040Y-90474435D01*
X121660090Y-90474435D01*
X121540535Y-90354880D01*
X121311727Y-90201995D01*
X121234485Y-90170000D01*
X121311727Y-90138005D01*
X121540535Y-89985120D01*
X121735120Y-89790535D01*
X121888005Y-89561727D01*
X121993314Y-89307490D01*
X122047000Y-89037592D01*
X122047000Y-88762408D01*
X121993314Y-88492510D01*
X121888005Y-88238273D01*
X121735120Y-88009465D01*
X121540535Y-87814880D01*
X121311727Y-87661995D01*
X121234485Y-87630000D01*
X121311727Y-87598005D01*
X121540535Y-87445120D01*
X121735120Y-87250535D01*
X121888005Y-87021727D01*
X121993314Y-86767490D01*
X122047000Y-86497592D01*
X122047000Y-86222408D01*
X121993314Y-85952510D01*
X121888005Y-85698273D01*
X121735120Y-85469465D01*
X121540535Y-85274880D01*
X121311727Y-85121995D01*
X121234485Y-85090000D01*
X121311727Y-85058005D01*
X121540535Y-84905120D01*
X121735120Y-84710535D01*
X121888005Y-84481727D01*
X121993314Y-84227490D01*
X122047000Y-83957592D01*
X122047000Y-83682408D01*
X121993314Y-83412510D01*
X121888005Y-83158273D01*
X121735120Y-82929465D01*
X121540535Y-82734880D01*
X121311727Y-82581995D01*
X121234485Y-82550000D01*
X121311727Y-82518005D01*
X121540535Y-82365120D01*
X121735120Y-82170535D01*
X121822341Y-82040000D01*
X124557659Y-82040000D01*
X124644880Y-82170535D01*
X124839465Y-82365120D01*
X125068273Y-82518005D01*
X125145515Y-82550000D01*
X125068273Y-82581995D01*
X124839465Y-82734880D01*
X124644880Y-82929465D01*
X124491995Y-83158273D01*
X124386686Y-83412510D01*
X124333000Y-83682408D01*
X124333000Y-83957592D01*
X124386686Y-84227490D01*
X124491995Y-84481727D01*
X124644880Y-84710535D01*
X124839465Y-84905120D01*
X125068273Y-85058005D01*
X125145515Y-85090000D01*
X125068273Y-85121995D01*
X124839465Y-85274880D01*
X124644880Y-85469465D01*
X124491995Y-85698273D01*
X124386686Y-85952510D01*
X124333000Y-86222408D01*
X124333000Y-86497592D01*
X124386686Y-86767490D01*
X124491995Y-87021727D01*
X124644880Y-87250535D01*
X124839465Y-87445120D01*
X125068273Y-87598005D01*
X125322510Y-87703314D01*
X125592408Y-87757000D01*
X125867592Y-87757000D01*
X126137490Y-87703314D01*
X126391727Y-87598005D01*
X126620535Y-87445120D01*
X126740090Y-87325565D01*
X145264040Y-87325565D01*
X145331020Y-87565656D01*
X145580048Y-87682756D01*
X145847135Y-87749023D01*
X146122017Y-87761910D01*
X146394133Y-87720922D01*
X146653023Y-87627636D01*
X146768980Y-87565656D01*
X146835960Y-87325565D01*
X146050000Y-86539605D01*
X145264040Y-87325565D01*
X126740090Y-87325565D01*
X126815120Y-87250535D01*
X126968005Y-87021727D01*
X127073314Y-86767490D01*
X127127000Y-86497592D01*
X127127000Y-86432017D01*
X144648090Y-86432017D01*
X144689078Y-86704133D01*
X144782364Y-86963023D01*
X144844344Y-87078980D01*
X145084435Y-87145960D01*
X145870395Y-86360000D01*
X146229605Y-86360000D01*
X147015565Y-87145960D01*
X147255656Y-87078980D01*
X147372756Y-86829952D01*
X147439023Y-86562865D01*
X147451910Y-86287983D01*
X147410922Y-86015867D01*
X147317636Y-85756977D01*
X147255656Y-85641020D01*
X147015565Y-85574040D01*
X146229605Y-86360000D01*
X145870395Y-86360000D01*
X145084435Y-85574040D01*
X144844344Y-85641020D01*
X144727244Y-85890048D01*
X144660977Y-86157135D01*
X144648090Y-86432017D01*
X127127000Y-86432017D01*
X127127000Y-86222408D01*
X127073314Y-85952510D01*
X126968005Y-85698273D01*
X126815120Y-85469465D01*
X126620535Y-85274880D01*
X126391727Y-85121995D01*
X126314485Y-85090000D01*
X126391727Y-85058005D01*
X126620535Y-84905120D01*
X126815120Y-84710535D01*
X126968005Y-84481727D01*
X127073314Y-84227490D01*
X127127000Y-83957592D01*
X127127000Y-83682408D01*
X127073314Y-83412510D01*
X126968005Y-83158273D01*
X126815120Y-82929465D01*
X126620535Y-82734880D01*
X126391727Y-82581995D01*
X126314485Y-82550000D01*
X126391727Y-82518005D01*
X126620535Y-82365120D01*
X126815120Y-82170535D01*
X126968005Y-81941727D01*
X127073314Y-81687490D01*
X127127000Y-81417592D01*
X127127000Y-81142408D01*
X144653000Y-81142408D01*
X144653000Y-81417592D01*
X144706686Y-81687490D01*
X144811995Y-81941727D01*
X144964880Y-82170535D01*
X145159465Y-82365120D01*
X145388273Y-82518005D01*
X145465515Y-82550000D01*
X145388273Y-82581995D01*
X145159465Y-82734880D01*
X144964880Y-82929465D01*
X144811995Y-83158273D01*
X144706686Y-83412510D01*
X144653000Y-83682408D01*
X144653000Y-83957592D01*
X144706686Y-84227490D01*
X144811995Y-84481727D01*
X144964880Y-84710535D01*
X145159465Y-84905120D01*
X145388273Y-85058005D01*
X145459943Y-85087692D01*
X145446977Y-85092364D01*
X145331020Y-85154344D01*
X145264040Y-85394435D01*
X146050000Y-86180395D01*
X146835960Y-85394435D01*
X146768980Y-85154344D01*
X146633240Y-85090515D01*
X146711727Y-85058005D01*
X146940535Y-84905120D01*
X147060090Y-84785565D01*
X154789040Y-84785565D01*
X154856020Y-85025656D01*
X155105048Y-85142756D01*
X155372135Y-85209023D01*
X155647017Y-85221910D01*
X155919133Y-85180922D01*
X156178023Y-85087636D01*
X156293980Y-85025656D01*
X156360960Y-84785565D01*
X155575000Y-83999605D01*
X154789040Y-84785565D01*
X147060090Y-84785565D01*
X147135120Y-84710535D01*
X147222341Y-84580000D01*
X149187678Y-84580000D01*
X149225000Y-84583676D01*
X149262322Y-84580000D01*
X149262333Y-84580000D01*
X149373986Y-84569003D01*
X149517247Y-84525546D01*
X149649276Y-84454974D01*
X149765001Y-84360001D01*
X149788804Y-84330997D01*
X150227784Y-83892017D01*
X154173090Y-83892017D01*
X154214078Y-84164133D01*
X154307364Y-84423023D01*
X154369344Y-84538980D01*
X154609435Y-84605960D01*
X155395395Y-83820000D01*
X155754605Y-83820000D01*
X156540565Y-84605960D01*
X156780656Y-84538980D01*
X156897756Y-84289952D01*
X156964023Y-84022865D01*
X156976910Y-83747983D01*
X156935922Y-83475867D01*
X156842636Y-83216977D01*
X156780656Y-83101020D01*
X156540565Y-83034040D01*
X155754605Y-83820000D01*
X155395395Y-83820000D01*
X154609435Y-83034040D01*
X154369344Y-83101020D01*
X154252244Y-83350048D01*
X154185977Y-83617135D01*
X154173090Y-83892017D01*
X150227784Y-83892017D01*
X151265366Y-82854435D01*
X154789040Y-82854435D01*
X155575000Y-83640395D01*
X156360960Y-82854435D01*
X156293980Y-82614344D01*
X156044952Y-82497244D01*
X155777865Y-82430977D01*
X155502983Y-82418090D01*
X155230867Y-82459078D01*
X154971977Y-82552364D01*
X154856020Y-82614344D01*
X154789040Y-82854435D01*
X151265366Y-82854435D01*
X159896004Y-74223798D01*
X159925001Y-74200001D01*
X160019974Y-74084276D01*
X160090546Y-73952247D01*
X160134003Y-73808986D01*
X160145000Y-73697333D01*
X160145000Y-73697325D01*
X160148676Y-73660000D01*
X160145000Y-73622675D01*
X160145000Y-49432341D01*
X160275535Y-49345120D01*
X160470120Y-49150535D01*
X160623005Y-48921727D01*
X160655000Y-48844485D01*
X160686995Y-48921727D01*
X160839880Y-49150535D01*
X161034465Y-49345120D01*
X161263273Y-49498005D01*
X161517510Y-49603314D01*
X161787408Y-49657000D01*
X162062592Y-49657000D01*
X162332490Y-49603314D01*
X162586727Y-49498005D01*
X162815535Y-49345120D01*
X162935090Y-49225565D01*
X168124040Y-49225565D01*
X168191020Y-49465656D01*
X168440048Y-49582756D01*
X168707135Y-49649023D01*
X168982017Y-49661910D01*
X169254133Y-49620922D01*
X169513023Y-49527636D01*
X169628980Y-49465656D01*
X169695960Y-49225565D01*
X170664040Y-49225565D01*
X170731020Y-49465656D01*
X170980048Y-49582756D01*
X171247135Y-49649023D01*
X171522017Y-49661910D01*
X171794133Y-49620922D01*
X172053023Y-49527636D01*
X172168980Y-49465656D01*
X172235960Y-49225565D01*
X171450000Y-48439605D01*
X170664040Y-49225565D01*
X169695960Y-49225565D01*
X168910000Y-48439605D01*
X168124040Y-49225565D01*
X162935090Y-49225565D01*
X163010120Y-49150535D01*
X163163005Y-48921727D01*
X163268314Y-48667490D01*
X163322000Y-48397592D01*
X163322000Y-48332017D01*
X167508090Y-48332017D01*
X167549078Y-48604133D01*
X167642364Y-48863023D01*
X167704344Y-48978980D01*
X167944435Y-49045960D01*
X168730395Y-48260000D01*
X169089605Y-48260000D01*
X169875565Y-49045960D01*
X170115656Y-48978980D01*
X170177079Y-48848356D01*
X170182364Y-48863023D01*
X170244344Y-48978980D01*
X170484435Y-49045960D01*
X171270395Y-48260000D01*
X170484435Y-47474040D01*
X170244344Y-47541020D01*
X170182921Y-47671644D01*
X170177636Y-47656977D01*
X170115656Y-47541020D01*
X169875565Y-47474040D01*
X169089605Y-48260000D01*
X168730395Y-48260000D01*
X167944435Y-47474040D01*
X167704344Y-47541020D01*
X167587244Y-47790048D01*
X167520977Y-48057135D01*
X167508090Y-48332017D01*
X163322000Y-48332017D01*
X163322000Y-48122408D01*
X163268314Y-47852510D01*
X163163005Y-47598273D01*
X163010120Y-47369465D01*
X162935090Y-47294435D01*
X168124040Y-47294435D01*
X168910000Y-48080395D01*
X169695960Y-47294435D01*
X169628980Y-47054344D01*
X169379952Y-46937244D01*
X169112865Y-46870977D01*
X168837983Y-46858090D01*
X168565867Y-46899078D01*
X168306977Y-46992364D01*
X168191020Y-47054344D01*
X168124040Y-47294435D01*
X162935090Y-47294435D01*
X162815535Y-47174880D01*
X162586727Y-47021995D01*
X162332490Y-46916686D01*
X162062592Y-46863000D01*
X161787408Y-46863000D01*
X161517510Y-46916686D01*
X161263273Y-47021995D01*
X161034465Y-47174880D01*
X160839880Y-47369465D01*
X160686995Y-47598273D01*
X160655000Y-47675515D01*
X160623005Y-47598273D01*
X160470120Y-47369465D01*
X160275535Y-47174880D01*
X160046727Y-47021995D01*
X159792490Y-46916686D01*
X159522592Y-46863000D01*
X159247408Y-46863000D01*
X158977510Y-46916686D01*
X158723273Y-47021995D01*
X158494465Y-47174880D01*
X158299880Y-47369465D01*
X158146995Y-47598273D01*
X158117308Y-47669943D01*
X158112636Y-47656977D01*
X158050656Y-47541020D01*
X157810565Y-47474040D01*
X157024605Y-48260000D01*
X157810565Y-49045960D01*
X158050656Y-48978980D01*
X158114485Y-48843240D01*
X158146995Y-48921727D01*
X158299880Y-49150535D01*
X158494465Y-49345120D01*
X158625001Y-49432342D01*
X158625000Y-73345198D01*
X148910199Y-83060000D01*
X147222341Y-83060000D01*
X147135120Y-82929465D01*
X146940535Y-82734880D01*
X146711727Y-82581995D01*
X146634485Y-82550000D01*
X146711727Y-82518005D01*
X146940535Y-82365120D01*
X147135120Y-82170535D01*
X147288005Y-81941727D01*
X147393314Y-81687490D01*
X147447000Y-81417592D01*
X147447000Y-81142408D01*
X147416372Y-80988429D01*
X150371004Y-78033798D01*
X150400001Y-78010001D01*
X150494974Y-77894276D01*
X150565546Y-77762247D01*
X150609003Y-77618986D01*
X150620000Y-77507333D01*
X150620000Y-77507325D01*
X150623676Y-77470000D01*
X150620000Y-77432675D01*
X150620000Y-49844801D01*
X151239236Y-49225565D01*
X153519040Y-49225565D01*
X153586020Y-49465656D01*
X153835048Y-49582756D01*
X154102135Y-49649023D01*
X154377017Y-49661910D01*
X154649133Y-49620922D01*
X154908023Y-49527636D01*
X155023980Y-49465656D01*
X155090960Y-49225565D01*
X156059040Y-49225565D01*
X156126020Y-49465656D01*
X156375048Y-49582756D01*
X156642135Y-49649023D01*
X156917017Y-49661910D01*
X157189133Y-49620922D01*
X157448023Y-49527636D01*
X157563980Y-49465656D01*
X157630960Y-49225565D01*
X156845000Y-48439605D01*
X156059040Y-49225565D01*
X155090960Y-49225565D01*
X154305000Y-48439605D01*
X153519040Y-49225565D01*
X151239236Y-49225565D01*
X152132784Y-48332017D01*
X152903090Y-48332017D01*
X152944078Y-48604133D01*
X153037364Y-48863023D01*
X153099344Y-48978980D01*
X153339435Y-49045960D01*
X154125395Y-48260000D01*
X154484605Y-48260000D01*
X155270565Y-49045960D01*
X155510656Y-48978980D01*
X155572079Y-48848356D01*
X155577364Y-48863023D01*
X155639344Y-48978980D01*
X155879435Y-49045960D01*
X156665395Y-48260000D01*
X155879435Y-47474040D01*
X155639344Y-47541020D01*
X155577921Y-47671644D01*
X155572636Y-47656977D01*
X155510656Y-47541020D01*
X155270565Y-47474040D01*
X154484605Y-48260000D01*
X154125395Y-48260000D01*
X153339435Y-47474040D01*
X153099344Y-47541020D01*
X152982244Y-47790048D01*
X152915977Y-48057135D01*
X152903090Y-48332017D01*
X152132784Y-48332017D01*
X153170366Y-47294435D01*
X153519040Y-47294435D01*
X154305000Y-48080395D01*
X155090960Y-47294435D01*
X156059040Y-47294435D01*
X156845000Y-48080395D01*
X157630960Y-47294435D01*
X157563980Y-47054344D01*
X157314952Y-46937244D01*
X157047865Y-46870977D01*
X156772983Y-46858090D01*
X156500867Y-46899078D01*
X156241977Y-46992364D01*
X156126020Y-47054344D01*
X156059040Y-47294435D01*
X155090960Y-47294435D01*
X155023980Y-47054344D01*
X154774952Y-46937244D01*
X154507865Y-46870977D01*
X154232983Y-46858090D01*
X153960867Y-46899078D01*
X153701977Y-46992364D01*
X153586020Y-47054344D01*
X153519040Y-47294435D01*
X153170366Y-47294435D01*
X153984802Y-46480000D01*
X171135199Y-46480000D01*
X171519944Y-46864745D01*
X171377983Y-46858090D01*
X171105867Y-46899078D01*
X170846977Y-46992364D01*
X170731020Y-47054344D01*
X170664040Y-47294435D01*
X171450000Y-48080395D01*
X171464143Y-48066253D01*
X171643748Y-48245858D01*
X171629605Y-48260000D01*
X172415565Y-49045960D01*
X172655656Y-48978980D01*
X172719485Y-48843240D01*
X172751995Y-48921727D01*
X172904880Y-49150535D01*
X173099465Y-49345120D01*
X173328273Y-49498005D01*
X173582510Y-49603314D01*
X173852408Y-49657000D01*
X174127592Y-49657000D01*
X174397490Y-49603314D01*
X174651727Y-49498005D01*
X174880535Y-49345120D01*
X175075120Y-49150535D01*
X175228005Y-48921727D01*
X175260000Y-48844485D01*
X175291995Y-48921727D01*
X175444880Y-49150535D01*
X175639465Y-49345120D01*
X175868273Y-49498005D01*
X176122510Y-49603314D01*
X176392408Y-49657000D01*
X176667592Y-49657000D01*
X176937490Y-49603314D01*
X177191727Y-49498005D01*
X177420535Y-49345120D01*
X177615120Y-49150535D01*
X177768005Y-48921727D01*
X177873314Y-48667490D01*
X177927000Y-48397592D01*
X177927000Y-48122408D01*
X177873314Y-47852510D01*
X177768005Y-47598273D01*
X177615120Y-47369465D01*
X177420535Y-47174880D01*
X177191727Y-47021995D01*
X176937490Y-46916686D01*
X176667592Y-46863000D01*
X176392408Y-46863000D01*
X176122510Y-46916686D01*
X175868273Y-47021995D01*
X175639465Y-47174880D01*
X175444880Y-47369465D01*
X175291995Y-47598273D01*
X175260000Y-47675515D01*
X175228005Y-47598273D01*
X175075120Y-47369465D01*
X174880535Y-47174880D01*
X174651727Y-47021995D01*
X174397490Y-46916686D01*
X174127592Y-46863000D01*
X173852408Y-46863000D01*
X173698430Y-46893628D01*
X172013804Y-45209003D01*
X171990001Y-45179999D01*
X171874276Y-45085026D01*
X171742247Y-45014454D01*
X171598986Y-44970997D01*
X171487333Y-44960000D01*
X171487322Y-44960000D01*
X171450000Y-44956324D01*
X171412678Y-44960000D01*
X153707325Y-44960000D01*
X153670000Y-44956324D01*
X153632675Y-44960000D01*
X153632667Y-44960000D01*
X153521014Y-44970997D01*
X153377753Y-45014454D01*
X153245724Y-45085026D01*
X153129999Y-45179999D01*
X153106201Y-45208997D01*
X149348998Y-48966201D01*
X149320000Y-48989999D01*
X149296202Y-49018997D01*
X149296201Y-49018998D01*
X149225026Y-49105724D01*
X149154454Y-49237754D01*
X149110998Y-49381015D01*
X149096324Y-49530000D01*
X149100001Y-49567333D01*
X149100000Y-77155198D01*
X147445255Y-78809944D01*
X147451910Y-78667983D01*
X147410922Y-78395867D01*
X147317636Y-78136977D01*
X147255656Y-78021020D01*
X147015565Y-77954040D01*
X146229605Y-78740000D01*
X146243748Y-78754143D01*
X146064143Y-78933748D01*
X146050000Y-78919605D01*
X145264040Y-79705565D01*
X145331020Y-79945656D01*
X145466760Y-80009485D01*
X145388273Y-80041995D01*
X145159465Y-80194880D01*
X144964880Y-80389465D01*
X144811995Y-80618273D01*
X144706686Y-80872510D01*
X144653000Y-81142408D01*
X127127000Y-81142408D01*
X127073314Y-80872510D01*
X126968005Y-80618273D01*
X126815120Y-80389465D01*
X126620535Y-80194880D01*
X126391727Y-80041995D01*
X126314485Y-80010000D01*
X126391727Y-79978005D01*
X126620535Y-79825120D01*
X126815120Y-79630535D01*
X126968005Y-79401727D01*
X127073314Y-79147490D01*
X127127000Y-78877592D01*
X127127000Y-78812017D01*
X144648090Y-78812017D01*
X144689078Y-79084133D01*
X144782364Y-79343023D01*
X144844344Y-79458980D01*
X145084435Y-79525960D01*
X145870395Y-78740000D01*
X145084435Y-77954040D01*
X144844344Y-78021020D01*
X144727244Y-78270048D01*
X144660977Y-78537135D01*
X144648090Y-78812017D01*
X127127000Y-78812017D01*
X127127000Y-78602408D01*
X127073314Y-78332510D01*
X126968005Y-78078273D01*
X126815120Y-77849465D01*
X126620535Y-77654880D01*
X126391727Y-77501995D01*
X126314485Y-77470000D01*
X126391727Y-77438005D01*
X126620535Y-77285120D01*
X126815120Y-77090535D01*
X126968005Y-76861727D01*
X127073314Y-76607490D01*
X127127000Y-76337592D01*
X127127000Y-76062408D01*
X127073314Y-75792510D01*
X126968005Y-75538273D01*
X126815120Y-75309465D01*
X126620535Y-75114880D01*
X126391727Y-74961995D01*
X126314485Y-74930000D01*
X126391727Y-74898005D01*
X126620535Y-74745120D01*
X126815120Y-74550535D01*
X126968005Y-74321727D01*
X127073314Y-74067490D01*
X127127000Y-73797592D01*
X127127000Y-73522408D01*
X127073314Y-73252510D01*
X126968005Y-72998273D01*
X126815120Y-72769465D01*
X126620535Y-72574880D01*
X126391727Y-72421995D01*
X126314485Y-72390000D01*
X126391727Y-72358005D01*
X126620535Y-72205120D01*
X126815120Y-72010535D01*
X126968005Y-71781727D01*
X127073314Y-71527490D01*
X127127000Y-71257592D01*
X127127000Y-70982408D01*
X127073314Y-70712510D01*
X126968005Y-70458273D01*
X126815120Y-70229465D01*
X126620535Y-70034880D01*
X126391727Y-69881995D01*
X126314485Y-69850000D01*
X126391727Y-69818005D01*
X126620535Y-69665120D01*
X126815120Y-69470535D01*
X126968005Y-69241727D01*
X127073314Y-68987490D01*
X127127000Y-68717592D01*
X127127000Y-68442408D01*
X127073314Y-68172510D01*
X126968005Y-67918273D01*
X126815120Y-67689465D01*
X126620535Y-67494880D01*
X126391727Y-67341995D01*
X126314485Y-67310000D01*
X126391727Y-67278005D01*
X126620535Y-67125120D01*
X126815120Y-66930535D01*
X126968005Y-66701727D01*
X127073314Y-66447490D01*
X127127000Y-66177592D01*
X127127000Y-65902408D01*
X144653000Y-65902408D01*
X144653000Y-66177592D01*
X144706686Y-66447490D01*
X144811995Y-66701727D01*
X144964880Y-66930535D01*
X145159465Y-67125120D01*
X145388273Y-67278005D01*
X145465515Y-67310000D01*
X145388273Y-67341995D01*
X145159465Y-67494880D01*
X144964880Y-67689465D01*
X144811995Y-67918273D01*
X144706686Y-68172510D01*
X144653000Y-68442408D01*
X144653000Y-68717592D01*
X144706686Y-68987490D01*
X144811995Y-69241727D01*
X144964880Y-69470535D01*
X145159465Y-69665120D01*
X145388273Y-69818005D01*
X145465515Y-69850000D01*
X145388273Y-69881995D01*
X145159465Y-70034880D01*
X144964880Y-70229465D01*
X144811995Y-70458273D01*
X144706686Y-70712510D01*
X144653000Y-70982408D01*
X144653000Y-71257592D01*
X144706686Y-71527490D01*
X144811995Y-71781727D01*
X144964880Y-72010535D01*
X145159465Y-72205120D01*
X145388273Y-72358005D01*
X145465515Y-72390000D01*
X145388273Y-72421995D01*
X145159465Y-72574880D01*
X144964880Y-72769465D01*
X144811995Y-72998273D01*
X144706686Y-73252510D01*
X144653000Y-73522408D01*
X144653000Y-73797592D01*
X144706686Y-74067490D01*
X144811995Y-74321727D01*
X144964880Y-74550535D01*
X145159465Y-74745120D01*
X145388273Y-74898005D01*
X145465515Y-74930000D01*
X145388273Y-74961995D01*
X145159465Y-75114880D01*
X144964880Y-75309465D01*
X144811995Y-75538273D01*
X144706686Y-75792510D01*
X144653000Y-76062408D01*
X144653000Y-76337592D01*
X144706686Y-76607490D01*
X144811995Y-76861727D01*
X144964880Y-77090535D01*
X145159465Y-77285120D01*
X145388273Y-77438005D01*
X145459943Y-77467692D01*
X145446977Y-77472364D01*
X145331020Y-77534344D01*
X145264040Y-77774435D01*
X146050000Y-78560395D01*
X146835960Y-77774435D01*
X146768980Y-77534344D01*
X146633240Y-77470515D01*
X146711727Y-77438005D01*
X146940535Y-77285120D01*
X147135120Y-77090535D01*
X147288005Y-76861727D01*
X147393314Y-76607490D01*
X147447000Y-76337592D01*
X147447000Y-76062408D01*
X147393314Y-75792510D01*
X147288005Y-75538273D01*
X147135120Y-75309465D01*
X146940535Y-75114880D01*
X146711727Y-74961995D01*
X146634485Y-74930000D01*
X146711727Y-74898005D01*
X146940535Y-74745120D01*
X147135120Y-74550535D01*
X147288005Y-74321727D01*
X147393314Y-74067490D01*
X147447000Y-73797592D01*
X147447000Y-73522408D01*
X147393314Y-73252510D01*
X147288005Y-72998273D01*
X147135120Y-72769465D01*
X146940535Y-72574880D01*
X146711727Y-72421995D01*
X146634485Y-72390000D01*
X146711727Y-72358005D01*
X146940535Y-72205120D01*
X147135120Y-72010535D01*
X147288005Y-71781727D01*
X147393314Y-71527490D01*
X147447000Y-71257592D01*
X147447000Y-70982408D01*
X147393314Y-70712510D01*
X147288005Y-70458273D01*
X147135120Y-70229465D01*
X146940535Y-70034880D01*
X146711727Y-69881995D01*
X146634485Y-69850000D01*
X146711727Y-69818005D01*
X146940535Y-69665120D01*
X147135120Y-69470535D01*
X147288005Y-69241727D01*
X147393314Y-68987490D01*
X147447000Y-68717592D01*
X147447000Y-68442408D01*
X147393314Y-68172510D01*
X147288005Y-67918273D01*
X147135120Y-67689465D01*
X146940535Y-67494880D01*
X146711727Y-67341995D01*
X146634485Y-67310000D01*
X146711727Y-67278005D01*
X146940535Y-67125120D01*
X147135120Y-66930535D01*
X147288005Y-66701727D01*
X147393314Y-66447490D01*
X147447000Y-66177592D01*
X147447000Y-65902408D01*
X147393314Y-65632510D01*
X147288005Y-65378273D01*
X147135120Y-65149465D01*
X146940535Y-64954880D01*
X146711727Y-64801995D01*
X146640057Y-64772308D01*
X146653023Y-64767636D01*
X146768980Y-64705656D01*
X146835960Y-64465565D01*
X146050000Y-63679605D01*
X145264040Y-64465565D01*
X145331020Y-64705656D01*
X145466760Y-64769485D01*
X145388273Y-64801995D01*
X145159465Y-64954880D01*
X144964880Y-65149465D01*
X144811995Y-65378273D01*
X144706686Y-65632510D01*
X144653000Y-65902408D01*
X127127000Y-65902408D01*
X127073314Y-65632510D01*
X126968005Y-65378273D01*
X126815120Y-65149465D01*
X126620535Y-64954880D01*
X126391727Y-64801995D01*
X126314485Y-64770000D01*
X126391727Y-64738005D01*
X126620535Y-64585120D01*
X126815120Y-64390535D01*
X126968005Y-64161727D01*
X127073314Y-63907490D01*
X127127000Y-63637592D01*
X127127000Y-63572017D01*
X144648090Y-63572017D01*
X144689078Y-63844133D01*
X144782364Y-64103023D01*
X144844344Y-64218980D01*
X145084435Y-64285960D01*
X145870395Y-63500000D01*
X146229605Y-63500000D01*
X147015565Y-64285960D01*
X147255656Y-64218980D01*
X147372756Y-63969952D01*
X147439023Y-63702865D01*
X147451910Y-63427983D01*
X147410922Y-63155867D01*
X147317636Y-62896977D01*
X147255656Y-62781020D01*
X147015565Y-62714040D01*
X146229605Y-63500000D01*
X145870395Y-63500000D01*
X145084435Y-62714040D01*
X144844344Y-62781020D01*
X144727244Y-63030048D01*
X144660977Y-63297135D01*
X144648090Y-63572017D01*
X127127000Y-63572017D01*
X127127000Y-63362408D01*
X127073314Y-63092510D01*
X126968005Y-62838273D01*
X126815120Y-62609465D01*
X126620535Y-62414880D01*
X126391727Y-62261995D01*
X126314485Y-62230000D01*
X126391727Y-62198005D01*
X126620535Y-62045120D01*
X126815120Y-61850535D01*
X126968005Y-61621727D01*
X127073314Y-61367490D01*
X127127000Y-61097592D01*
X127127000Y-60822408D01*
X127073314Y-60552510D01*
X126968005Y-60298273D01*
X126815120Y-60069465D01*
X126620535Y-59874880D01*
X126391727Y-59721995D01*
X126137490Y-59616686D01*
X125867592Y-59563000D01*
X125592408Y-59563000D01*
X125322510Y-59616686D01*
X125068273Y-59721995D01*
X124839465Y-59874880D01*
X124644880Y-60069465D01*
X124491995Y-60298273D01*
X124386686Y-60552510D01*
X124333000Y-60822408D01*
X124333000Y-61097592D01*
X124386686Y-61367490D01*
X124491995Y-61621727D01*
X124644880Y-61850535D01*
X124839465Y-62045120D01*
X125068273Y-62198005D01*
X125145515Y-62230000D01*
X125068273Y-62261995D01*
X124839465Y-62414880D01*
X124644880Y-62609465D01*
X124557659Y-62740000D01*
X121822341Y-62740000D01*
X121735120Y-62609465D01*
X121540535Y-62414880D01*
X121311727Y-62261995D01*
X121057490Y-62156686D01*
X120787592Y-62103000D01*
X120512408Y-62103000D01*
X120242510Y-62156686D01*
X119988273Y-62261995D01*
X119759465Y-62414880D01*
X119564880Y-62609465D01*
X119411995Y-62838273D01*
X119306686Y-63092510D01*
X119253000Y-63362408D01*
X112606395Y-63362408D01*
X119328804Y-56640000D01*
X140655199Y-56640000D01*
X144683628Y-60668430D01*
X144653000Y-60822408D01*
X144653000Y-61097592D01*
X144706686Y-61367490D01*
X144811995Y-61621727D01*
X144964880Y-61850535D01*
X145159465Y-62045120D01*
X145388273Y-62198005D01*
X145459943Y-62227692D01*
X145446977Y-62232364D01*
X145331020Y-62294344D01*
X145264040Y-62534435D01*
X146050000Y-63320395D01*
X146835960Y-62534435D01*
X146768980Y-62294344D01*
X146633240Y-62230515D01*
X146711727Y-62198005D01*
X146940535Y-62045120D01*
X147135120Y-61850535D01*
X147288005Y-61621727D01*
X147393314Y-61367490D01*
X147447000Y-61097592D01*
X147447000Y-60822408D01*
X147393314Y-60552510D01*
X147288005Y-60298273D01*
X147135120Y-60069465D01*
X146940535Y-59874880D01*
X146711727Y-59721995D01*
X146457490Y-59616686D01*
X146187592Y-59563000D01*
X145912408Y-59563000D01*
X145758430Y-59593628D01*
X141533804Y-55369003D01*
X141510001Y-55339999D01*
X141394276Y-55245026D01*
X141262247Y-55174454D01*
X141118986Y-55130997D01*
X141007333Y-55120000D01*
X141007322Y-55120000D01*
X140970000Y-55116324D01*
X140932678Y-55120000D01*
X119051335Y-55120000D01*
X119014002Y-55116323D01*
X118976669Y-55120000D01*
X118865016Y-55130997D01*
X118721755Y-55174454D01*
X118690798Y-55191001D01*
X114685803Y-55191001D01*
X114355803Y-54861002D01*
X114332001Y-54831999D01*
X114216276Y-54737026D01*
X114084247Y-54666454D01*
X113940986Y-54622997D01*
X113829333Y-54612000D01*
X113829322Y-54612000D01*
X113792000Y-54608324D01*
X113754678Y-54612000D01*
X109511322Y-54612000D01*
X109473999Y-54608324D01*
X109436676Y-54612000D01*
X109436667Y-54612000D01*
X109325014Y-54622997D01*
X109181753Y-54666454D01*
X109049724Y-54737026D01*
X109049722Y-54737027D01*
X109049723Y-54737027D01*
X108962996Y-54808201D01*
X108962992Y-54808205D01*
X108933999Y-54831999D01*
X108910205Y-54860992D01*
X108241570Y-55529628D01*
X108087592Y-55499000D01*
X107812408Y-55499000D01*
X107542510Y-55552686D01*
X107288273Y-55657995D01*
X107059465Y-55810880D01*
X106864880Y-56005465D01*
X106711995Y-56234273D01*
X106682308Y-56305943D01*
X106677636Y-56292977D01*
X106615656Y-56177020D01*
X106375565Y-56110040D01*
X105589605Y-56896000D01*
X106375565Y-57681960D01*
X106615656Y-57614980D01*
X106679485Y-57479240D01*
X106711995Y-57557727D01*
X106864880Y-57786535D01*
X107059465Y-57981120D01*
X107288273Y-58134005D01*
X107542510Y-58239314D01*
X107812408Y-58293000D01*
X108087592Y-58293000D01*
X108357490Y-58239314D01*
X108611727Y-58134005D01*
X108840535Y-57981120D01*
X109035120Y-57786535D01*
X109188005Y-57557727D01*
X109220000Y-57480485D01*
X109251995Y-57557727D01*
X109404880Y-57786535D01*
X109599465Y-57981120D01*
X109730001Y-58068341D01*
X109730000Y-62423198D01*
X106873199Y-65280000D01*
X106582341Y-65280000D01*
X106495120Y-65149465D01*
X106300535Y-64954880D01*
X106071727Y-64801995D01*
X105994485Y-64770000D01*
X106071727Y-64738005D01*
X106300535Y-64585120D01*
X106495120Y-64390535D01*
X106648005Y-64161727D01*
X106753314Y-63907490D01*
X106807000Y-63637592D01*
X106807000Y-63362408D01*
X106753314Y-63092510D01*
X106648005Y-62838273D01*
X106495120Y-62609465D01*
X106300535Y-62414880D01*
X106071727Y-62261995D01*
X105817490Y-62156686D01*
X105547592Y-62103000D01*
X105272408Y-62103000D01*
X105002510Y-62156686D01*
X104748273Y-62261995D01*
X104519465Y-62414880D01*
X104324880Y-62609465D01*
X104237659Y-62740000D01*
X101002325Y-62740000D01*
X100965000Y-62736324D01*
X100927675Y-62740000D01*
X100927667Y-62740000D01*
X100816014Y-62750997D01*
X100672753Y-62794454D01*
X100540724Y-62865026D01*
X100424999Y-62959999D01*
X100401201Y-62988997D01*
X97495199Y-65895000D01*
X93024802Y-65895000D01*
X92773547Y-65643745D01*
X92843685Y-65586185D01*
X92923037Y-65489494D01*
X92967905Y-65405553D01*
X93093766Y-65508845D01*
X93369552Y-65656255D01*
X93668797Y-65747030D01*
X93980000Y-65777681D01*
X94291204Y-65747030D01*
X94590449Y-65656255D01*
X94866235Y-65508845D01*
X95107963Y-65310463D01*
X95255162Y-65131100D01*
X95410563Y-65316315D01*
X95653077Y-65510969D01*
X95928906Y-65654571D01*
X96147020Y-65725563D01*
X96393000Y-65605594D01*
X96393000Y-64262000D01*
X96647000Y-64262000D01*
X96647000Y-65605594D01*
X96892980Y-65725563D01*
X97111094Y-65654571D01*
X97386923Y-65510969D01*
X97629437Y-65316315D01*
X97829316Y-65078089D01*
X97978879Y-64805446D01*
X98072378Y-64508863D01*
X97945570Y-64262000D01*
X96647000Y-64262000D01*
X96393000Y-64262000D01*
X96373000Y-64262000D01*
X96373000Y-64008000D01*
X96393000Y-64008000D01*
X96393000Y-62664406D01*
X96647000Y-62664406D01*
X96647000Y-64008000D01*
X97945570Y-64008000D01*
X98072378Y-63761137D01*
X97978879Y-63464554D01*
X97829316Y-63191911D01*
X97629437Y-62953685D01*
X97386923Y-62759031D01*
X97111094Y-62615429D01*
X96892980Y-62544437D01*
X96647000Y-62664406D01*
X96393000Y-62664406D01*
X96147020Y-62544437D01*
X95928906Y-62615429D01*
X95653077Y-62759031D01*
X95410563Y-62953685D01*
X95255163Y-63138899D01*
X95107963Y-62959537D01*
X94866234Y-62761155D01*
X94740000Y-62693682D01*
X94740000Y-57861565D01*
X104624040Y-57861565D01*
X104691020Y-58101656D01*
X104940048Y-58218756D01*
X105207135Y-58285023D01*
X105482017Y-58297910D01*
X105754133Y-58256922D01*
X106013023Y-58163636D01*
X106128980Y-58101656D01*
X106195960Y-57861565D01*
X105410000Y-57075605D01*
X104624040Y-57861565D01*
X94740000Y-57861565D01*
X94740000Y-56968017D01*
X104008090Y-56968017D01*
X104049078Y-57240133D01*
X104142364Y-57499023D01*
X104204344Y-57614980D01*
X104444435Y-57681960D01*
X105230395Y-56896000D01*
X104444435Y-56110040D01*
X104204344Y-56177020D01*
X104087244Y-56426048D01*
X104020977Y-56693135D01*
X104008090Y-56968017D01*
X94740000Y-56968017D01*
X94740000Y-55930435D01*
X104624040Y-55930435D01*
X105410000Y-56716395D01*
X106195960Y-55930435D01*
X106128980Y-55690344D01*
X105879952Y-55573244D01*
X105612865Y-55506977D01*
X105337983Y-55494090D01*
X105065867Y-55535078D01*
X104806977Y-55628364D01*
X104691020Y-55690344D01*
X104624040Y-55930435D01*
X94740000Y-55930435D01*
X94740000Y-52130801D01*
X99374802Y-47496000D01*
X104237659Y-47496000D01*
X104324880Y-47626535D01*
X104519465Y-47821120D01*
X104748273Y-47974005D01*
X105002510Y-48079314D01*
X105272408Y-48133000D01*
X105547592Y-48133000D01*
X105817490Y-48079314D01*
X106071727Y-47974005D01*
X106300535Y-47821120D01*
X106495120Y-47626535D01*
X106648005Y-47397727D01*
X106680000Y-47320485D01*
X106711995Y-47397727D01*
X106864880Y-47626535D01*
X107059465Y-47821120D01*
X107288273Y-47974005D01*
X107542510Y-48079314D01*
X107812408Y-48133000D01*
X108087592Y-48133000D01*
X108357490Y-48079314D01*
X108611727Y-47974005D01*
X108840535Y-47821120D01*
X109035120Y-47626535D01*
X109188005Y-47397727D01*
X109220000Y-47320485D01*
X109251995Y-47397727D01*
X109404880Y-47626535D01*
X109599465Y-47821120D01*
X109828273Y-47974005D01*
X110082510Y-48079314D01*
X110352408Y-48133000D01*
X110627592Y-48133000D01*
X110897490Y-48079314D01*
X111151727Y-47974005D01*
X111380535Y-47821120D01*
X111575120Y-47626535D01*
X111728005Y-47397727D01*
X111833314Y-47143490D01*
X111887000Y-46873592D01*
X111887000Y-46598408D01*
X111833314Y-46328510D01*
X111728005Y-46074273D01*
X111575120Y-45845465D01*
X111380535Y-45650880D01*
X111278060Y-45582408D01*
X121031000Y-45582408D01*
X121031000Y-45857592D01*
X121084686Y-46127490D01*
X121189995Y-46381727D01*
X121342880Y-46610535D01*
X121537465Y-46805120D01*
X121766273Y-46958005D01*
X121843515Y-46990000D01*
X121766273Y-47021995D01*
X121537465Y-47174880D01*
X121342880Y-47369465D01*
X121189995Y-47598273D01*
X121084686Y-47852510D01*
X121031000Y-48122408D01*
X121031000Y-48397592D01*
X121084686Y-48667490D01*
X121189995Y-48921727D01*
X121342880Y-49150535D01*
X121537465Y-49345120D01*
X121766273Y-49498005D01*
X121843515Y-49530000D01*
X121766273Y-49561995D01*
X121537465Y-49714880D01*
X121342880Y-49909465D01*
X121189995Y-50138273D01*
X121084686Y-50392510D01*
X121031000Y-50662408D01*
X121031000Y-50937592D01*
X121084686Y-51207490D01*
X121189995Y-51461727D01*
X121342880Y-51690535D01*
X121537465Y-51885120D01*
X121766273Y-52038005D01*
X122020510Y-52143314D01*
X122290408Y-52197000D01*
X122565592Y-52197000D01*
X122835490Y-52143314D01*
X123089727Y-52038005D01*
X123318535Y-51885120D01*
X123513120Y-51690535D01*
X123666005Y-51461727D01*
X123771314Y-51207490D01*
X123825000Y-50937592D01*
X123825000Y-50662408D01*
X123771314Y-50392510D01*
X123666005Y-50138273D01*
X123513120Y-49909465D01*
X123318535Y-49714880D01*
X123089727Y-49561995D01*
X123012485Y-49530000D01*
X123089727Y-49498005D01*
X123318535Y-49345120D01*
X123513120Y-49150535D01*
X123666005Y-48921727D01*
X123771314Y-48667490D01*
X123825000Y-48397592D01*
X123825000Y-48122408D01*
X123771314Y-47852510D01*
X123666005Y-47598273D01*
X123513120Y-47369465D01*
X123318535Y-47174880D01*
X123089727Y-47021995D01*
X123012485Y-46990000D01*
X123089727Y-46958005D01*
X123318535Y-46805120D01*
X123513120Y-46610535D01*
X123600341Y-46480000D01*
X125261928Y-46480000D01*
X125261928Y-46820000D01*
X125274188Y-46944482D01*
X125310498Y-47064180D01*
X125369463Y-47174494D01*
X125448815Y-47271185D01*
X125545506Y-47350537D01*
X125655820Y-47409502D01*
X125775518Y-47445812D01*
X125900000Y-47458072D01*
X128100000Y-47458072D01*
X128224482Y-47445812D01*
X128344180Y-47409502D01*
X128454494Y-47350537D01*
X128551185Y-47271185D01*
X128630537Y-47174494D01*
X128689502Y-47064180D01*
X128725812Y-46944482D01*
X128738072Y-46820000D01*
X128738072Y-45720000D01*
X135416606Y-45720000D01*
X135450105Y-46060119D01*
X135549314Y-46387168D01*
X135710421Y-46688578D01*
X135927234Y-46952766D01*
X136191422Y-47169579D01*
X136492832Y-47330686D01*
X136819881Y-47429895D01*
X137074775Y-47455000D01*
X137245225Y-47455000D01*
X137500119Y-47429895D01*
X137827168Y-47330686D01*
X138128578Y-47169579D01*
X138392766Y-46952766D01*
X138609579Y-46688578D01*
X138721066Y-46480000D01*
X139797659Y-46480000D01*
X139884880Y-46610535D01*
X140079465Y-46805120D01*
X140308273Y-46958005D01*
X140562510Y-47063314D01*
X140832408Y-47117000D01*
X141107592Y-47117000D01*
X141377490Y-47063314D01*
X141631727Y-46958005D01*
X141860535Y-46805120D01*
X141980090Y-46685565D01*
X142724040Y-46685565D01*
X142791020Y-46925656D01*
X143040048Y-47042756D01*
X143307135Y-47109023D01*
X143582017Y-47121910D01*
X143854133Y-47080922D01*
X144113023Y-46987636D01*
X144228980Y-46925656D01*
X144295960Y-46685565D01*
X145264040Y-46685565D01*
X145331020Y-46925656D01*
X145580048Y-47042756D01*
X145847135Y-47109023D01*
X146122017Y-47121910D01*
X146394133Y-47080922D01*
X146653023Y-46987636D01*
X146768980Y-46925656D01*
X146835960Y-46685565D01*
X146050000Y-45899605D01*
X145264040Y-46685565D01*
X144295960Y-46685565D01*
X143510000Y-45899605D01*
X142724040Y-46685565D01*
X141980090Y-46685565D01*
X142055120Y-46610535D01*
X142208005Y-46381727D01*
X142237692Y-46310057D01*
X142242364Y-46323023D01*
X142304344Y-46438980D01*
X142544435Y-46505960D01*
X143330395Y-45720000D01*
X143689605Y-45720000D01*
X144475565Y-46505960D01*
X144715656Y-46438980D01*
X144777079Y-46308356D01*
X144782364Y-46323023D01*
X144844344Y-46438980D01*
X145084435Y-46505960D01*
X145870395Y-45720000D01*
X146229605Y-45720000D01*
X147015565Y-46505960D01*
X147255656Y-46438980D01*
X147372756Y-46189952D01*
X147439023Y-45922865D01*
X147451910Y-45647983D01*
X147410922Y-45375867D01*
X147317636Y-45116977D01*
X147255656Y-45001020D01*
X147015565Y-44934040D01*
X146229605Y-45720000D01*
X145870395Y-45720000D01*
X145084435Y-44934040D01*
X144844344Y-45001020D01*
X144782921Y-45131644D01*
X144777636Y-45116977D01*
X144715656Y-45001020D01*
X144475565Y-44934040D01*
X143689605Y-45720000D01*
X143330395Y-45720000D01*
X142544435Y-44934040D01*
X142304344Y-45001020D01*
X142240515Y-45136760D01*
X142208005Y-45058273D01*
X142055120Y-44829465D01*
X141980090Y-44754435D01*
X142724040Y-44754435D01*
X143510000Y-45540395D01*
X144295960Y-44754435D01*
X145264040Y-44754435D01*
X146050000Y-45540395D01*
X146835960Y-44754435D01*
X146768980Y-44514344D01*
X146519952Y-44397244D01*
X146252865Y-44330977D01*
X145977983Y-44318090D01*
X145705867Y-44359078D01*
X145446977Y-44452364D01*
X145331020Y-44514344D01*
X145264040Y-44754435D01*
X144295960Y-44754435D01*
X144228980Y-44514344D01*
X143979952Y-44397244D01*
X143712865Y-44330977D01*
X143437983Y-44318090D01*
X143165867Y-44359078D01*
X142906977Y-44452364D01*
X142791020Y-44514344D01*
X142724040Y-44754435D01*
X141980090Y-44754435D01*
X141860535Y-44634880D01*
X141631727Y-44481995D01*
X141377490Y-44376686D01*
X141107592Y-44323000D01*
X140832408Y-44323000D01*
X140562510Y-44376686D01*
X140308273Y-44481995D01*
X140079465Y-44634880D01*
X139884880Y-44829465D01*
X139797659Y-44960000D01*
X138721066Y-44960000D01*
X138609579Y-44751422D01*
X138392766Y-44487234D01*
X138128578Y-44270421D01*
X137827168Y-44109314D01*
X137500119Y-44010105D01*
X137245225Y-43985000D01*
X137074775Y-43985000D01*
X136819881Y-44010105D01*
X136492832Y-44109314D01*
X136191422Y-44270421D01*
X135927234Y-44487234D01*
X135710421Y-44751422D01*
X135549314Y-45052832D01*
X135450105Y-45379881D01*
X135416606Y-45720000D01*
X128738072Y-45720000D01*
X128738072Y-44620000D01*
X128725812Y-44495518D01*
X128689502Y-44375820D01*
X128630537Y-44265506D01*
X128551185Y-44168815D01*
X128454494Y-44089463D01*
X128344180Y-44030498D01*
X128224482Y-43994188D01*
X128100000Y-43981928D01*
X125900000Y-43981928D01*
X125775518Y-43994188D01*
X125655820Y-44030498D01*
X125545506Y-44089463D01*
X125448815Y-44168815D01*
X125369463Y-44265506D01*
X125310498Y-44375820D01*
X125274188Y-44495518D01*
X125261928Y-44620000D01*
X125261928Y-44960000D01*
X123600341Y-44960000D01*
X123513120Y-44829465D01*
X123318535Y-44634880D01*
X123089727Y-44481995D01*
X122835490Y-44376686D01*
X122565592Y-44323000D01*
X122290408Y-44323000D01*
X122020510Y-44376686D01*
X121766273Y-44481995D01*
X121537465Y-44634880D01*
X121342880Y-44829465D01*
X121189995Y-45058273D01*
X121084686Y-45312510D01*
X121031000Y-45582408D01*
X111278060Y-45582408D01*
X111151727Y-45497995D01*
X110897490Y-45392686D01*
X110627592Y-45339000D01*
X110352408Y-45339000D01*
X110082510Y-45392686D01*
X109828273Y-45497995D01*
X109599465Y-45650880D01*
X109404880Y-45845465D01*
X109251995Y-46074273D01*
X109220000Y-46151515D01*
X109188005Y-46074273D01*
X109035120Y-45845465D01*
X108840535Y-45650880D01*
X108611727Y-45497995D01*
X108357490Y-45392686D01*
X108087592Y-45339000D01*
X107812408Y-45339000D01*
X107542510Y-45392686D01*
X107288273Y-45497995D01*
X107059465Y-45650880D01*
X106864880Y-45845465D01*
X106711995Y-46074273D01*
X106680000Y-46151515D01*
X106648005Y-46074273D01*
X106495120Y-45845465D01*
X106300535Y-45650880D01*
X106071727Y-45497995D01*
X105817490Y-45392686D01*
X105547592Y-45339000D01*
X105272408Y-45339000D01*
X105002510Y-45392686D01*
X104748273Y-45497995D01*
X104519465Y-45650880D01*
X104324880Y-45845465D01*
X104237659Y-45976000D01*
X99097323Y-45976000D01*
X99060000Y-45972324D01*
X99022677Y-45976000D01*
X99022667Y-45976000D01*
X98911014Y-45986997D01*
X98767753Y-46030454D01*
X98635723Y-46101026D01*
X98552083Y-46169668D01*
X98519999Y-46195999D01*
X98496201Y-46224997D01*
X96039130Y-48682068D01*
X96194113Y-48392116D01*
X96330490Y-47942542D01*
X96376539Y-47475000D01*
X96330490Y-47007458D01*
X96194113Y-46557884D01*
X95972649Y-46143554D01*
X95674609Y-45780391D01*
X95311446Y-45482351D01*
X94897116Y-45260887D01*
X94447542Y-45124510D01*
X94097157Y-45090000D01*
X93862843Y-45090000D01*
X93512458Y-45124510D01*
X93062884Y-45260887D01*
X92648554Y-45482351D01*
X92285391Y-45780391D01*
X91987351Y-46143554D01*
X91765887Y-46557884D01*
X91629510Y-47007458D01*
X91583461Y-47475000D01*
X91629510Y-47942542D01*
X91765887Y-48392116D01*
X91987351Y-48806446D01*
X92285391Y-49169609D01*
X92648554Y-49467649D01*
X93062884Y-49689113D01*
X93512458Y-49825490D01*
X93862843Y-49860000D01*
X94097157Y-49860000D01*
X94447542Y-49825490D01*
X94897116Y-49689113D01*
X95187068Y-49534130D01*
X93468998Y-51252201D01*
X93440000Y-51275999D01*
X93416202Y-51304997D01*
X93416201Y-51304998D01*
X93345026Y-51391724D01*
X93274454Y-51523754D01*
X93230998Y-51667015D01*
X93216324Y-51816000D01*
X93220001Y-51853332D01*
X93220000Y-62693681D01*
X93093765Y-62761155D01*
X92967905Y-62864446D01*
X92923037Y-62780506D01*
X92843685Y-62683815D01*
X92746994Y-62604463D01*
X92636680Y-62545498D01*
X92516982Y-62509188D01*
X92392500Y-62496928D01*
X90487500Y-62496928D01*
X90363018Y-62509188D01*
X90243320Y-62545498D01*
X90133006Y-62604463D01*
X90036315Y-62683815D01*
X89956963Y-62780506D01*
X89897998Y-62890820D01*
X89861688Y-63010518D01*
X89849428Y-63135000D01*
X86487000Y-63135000D01*
X86487000Y-45758452D01*
X86805094Y-45281311D01*
X87049872Y-45330000D01*
X87490128Y-45330000D01*
X87921925Y-45244110D01*
X88328669Y-45075631D01*
X88694729Y-44831038D01*
X89006038Y-44519729D01*
X89250631Y-44153669D01*
X89419110Y-43746925D01*
X89505000Y-43315128D01*
X89505000Y-42874872D01*
X89419110Y-42443075D01*
X89250908Y-42037000D01*
X178359092Y-42037000D01*
X178190890Y-42443075D01*
X178190890Y-42443075D01*
G37*
X178190890Y-42443075D02*
X178105000Y-42874872D01*
X178105000Y-43315128D01*
X178190890Y-43746925D01*
X178359369Y-44153669D01*
X178603962Y-44519729D01*
X178915271Y-44831038D01*
X179281331Y-45075631D01*
X179688075Y-45244110D01*
X180119872Y-45330000D01*
X180560128Y-45330000D01*
X180991925Y-45244110D01*
X181108041Y-45196013D01*
X181483000Y-45758452D01*
X181483000Y-101561548D01*
X181152445Y-102057380D01*
X180991925Y-101990890D01*
X180560128Y-101905000D01*
X180119872Y-101905000D01*
X179688075Y-101990890D01*
X179281331Y-102159369D01*
X178915271Y-102403962D01*
X178603962Y-102715271D01*
X178359369Y-103081331D01*
X178190890Y-103488075D01*
X178105000Y-103919872D01*
X178105000Y-104360128D01*
X178190890Y-104791925D01*
X178359369Y-105198669D01*
X178415717Y-105283000D01*
X89194283Y-105283000D01*
X89250631Y-105198669D01*
X89419110Y-104791925D01*
X89505000Y-104360128D01*
X89505000Y-103919872D01*
X89419110Y-103488075D01*
X89250631Y-103081331D01*
X89006038Y-102715271D01*
X88694729Y-102403962D01*
X88328669Y-102159369D01*
X87921925Y-101990890D01*
X87490128Y-101905000D01*
X87049872Y-101905000D01*
X86755062Y-101963641D01*
X86487000Y-101561548D01*
X86487000Y-63135000D01*
X89849428Y-63135000D01*
X89849428Y-65135000D01*
X89861688Y-65259482D01*
X89897998Y-65379180D01*
X89956963Y-65489494D01*
X90036315Y-65586185D01*
X90133006Y-65665537D01*
X90243320Y-65724502D01*
X90363018Y-65760812D01*
X90487500Y-65773072D01*
X90785674Y-65773072D01*
X90805026Y-65809276D01*
X90872108Y-65891015D01*
X90900000Y-65925001D01*
X90928998Y-65948799D01*
X92146201Y-67166003D01*
X92169999Y-67195001D01*
X92285724Y-67289974D01*
X92417753Y-67360546D01*
X92561014Y-67404003D01*
X92672667Y-67415000D01*
X92672676Y-67415000D01*
X92709999Y-67418676D01*
X92747322Y-67415000D01*
X97772678Y-67415000D01*
X97810000Y-67418676D01*
X97847322Y-67415000D01*
X97847333Y-67415000D01*
X97958986Y-67404003D01*
X98102247Y-67360546D01*
X98234276Y-67289974D01*
X98350001Y-67195001D01*
X98373804Y-67165997D01*
X101279802Y-64260000D01*
X104237659Y-64260000D01*
X104324880Y-64390535D01*
X104519465Y-64585120D01*
X104748273Y-64738005D01*
X104825515Y-64770000D01*
X104748273Y-64801995D01*
X104519465Y-64954880D01*
X104324880Y-65149465D01*
X104171995Y-65378273D01*
X104066686Y-65632510D01*
X104013000Y-65902408D01*
X104013000Y-66177592D01*
X104066686Y-66447490D01*
X104171995Y-66701727D01*
X104324880Y-66930535D01*
X104519465Y-67125120D01*
X104748273Y-67278005D01*
X104825515Y-67310000D01*
X104748273Y-67341995D01*
X104519465Y-67494880D01*
X104324880Y-67689465D01*
X104237659Y-67820000D01*
X99097322Y-67820000D01*
X99059999Y-67816324D01*
X99022676Y-67820000D01*
X99022667Y-67820000D01*
X98911014Y-67830997D01*
X98767753Y-67874454D01*
X98635724Y-67945026D01*
X98519999Y-68039999D01*
X98496201Y-68068997D01*
X97278998Y-69286201D01*
X97250000Y-69309999D01*
X97226202Y-69338997D01*
X97226201Y-69338998D01*
X97155026Y-69425724D01*
X97084454Y-69557754D01*
X97040998Y-69701015D01*
X97026324Y-69850000D01*
X97030001Y-69887332D01*
X97030001Y-69947658D01*
X96899465Y-70034880D01*
X96704880Y-70229465D01*
X96551995Y-70458273D01*
X96522308Y-70529943D01*
X96517636Y-70516977D01*
X96455656Y-70401020D01*
X96215565Y-70334040D01*
X95429605Y-71120000D01*
X96215565Y-71905960D01*
X96455656Y-71838980D01*
X96519485Y-71703240D01*
X96551995Y-71781727D01*
X96704880Y-72010535D01*
X96899465Y-72205120D01*
X97128273Y-72358005D01*
X97382510Y-72463314D01*
X97652408Y-72517000D01*
X97927592Y-72517000D01*
X98197490Y-72463314D01*
X98451727Y-72358005D01*
X98680535Y-72205120D01*
X98875120Y-72010535D01*
X99028005Y-71781727D01*
X99133314Y-71527490D01*
X99187000Y-71257592D01*
X99187000Y-70982408D01*
X99133314Y-70712510D01*
X99028005Y-70458273D01*
X98875120Y-70229465D01*
X98680535Y-70034880D01*
X98680167Y-70034634D01*
X99374802Y-69340000D01*
X104237659Y-69340000D01*
X104324880Y-69470535D01*
X104519465Y-69665120D01*
X104748273Y-69818005D01*
X104825515Y-69850000D01*
X104748273Y-69881995D01*
X104519465Y-70034880D01*
X104324880Y-70229465D01*
X104237659Y-70360000D01*
X101637325Y-70360000D01*
X101600000Y-70356324D01*
X101562675Y-70360000D01*
X101562667Y-70360000D01*
X101451014Y-70370997D01*
X101307753Y-70414454D01*
X101175724Y-70485026D01*
X101059999Y-70579999D01*
X101036201Y-70608997D01*
X97433694Y-74211505D01*
X97382510Y-74221686D01*
X97128273Y-74326995D01*
X96899465Y-74479880D01*
X96704880Y-74674465D01*
X96551995Y-74903273D01*
X96522308Y-74974943D01*
X96517636Y-74961977D01*
X96455656Y-74846020D01*
X96215565Y-74779040D01*
X95429605Y-75565000D01*
X96215565Y-76350960D01*
X96455656Y-76283980D01*
X96519485Y-76148240D01*
X96551995Y-76226727D01*
X96704880Y-76455535D01*
X96899465Y-76650120D01*
X97128273Y-76803005D01*
X97382510Y-76908314D01*
X97652408Y-76962000D01*
X97772973Y-76962000D01*
X97790000Y-76963677D01*
X97807027Y-76962000D01*
X97927592Y-76962000D01*
X98197490Y-76908314D01*
X98451727Y-76803005D01*
X98680535Y-76650120D01*
X98875120Y-76455535D01*
X99028005Y-76226727D01*
X99133314Y-75972490D01*
X99187000Y-75702592D01*
X99187000Y-75427408D01*
X99133314Y-75157510D01*
X99028005Y-74903273D01*
X98973340Y-74821461D01*
X101914802Y-71880000D01*
X104237659Y-71880000D01*
X104324880Y-72010535D01*
X104519465Y-72205120D01*
X104748273Y-72358005D01*
X104825515Y-72390000D01*
X104748273Y-72421995D01*
X104519465Y-72574880D01*
X104324880Y-72769465D01*
X104237659Y-72900000D01*
X102907323Y-72900000D01*
X102870000Y-72896324D01*
X102832677Y-72900000D01*
X102832667Y-72900000D01*
X102721014Y-72910997D01*
X102577753Y-72954454D01*
X102445723Y-73025026D01*
X102362083Y-73093668D01*
X102329999Y-73119999D01*
X102306201Y-73148997D01*
X97278998Y-78176201D01*
X97250000Y-78199999D01*
X97226202Y-78228997D01*
X97226201Y-78228998D01*
X97155026Y-78315724D01*
X97084454Y-78447754D01*
X97040998Y-78591015D01*
X97026324Y-78740000D01*
X97030001Y-78777332D01*
X97030000Y-80107659D01*
X96899465Y-80194880D01*
X96704880Y-80389465D01*
X96551995Y-80618273D01*
X96522308Y-80689943D01*
X96517636Y-80676977D01*
X96455656Y-80561020D01*
X96215565Y-80494040D01*
X95429605Y-81280000D01*
X96215565Y-82065960D01*
X96455656Y-81998980D01*
X96519485Y-81863240D01*
X96551995Y-81941727D01*
X96704880Y-82170535D01*
X96899465Y-82365120D01*
X97128273Y-82518005D01*
X97382510Y-82623314D01*
X97652408Y-82677000D01*
X97858199Y-82677000D01*
X97278998Y-83256201D01*
X97250000Y-83279999D01*
X97226202Y-83308997D01*
X97226201Y-83308998D01*
X97155026Y-83395724D01*
X97084454Y-83527754D01*
X97057342Y-83617135D01*
X97040998Y-83671014D01*
X97033417Y-83747983D01*
X97026324Y-83820000D01*
X97030001Y-83857332D01*
X97030000Y-85187659D01*
X96899465Y-85274880D01*
X96704880Y-85469465D01*
X96551995Y-85698273D01*
X96522308Y-85769943D01*
X96517636Y-85756977D01*
X96455656Y-85641020D01*
X96215565Y-85574040D01*
X95429605Y-86360000D01*
X96215565Y-87145960D01*
X96455656Y-87078980D01*
X96519485Y-86943240D01*
X96551995Y-87021727D01*
X96704880Y-87250535D01*
X96899465Y-87445120D01*
X97128273Y-87598005D01*
X97382510Y-87703314D01*
X97652408Y-87757000D01*
X97927592Y-87757000D01*
X98197490Y-87703314D01*
X98451727Y-87598005D01*
X98680535Y-87445120D01*
X98875120Y-87250535D01*
X99028005Y-87021727D01*
X99133314Y-86767490D01*
X99187000Y-86497592D01*
X99187000Y-86222408D01*
X99133314Y-85952510D01*
X99028005Y-85698273D01*
X98875120Y-85469465D01*
X98680535Y-85274880D01*
X98550000Y-85187659D01*
X98550000Y-84134801D01*
X99570001Y-83114801D01*
X99570000Y-87315197D01*
X97278998Y-89606201D01*
X97250000Y-89629999D01*
X97226202Y-89658997D01*
X97226201Y-89658998D01*
X97155026Y-89745724D01*
X97084454Y-89877754D01*
X97040998Y-90021015D01*
X97026324Y-90170000D01*
X97030001Y-90207332D01*
X97030001Y-90267658D01*
X96899465Y-90354880D01*
X96704880Y-90549465D01*
X96551995Y-90778273D01*
X96522308Y-90849943D01*
X96517636Y-90836977D01*
X96455656Y-90721020D01*
X96215565Y-90654040D01*
X95429605Y-91440000D01*
X96215565Y-92225960D01*
X96455656Y-92158980D01*
X96519485Y-92023240D01*
X96551995Y-92101727D01*
X96704880Y-92330535D01*
X96899465Y-92525120D01*
X97128273Y-92678005D01*
X97382510Y-92783314D01*
X97652408Y-92837000D01*
X97927592Y-92837000D01*
X98197490Y-92783314D01*
X98451727Y-92678005D01*
X98680535Y-92525120D01*
X98875120Y-92330535D01*
X99028005Y-92101727D01*
X99133314Y-91847490D01*
X99187000Y-91577592D01*
X99187000Y-91302408D01*
X99133314Y-91032510D01*
X99028005Y-90778273D01*
X98875120Y-90549465D01*
X98680535Y-90354880D01*
X98680167Y-90354634D01*
X100840000Y-88194802D01*
X100840000Y-91125198D01*
X97278998Y-94686201D01*
X97250000Y-94709999D01*
X97226202Y-94738997D01*
X97226201Y-94738998D01*
X97155026Y-94825724D01*
X97084454Y-94957754D01*
X97040998Y-95101015D01*
X97026324Y-95250000D01*
X97030001Y-95287332D01*
X97030001Y-95347658D01*
X96899465Y-95434880D01*
X96704880Y-95629465D01*
X96551995Y-95858273D01*
X96522308Y-95929943D01*
X96517636Y-95916977D01*
X96455656Y-95801020D01*
X96215565Y-95734040D01*
X95429605Y-96520000D01*
X96215565Y-97305960D01*
X96455656Y-97238980D01*
X96519485Y-97103240D01*
X96551995Y-97181727D01*
X96704880Y-97410535D01*
X96899465Y-97605120D01*
X97128273Y-97758005D01*
X97382510Y-97863314D01*
X97652408Y-97917000D01*
X97927592Y-97917000D01*
X98197490Y-97863314D01*
X98451727Y-97758005D01*
X98680535Y-97605120D01*
X98875120Y-97410535D01*
X99028005Y-97181727D01*
X99133314Y-96927490D01*
X99187000Y-96657592D01*
X99187000Y-96382408D01*
X99133314Y-96112510D01*
X99028005Y-95858273D01*
X98875120Y-95629465D01*
X98680535Y-95434880D01*
X98680167Y-95434634D01*
X102111004Y-92003798D01*
X102140001Y-91980001D01*
X102234974Y-91864276D01*
X102305546Y-91732247D01*
X102349003Y-91588986D01*
X102360000Y-91477333D01*
X102360000Y-91477325D01*
X102363676Y-91440000D01*
X102360000Y-91402675D01*
X102360000Y-88972017D01*
X104008090Y-88972017D01*
X104049078Y-89244133D01*
X104142364Y-89503023D01*
X104204344Y-89618980D01*
X104444435Y-89685960D01*
X105230395Y-88900000D01*
X104444435Y-88114040D01*
X104204344Y-88181020D01*
X104087244Y-88430048D01*
X104020977Y-88697135D01*
X104008090Y-88972017D01*
X102360000Y-88972017D01*
X102360000Y-84769801D01*
X104666462Y-82463340D01*
X104748273Y-82518005D01*
X104825515Y-82550000D01*
X104748273Y-82581995D01*
X104519465Y-82734880D01*
X104324880Y-82929465D01*
X104171995Y-83158273D01*
X104066686Y-83412510D01*
X104013000Y-83682408D01*
X104013000Y-83802973D01*
X104011323Y-83820000D01*
X104013000Y-83837027D01*
X104013000Y-83957592D01*
X104066686Y-84227490D01*
X104171995Y-84481727D01*
X104324880Y-84710535D01*
X104519465Y-84905120D01*
X104748273Y-85058005D01*
X104825515Y-85090000D01*
X104748273Y-85121995D01*
X104519465Y-85274880D01*
X104324880Y-85469465D01*
X104171995Y-85698273D01*
X104066686Y-85952510D01*
X104013000Y-86222408D01*
X104013000Y-86497592D01*
X104066686Y-86767490D01*
X104171995Y-87021727D01*
X104324880Y-87250535D01*
X104519465Y-87445120D01*
X104748273Y-87598005D01*
X104819943Y-87627692D01*
X104806977Y-87632364D01*
X104691020Y-87694344D01*
X104624040Y-87934435D01*
X105410000Y-88720395D01*
X106195960Y-87934435D01*
X106128980Y-87694344D01*
X105993240Y-87630515D01*
X106071727Y-87598005D01*
X106300535Y-87445120D01*
X106495120Y-87250535D01*
X106555000Y-87160918D01*
X106555000Y-88164098D01*
X106375565Y-88114040D01*
X105589605Y-88900000D01*
X106375565Y-89685960D01*
X106555000Y-89635902D01*
X106555000Y-90639082D01*
X106495120Y-90549465D01*
X106300535Y-90354880D01*
X106071727Y-90201995D01*
X106000057Y-90172308D01*
X106013023Y-90167636D01*
X106128980Y-90105656D01*
X106195960Y-89865565D01*
X105410000Y-89079605D01*
X104624040Y-89865565D01*
X104691020Y-90105656D01*
X104826760Y-90169485D01*
X104748273Y-90201995D01*
X104519465Y-90354880D01*
X104324880Y-90549465D01*
X104171995Y-90778273D01*
X104066686Y-91032510D01*
X104013000Y-91302408D01*
X104013000Y-91577592D01*
X104066686Y-91847490D01*
X104171995Y-92101727D01*
X104324880Y-92330535D01*
X104519465Y-92525120D01*
X104748273Y-92678005D01*
X105002510Y-92783314D01*
X105272408Y-92837000D01*
X105547592Y-92837000D01*
X105817490Y-92783314D01*
X106071727Y-92678005D01*
X106300535Y-92525120D01*
X106495120Y-92330535D01*
X106555001Y-92240918D01*
X106555001Y-97475196D01*
X104460199Y-99570000D01*
X94929802Y-99570000D01*
X93470000Y-98110199D01*
X93470000Y-97692341D01*
X93600535Y-97605120D01*
X93720090Y-97485565D01*
X94464040Y-97485565D01*
X94531020Y-97725656D01*
X94780048Y-97842756D01*
X95047135Y-97909023D01*
X95322017Y-97921910D01*
X95594133Y-97880922D01*
X95853023Y-97787636D01*
X95968980Y-97725656D01*
X96035960Y-97485565D01*
X95250000Y-96699605D01*
X94464040Y-97485565D01*
X93720090Y-97485565D01*
X93795120Y-97410535D01*
X93948005Y-97181727D01*
X93977692Y-97110057D01*
X93982364Y-97123023D01*
X94044344Y-97238980D01*
X94284435Y-97305960D01*
X95070395Y-96520000D01*
X94284435Y-95734040D01*
X94044344Y-95801020D01*
X93980515Y-95936760D01*
X93948005Y-95858273D01*
X93795120Y-95629465D01*
X93720090Y-95554435D01*
X94464040Y-95554435D01*
X95250000Y-96340395D01*
X96035960Y-95554435D01*
X95968980Y-95314344D01*
X95719952Y-95197244D01*
X95452865Y-95130977D01*
X95177983Y-95118090D01*
X94905867Y-95159078D01*
X94646977Y-95252364D01*
X94531020Y-95314344D01*
X94464040Y-95554435D01*
X93720090Y-95554435D01*
X93600535Y-95434880D01*
X93470000Y-95347659D01*
X93470000Y-92612341D01*
X93600535Y-92525120D01*
X93720090Y-92405565D01*
X94464040Y-92405565D01*
X94531020Y-92645656D01*
X94780048Y-92762756D01*
X95047135Y-92829023D01*
X95322017Y-92841910D01*
X95594133Y-92800922D01*
X95853023Y-92707636D01*
X95968980Y-92645656D01*
X96035960Y-92405565D01*
X95250000Y-91619605D01*
X94464040Y-92405565D01*
X93720090Y-92405565D01*
X93795120Y-92330535D01*
X93948005Y-92101727D01*
X93977692Y-92030057D01*
X93982364Y-92043023D01*
X94044344Y-92158980D01*
X94284435Y-92225960D01*
X95070395Y-91440000D01*
X94284435Y-90654040D01*
X94044344Y-90721020D01*
X93980515Y-90856760D01*
X93948005Y-90778273D01*
X93795120Y-90549465D01*
X93720090Y-90474435D01*
X94464040Y-90474435D01*
X95250000Y-91260395D01*
X96035960Y-90474435D01*
X95968980Y-90234344D01*
X95719952Y-90117244D01*
X95452865Y-90050977D01*
X95177983Y-90038090D01*
X94905867Y-90079078D01*
X94646977Y-90172364D01*
X94531020Y-90234344D01*
X94464040Y-90474435D01*
X93720090Y-90474435D01*
X93600535Y-90354880D01*
X93470000Y-90267659D01*
X93470000Y-87532341D01*
X93600535Y-87445120D01*
X93720090Y-87325565D01*
X94464040Y-87325565D01*
X94531020Y-87565656D01*
X94780048Y-87682756D01*
X95047135Y-87749023D01*
X95322017Y-87761910D01*
X95594133Y-87720922D01*
X95853023Y-87627636D01*
X95968980Y-87565656D01*
X96035960Y-87325565D01*
X95250000Y-86539605D01*
X94464040Y-87325565D01*
X93720090Y-87325565D01*
X93795120Y-87250535D01*
X93948005Y-87021727D01*
X93977692Y-86950057D01*
X93982364Y-86963023D01*
X94044344Y-87078980D01*
X94284435Y-87145960D01*
X95070395Y-86360000D01*
X94284435Y-85574040D01*
X94044344Y-85641020D01*
X93980515Y-85776760D01*
X93948005Y-85698273D01*
X93795120Y-85469465D01*
X93720090Y-85394435D01*
X94464040Y-85394435D01*
X95250000Y-86180395D01*
X96035960Y-85394435D01*
X95968980Y-85154344D01*
X95719952Y-85037244D01*
X95452865Y-84970977D01*
X95177983Y-84958090D01*
X94905867Y-84999078D01*
X94646977Y-85092364D01*
X94531020Y-85154344D01*
X94464040Y-85394435D01*
X93720090Y-85394435D01*
X93600535Y-85274880D01*
X93470000Y-85187659D01*
X93470000Y-82452341D01*
X93600535Y-82365120D01*
X93720090Y-82245565D01*
X94464040Y-82245565D01*
X94531020Y-82485656D01*
X94780048Y-82602756D01*
X95047135Y-82669023D01*
X95322017Y-82681910D01*
X95594133Y-82640922D01*
X95853023Y-82547636D01*
X95968980Y-82485656D01*
X96035960Y-82245565D01*
X95250000Y-81459605D01*
X94464040Y-82245565D01*
X93720090Y-82245565D01*
X93795120Y-82170535D01*
X93948005Y-81941727D01*
X93977692Y-81870057D01*
X93982364Y-81883023D01*
X94044344Y-81998980D01*
X94284435Y-82065960D01*
X95070395Y-81280000D01*
X94284435Y-80494040D01*
X94044344Y-80561020D01*
X93980515Y-80696760D01*
X93948005Y-80618273D01*
X93795120Y-80389465D01*
X93720090Y-80314435D01*
X94464040Y-80314435D01*
X95250000Y-81100395D01*
X96035960Y-80314435D01*
X95968980Y-80074344D01*
X95719952Y-79957244D01*
X95452865Y-79890977D01*
X95177983Y-79878090D01*
X94905867Y-79919078D01*
X94646977Y-80012364D01*
X94531020Y-80074344D01*
X94464040Y-80314435D01*
X93720090Y-80314435D01*
X93600535Y-80194880D01*
X93470000Y-80107659D01*
X93470000Y-76737341D01*
X93600535Y-76650120D01*
X93720090Y-76530565D01*
X94464040Y-76530565D01*
X94531020Y-76770656D01*
X94780048Y-76887756D01*
X95047135Y-76954023D01*
X95322017Y-76966910D01*
X95594133Y-76925922D01*
X95853023Y-76832636D01*
X95968980Y-76770656D01*
X96035960Y-76530565D01*
X95250000Y-75744605D01*
X94464040Y-76530565D01*
X93720090Y-76530565D01*
X93795120Y-76455535D01*
X93948005Y-76226727D01*
X93977692Y-76155057D01*
X93982364Y-76168023D01*
X94044344Y-76283980D01*
X94284435Y-76350960D01*
X95070395Y-75565000D01*
X94284435Y-74779040D01*
X94044344Y-74846020D01*
X93980515Y-74981760D01*
X93948005Y-74903273D01*
X93795120Y-74674465D01*
X93720090Y-74599435D01*
X94464040Y-74599435D01*
X95250000Y-75385395D01*
X96035960Y-74599435D01*
X95968980Y-74359344D01*
X95719952Y-74242244D01*
X95452865Y-74175977D01*
X95177983Y-74163090D01*
X94905867Y-74204078D01*
X94646977Y-74297364D01*
X94531020Y-74359344D01*
X94464040Y-74599435D01*
X93720090Y-74599435D01*
X93600535Y-74479880D01*
X93470000Y-74392659D01*
X93470000Y-72292341D01*
X93600535Y-72205120D01*
X93720090Y-72085565D01*
X94464040Y-72085565D01*
X94531020Y-72325656D01*
X94780048Y-72442756D01*
X95047135Y-72509023D01*
X95322017Y-72521910D01*
X95594133Y-72480922D01*
X95853023Y-72387636D01*
X95968980Y-72325656D01*
X96035960Y-72085565D01*
X95250000Y-71299605D01*
X94464040Y-72085565D01*
X93720090Y-72085565D01*
X93795120Y-72010535D01*
X93948005Y-71781727D01*
X93977692Y-71710057D01*
X93982364Y-71723023D01*
X94044344Y-71838980D01*
X94284435Y-71905960D01*
X95070395Y-71120000D01*
X94284435Y-70334040D01*
X94044344Y-70401020D01*
X93980515Y-70536760D01*
X93948005Y-70458273D01*
X93795120Y-70229465D01*
X93720090Y-70154435D01*
X94464040Y-70154435D01*
X95250000Y-70940395D01*
X96035960Y-70154435D01*
X95968980Y-69914344D01*
X95719952Y-69797244D01*
X95452865Y-69730977D01*
X95177983Y-69718090D01*
X94905867Y-69759078D01*
X94646977Y-69852364D01*
X94531020Y-69914344D01*
X94464040Y-70154435D01*
X93720090Y-70154435D01*
X93600535Y-70034880D01*
X93371727Y-69881995D01*
X93117490Y-69776686D01*
X92847592Y-69723000D01*
X92572408Y-69723000D01*
X92302510Y-69776686D01*
X92048273Y-69881995D01*
X91819465Y-70034880D01*
X91624880Y-70229465D01*
X91471995Y-70458273D01*
X91366686Y-70712510D01*
X91313000Y-70982408D01*
X91313000Y-71257592D01*
X91366686Y-71527490D01*
X91471995Y-71781727D01*
X91624880Y-72010535D01*
X91819465Y-72205120D01*
X91950001Y-72292341D01*
X91950000Y-74392659D01*
X91819465Y-74479880D01*
X91624880Y-74674465D01*
X91471995Y-74903273D01*
X91366686Y-75157510D01*
X91313000Y-75427408D01*
X91313000Y-75702592D01*
X91366686Y-75972490D01*
X91471995Y-76226727D01*
X91624880Y-76455535D01*
X91819465Y-76650120D01*
X91950001Y-76737341D01*
X91950000Y-80107659D01*
X91819465Y-80194880D01*
X91624880Y-80389465D01*
X91471995Y-80618273D01*
X91366686Y-80872510D01*
X91313000Y-81142408D01*
X91313000Y-81417592D01*
X91366686Y-81687490D01*
X91471995Y-81941727D01*
X91624880Y-82170535D01*
X91819465Y-82365120D01*
X91950000Y-82452341D01*
X91950001Y-85187659D01*
X91819465Y-85274880D01*
X91624880Y-85469465D01*
X91471995Y-85698273D01*
X91366686Y-85952510D01*
X91313000Y-86222408D01*
X91313000Y-86497592D01*
X91366686Y-86767490D01*
X91471995Y-87021727D01*
X91624880Y-87250535D01*
X91819465Y-87445120D01*
X91950001Y-87532341D01*
X91950000Y-90267659D01*
X91819465Y-90354880D01*
X91624880Y-90549465D01*
X91471995Y-90778273D01*
X91366686Y-91032510D01*
X91313000Y-91302408D01*
X91313000Y-91577592D01*
X91366686Y-91847490D01*
X91471995Y-92101727D01*
X91624880Y-92330535D01*
X91819465Y-92525120D01*
X91950001Y-92612341D01*
X91950000Y-95347659D01*
X91819465Y-95434880D01*
X91624880Y-95629465D01*
X91471995Y-95858273D01*
X91366686Y-96112510D01*
X91313000Y-96382408D01*
X91313000Y-96657592D01*
X91366686Y-96927490D01*
X91471995Y-97181727D01*
X91624880Y-97410535D01*
X91819465Y-97605120D01*
X91950000Y-97692341D01*
X91950000Y-98387677D01*
X91946324Y-98425000D01*
X91950000Y-98462322D01*
X91950000Y-98462332D01*
X91960997Y-98573985D01*
X92004454Y-98717246D01*
X92075026Y-98849276D01*
X92114871Y-98897826D01*
X92169999Y-98965001D01*
X92199003Y-98988804D01*
X94051201Y-100841003D01*
X94074999Y-100870001D01*
X94190724Y-100964974D01*
X94322753Y-101035546D01*
X94466014Y-101079003D01*
X94577667Y-101090000D01*
X94577677Y-101090000D01*
X94615000Y-101093676D01*
X94652323Y-101090000D01*
X104737678Y-101090000D01*
X104775000Y-101093676D01*
X104812322Y-101090000D01*
X104812333Y-101090000D01*
X104923986Y-101079003D01*
X105067247Y-101035546D01*
X105199276Y-100964974D01*
X105315001Y-100870001D01*
X105338804Y-100840997D01*
X107826008Y-98353795D01*
X107855001Y-98330001D01*
X107878795Y-98301008D01*
X107878799Y-98301004D01*
X107949973Y-98214277D01*
X107949974Y-98214276D01*
X108020546Y-98082247D01*
X108064003Y-97938986D01*
X108075000Y-97827333D01*
X108075000Y-97827324D01*
X108078676Y-97790001D01*
X108075000Y-97752678D01*
X108075000Y-84134801D01*
X112088005Y-80121797D01*
X112117002Y-80098000D01*
X112211975Y-79982275D01*
X112282547Y-79850246D01*
X112326004Y-79706985D01*
X112337001Y-79595332D01*
X112337001Y-79595331D01*
X112340678Y-79557999D01*
X112337001Y-79520666D01*
X112337001Y-63631802D01*
X112606395Y-63362408D01*
X119253000Y-63362408D01*
X119253000Y-63637592D01*
X119306686Y-63907490D01*
X119411995Y-64161727D01*
X119564880Y-64390535D01*
X119759465Y-64585120D01*
X119988273Y-64738005D01*
X120065515Y-64770000D01*
X119988273Y-64801995D01*
X119759465Y-64954880D01*
X119564880Y-65149465D01*
X119411995Y-65378273D01*
X119306686Y-65632510D01*
X119253000Y-65902408D01*
X119253000Y-66177592D01*
X119306686Y-66447490D01*
X119411995Y-66701727D01*
X119564880Y-66930535D01*
X119759465Y-67125120D01*
X119988273Y-67278005D01*
X120065515Y-67310000D01*
X119988273Y-67341995D01*
X119759465Y-67494880D01*
X119564880Y-67689465D01*
X119411995Y-67918273D01*
X119306686Y-68172510D01*
X119253000Y-68442408D01*
X119253000Y-68717592D01*
X119306686Y-68987490D01*
X119411995Y-69241727D01*
X119564880Y-69470535D01*
X119759465Y-69665120D01*
X119988273Y-69818005D01*
X120065515Y-69850000D01*
X119988273Y-69881995D01*
X119759465Y-70034880D01*
X119564880Y-70229465D01*
X119411995Y-70458273D01*
X119306686Y-70712510D01*
X119253000Y-70982408D01*
X119253000Y-71257592D01*
X119306686Y-71527490D01*
X119411995Y-71781727D01*
X119564880Y-72010535D01*
X119759465Y-72205120D01*
X119988273Y-72358005D01*
X120065515Y-72390000D01*
X119988273Y-72421995D01*
X119759465Y-72574880D01*
X119564880Y-72769465D01*
X119411995Y-72998273D01*
X119306686Y-73252510D01*
X119253000Y-73522408D01*
X119253000Y-73797592D01*
X119306686Y-74067490D01*
X119411995Y-74321727D01*
X119564880Y-74550535D01*
X119759465Y-74745120D01*
X119988273Y-74898005D01*
X120065515Y-74930000D01*
X119988273Y-74961995D01*
X119759465Y-75114880D01*
X119564880Y-75309465D01*
X119411995Y-75538273D01*
X119306686Y-75792510D01*
X119253000Y-76062408D01*
X119253000Y-76337592D01*
X119306686Y-76607490D01*
X119411995Y-76861727D01*
X119564880Y-77090535D01*
X119759465Y-77285120D01*
X119988273Y-77438005D01*
X120065515Y-77470000D01*
X119988273Y-77501995D01*
X119759465Y-77654880D01*
X119564880Y-77849465D01*
X119411995Y-78078273D01*
X119306686Y-78332510D01*
X119253000Y-78602408D01*
X119253000Y-78877592D01*
X119306686Y-79147490D01*
X119411995Y-79401727D01*
X119564880Y-79630535D01*
X119759465Y-79825120D01*
X119988273Y-79978005D01*
X120065515Y-80010000D01*
X119988273Y-80041995D01*
X119759465Y-80194880D01*
X119564880Y-80389465D01*
X119411995Y-80618273D01*
X119306686Y-80872510D01*
X119253000Y-81142408D01*
X119253000Y-81417592D01*
X119306686Y-81687490D01*
X119411995Y-81941727D01*
X119564880Y-82170535D01*
X119759465Y-82365120D01*
X119988273Y-82518005D01*
X120065515Y-82550000D01*
X119988273Y-82581995D01*
X119759465Y-82734880D01*
X119564880Y-82929465D01*
X119411995Y-83158273D01*
X119306686Y-83412510D01*
X119253000Y-83682408D01*
X119253000Y-83957592D01*
X119306686Y-84227490D01*
X119411995Y-84481727D01*
X119564880Y-84710535D01*
X119759465Y-84905120D01*
X119988273Y-85058005D01*
X120065515Y-85090000D01*
X119988273Y-85121995D01*
X119759465Y-85274880D01*
X119564880Y-85469465D01*
X119411995Y-85698273D01*
X119306686Y-85952510D01*
X119253000Y-86222408D01*
X119253000Y-86497592D01*
X119306686Y-86767490D01*
X119411995Y-87021727D01*
X119564880Y-87250535D01*
X119759465Y-87445120D01*
X119988273Y-87598005D01*
X120065515Y-87630000D01*
X119988273Y-87661995D01*
X119759465Y-87814880D01*
X119564880Y-88009465D01*
X119411995Y-88238273D01*
X119306686Y-88492510D01*
X119253000Y-88762408D01*
X119253000Y-89037592D01*
X119306686Y-89307490D01*
X119411995Y-89561727D01*
X119564880Y-89790535D01*
X119759465Y-89985120D01*
X119988273Y-90138005D01*
X120065515Y-90170000D01*
X119988273Y-90201995D01*
X119759465Y-90354880D01*
X119564880Y-90549465D01*
X119411995Y-90778273D01*
X119306686Y-91032510D01*
X119253000Y-91302408D01*
X119253000Y-91577592D01*
X119306686Y-91847490D01*
X119411995Y-92101727D01*
X119564880Y-92330535D01*
X119759465Y-92525120D01*
X119988273Y-92678005D01*
X120242510Y-92783314D01*
X120512408Y-92837000D01*
X120787592Y-92837000D01*
X121057490Y-92783314D01*
X121311727Y-92678005D01*
X121540535Y-92525120D01*
X121660090Y-92405565D01*
X154789040Y-92405565D01*
X154856020Y-92645656D01*
X155105048Y-92762756D01*
X155372135Y-92829023D01*
X155647017Y-92841910D01*
X155919133Y-92800922D01*
X156178023Y-92707636D01*
X156293980Y-92645656D01*
X156360960Y-92405565D01*
X155575000Y-91619605D01*
X154789040Y-92405565D01*
X121660090Y-92405565D01*
X121735120Y-92330535D01*
X121888005Y-92101727D01*
X121993314Y-91847490D01*
X122047000Y-91577592D01*
X122047000Y-91512017D01*
X154173090Y-91512017D01*
X154214078Y-91784133D01*
X154307364Y-92043023D01*
X154369344Y-92158980D01*
X154609435Y-92225960D01*
X155395395Y-91440000D01*
X155754605Y-91440000D01*
X156540565Y-92225960D01*
X156780656Y-92158980D01*
X156844485Y-92023240D01*
X156876995Y-92101727D01*
X157029880Y-92330535D01*
X157224465Y-92525120D01*
X157453273Y-92678005D01*
X157707510Y-92783314D01*
X157977408Y-92837000D01*
X158252592Y-92837000D01*
X158522490Y-92783314D01*
X158776727Y-92678005D01*
X159005535Y-92525120D01*
X159200120Y-92330535D01*
X159353005Y-92101727D01*
X159385000Y-92024485D01*
X159416995Y-92101727D01*
X159569880Y-92330535D01*
X159764465Y-92525120D01*
X159993273Y-92678005D01*
X160247510Y-92783314D01*
X160517408Y-92837000D01*
X160792592Y-92837000D01*
X161062490Y-92783314D01*
X161316727Y-92678005D01*
X161545535Y-92525120D01*
X161665090Y-92405565D01*
X169394040Y-92405565D01*
X169461020Y-92645656D01*
X169710048Y-92762756D01*
X169977135Y-92829023D01*
X170252017Y-92841910D01*
X170524133Y-92800922D01*
X170783023Y-92707636D01*
X170898980Y-92645656D01*
X170965960Y-92405565D01*
X170180000Y-91619605D01*
X169394040Y-92405565D01*
X161665090Y-92405565D01*
X161740120Y-92330535D01*
X161893005Y-92101727D01*
X161998314Y-91847490D01*
X162052000Y-91577592D01*
X162052000Y-91512017D01*
X168778090Y-91512017D01*
X168819078Y-91784133D01*
X168912364Y-92043023D01*
X168974344Y-92158980D01*
X169214435Y-92225960D01*
X170000395Y-91440000D01*
X170359605Y-91440000D01*
X171145565Y-92225960D01*
X171385656Y-92158980D01*
X171449485Y-92023240D01*
X171481995Y-92101727D01*
X171634880Y-92330535D01*
X171829465Y-92525120D01*
X172058273Y-92678005D01*
X172312510Y-92783314D01*
X172582408Y-92837000D01*
X172857592Y-92837000D01*
X173127490Y-92783314D01*
X173381727Y-92678005D01*
X173610535Y-92525120D01*
X173805120Y-92330535D01*
X173958005Y-92101727D01*
X173990000Y-92024485D01*
X174021995Y-92101727D01*
X174174880Y-92330535D01*
X174369465Y-92525120D01*
X174598273Y-92678005D01*
X174852510Y-92783314D01*
X175122408Y-92837000D01*
X175397592Y-92837000D01*
X175667490Y-92783314D01*
X175921727Y-92678005D01*
X176150535Y-92525120D01*
X176345120Y-92330535D01*
X176498005Y-92101727D01*
X176603314Y-91847490D01*
X176657000Y-91577592D01*
X176657000Y-91302408D01*
X176603314Y-91032510D01*
X176498005Y-90778273D01*
X176345120Y-90549465D01*
X176150535Y-90354880D01*
X176020000Y-90267659D01*
X176020000Y-84992341D01*
X176150535Y-84905120D01*
X176345120Y-84710535D01*
X176498005Y-84481727D01*
X176603314Y-84227490D01*
X176657000Y-83957592D01*
X176657000Y-83682408D01*
X176603314Y-83412510D01*
X176498005Y-83158273D01*
X176345120Y-82929465D01*
X176150535Y-82734880D01*
X175921727Y-82581995D01*
X175667490Y-82476686D01*
X175397592Y-82423000D01*
X175122408Y-82423000D01*
X174852510Y-82476686D01*
X174598273Y-82581995D01*
X174369465Y-82734880D01*
X174174880Y-82929465D01*
X174021995Y-83158273D01*
X173916686Y-83412510D01*
X173863000Y-83682408D01*
X173863000Y-83957592D01*
X173916686Y-84227490D01*
X174021995Y-84481727D01*
X174174880Y-84710535D01*
X174369465Y-84905120D01*
X174500000Y-84992341D01*
X174500001Y-90267659D01*
X174369465Y-90354880D01*
X174174880Y-90549465D01*
X174021995Y-90778273D01*
X173990000Y-90855515D01*
X173958005Y-90778273D01*
X173805120Y-90549465D01*
X173610535Y-90354880D01*
X173381727Y-90201995D01*
X173127490Y-90096686D01*
X172857592Y-90043000D01*
X172582408Y-90043000D01*
X172312510Y-90096686D01*
X172058273Y-90201995D01*
X171829465Y-90354880D01*
X171634880Y-90549465D01*
X171481995Y-90778273D01*
X171452308Y-90849943D01*
X171447636Y-90836977D01*
X171385656Y-90721020D01*
X171145565Y-90654040D01*
X170359605Y-91440000D01*
X170000395Y-91440000D01*
X169214435Y-90654040D01*
X168974344Y-90721020D01*
X168857244Y-90970048D01*
X168790977Y-91237135D01*
X168778090Y-91512017D01*
X162052000Y-91512017D01*
X162052000Y-91302408D01*
X161998314Y-91032510D01*
X161893005Y-90778273D01*
X161740120Y-90549465D01*
X161665090Y-90474435D01*
X169394040Y-90474435D01*
X170180000Y-91260395D01*
X170965960Y-90474435D01*
X170898980Y-90234344D01*
X170649952Y-90117244D01*
X170382865Y-90050977D01*
X170107983Y-90038090D01*
X169835867Y-90079078D01*
X169576977Y-90172364D01*
X169461020Y-90234344D01*
X169394040Y-90474435D01*
X161665090Y-90474435D01*
X161545535Y-90354880D01*
X161415000Y-90267659D01*
X161415000Y-84992341D01*
X161545535Y-84905120D01*
X161665090Y-84785565D01*
X169394040Y-84785565D01*
X169461020Y-85025656D01*
X169710048Y-85142756D01*
X169977135Y-85209023D01*
X170252017Y-85221910D01*
X170524133Y-85180922D01*
X170783023Y-85087636D01*
X170898980Y-85025656D01*
X170965960Y-84785565D01*
X170180000Y-83999605D01*
X169394040Y-84785565D01*
X161665090Y-84785565D01*
X161740120Y-84710535D01*
X161893005Y-84481727D01*
X161998314Y-84227490D01*
X162052000Y-83957592D01*
X162052000Y-83892017D01*
X168778090Y-83892017D01*
X168819078Y-84164133D01*
X168912364Y-84423023D01*
X168974344Y-84538980D01*
X169214435Y-84605960D01*
X170000395Y-83820000D01*
X170359605Y-83820000D01*
X171145565Y-84605960D01*
X171385656Y-84538980D01*
X171502756Y-84289952D01*
X171569023Y-84022865D01*
X171581910Y-83747983D01*
X171540922Y-83475867D01*
X171447636Y-83216977D01*
X171385656Y-83101020D01*
X171145565Y-83034040D01*
X170359605Y-83820000D01*
X170000395Y-83820000D01*
X169214435Y-83034040D01*
X168974344Y-83101020D01*
X168857244Y-83350048D01*
X168790977Y-83617135D01*
X168778090Y-83892017D01*
X162052000Y-83892017D01*
X162052000Y-83682408D01*
X161998314Y-83412510D01*
X161893005Y-83158273D01*
X161740120Y-82929465D01*
X161665090Y-82854435D01*
X169394040Y-82854435D01*
X170180000Y-83640395D01*
X170965960Y-82854435D01*
X170898980Y-82614344D01*
X170649952Y-82497244D01*
X170382865Y-82430977D01*
X170107983Y-82418090D01*
X169835867Y-82459078D01*
X169576977Y-82552364D01*
X169461020Y-82614344D01*
X169394040Y-82854435D01*
X161665090Y-82854435D01*
X161545535Y-82734880D01*
X161316727Y-82581995D01*
X161062490Y-82476686D01*
X160792592Y-82423000D01*
X160517408Y-82423000D01*
X160247510Y-82476686D01*
X159993273Y-82581995D01*
X159764465Y-82734880D01*
X159569880Y-82929465D01*
X159416995Y-83158273D01*
X159311686Y-83412510D01*
X159258000Y-83682408D01*
X159258000Y-83957592D01*
X159311686Y-84227490D01*
X159416995Y-84481727D01*
X159569880Y-84710535D01*
X159764465Y-84905120D01*
X159895000Y-84992341D01*
X159895001Y-90267659D01*
X159764465Y-90354880D01*
X159569880Y-90549465D01*
X159416995Y-90778273D01*
X159385000Y-90855515D01*
X159353005Y-90778273D01*
X159200120Y-90549465D01*
X159005535Y-90354880D01*
X158776727Y-90201995D01*
X158522490Y-90096686D01*
X158252592Y-90043000D01*
X157977408Y-90043000D01*
X157707510Y-90096686D01*
X157453273Y-90201995D01*
X157224465Y-90354880D01*
X157029880Y-90549465D01*
X156876995Y-90778273D01*
X156847308Y-90849943D01*
X156842636Y-90836977D01*
X156780656Y-90721020D01*
X156540565Y-90654040D01*
X155754605Y-91440000D01*
X155395395Y-91440000D01*
X154609435Y-90654040D01*
X154369344Y-90721020D01*
X154252244Y-90970048D01*
X154185977Y-91237135D01*
X154173090Y-91512017D01*
X122047000Y-91512017D01*
X122047000Y-91302408D01*
X121993314Y-91032510D01*
X121888005Y-90778273D01*
X121735120Y-90549465D01*
X121660090Y-90474435D01*
X154789040Y-90474435D01*
X155575000Y-91260395D01*
X156360960Y-90474435D01*
X156293980Y-90234344D01*
X156044952Y-90117244D01*
X155777865Y-90050977D01*
X155502983Y-90038090D01*
X155230867Y-90079078D01*
X154971977Y-90172364D01*
X154856020Y-90234344D01*
X154789040Y-90474435D01*
X121660090Y-90474435D01*
X121540535Y-90354880D01*
X121311727Y-90201995D01*
X121234485Y-90170000D01*
X121311727Y-90138005D01*
X121540535Y-89985120D01*
X121735120Y-89790535D01*
X121888005Y-89561727D01*
X121993314Y-89307490D01*
X122047000Y-89037592D01*
X122047000Y-88762408D01*
X121993314Y-88492510D01*
X121888005Y-88238273D01*
X121735120Y-88009465D01*
X121540535Y-87814880D01*
X121311727Y-87661995D01*
X121234485Y-87630000D01*
X121311727Y-87598005D01*
X121540535Y-87445120D01*
X121735120Y-87250535D01*
X121888005Y-87021727D01*
X121993314Y-86767490D01*
X122047000Y-86497592D01*
X122047000Y-86222408D01*
X121993314Y-85952510D01*
X121888005Y-85698273D01*
X121735120Y-85469465D01*
X121540535Y-85274880D01*
X121311727Y-85121995D01*
X121234485Y-85090000D01*
X121311727Y-85058005D01*
X121540535Y-84905120D01*
X121735120Y-84710535D01*
X121888005Y-84481727D01*
X121993314Y-84227490D01*
X122047000Y-83957592D01*
X122047000Y-83682408D01*
X121993314Y-83412510D01*
X121888005Y-83158273D01*
X121735120Y-82929465D01*
X121540535Y-82734880D01*
X121311727Y-82581995D01*
X121234485Y-82550000D01*
X121311727Y-82518005D01*
X121540535Y-82365120D01*
X121735120Y-82170535D01*
X121822341Y-82040000D01*
X124557659Y-82040000D01*
X124644880Y-82170535D01*
X124839465Y-82365120D01*
X125068273Y-82518005D01*
X125145515Y-82550000D01*
X125068273Y-82581995D01*
X124839465Y-82734880D01*
X124644880Y-82929465D01*
X124491995Y-83158273D01*
X124386686Y-83412510D01*
X124333000Y-83682408D01*
X124333000Y-83957592D01*
X124386686Y-84227490D01*
X124491995Y-84481727D01*
X124644880Y-84710535D01*
X124839465Y-84905120D01*
X125068273Y-85058005D01*
X125145515Y-85090000D01*
X125068273Y-85121995D01*
X124839465Y-85274880D01*
X124644880Y-85469465D01*
X124491995Y-85698273D01*
X124386686Y-85952510D01*
X124333000Y-86222408D01*
X124333000Y-86497592D01*
X124386686Y-86767490D01*
X124491995Y-87021727D01*
X124644880Y-87250535D01*
X124839465Y-87445120D01*
X125068273Y-87598005D01*
X125322510Y-87703314D01*
X125592408Y-87757000D01*
X125867592Y-87757000D01*
X126137490Y-87703314D01*
X126391727Y-87598005D01*
X126620535Y-87445120D01*
X126740090Y-87325565D01*
X145264040Y-87325565D01*
X145331020Y-87565656D01*
X145580048Y-87682756D01*
X145847135Y-87749023D01*
X146122017Y-87761910D01*
X146394133Y-87720922D01*
X146653023Y-87627636D01*
X146768980Y-87565656D01*
X146835960Y-87325565D01*
X146050000Y-86539605D01*
X145264040Y-87325565D01*
X126740090Y-87325565D01*
X126815120Y-87250535D01*
X126968005Y-87021727D01*
X127073314Y-86767490D01*
X127127000Y-86497592D01*
X127127000Y-86432017D01*
X144648090Y-86432017D01*
X144689078Y-86704133D01*
X144782364Y-86963023D01*
X144844344Y-87078980D01*
X145084435Y-87145960D01*
X145870395Y-86360000D01*
X146229605Y-86360000D01*
X147015565Y-87145960D01*
X147255656Y-87078980D01*
X147372756Y-86829952D01*
X147439023Y-86562865D01*
X147451910Y-86287983D01*
X147410922Y-86015867D01*
X147317636Y-85756977D01*
X147255656Y-85641020D01*
X147015565Y-85574040D01*
X146229605Y-86360000D01*
X145870395Y-86360000D01*
X145084435Y-85574040D01*
X144844344Y-85641020D01*
X144727244Y-85890048D01*
X144660977Y-86157135D01*
X144648090Y-86432017D01*
X127127000Y-86432017D01*
X127127000Y-86222408D01*
X127073314Y-85952510D01*
X126968005Y-85698273D01*
X126815120Y-85469465D01*
X126620535Y-85274880D01*
X126391727Y-85121995D01*
X126314485Y-85090000D01*
X126391727Y-85058005D01*
X126620535Y-84905120D01*
X126815120Y-84710535D01*
X126968005Y-84481727D01*
X127073314Y-84227490D01*
X127127000Y-83957592D01*
X127127000Y-83682408D01*
X127073314Y-83412510D01*
X126968005Y-83158273D01*
X126815120Y-82929465D01*
X126620535Y-82734880D01*
X126391727Y-82581995D01*
X126314485Y-82550000D01*
X126391727Y-82518005D01*
X126620535Y-82365120D01*
X126815120Y-82170535D01*
X126968005Y-81941727D01*
X127073314Y-81687490D01*
X127127000Y-81417592D01*
X127127000Y-81142408D01*
X144653000Y-81142408D01*
X144653000Y-81417592D01*
X144706686Y-81687490D01*
X144811995Y-81941727D01*
X144964880Y-82170535D01*
X145159465Y-82365120D01*
X145388273Y-82518005D01*
X145465515Y-82550000D01*
X145388273Y-82581995D01*
X145159465Y-82734880D01*
X144964880Y-82929465D01*
X144811995Y-83158273D01*
X144706686Y-83412510D01*
X144653000Y-83682408D01*
X144653000Y-83957592D01*
X144706686Y-84227490D01*
X144811995Y-84481727D01*
X144964880Y-84710535D01*
X145159465Y-84905120D01*
X145388273Y-85058005D01*
X145459943Y-85087692D01*
X145446977Y-85092364D01*
X145331020Y-85154344D01*
X145264040Y-85394435D01*
X146050000Y-86180395D01*
X146835960Y-85394435D01*
X146768980Y-85154344D01*
X146633240Y-85090515D01*
X146711727Y-85058005D01*
X146940535Y-84905120D01*
X147060090Y-84785565D01*
X154789040Y-84785565D01*
X154856020Y-85025656D01*
X155105048Y-85142756D01*
X155372135Y-85209023D01*
X155647017Y-85221910D01*
X155919133Y-85180922D01*
X156178023Y-85087636D01*
X156293980Y-85025656D01*
X156360960Y-84785565D01*
X155575000Y-83999605D01*
X154789040Y-84785565D01*
X147060090Y-84785565D01*
X147135120Y-84710535D01*
X147222341Y-84580000D01*
X149187678Y-84580000D01*
X149225000Y-84583676D01*
X149262322Y-84580000D01*
X149262333Y-84580000D01*
X149373986Y-84569003D01*
X149517247Y-84525546D01*
X149649276Y-84454974D01*
X149765001Y-84360001D01*
X149788804Y-84330997D01*
X150227784Y-83892017D01*
X154173090Y-83892017D01*
X154214078Y-84164133D01*
X154307364Y-84423023D01*
X154369344Y-84538980D01*
X154609435Y-84605960D01*
X155395395Y-83820000D01*
X155754605Y-83820000D01*
X156540565Y-84605960D01*
X156780656Y-84538980D01*
X156897756Y-84289952D01*
X156964023Y-84022865D01*
X156976910Y-83747983D01*
X156935922Y-83475867D01*
X156842636Y-83216977D01*
X156780656Y-83101020D01*
X156540565Y-83034040D01*
X155754605Y-83820000D01*
X155395395Y-83820000D01*
X154609435Y-83034040D01*
X154369344Y-83101020D01*
X154252244Y-83350048D01*
X154185977Y-83617135D01*
X154173090Y-83892017D01*
X150227784Y-83892017D01*
X151265366Y-82854435D01*
X154789040Y-82854435D01*
X155575000Y-83640395D01*
X156360960Y-82854435D01*
X156293980Y-82614344D01*
X156044952Y-82497244D01*
X155777865Y-82430977D01*
X155502983Y-82418090D01*
X155230867Y-82459078D01*
X154971977Y-82552364D01*
X154856020Y-82614344D01*
X154789040Y-82854435D01*
X151265366Y-82854435D01*
X159896004Y-74223798D01*
X159925001Y-74200001D01*
X160019974Y-74084276D01*
X160090546Y-73952247D01*
X160134003Y-73808986D01*
X160145000Y-73697333D01*
X160145000Y-73697325D01*
X160148676Y-73660000D01*
X160145000Y-73622675D01*
X160145000Y-49432341D01*
X160275535Y-49345120D01*
X160470120Y-49150535D01*
X160623005Y-48921727D01*
X160655000Y-48844485D01*
X160686995Y-48921727D01*
X160839880Y-49150535D01*
X161034465Y-49345120D01*
X161263273Y-49498005D01*
X161517510Y-49603314D01*
X161787408Y-49657000D01*
X162062592Y-49657000D01*
X162332490Y-49603314D01*
X162586727Y-49498005D01*
X162815535Y-49345120D01*
X162935090Y-49225565D01*
X168124040Y-49225565D01*
X168191020Y-49465656D01*
X168440048Y-49582756D01*
X168707135Y-49649023D01*
X168982017Y-49661910D01*
X169254133Y-49620922D01*
X169513023Y-49527636D01*
X169628980Y-49465656D01*
X169695960Y-49225565D01*
X170664040Y-49225565D01*
X170731020Y-49465656D01*
X170980048Y-49582756D01*
X171247135Y-49649023D01*
X171522017Y-49661910D01*
X171794133Y-49620922D01*
X172053023Y-49527636D01*
X172168980Y-49465656D01*
X172235960Y-49225565D01*
X171450000Y-48439605D01*
X170664040Y-49225565D01*
X169695960Y-49225565D01*
X168910000Y-48439605D01*
X168124040Y-49225565D01*
X162935090Y-49225565D01*
X163010120Y-49150535D01*
X163163005Y-48921727D01*
X163268314Y-48667490D01*
X163322000Y-48397592D01*
X163322000Y-48332017D01*
X167508090Y-48332017D01*
X167549078Y-48604133D01*
X167642364Y-48863023D01*
X167704344Y-48978980D01*
X167944435Y-49045960D01*
X168730395Y-48260000D01*
X169089605Y-48260000D01*
X169875565Y-49045960D01*
X170115656Y-48978980D01*
X170177079Y-48848356D01*
X170182364Y-48863023D01*
X170244344Y-48978980D01*
X170484435Y-49045960D01*
X171270395Y-48260000D01*
X170484435Y-47474040D01*
X170244344Y-47541020D01*
X170182921Y-47671644D01*
X170177636Y-47656977D01*
X170115656Y-47541020D01*
X169875565Y-47474040D01*
X169089605Y-48260000D01*
X168730395Y-48260000D01*
X167944435Y-47474040D01*
X167704344Y-47541020D01*
X167587244Y-47790048D01*
X167520977Y-48057135D01*
X167508090Y-48332017D01*
X163322000Y-48332017D01*
X163322000Y-48122408D01*
X163268314Y-47852510D01*
X163163005Y-47598273D01*
X163010120Y-47369465D01*
X162935090Y-47294435D01*
X168124040Y-47294435D01*
X168910000Y-48080395D01*
X169695960Y-47294435D01*
X169628980Y-47054344D01*
X169379952Y-46937244D01*
X169112865Y-46870977D01*
X168837983Y-46858090D01*
X168565867Y-46899078D01*
X168306977Y-46992364D01*
X168191020Y-47054344D01*
X168124040Y-47294435D01*
X162935090Y-47294435D01*
X162815535Y-47174880D01*
X162586727Y-47021995D01*
X162332490Y-46916686D01*
X162062592Y-46863000D01*
X161787408Y-46863000D01*
X161517510Y-46916686D01*
X161263273Y-47021995D01*
X161034465Y-47174880D01*
X160839880Y-47369465D01*
X160686995Y-47598273D01*
X160655000Y-47675515D01*
X160623005Y-47598273D01*
X160470120Y-47369465D01*
X160275535Y-47174880D01*
X160046727Y-47021995D01*
X159792490Y-46916686D01*
X159522592Y-46863000D01*
X159247408Y-46863000D01*
X158977510Y-46916686D01*
X158723273Y-47021995D01*
X158494465Y-47174880D01*
X158299880Y-47369465D01*
X158146995Y-47598273D01*
X158117308Y-47669943D01*
X158112636Y-47656977D01*
X158050656Y-47541020D01*
X157810565Y-47474040D01*
X157024605Y-48260000D01*
X157810565Y-49045960D01*
X158050656Y-48978980D01*
X158114485Y-48843240D01*
X158146995Y-48921727D01*
X158299880Y-49150535D01*
X158494465Y-49345120D01*
X158625001Y-49432342D01*
X158625000Y-73345198D01*
X148910199Y-83060000D01*
X147222341Y-83060000D01*
X147135120Y-82929465D01*
X146940535Y-82734880D01*
X146711727Y-82581995D01*
X146634485Y-82550000D01*
X146711727Y-82518005D01*
X146940535Y-82365120D01*
X147135120Y-82170535D01*
X147288005Y-81941727D01*
X147393314Y-81687490D01*
X147447000Y-81417592D01*
X147447000Y-81142408D01*
X147416372Y-80988429D01*
X150371004Y-78033798D01*
X150400001Y-78010001D01*
X150494974Y-77894276D01*
X150565546Y-77762247D01*
X150609003Y-77618986D01*
X150620000Y-77507333D01*
X150620000Y-77507325D01*
X150623676Y-77470000D01*
X150620000Y-77432675D01*
X150620000Y-49844801D01*
X151239236Y-49225565D01*
X153519040Y-49225565D01*
X153586020Y-49465656D01*
X153835048Y-49582756D01*
X154102135Y-49649023D01*
X154377017Y-49661910D01*
X154649133Y-49620922D01*
X154908023Y-49527636D01*
X155023980Y-49465656D01*
X155090960Y-49225565D01*
X156059040Y-49225565D01*
X156126020Y-49465656D01*
X156375048Y-49582756D01*
X156642135Y-49649023D01*
X156917017Y-49661910D01*
X157189133Y-49620922D01*
X157448023Y-49527636D01*
X157563980Y-49465656D01*
X157630960Y-49225565D01*
X156845000Y-48439605D01*
X156059040Y-49225565D01*
X155090960Y-49225565D01*
X154305000Y-48439605D01*
X153519040Y-49225565D01*
X151239236Y-49225565D01*
X152132784Y-48332017D01*
X152903090Y-48332017D01*
X152944078Y-48604133D01*
X153037364Y-48863023D01*
X153099344Y-48978980D01*
X153339435Y-49045960D01*
X154125395Y-48260000D01*
X154484605Y-48260000D01*
X155270565Y-49045960D01*
X155510656Y-48978980D01*
X155572079Y-48848356D01*
X155577364Y-48863023D01*
X155639344Y-48978980D01*
X155879435Y-49045960D01*
X156665395Y-48260000D01*
X155879435Y-47474040D01*
X155639344Y-47541020D01*
X155577921Y-47671644D01*
X155572636Y-47656977D01*
X155510656Y-47541020D01*
X155270565Y-47474040D01*
X154484605Y-48260000D01*
X154125395Y-48260000D01*
X153339435Y-47474040D01*
X153099344Y-47541020D01*
X152982244Y-47790048D01*
X152915977Y-48057135D01*
X152903090Y-48332017D01*
X152132784Y-48332017D01*
X153170366Y-47294435D01*
X153519040Y-47294435D01*
X154305000Y-48080395D01*
X155090960Y-47294435D01*
X156059040Y-47294435D01*
X156845000Y-48080395D01*
X157630960Y-47294435D01*
X157563980Y-47054344D01*
X157314952Y-46937244D01*
X157047865Y-46870977D01*
X156772983Y-46858090D01*
X156500867Y-46899078D01*
X156241977Y-46992364D01*
X156126020Y-47054344D01*
X156059040Y-47294435D01*
X155090960Y-47294435D01*
X155023980Y-47054344D01*
X154774952Y-46937244D01*
X154507865Y-46870977D01*
X154232983Y-46858090D01*
X153960867Y-46899078D01*
X153701977Y-46992364D01*
X153586020Y-47054344D01*
X153519040Y-47294435D01*
X153170366Y-47294435D01*
X153984802Y-46480000D01*
X171135199Y-46480000D01*
X171519944Y-46864745D01*
X171377983Y-46858090D01*
X171105867Y-46899078D01*
X170846977Y-46992364D01*
X170731020Y-47054344D01*
X170664040Y-47294435D01*
X171450000Y-48080395D01*
X171464143Y-48066253D01*
X171643748Y-48245858D01*
X171629605Y-48260000D01*
X172415565Y-49045960D01*
X172655656Y-48978980D01*
X172719485Y-48843240D01*
X172751995Y-48921727D01*
X172904880Y-49150535D01*
X173099465Y-49345120D01*
X173328273Y-49498005D01*
X173582510Y-49603314D01*
X173852408Y-49657000D01*
X174127592Y-49657000D01*
X174397490Y-49603314D01*
X174651727Y-49498005D01*
X174880535Y-49345120D01*
X175075120Y-49150535D01*
X175228005Y-48921727D01*
X175260000Y-48844485D01*
X175291995Y-48921727D01*
X175444880Y-49150535D01*
X175639465Y-49345120D01*
X175868273Y-49498005D01*
X176122510Y-49603314D01*
X176392408Y-49657000D01*
X176667592Y-49657000D01*
X176937490Y-49603314D01*
X177191727Y-49498005D01*
X177420535Y-49345120D01*
X177615120Y-49150535D01*
X177768005Y-48921727D01*
X177873314Y-48667490D01*
X177927000Y-48397592D01*
X177927000Y-48122408D01*
X177873314Y-47852510D01*
X177768005Y-47598273D01*
X177615120Y-47369465D01*
X177420535Y-47174880D01*
X177191727Y-47021995D01*
X176937490Y-46916686D01*
X176667592Y-46863000D01*
X176392408Y-46863000D01*
X176122510Y-46916686D01*
X175868273Y-47021995D01*
X175639465Y-47174880D01*
X175444880Y-47369465D01*
X175291995Y-47598273D01*
X175260000Y-47675515D01*
X175228005Y-47598273D01*
X175075120Y-47369465D01*
X174880535Y-47174880D01*
X174651727Y-47021995D01*
X174397490Y-46916686D01*
X174127592Y-46863000D01*
X173852408Y-46863000D01*
X173698430Y-46893628D01*
X172013804Y-45209003D01*
X171990001Y-45179999D01*
X171874276Y-45085026D01*
X171742247Y-45014454D01*
X171598986Y-44970997D01*
X171487333Y-44960000D01*
X171487322Y-44960000D01*
X171450000Y-44956324D01*
X171412678Y-44960000D01*
X153707325Y-44960000D01*
X153670000Y-44956324D01*
X153632675Y-44960000D01*
X153632667Y-44960000D01*
X153521014Y-44970997D01*
X153377753Y-45014454D01*
X153245724Y-45085026D01*
X153129999Y-45179999D01*
X153106201Y-45208997D01*
X149348998Y-48966201D01*
X149320000Y-48989999D01*
X149296202Y-49018997D01*
X149296201Y-49018998D01*
X149225026Y-49105724D01*
X149154454Y-49237754D01*
X149110998Y-49381015D01*
X149096324Y-49530000D01*
X149100001Y-49567333D01*
X149100000Y-77155198D01*
X147445255Y-78809944D01*
X147451910Y-78667983D01*
X147410922Y-78395867D01*
X147317636Y-78136977D01*
X147255656Y-78021020D01*
X147015565Y-77954040D01*
X146229605Y-78740000D01*
X146243748Y-78754143D01*
X146064143Y-78933748D01*
X146050000Y-78919605D01*
X145264040Y-79705565D01*
X145331020Y-79945656D01*
X145466760Y-80009485D01*
X145388273Y-80041995D01*
X145159465Y-80194880D01*
X144964880Y-80389465D01*
X144811995Y-80618273D01*
X144706686Y-80872510D01*
X144653000Y-81142408D01*
X127127000Y-81142408D01*
X127073314Y-80872510D01*
X126968005Y-80618273D01*
X126815120Y-80389465D01*
X126620535Y-80194880D01*
X126391727Y-80041995D01*
X126314485Y-80010000D01*
X126391727Y-79978005D01*
X126620535Y-79825120D01*
X126815120Y-79630535D01*
X126968005Y-79401727D01*
X127073314Y-79147490D01*
X127127000Y-78877592D01*
X127127000Y-78812017D01*
X144648090Y-78812017D01*
X144689078Y-79084133D01*
X144782364Y-79343023D01*
X144844344Y-79458980D01*
X145084435Y-79525960D01*
X145870395Y-78740000D01*
X145084435Y-77954040D01*
X144844344Y-78021020D01*
X144727244Y-78270048D01*
X144660977Y-78537135D01*
X144648090Y-78812017D01*
X127127000Y-78812017D01*
X127127000Y-78602408D01*
X127073314Y-78332510D01*
X126968005Y-78078273D01*
X126815120Y-77849465D01*
X126620535Y-77654880D01*
X126391727Y-77501995D01*
X126314485Y-77470000D01*
X126391727Y-77438005D01*
X126620535Y-77285120D01*
X126815120Y-77090535D01*
X126968005Y-76861727D01*
X127073314Y-76607490D01*
X127127000Y-76337592D01*
X127127000Y-76062408D01*
X127073314Y-75792510D01*
X126968005Y-75538273D01*
X126815120Y-75309465D01*
X126620535Y-75114880D01*
X126391727Y-74961995D01*
X126314485Y-74930000D01*
X126391727Y-74898005D01*
X126620535Y-74745120D01*
X126815120Y-74550535D01*
X126968005Y-74321727D01*
X127073314Y-74067490D01*
X127127000Y-73797592D01*
X127127000Y-73522408D01*
X127073314Y-73252510D01*
X126968005Y-72998273D01*
X126815120Y-72769465D01*
X126620535Y-72574880D01*
X126391727Y-72421995D01*
X126314485Y-72390000D01*
X126391727Y-72358005D01*
X126620535Y-72205120D01*
X126815120Y-72010535D01*
X126968005Y-71781727D01*
X127073314Y-71527490D01*
X127127000Y-71257592D01*
X127127000Y-70982408D01*
X127073314Y-70712510D01*
X126968005Y-70458273D01*
X126815120Y-70229465D01*
X126620535Y-70034880D01*
X126391727Y-69881995D01*
X126314485Y-69850000D01*
X126391727Y-69818005D01*
X126620535Y-69665120D01*
X126815120Y-69470535D01*
X126968005Y-69241727D01*
X127073314Y-68987490D01*
X127127000Y-68717592D01*
X127127000Y-68442408D01*
X127073314Y-68172510D01*
X126968005Y-67918273D01*
X126815120Y-67689465D01*
X126620535Y-67494880D01*
X126391727Y-67341995D01*
X126314485Y-67310000D01*
X126391727Y-67278005D01*
X126620535Y-67125120D01*
X126815120Y-66930535D01*
X126968005Y-66701727D01*
X127073314Y-66447490D01*
X127127000Y-66177592D01*
X127127000Y-65902408D01*
X144653000Y-65902408D01*
X144653000Y-66177592D01*
X144706686Y-66447490D01*
X144811995Y-66701727D01*
X144964880Y-66930535D01*
X145159465Y-67125120D01*
X145388273Y-67278005D01*
X145465515Y-67310000D01*
X145388273Y-67341995D01*
X145159465Y-67494880D01*
X144964880Y-67689465D01*
X144811995Y-67918273D01*
X144706686Y-68172510D01*
X144653000Y-68442408D01*
X144653000Y-68717592D01*
X144706686Y-68987490D01*
X144811995Y-69241727D01*
X144964880Y-69470535D01*
X145159465Y-69665120D01*
X145388273Y-69818005D01*
X145465515Y-69850000D01*
X145388273Y-69881995D01*
X145159465Y-70034880D01*
X144964880Y-70229465D01*
X144811995Y-70458273D01*
X144706686Y-70712510D01*
X144653000Y-70982408D01*
X144653000Y-71257592D01*
X144706686Y-71527490D01*
X144811995Y-71781727D01*
X144964880Y-72010535D01*
X145159465Y-72205120D01*
X145388273Y-72358005D01*
X145465515Y-72390000D01*
X145388273Y-72421995D01*
X145159465Y-72574880D01*
X144964880Y-72769465D01*
X144811995Y-72998273D01*
X144706686Y-73252510D01*
X144653000Y-73522408D01*
X144653000Y-73797592D01*
X144706686Y-74067490D01*
X144811995Y-74321727D01*
X144964880Y-74550535D01*
X145159465Y-74745120D01*
X145388273Y-74898005D01*
X145465515Y-74930000D01*
X145388273Y-74961995D01*
X145159465Y-75114880D01*
X144964880Y-75309465D01*
X144811995Y-75538273D01*
X144706686Y-75792510D01*
X144653000Y-76062408D01*
X144653000Y-76337592D01*
X144706686Y-76607490D01*
X144811995Y-76861727D01*
X144964880Y-77090535D01*
X145159465Y-77285120D01*
X145388273Y-77438005D01*
X145459943Y-77467692D01*
X145446977Y-77472364D01*
X145331020Y-77534344D01*
X145264040Y-77774435D01*
X146050000Y-78560395D01*
X146835960Y-77774435D01*
X146768980Y-77534344D01*
X146633240Y-77470515D01*
X146711727Y-77438005D01*
X146940535Y-77285120D01*
X147135120Y-77090535D01*
X147288005Y-76861727D01*
X147393314Y-76607490D01*
X147447000Y-76337592D01*
X147447000Y-76062408D01*
X147393314Y-75792510D01*
X147288005Y-75538273D01*
X147135120Y-75309465D01*
X146940535Y-75114880D01*
X146711727Y-74961995D01*
X146634485Y-74930000D01*
X146711727Y-74898005D01*
X146940535Y-74745120D01*
X147135120Y-74550535D01*
X147288005Y-74321727D01*
X147393314Y-74067490D01*
X147447000Y-73797592D01*
X147447000Y-73522408D01*
X147393314Y-73252510D01*
X147288005Y-72998273D01*
X147135120Y-72769465D01*
X146940535Y-72574880D01*
X146711727Y-72421995D01*
X146634485Y-72390000D01*
X146711727Y-72358005D01*
X146940535Y-72205120D01*
X147135120Y-72010535D01*
X147288005Y-71781727D01*
X147393314Y-71527490D01*
X147447000Y-71257592D01*
X147447000Y-70982408D01*
X147393314Y-70712510D01*
X147288005Y-70458273D01*
X147135120Y-70229465D01*
X146940535Y-70034880D01*
X146711727Y-69881995D01*
X146634485Y-69850000D01*
X146711727Y-69818005D01*
X146940535Y-69665120D01*
X147135120Y-69470535D01*
X147288005Y-69241727D01*
X147393314Y-68987490D01*
X147447000Y-68717592D01*
X147447000Y-68442408D01*
X147393314Y-68172510D01*
X147288005Y-67918273D01*
X147135120Y-67689465D01*
X146940535Y-67494880D01*
X146711727Y-67341995D01*
X146634485Y-67310000D01*
X146711727Y-67278005D01*
X146940535Y-67125120D01*
X147135120Y-66930535D01*
X147288005Y-66701727D01*
X147393314Y-66447490D01*
X147447000Y-66177592D01*
X147447000Y-65902408D01*
X147393314Y-65632510D01*
X147288005Y-65378273D01*
X147135120Y-65149465D01*
X146940535Y-64954880D01*
X146711727Y-64801995D01*
X146640057Y-64772308D01*
X146653023Y-64767636D01*
X146768980Y-64705656D01*
X146835960Y-64465565D01*
X146050000Y-63679605D01*
X145264040Y-64465565D01*
X145331020Y-64705656D01*
X145466760Y-64769485D01*
X145388273Y-64801995D01*
X145159465Y-64954880D01*
X144964880Y-65149465D01*
X144811995Y-65378273D01*
X144706686Y-65632510D01*
X144653000Y-65902408D01*
X127127000Y-65902408D01*
X127073314Y-65632510D01*
X126968005Y-65378273D01*
X126815120Y-65149465D01*
X126620535Y-64954880D01*
X126391727Y-64801995D01*
X126314485Y-64770000D01*
X126391727Y-64738005D01*
X126620535Y-64585120D01*
X126815120Y-64390535D01*
X126968005Y-64161727D01*
X127073314Y-63907490D01*
X127127000Y-63637592D01*
X127127000Y-63572017D01*
X144648090Y-63572017D01*
X144689078Y-63844133D01*
X144782364Y-64103023D01*
X144844344Y-64218980D01*
X145084435Y-64285960D01*
X145870395Y-63500000D01*
X146229605Y-63500000D01*
X147015565Y-64285960D01*
X147255656Y-64218980D01*
X147372756Y-63969952D01*
X147439023Y-63702865D01*
X147451910Y-63427983D01*
X147410922Y-63155867D01*
X147317636Y-62896977D01*
X147255656Y-62781020D01*
X147015565Y-62714040D01*
X146229605Y-63500000D01*
X145870395Y-63500000D01*
X145084435Y-62714040D01*
X144844344Y-62781020D01*
X144727244Y-63030048D01*
X144660977Y-63297135D01*
X144648090Y-63572017D01*
X127127000Y-63572017D01*
X127127000Y-63362408D01*
X127073314Y-63092510D01*
X126968005Y-62838273D01*
X126815120Y-62609465D01*
X126620535Y-62414880D01*
X126391727Y-62261995D01*
X126314485Y-62230000D01*
X126391727Y-62198005D01*
X126620535Y-62045120D01*
X126815120Y-61850535D01*
X126968005Y-61621727D01*
X127073314Y-61367490D01*
X127127000Y-61097592D01*
X127127000Y-60822408D01*
X127073314Y-60552510D01*
X126968005Y-60298273D01*
X126815120Y-60069465D01*
X126620535Y-59874880D01*
X126391727Y-59721995D01*
X126137490Y-59616686D01*
X125867592Y-59563000D01*
X125592408Y-59563000D01*
X125322510Y-59616686D01*
X125068273Y-59721995D01*
X124839465Y-59874880D01*
X124644880Y-60069465D01*
X124491995Y-60298273D01*
X124386686Y-60552510D01*
X124333000Y-60822408D01*
X124333000Y-61097592D01*
X124386686Y-61367490D01*
X124491995Y-61621727D01*
X124644880Y-61850535D01*
X124839465Y-62045120D01*
X125068273Y-62198005D01*
X125145515Y-62230000D01*
X125068273Y-62261995D01*
X124839465Y-62414880D01*
X124644880Y-62609465D01*
X124557659Y-62740000D01*
X121822341Y-62740000D01*
X121735120Y-62609465D01*
X121540535Y-62414880D01*
X121311727Y-62261995D01*
X121057490Y-62156686D01*
X120787592Y-62103000D01*
X120512408Y-62103000D01*
X120242510Y-62156686D01*
X119988273Y-62261995D01*
X119759465Y-62414880D01*
X119564880Y-62609465D01*
X119411995Y-62838273D01*
X119306686Y-63092510D01*
X119253000Y-63362408D01*
X112606395Y-63362408D01*
X119328804Y-56640000D01*
X140655199Y-56640000D01*
X144683628Y-60668430D01*
X144653000Y-60822408D01*
X144653000Y-61097592D01*
X144706686Y-61367490D01*
X144811995Y-61621727D01*
X144964880Y-61850535D01*
X145159465Y-62045120D01*
X145388273Y-62198005D01*
X145459943Y-62227692D01*
X145446977Y-62232364D01*
X145331020Y-62294344D01*
X145264040Y-62534435D01*
X146050000Y-63320395D01*
X146835960Y-62534435D01*
X146768980Y-62294344D01*
X146633240Y-62230515D01*
X146711727Y-62198005D01*
X146940535Y-62045120D01*
X147135120Y-61850535D01*
X147288005Y-61621727D01*
X147393314Y-61367490D01*
X147447000Y-61097592D01*
X147447000Y-60822408D01*
X147393314Y-60552510D01*
X147288005Y-60298273D01*
X147135120Y-60069465D01*
X146940535Y-59874880D01*
X146711727Y-59721995D01*
X146457490Y-59616686D01*
X146187592Y-59563000D01*
X145912408Y-59563000D01*
X145758430Y-59593628D01*
X141533804Y-55369003D01*
X141510001Y-55339999D01*
X141394276Y-55245026D01*
X141262247Y-55174454D01*
X141118986Y-55130997D01*
X141007333Y-55120000D01*
X141007322Y-55120000D01*
X140970000Y-55116324D01*
X140932678Y-55120000D01*
X119051335Y-55120000D01*
X119014002Y-55116323D01*
X118976669Y-55120000D01*
X118865016Y-55130997D01*
X118721755Y-55174454D01*
X118690798Y-55191001D01*
X114685803Y-55191001D01*
X114355803Y-54861002D01*
X114332001Y-54831999D01*
X114216276Y-54737026D01*
X114084247Y-54666454D01*
X113940986Y-54622997D01*
X113829333Y-54612000D01*
X113829322Y-54612000D01*
X113792000Y-54608324D01*
X113754678Y-54612000D01*
X109511322Y-54612000D01*
X109473999Y-54608324D01*
X109436676Y-54612000D01*
X109436667Y-54612000D01*
X109325014Y-54622997D01*
X109181753Y-54666454D01*
X109049724Y-54737026D01*
X109049722Y-54737027D01*
X109049723Y-54737027D01*
X108962996Y-54808201D01*
X108962992Y-54808205D01*
X108933999Y-54831999D01*
X108910205Y-54860992D01*
X108241570Y-55529628D01*
X108087592Y-55499000D01*
X107812408Y-55499000D01*
X107542510Y-55552686D01*
X107288273Y-55657995D01*
X107059465Y-55810880D01*
X106864880Y-56005465D01*
X106711995Y-56234273D01*
X106682308Y-56305943D01*
X106677636Y-56292977D01*
X106615656Y-56177020D01*
X106375565Y-56110040D01*
X105589605Y-56896000D01*
X106375565Y-57681960D01*
X106615656Y-57614980D01*
X106679485Y-57479240D01*
X106711995Y-57557727D01*
X106864880Y-57786535D01*
X107059465Y-57981120D01*
X107288273Y-58134005D01*
X107542510Y-58239314D01*
X107812408Y-58293000D01*
X108087592Y-58293000D01*
X108357490Y-58239314D01*
X108611727Y-58134005D01*
X108840535Y-57981120D01*
X109035120Y-57786535D01*
X109188005Y-57557727D01*
X109220000Y-57480485D01*
X109251995Y-57557727D01*
X109404880Y-57786535D01*
X109599465Y-57981120D01*
X109730001Y-58068341D01*
X109730000Y-62423198D01*
X106873199Y-65280000D01*
X106582341Y-65280000D01*
X106495120Y-65149465D01*
X106300535Y-64954880D01*
X106071727Y-64801995D01*
X105994485Y-64770000D01*
X106071727Y-64738005D01*
X106300535Y-64585120D01*
X106495120Y-64390535D01*
X106648005Y-64161727D01*
X106753314Y-63907490D01*
X106807000Y-63637592D01*
X106807000Y-63362408D01*
X106753314Y-63092510D01*
X106648005Y-62838273D01*
X106495120Y-62609465D01*
X106300535Y-62414880D01*
X106071727Y-62261995D01*
X105817490Y-62156686D01*
X105547592Y-62103000D01*
X105272408Y-62103000D01*
X105002510Y-62156686D01*
X104748273Y-62261995D01*
X104519465Y-62414880D01*
X104324880Y-62609465D01*
X104237659Y-62740000D01*
X101002325Y-62740000D01*
X100965000Y-62736324D01*
X100927675Y-62740000D01*
X100927667Y-62740000D01*
X100816014Y-62750997D01*
X100672753Y-62794454D01*
X100540724Y-62865026D01*
X100424999Y-62959999D01*
X100401201Y-62988997D01*
X97495199Y-65895000D01*
X93024802Y-65895000D01*
X92773547Y-65643745D01*
X92843685Y-65586185D01*
X92923037Y-65489494D01*
X92967905Y-65405553D01*
X93093766Y-65508845D01*
X93369552Y-65656255D01*
X93668797Y-65747030D01*
X93980000Y-65777681D01*
X94291204Y-65747030D01*
X94590449Y-65656255D01*
X94866235Y-65508845D01*
X95107963Y-65310463D01*
X95255162Y-65131100D01*
X95410563Y-65316315D01*
X95653077Y-65510969D01*
X95928906Y-65654571D01*
X96147020Y-65725563D01*
X96393000Y-65605594D01*
X96393000Y-64262000D01*
X96647000Y-64262000D01*
X96647000Y-65605594D01*
X96892980Y-65725563D01*
X97111094Y-65654571D01*
X97386923Y-65510969D01*
X97629437Y-65316315D01*
X97829316Y-65078089D01*
X97978879Y-64805446D01*
X98072378Y-64508863D01*
X97945570Y-64262000D01*
X96647000Y-64262000D01*
X96393000Y-64262000D01*
X96373000Y-64262000D01*
X96373000Y-64008000D01*
X96393000Y-64008000D01*
X96393000Y-62664406D01*
X96647000Y-62664406D01*
X96647000Y-64008000D01*
X97945570Y-64008000D01*
X98072378Y-63761137D01*
X97978879Y-63464554D01*
X97829316Y-63191911D01*
X97629437Y-62953685D01*
X97386923Y-62759031D01*
X97111094Y-62615429D01*
X96892980Y-62544437D01*
X96647000Y-62664406D01*
X96393000Y-62664406D01*
X96147020Y-62544437D01*
X95928906Y-62615429D01*
X95653077Y-62759031D01*
X95410563Y-62953685D01*
X95255163Y-63138899D01*
X95107963Y-62959537D01*
X94866234Y-62761155D01*
X94740000Y-62693682D01*
X94740000Y-57861565D01*
X104624040Y-57861565D01*
X104691020Y-58101656D01*
X104940048Y-58218756D01*
X105207135Y-58285023D01*
X105482017Y-58297910D01*
X105754133Y-58256922D01*
X106013023Y-58163636D01*
X106128980Y-58101656D01*
X106195960Y-57861565D01*
X105410000Y-57075605D01*
X104624040Y-57861565D01*
X94740000Y-57861565D01*
X94740000Y-56968017D01*
X104008090Y-56968017D01*
X104049078Y-57240133D01*
X104142364Y-57499023D01*
X104204344Y-57614980D01*
X104444435Y-57681960D01*
X105230395Y-56896000D01*
X104444435Y-56110040D01*
X104204344Y-56177020D01*
X104087244Y-56426048D01*
X104020977Y-56693135D01*
X104008090Y-56968017D01*
X94740000Y-56968017D01*
X94740000Y-55930435D01*
X104624040Y-55930435D01*
X105410000Y-56716395D01*
X106195960Y-55930435D01*
X106128980Y-55690344D01*
X105879952Y-55573244D01*
X105612865Y-55506977D01*
X105337983Y-55494090D01*
X105065867Y-55535078D01*
X104806977Y-55628364D01*
X104691020Y-55690344D01*
X104624040Y-55930435D01*
X94740000Y-55930435D01*
X94740000Y-52130801D01*
X99374802Y-47496000D01*
X104237659Y-47496000D01*
X104324880Y-47626535D01*
X104519465Y-47821120D01*
X104748273Y-47974005D01*
X105002510Y-48079314D01*
X105272408Y-48133000D01*
X105547592Y-48133000D01*
X105817490Y-48079314D01*
X106071727Y-47974005D01*
X106300535Y-47821120D01*
X106495120Y-47626535D01*
X106648005Y-47397727D01*
X106680000Y-47320485D01*
X106711995Y-47397727D01*
X106864880Y-47626535D01*
X107059465Y-47821120D01*
X107288273Y-47974005D01*
X107542510Y-48079314D01*
X107812408Y-48133000D01*
X108087592Y-48133000D01*
X108357490Y-48079314D01*
X108611727Y-47974005D01*
X108840535Y-47821120D01*
X109035120Y-47626535D01*
X109188005Y-47397727D01*
X109220000Y-47320485D01*
X109251995Y-47397727D01*
X109404880Y-47626535D01*
X109599465Y-47821120D01*
X109828273Y-47974005D01*
X110082510Y-48079314D01*
X110352408Y-48133000D01*
X110627592Y-48133000D01*
X110897490Y-48079314D01*
X111151727Y-47974005D01*
X111380535Y-47821120D01*
X111575120Y-47626535D01*
X111728005Y-47397727D01*
X111833314Y-47143490D01*
X111887000Y-46873592D01*
X111887000Y-46598408D01*
X111833314Y-46328510D01*
X111728005Y-46074273D01*
X111575120Y-45845465D01*
X111380535Y-45650880D01*
X111278060Y-45582408D01*
X121031000Y-45582408D01*
X121031000Y-45857592D01*
X121084686Y-46127490D01*
X121189995Y-46381727D01*
X121342880Y-46610535D01*
X121537465Y-46805120D01*
X121766273Y-46958005D01*
X121843515Y-46990000D01*
X121766273Y-47021995D01*
X121537465Y-47174880D01*
X121342880Y-47369465D01*
X121189995Y-47598273D01*
X121084686Y-47852510D01*
X121031000Y-48122408D01*
X121031000Y-48397592D01*
X121084686Y-48667490D01*
X121189995Y-48921727D01*
X121342880Y-49150535D01*
X121537465Y-49345120D01*
X121766273Y-49498005D01*
X121843515Y-49530000D01*
X121766273Y-49561995D01*
X121537465Y-49714880D01*
X121342880Y-49909465D01*
X121189995Y-50138273D01*
X121084686Y-50392510D01*
X121031000Y-50662408D01*
X121031000Y-50937592D01*
X121084686Y-51207490D01*
X121189995Y-51461727D01*
X121342880Y-51690535D01*
X121537465Y-51885120D01*
X121766273Y-52038005D01*
X122020510Y-52143314D01*
X122290408Y-52197000D01*
X122565592Y-52197000D01*
X122835490Y-52143314D01*
X123089727Y-52038005D01*
X123318535Y-51885120D01*
X123513120Y-51690535D01*
X123666005Y-51461727D01*
X123771314Y-51207490D01*
X123825000Y-50937592D01*
X123825000Y-50662408D01*
X123771314Y-50392510D01*
X123666005Y-50138273D01*
X123513120Y-49909465D01*
X123318535Y-49714880D01*
X123089727Y-49561995D01*
X123012485Y-49530000D01*
X123089727Y-49498005D01*
X123318535Y-49345120D01*
X123513120Y-49150535D01*
X123666005Y-48921727D01*
X123771314Y-48667490D01*
X123825000Y-48397592D01*
X123825000Y-48122408D01*
X123771314Y-47852510D01*
X123666005Y-47598273D01*
X123513120Y-47369465D01*
X123318535Y-47174880D01*
X123089727Y-47021995D01*
X123012485Y-46990000D01*
X123089727Y-46958005D01*
X123318535Y-46805120D01*
X123513120Y-46610535D01*
X123600341Y-46480000D01*
X125261928Y-46480000D01*
X125261928Y-46820000D01*
X125274188Y-46944482D01*
X125310498Y-47064180D01*
X125369463Y-47174494D01*
X125448815Y-47271185D01*
X125545506Y-47350537D01*
X125655820Y-47409502D01*
X125775518Y-47445812D01*
X125900000Y-47458072D01*
X128100000Y-47458072D01*
X128224482Y-47445812D01*
X128344180Y-47409502D01*
X128454494Y-47350537D01*
X128551185Y-47271185D01*
X128630537Y-47174494D01*
X128689502Y-47064180D01*
X128725812Y-46944482D01*
X128738072Y-46820000D01*
X128738072Y-45720000D01*
X135416606Y-45720000D01*
X135450105Y-46060119D01*
X135549314Y-46387168D01*
X135710421Y-46688578D01*
X135927234Y-46952766D01*
X136191422Y-47169579D01*
X136492832Y-47330686D01*
X136819881Y-47429895D01*
X137074775Y-47455000D01*
X137245225Y-47455000D01*
X137500119Y-47429895D01*
X137827168Y-47330686D01*
X138128578Y-47169579D01*
X138392766Y-46952766D01*
X138609579Y-46688578D01*
X138721066Y-46480000D01*
X139797659Y-46480000D01*
X139884880Y-46610535D01*
X140079465Y-46805120D01*
X140308273Y-46958005D01*
X140562510Y-47063314D01*
X140832408Y-47117000D01*
X141107592Y-47117000D01*
X141377490Y-47063314D01*
X141631727Y-46958005D01*
X141860535Y-46805120D01*
X141980090Y-46685565D01*
X142724040Y-46685565D01*
X142791020Y-46925656D01*
X143040048Y-47042756D01*
X143307135Y-47109023D01*
X143582017Y-47121910D01*
X143854133Y-47080922D01*
X144113023Y-46987636D01*
X144228980Y-46925656D01*
X144295960Y-46685565D01*
X145264040Y-46685565D01*
X145331020Y-46925656D01*
X145580048Y-47042756D01*
X145847135Y-47109023D01*
X146122017Y-47121910D01*
X146394133Y-47080922D01*
X146653023Y-46987636D01*
X146768980Y-46925656D01*
X146835960Y-46685565D01*
X146050000Y-45899605D01*
X145264040Y-46685565D01*
X144295960Y-46685565D01*
X143510000Y-45899605D01*
X142724040Y-46685565D01*
X141980090Y-46685565D01*
X142055120Y-46610535D01*
X142208005Y-46381727D01*
X142237692Y-46310057D01*
X142242364Y-46323023D01*
X142304344Y-46438980D01*
X142544435Y-46505960D01*
X143330395Y-45720000D01*
X143689605Y-45720000D01*
X144475565Y-46505960D01*
X144715656Y-46438980D01*
X144777079Y-46308356D01*
X144782364Y-46323023D01*
X144844344Y-46438980D01*
X145084435Y-46505960D01*
X145870395Y-45720000D01*
X146229605Y-45720000D01*
X147015565Y-46505960D01*
X147255656Y-46438980D01*
X147372756Y-46189952D01*
X147439023Y-45922865D01*
X147451910Y-45647983D01*
X147410922Y-45375867D01*
X147317636Y-45116977D01*
X147255656Y-45001020D01*
X147015565Y-44934040D01*
X146229605Y-45720000D01*
X145870395Y-45720000D01*
X145084435Y-44934040D01*
X144844344Y-45001020D01*
X144782921Y-45131644D01*
X144777636Y-45116977D01*
X144715656Y-45001020D01*
X144475565Y-44934040D01*
X143689605Y-45720000D01*
X143330395Y-45720000D01*
X142544435Y-44934040D01*
X142304344Y-45001020D01*
X142240515Y-45136760D01*
X142208005Y-45058273D01*
X142055120Y-44829465D01*
X141980090Y-44754435D01*
X142724040Y-44754435D01*
X143510000Y-45540395D01*
X144295960Y-44754435D01*
X145264040Y-44754435D01*
X146050000Y-45540395D01*
X146835960Y-44754435D01*
X146768980Y-44514344D01*
X146519952Y-44397244D01*
X146252865Y-44330977D01*
X145977983Y-44318090D01*
X145705867Y-44359078D01*
X145446977Y-44452364D01*
X145331020Y-44514344D01*
X145264040Y-44754435D01*
X144295960Y-44754435D01*
X144228980Y-44514344D01*
X143979952Y-44397244D01*
X143712865Y-44330977D01*
X143437983Y-44318090D01*
X143165867Y-44359078D01*
X142906977Y-44452364D01*
X142791020Y-44514344D01*
X142724040Y-44754435D01*
X141980090Y-44754435D01*
X141860535Y-44634880D01*
X141631727Y-44481995D01*
X141377490Y-44376686D01*
X141107592Y-44323000D01*
X140832408Y-44323000D01*
X140562510Y-44376686D01*
X140308273Y-44481995D01*
X140079465Y-44634880D01*
X139884880Y-44829465D01*
X139797659Y-44960000D01*
X138721066Y-44960000D01*
X138609579Y-44751422D01*
X138392766Y-44487234D01*
X138128578Y-44270421D01*
X137827168Y-44109314D01*
X137500119Y-44010105D01*
X137245225Y-43985000D01*
X137074775Y-43985000D01*
X136819881Y-44010105D01*
X136492832Y-44109314D01*
X136191422Y-44270421D01*
X135927234Y-44487234D01*
X135710421Y-44751422D01*
X135549314Y-45052832D01*
X135450105Y-45379881D01*
X135416606Y-45720000D01*
X128738072Y-45720000D01*
X128738072Y-44620000D01*
X128725812Y-44495518D01*
X128689502Y-44375820D01*
X128630537Y-44265506D01*
X128551185Y-44168815D01*
X128454494Y-44089463D01*
X128344180Y-44030498D01*
X128224482Y-43994188D01*
X128100000Y-43981928D01*
X125900000Y-43981928D01*
X125775518Y-43994188D01*
X125655820Y-44030498D01*
X125545506Y-44089463D01*
X125448815Y-44168815D01*
X125369463Y-44265506D01*
X125310498Y-44375820D01*
X125274188Y-44495518D01*
X125261928Y-44620000D01*
X125261928Y-44960000D01*
X123600341Y-44960000D01*
X123513120Y-44829465D01*
X123318535Y-44634880D01*
X123089727Y-44481995D01*
X122835490Y-44376686D01*
X122565592Y-44323000D01*
X122290408Y-44323000D01*
X122020510Y-44376686D01*
X121766273Y-44481995D01*
X121537465Y-44634880D01*
X121342880Y-44829465D01*
X121189995Y-45058273D01*
X121084686Y-45312510D01*
X121031000Y-45582408D01*
X111278060Y-45582408D01*
X111151727Y-45497995D01*
X110897490Y-45392686D01*
X110627592Y-45339000D01*
X110352408Y-45339000D01*
X110082510Y-45392686D01*
X109828273Y-45497995D01*
X109599465Y-45650880D01*
X109404880Y-45845465D01*
X109251995Y-46074273D01*
X109220000Y-46151515D01*
X109188005Y-46074273D01*
X109035120Y-45845465D01*
X108840535Y-45650880D01*
X108611727Y-45497995D01*
X108357490Y-45392686D01*
X108087592Y-45339000D01*
X107812408Y-45339000D01*
X107542510Y-45392686D01*
X107288273Y-45497995D01*
X107059465Y-45650880D01*
X106864880Y-45845465D01*
X106711995Y-46074273D01*
X106680000Y-46151515D01*
X106648005Y-46074273D01*
X106495120Y-45845465D01*
X106300535Y-45650880D01*
X106071727Y-45497995D01*
X105817490Y-45392686D01*
X105547592Y-45339000D01*
X105272408Y-45339000D01*
X105002510Y-45392686D01*
X104748273Y-45497995D01*
X104519465Y-45650880D01*
X104324880Y-45845465D01*
X104237659Y-45976000D01*
X99097323Y-45976000D01*
X99060000Y-45972324D01*
X99022677Y-45976000D01*
X99022667Y-45976000D01*
X98911014Y-45986997D01*
X98767753Y-46030454D01*
X98635723Y-46101026D01*
X98552083Y-46169668D01*
X98519999Y-46195999D01*
X98496201Y-46224997D01*
X96039130Y-48682068D01*
X96194113Y-48392116D01*
X96330490Y-47942542D01*
X96376539Y-47475000D01*
X96330490Y-47007458D01*
X96194113Y-46557884D01*
X95972649Y-46143554D01*
X95674609Y-45780391D01*
X95311446Y-45482351D01*
X94897116Y-45260887D01*
X94447542Y-45124510D01*
X94097157Y-45090000D01*
X93862843Y-45090000D01*
X93512458Y-45124510D01*
X93062884Y-45260887D01*
X92648554Y-45482351D01*
X92285391Y-45780391D01*
X91987351Y-46143554D01*
X91765887Y-46557884D01*
X91629510Y-47007458D01*
X91583461Y-47475000D01*
X91629510Y-47942542D01*
X91765887Y-48392116D01*
X91987351Y-48806446D01*
X92285391Y-49169609D01*
X92648554Y-49467649D01*
X93062884Y-49689113D01*
X93512458Y-49825490D01*
X93862843Y-49860000D01*
X94097157Y-49860000D01*
X94447542Y-49825490D01*
X94897116Y-49689113D01*
X95187068Y-49534130D01*
X93468998Y-51252201D01*
X93440000Y-51275999D01*
X93416202Y-51304997D01*
X93416201Y-51304998D01*
X93345026Y-51391724D01*
X93274454Y-51523754D01*
X93230998Y-51667015D01*
X93216324Y-51816000D01*
X93220001Y-51853332D01*
X93220000Y-62693681D01*
X93093765Y-62761155D01*
X92967905Y-62864446D01*
X92923037Y-62780506D01*
X92843685Y-62683815D01*
X92746994Y-62604463D01*
X92636680Y-62545498D01*
X92516982Y-62509188D01*
X92392500Y-62496928D01*
X90487500Y-62496928D01*
X90363018Y-62509188D01*
X90243320Y-62545498D01*
X90133006Y-62604463D01*
X90036315Y-62683815D01*
X89956963Y-62780506D01*
X89897998Y-62890820D01*
X89861688Y-63010518D01*
X89849428Y-63135000D01*
X86487000Y-63135000D01*
X86487000Y-45758452D01*
X86805094Y-45281311D01*
X87049872Y-45330000D01*
X87490128Y-45330000D01*
X87921925Y-45244110D01*
X88328669Y-45075631D01*
X88694729Y-44831038D01*
X89006038Y-44519729D01*
X89250631Y-44153669D01*
X89419110Y-43746925D01*
X89505000Y-43315128D01*
X89505000Y-42874872D01*
X89419110Y-42443075D01*
X89250908Y-42037000D01*
X178359092Y-42037000D01*
X178190890Y-42443075D01*
M02*
