G04 #@! TF.GenerationSoftware,KiCad,Pcbnew,(5.1.0)-1*
G04 #@! TF.CreationDate,2019-05-21T15:47:20-04:00*
G04 #@! TF.ProjectId,Tardis Board,54617264-6973-4204-926f-6172642e6b69,rev?*
G04 #@! TF.SameCoordinates,Original*
G04 #@! TF.FileFunction,Soldermask,Bot*
G04 #@! TF.FilePolarity,Negative*
%FSLAX46Y46*%
G04 Gerber Fmt 4.6, Leading zero omitted, Abs format (unit mm)*
G04 Created by KiCad (PCBNEW (5.1.0)-1) date 2019-05-21 15:47:20*
%MOMM*%
%LPD*%
G04 APERTURE LIST*
%ADD10C,0.100000*%
G04 APERTURE END LIST*
D10*
G36*
X180715256Y-102531298D02*
G01*
X180821579Y-102552447D01*
X181122042Y-102676903D01*
X181392451Y-102857585D01*
X181622415Y-103087549D01*
X181803097Y-103357958D01*
X181927553Y-103658421D01*
X181991000Y-103977391D01*
X181991000Y-104302609D01*
X181927553Y-104621579D01*
X181803097Y-104922042D01*
X181622415Y-105192451D01*
X181392451Y-105422415D01*
X181122042Y-105603097D01*
X180821579Y-105727553D01*
X180715256Y-105748702D01*
X180502611Y-105791000D01*
X180177389Y-105791000D01*
X179964744Y-105748702D01*
X179858421Y-105727553D01*
X179557958Y-105603097D01*
X179287549Y-105422415D01*
X179057585Y-105192451D01*
X178876903Y-104922042D01*
X178752447Y-104621579D01*
X178689000Y-104302609D01*
X178689000Y-103977391D01*
X178752447Y-103658421D01*
X178876903Y-103357958D01*
X179057585Y-103087549D01*
X179287549Y-102857585D01*
X179557958Y-102676903D01*
X179858421Y-102552447D01*
X179964744Y-102531298D01*
X180177389Y-102489000D01*
X180502611Y-102489000D01*
X180715256Y-102531298D01*
X180715256Y-102531298D01*
G37*
G36*
X87645256Y-102531298D02*
G01*
X87751579Y-102552447D01*
X88052042Y-102676903D01*
X88322451Y-102857585D01*
X88552415Y-103087549D01*
X88733097Y-103357958D01*
X88857553Y-103658421D01*
X88921000Y-103977391D01*
X88921000Y-104302609D01*
X88857553Y-104621579D01*
X88733097Y-104922042D01*
X88552415Y-105192451D01*
X88322451Y-105422415D01*
X88052042Y-105603097D01*
X87751579Y-105727553D01*
X87645256Y-105748702D01*
X87432611Y-105791000D01*
X87107389Y-105791000D01*
X86894744Y-105748702D01*
X86788421Y-105727553D01*
X86487958Y-105603097D01*
X86217549Y-105422415D01*
X85987585Y-105192451D01*
X85806903Y-104922042D01*
X85682447Y-104621579D01*
X85619000Y-104302609D01*
X85619000Y-103977391D01*
X85682447Y-103658421D01*
X85806903Y-103357958D01*
X85987585Y-103087549D01*
X86217549Y-102857585D01*
X86487958Y-102676903D01*
X86788421Y-102552447D01*
X86894744Y-102531298D01*
X87107389Y-102489000D01*
X87432611Y-102489000D01*
X87645256Y-102531298D01*
X87645256Y-102531298D01*
G37*
G36*
X98027142Y-95738242D02*
G01*
X98175101Y-95799529D01*
X98308255Y-95888499D01*
X98421501Y-96001745D01*
X98510471Y-96134899D01*
X98571758Y-96282858D01*
X98603000Y-96439925D01*
X98603000Y-96600075D01*
X98571758Y-96757142D01*
X98510471Y-96905101D01*
X98421501Y-97038255D01*
X98308255Y-97151501D01*
X98175101Y-97240471D01*
X98027142Y-97301758D01*
X97870075Y-97333000D01*
X97709925Y-97333000D01*
X97552858Y-97301758D01*
X97404899Y-97240471D01*
X97271745Y-97151501D01*
X97158499Y-97038255D01*
X97069529Y-96905101D01*
X97008242Y-96757142D01*
X96977000Y-96600075D01*
X96977000Y-96439925D01*
X97008242Y-96282858D01*
X97069529Y-96134899D01*
X97158499Y-96001745D01*
X97271745Y-95888499D01*
X97404899Y-95799529D01*
X97552858Y-95738242D01*
X97709925Y-95707000D01*
X97870075Y-95707000D01*
X98027142Y-95738242D01*
X98027142Y-95738242D01*
G37*
G36*
X95487142Y-95738242D02*
G01*
X95635101Y-95799529D01*
X95768255Y-95888499D01*
X95881501Y-96001745D01*
X95970471Y-96134899D01*
X96031758Y-96282858D01*
X96063000Y-96439925D01*
X96063000Y-96600075D01*
X96031758Y-96757142D01*
X95970471Y-96905101D01*
X95881501Y-97038255D01*
X95768255Y-97151501D01*
X95635101Y-97240471D01*
X95487142Y-97301758D01*
X95330075Y-97333000D01*
X95169925Y-97333000D01*
X95012858Y-97301758D01*
X94864899Y-97240471D01*
X94731745Y-97151501D01*
X94618499Y-97038255D01*
X94529529Y-96905101D01*
X94468242Y-96757142D01*
X94437000Y-96600075D01*
X94437000Y-96439925D01*
X94468242Y-96282858D01*
X94529529Y-96134899D01*
X94618499Y-96001745D01*
X94731745Y-95888499D01*
X94864899Y-95799529D01*
X95012858Y-95738242D01*
X95169925Y-95707000D01*
X95330075Y-95707000D01*
X95487142Y-95738242D01*
X95487142Y-95738242D01*
G37*
G36*
X92947142Y-95738242D02*
G01*
X93095101Y-95799529D01*
X93228255Y-95888499D01*
X93341501Y-96001745D01*
X93430471Y-96134899D01*
X93491758Y-96282858D01*
X93523000Y-96439925D01*
X93523000Y-96600075D01*
X93491758Y-96757142D01*
X93430471Y-96905101D01*
X93341501Y-97038255D01*
X93228255Y-97151501D01*
X93095101Y-97240471D01*
X92947142Y-97301758D01*
X92790075Y-97333000D01*
X92629925Y-97333000D01*
X92472858Y-97301758D01*
X92324899Y-97240471D01*
X92191745Y-97151501D01*
X92078499Y-97038255D01*
X91989529Y-96905101D01*
X91928242Y-96757142D01*
X91897000Y-96600075D01*
X91897000Y-96439925D01*
X91928242Y-96282858D01*
X91989529Y-96134899D01*
X92078499Y-96001745D01*
X92191745Y-95888499D01*
X92324899Y-95799529D01*
X92472858Y-95738242D01*
X92629925Y-95707000D01*
X92790075Y-95707000D01*
X92947142Y-95738242D01*
X92947142Y-95738242D01*
G37*
G36*
X178037142Y-90658242D02*
G01*
X178185101Y-90719529D01*
X178318255Y-90808499D01*
X178431501Y-90921745D01*
X178520471Y-91054899D01*
X178581758Y-91202858D01*
X178613000Y-91359925D01*
X178613000Y-91520075D01*
X178581758Y-91677142D01*
X178520471Y-91825101D01*
X178431501Y-91958255D01*
X178318255Y-92071501D01*
X178185101Y-92160471D01*
X178037142Y-92221758D01*
X177880075Y-92253000D01*
X177719925Y-92253000D01*
X177562858Y-92221758D01*
X177414899Y-92160471D01*
X177281745Y-92071501D01*
X177168499Y-91958255D01*
X177079529Y-91825101D01*
X177018242Y-91677142D01*
X176987000Y-91520075D01*
X176987000Y-91359925D01*
X177018242Y-91202858D01*
X177079529Y-91054899D01*
X177168499Y-90921745D01*
X177281745Y-90808499D01*
X177414899Y-90719529D01*
X177562858Y-90658242D01*
X177719925Y-90627000D01*
X177880075Y-90627000D01*
X178037142Y-90658242D01*
X178037142Y-90658242D01*
G37*
G36*
X156447142Y-90658242D02*
G01*
X156595101Y-90719529D01*
X156728255Y-90808499D01*
X156841501Y-90921745D01*
X156930471Y-91054899D01*
X156991758Y-91202858D01*
X157023000Y-91359925D01*
X157023000Y-91520075D01*
X156991758Y-91677142D01*
X156930471Y-91825101D01*
X156841501Y-91958255D01*
X156728255Y-92071501D01*
X156595101Y-92160471D01*
X156447142Y-92221758D01*
X156290075Y-92253000D01*
X156129925Y-92253000D01*
X155972858Y-92221758D01*
X155824899Y-92160471D01*
X155691745Y-92071501D01*
X155578499Y-91958255D01*
X155489529Y-91825101D01*
X155428242Y-91677142D01*
X155397000Y-91520075D01*
X155397000Y-91359925D01*
X155428242Y-91202858D01*
X155489529Y-91054899D01*
X155578499Y-90921745D01*
X155691745Y-90808499D01*
X155824899Y-90719529D01*
X155972858Y-90658242D01*
X156129925Y-90627000D01*
X156290075Y-90627000D01*
X156447142Y-90658242D01*
X156447142Y-90658242D01*
G37*
G36*
X158987142Y-90658242D02*
G01*
X159135101Y-90719529D01*
X159268255Y-90808499D01*
X159381501Y-90921745D01*
X159470471Y-91054899D01*
X159531758Y-91202858D01*
X159563000Y-91359925D01*
X159563000Y-91520075D01*
X159531758Y-91677142D01*
X159470471Y-91825101D01*
X159381501Y-91958255D01*
X159268255Y-92071501D01*
X159135101Y-92160471D01*
X158987142Y-92221758D01*
X158830075Y-92253000D01*
X158669925Y-92253000D01*
X158512858Y-92221758D01*
X158364899Y-92160471D01*
X158231745Y-92071501D01*
X158118499Y-91958255D01*
X158029529Y-91825101D01*
X157968242Y-91677142D01*
X157937000Y-91520075D01*
X157937000Y-91359925D01*
X157968242Y-91202858D01*
X158029529Y-91054899D01*
X158118499Y-90921745D01*
X158231745Y-90808499D01*
X158364899Y-90719529D01*
X158512858Y-90658242D01*
X158669925Y-90627000D01*
X158830075Y-90627000D01*
X158987142Y-90658242D01*
X158987142Y-90658242D01*
G37*
G36*
X98027142Y-90658242D02*
G01*
X98175101Y-90719529D01*
X98308255Y-90808499D01*
X98421501Y-90921745D01*
X98510471Y-91054899D01*
X98571758Y-91202858D01*
X98603000Y-91359925D01*
X98603000Y-91520075D01*
X98571758Y-91677142D01*
X98510471Y-91825101D01*
X98421501Y-91958255D01*
X98308255Y-92071501D01*
X98175101Y-92160471D01*
X98027142Y-92221758D01*
X97870075Y-92253000D01*
X97709925Y-92253000D01*
X97552858Y-92221758D01*
X97404899Y-92160471D01*
X97271745Y-92071501D01*
X97158499Y-91958255D01*
X97069529Y-91825101D01*
X97008242Y-91677142D01*
X96977000Y-91520075D01*
X96977000Y-91359925D01*
X97008242Y-91202858D01*
X97069529Y-91054899D01*
X97158499Y-90921745D01*
X97271745Y-90808499D01*
X97404899Y-90719529D01*
X97552858Y-90658242D01*
X97709925Y-90627000D01*
X97870075Y-90627000D01*
X98027142Y-90658242D01*
X98027142Y-90658242D01*
G37*
G36*
X92947142Y-90658242D02*
G01*
X93095101Y-90719529D01*
X93228255Y-90808499D01*
X93341501Y-90921745D01*
X93430471Y-91054899D01*
X93491758Y-91202858D01*
X93523000Y-91359925D01*
X93523000Y-91520075D01*
X93491758Y-91677142D01*
X93430471Y-91825101D01*
X93341501Y-91958255D01*
X93228255Y-92071501D01*
X93095101Y-92160471D01*
X92947142Y-92221758D01*
X92790075Y-92253000D01*
X92629925Y-92253000D01*
X92472858Y-92221758D01*
X92324899Y-92160471D01*
X92191745Y-92071501D01*
X92078499Y-91958255D01*
X91989529Y-91825101D01*
X91928242Y-91677142D01*
X91897000Y-91520075D01*
X91897000Y-91359925D01*
X91928242Y-91202858D01*
X91989529Y-91054899D01*
X92078499Y-90921745D01*
X92191745Y-90808499D01*
X92324899Y-90719529D01*
X92472858Y-90658242D01*
X92629925Y-90627000D01*
X92790075Y-90627000D01*
X92947142Y-90658242D01*
X92947142Y-90658242D01*
G37*
G36*
X95487142Y-90658242D02*
G01*
X95635101Y-90719529D01*
X95768255Y-90808499D01*
X95881501Y-90921745D01*
X95970471Y-91054899D01*
X96031758Y-91202858D01*
X96063000Y-91359925D01*
X96063000Y-91520075D01*
X96031758Y-91677142D01*
X95970471Y-91825101D01*
X95881501Y-91958255D01*
X95768255Y-92071501D01*
X95635101Y-92160471D01*
X95487142Y-92221758D01*
X95330075Y-92253000D01*
X95169925Y-92253000D01*
X95012858Y-92221758D01*
X94864899Y-92160471D01*
X94731745Y-92071501D01*
X94618499Y-91958255D01*
X94529529Y-91825101D01*
X94468242Y-91677142D01*
X94437000Y-91520075D01*
X94437000Y-91359925D01*
X94468242Y-91202858D01*
X94529529Y-91054899D01*
X94618499Y-90921745D01*
X94731745Y-90808499D01*
X94864899Y-90719529D01*
X95012858Y-90658242D01*
X95169925Y-90627000D01*
X95330075Y-90627000D01*
X95487142Y-90658242D01*
X95487142Y-90658242D01*
G37*
G36*
X172957142Y-90658242D02*
G01*
X173105101Y-90719529D01*
X173238255Y-90808499D01*
X173351501Y-90921745D01*
X173440471Y-91054899D01*
X173501758Y-91202858D01*
X173533000Y-91359925D01*
X173533000Y-91520075D01*
X173501758Y-91677142D01*
X173440471Y-91825101D01*
X173351501Y-91958255D01*
X173238255Y-92071501D01*
X173105101Y-92160471D01*
X172957142Y-92221758D01*
X172800075Y-92253000D01*
X172639925Y-92253000D01*
X172482858Y-92221758D01*
X172334899Y-92160471D01*
X172201745Y-92071501D01*
X172088499Y-91958255D01*
X171999529Y-91825101D01*
X171938242Y-91677142D01*
X171907000Y-91520075D01*
X171907000Y-91359925D01*
X171938242Y-91202858D01*
X171999529Y-91054899D01*
X172088499Y-90921745D01*
X172201745Y-90808499D01*
X172334899Y-90719529D01*
X172482858Y-90658242D01*
X172639925Y-90627000D01*
X172800075Y-90627000D01*
X172957142Y-90658242D01*
X172957142Y-90658242D01*
G37*
G36*
X175497142Y-90658242D02*
G01*
X175645101Y-90719529D01*
X175778255Y-90808499D01*
X175891501Y-90921745D01*
X175980471Y-91054899D01*
X176041758Y-91202858D01*
X176073000Y-91359925D01*
X176073000Y-91520075D01*
X176041758Y-91677142D01*
X175980471Y-91825101D01*
X175891501Y-91958255D01*
X175778255Y-92071501D01*
X175645101Y-92160471D01*
X175497142Y-92221758D01*
X175340075Y-92253000D01*
X175179925Y-92253000D01*
X175022858Y-92221758D01*
X174874899Y-92160471D01*
X174741745Y-92071501D01*
X174628499Y-91958255D01*
X174539529Y-91825101D01*
X174478242Y-91677142D01*
X174447000Y-91520075D01*
X174447000Y-91359925D01*
X174478242Y-91202858D01*
X174539529Y-91054899D01*
X174628499Y-90921745D01*
X174741745Y-90808499D01*
X174874899Y-90719529D01*
X175022858Y-90658242D01*
X175179925Y-90627000D01*
X175340075Y-90627000D01*
X175497142Y-90658242D01*
X175497142Y-90658242D01*
G37*
G36*
X120887142Y-90658242D02*
G01*
X121035101Y-90719529D01*
X121168255Y-90808499D01*
X121281501Y-90921745D01*
X121370471Y-91054899D01*
X121431758Y-91202858D01*
X121463000Y-91359925D01*
X121463000Y-91520075D01*
X121431758Y-91677142D01*
X121370471Y-91825101D01*
X121281501Y-91958255D01*
X121168255Y-92071501D01*
X121035101Y-92160471D01*
X120887142Y-92221758D01*
X120730075Y-92253000D01*
X120569925Y-92253000D01*
X120412858Y-92221758D01*
X120264899Y-92160471D01*
X120131745Y-92071501D01*
X120018499Y-91958255D01*
X119929529Y-91825101D01*
X119868242Y-91677142D01*
X119837000Y-91520075D01*
X119837000Y-91359925D01*
X119868242Y-91202858D01*
X119929529Y-91054899D01*
X120018499Y-90921745D01*
X120131745Y-90808499D01*
X120264899Y-90719529D01*
X120412858Y-90658242D01*
X120569925Y-90627000D01*
X120730075Y-90627000D01*
X120887142Y-90658242D01*
X120887142Y-90658242D01*
G37*
G36*
X161527142Y-90658242D02*
G01*
X161675101Y-90719529D01*
X161808255Y-90808499D01*
X161921501Y-90921745D01*
X162010471Y-91054899D01*
X162071758Y-91202858D01*
X162103000Y-91359925D01*
X162103000Y-91520075D01*
X162071758Y-91677142D01*
X162010471Y-91825101D01*
X161921501Y-91958255D01*
X161808255Y-92071501D01*
X161675101Y-92160471D01*
X161527142Y-92221758D01*
X161370075Y-92253000D01*
X161209925Y-92253000D01*
X161052858Y-92221758D01*
X160904899Y-92160471D01*
X160771745Y-92071501D01*
X160658499Y-91958255D01*
X160569529Y-91825101D01*
X160508242Y-91677142D01*
X160477000Y-91520075D01*
X160477000Y-91359925D01*
X160508242Y-91202858D01*
X160569529Y-91054899D01*
X160658499Y-90921745D01*
X160771745Y-90808499D01*
X160904899Y-90719529D01*
X161052858Y-90658242D01*
X161209925Y-90627000D01*
X161370075Y-90627000D01*
X161527142Y-90658242D01*
X161527142Y-90658242D01*
G37*
G36*
X105647142Y-90658242D02*
G01*
X105795101Y-90719529D01*
X105928255Y-90808499D01*
X106041501Y-90921745D01*
X106130471Y-91054899D01*
X106191758Y-91202858D01*
X106223000Y-91359925D01*
X106223000Y-91520075D01*
X106191758Y-91677142D01*
X106130471Y-91825101D01*
X106041501Y-91958255D01*
X105928255Y-92071501D01*
X105795101Y-92160471D01*
X105647142Y-92221758D01*
X105490075Y-92253000D01*
X105329925Y-92253000D01*
X105172858Y-92221758D01*
X105024899Y-92160471D01*
X104891745Y-92071501D01*
X104778499Y-91958255D01*
X104689529Y-91825101D01*
X104628242Y-91677142D01*
X104597000Y-91520075D01*
X104597000Y-91359925D01*
X104628242Y-91202858D01*
X104689529Y-91054899D01*
X104778499Y-90921745D01*
X104891745Y-90808499D01*
X105024899Y-90719529D01*
X105172858Y-90658242D01*
X105329925Y-90627000D01*
X105490075Y-90627000D01*
X105647142Y-90658242D01*
X105647142Y-90658242D01*
G37*
G36*
X105647142Y-88118242D02*
G01*
X105795101Y-88179529D01*
X105928255Y-88268499D01*
X106041501Y-88381745D01*
X106130471Y-88514899D01*
X106191758Y-88662858D01*
X106223000Y-88819925D01*
X106223000Y-88980075D01*
X106191758Y-89137142D01*
X106130471Y-89285101D01*
X106041501Y-89418255D01*
X105928255Y-89531501D01*
X105795101Y-89620471D01*
X105647142Y-89681758D01*
X105490075Y-89713000D01*
X105329925Y-89713000D01*
X105172858Y-89681758D01*
X105024899Y-89620471D01*
X104891745Y-89531501D01*
X104778499Y-89418255D01*
X104689529Y-89285101D01*
X104628242Y-89137142D01*
X104597000Y-88980075D01*
X104597000Y-88819925D01*
X104628242Y-88662858D01*
X104689529Y-88514899D01*
X104778499Y-88381745D01*
X104891745Y-88268499D01*
X105024899Y-88179529D01*
X105172858Y-88118242D01*
X105329925Y-88087000D01*
X105490075Y-88087000D01*
X105647142Y-88118242D01*
X105647142Y-88118242D01*
G37*
G36*
X120887142Y-88118242D02*
G01*
X121035101Y-88179529D01*
X121168255Y-88268499D01*
X121281501Y-88381745D01*
X121370471Y-88514899D01*
X121431758Y-88662858D01*
X121463000Y-88819925D01*
X121463000Y-88980075D01*
X121431758Y-89137142D01*
X121370471Y-89285101D01*
X121281501Y-89418255D01*
X121168255Y-89531501D01*
X121035101Y-89620471D01*
X120887142Y-89681758D01*
X120730075Y-89713000D01*
X120569925Y-89713000D01*
X120412858Y-89681758D01*
X120264899Y-89620471D01*
X120131745Y-89531501D01*
X120018499Y-89418255D01*
X119929529Y-89285101D01*
X119868242Y-89137142D01*
X119837000Y-88980075D01*
X119837000Y-88819925D01*
X119868242Y-88662858D01*
X119929529Y-88514899D01*
X120018499Y-88381745D01*
X120131745Y-88268499D01*
X120264899Y-88179529D01*
X120412858Y-88118242D01*
X120569925Y-88087000D01*
X120730075Y-88087000D01*
X120887142Y-88118242D01*
X120887142Y-88118242D01*
G37*
G36*
X92947142Y-85578242D02*
G01*
X93095101Y-85639529D01*
X93228255Y-85728499D01*
X93341501Y-85841745D01*
X93430471Y-85974899D01*
X93491758Y-86122858D01*
X93523000Y-86279925D01*
X93523000Y-86440075D01*
X93491758Y-86597142D01*
X93430471Y-86745101D01*
X93341501Y-86878255D01*
X93228255Y-86991501D01*
X93095101Y-87080471D01*
X92947142Y-87141758D01*
X92790075Y-87173000D01*
X92629925Y-87173000D01*
X92472858Y-87141758D01*
X92324899Y-87080471D01*
X92191745Y-86991501D01*
X92078499Y-86878255D01*
X91989529Y-86745101D01*
X91928242Y-86597142D01*
X91897000Y-86440075D01*
X91897000Y-86279925D01*
X91928242Y-86122858D01*
X91989529Y-85974899D01*
X92078499Y-85841745D01*
X92191745Y-85728499D01*
X92324899Y-85639529D01*
X92472858Y-85578242D01*
X92629925Y-85547000D01*
X92790075Y-85547000D01*
X92947142Y-85578242D01*
X92947142Y-85578242D01*
G37*
G36*
X95487142Y-85578242D02*
G01*
X95635101Y-85639529D01*
X95768255Y-85728499D01*
X95881501Y-85841745D01*
X95970471Y-85974899D01*
X96031758Y-86122858D01*
X96063000Y-86279925D01*
X96063000Y-86440075D01*
X96031758Y-86597142D01*
X95970471Y-86745101D01*
X95881501Y-86878255D01*
X95768255Y-86991501D01*
X95635101Y-87080471D01*
X95487142Y-87141758D01*
X95330075Y-87173000D01*
X95169925Y-87173000D01*
X95012858Y-87141758D01*
X94864899Y-87080471D01*
X94731745Y-86991501D01*
X94618499Y-86878255D01*
X94529529Y-86745101D01*
X94468242Y-86597142D01*
X94437000Y-86440075D01*
X94437000Y-86279925D01*
X94468242Y-86122858D01*
X94529529Y-85974899D01*
X94618499Y-85841745D01*
X94731745Y-85728499D01*
X94864899Y-85639529D01*
X95012858Y-85578242D01*
X95169925Y-85547000D01*
X95330075Y-85547000D01*
X95487142Y-85578242D01*
X95487142Y-85578242D01*
G37*
G36*
X98027142Y-85578242D02*
G01*
X98175101Y-85639529D01*
X98308255Y-85728499D01*
X98421501Y-85841745D01*
X98510471Y-85974899D01*
X98571758Y-86122858D01*
X98603000Y-86279925D01*
X98603000Y-86440075D01*
X98571758Y-86597142D01*
X98510471Y-86745101D01*
X98421501Y-86878255D01*
X98308255Y-86991501D01*
X98175101Y-87080471D01*
X98027142Y-87141758D01*
X97870075Y-87173000D01*
X97709925Y-87173000D01*
X97552858Y-87141758D01*
X97404899Y-87080471D01*
X97271745Y-86991501D01*
X97158499Y-86878255D01*
X97069529Y-86745101D01*
X97008242Y-86597142D01*
X96977000Y-86440075D01*
X96977000Y-86279925D01*
X97008242Y-86122858D01*
X97069529Y-85974899D01*
X97158499Y-85841745D01*
X97271745Y-85728499D01*
X97404899Y-85639529D01*
X97552858Y-85578242D01*
X97709925Y-85547000D01*
X97870075Y-85547000D01*
X98027142Y-85578242D01*
X98027142Y-85578242D01*
G37*
G36*
X120887142Y-85578242D02*
G01*
X121035101Y-85639529D01*
X121168255Y-85728499D01*
X121281501Y-85841745D01*
X121370471Y-85974899D01*
X121431758Y-86122858D01*
X121463000Y-86279925D01*
X121463000Y-86440075D01*
X121431758Y-86597142D01*
X121370471Y-86745101D01*
X121281501Y-86878255D01*
X121168255Y-86991501D01*
X121035101Y-87080471D01*
X120887142Y-87141758D01*
X120730075Y-87173000D01*
X120569925Y-87173000D01*
X120412858Y-87141758D01*
X120264899Y-87080471D01*
X120131745Y-86991501D01*
X120018499Y-86878255D01*
X119929529Y-86745101D01*
X119868242Y-86597142D01*
X119837000Y-86440075D01*
X119837000Y-86279925D01*
X119868242Y-86122858D01*
X119929529Y-85974899D01*
X120018499Y-85841745D01*
X120131745Y-85728499D01*
X120264899Y-85639529D01*
X120412858Y-85578242D01*
X120569925Y-85547000D01*
X120730075Y-85547000D01*
X120887142Y-85578242D01*
X120887142Y-85578242D01*
G37*
G36*
X146287142Y-85578242D02*
G01*
X146435101Y-85639529D01*
X146568255Y-85728499D01*
X146681501Y-85841745D01*
X146770471Y-85974899D01*
X146831758Y-86122858D01*
X146863000Y-86279925D01*
X146863000Y-86440075D01*
X146831758Y-86597142D01*
X146770471Y-86745101D01*
X146681501Y-86878255D01*
X146568255Y-86991501D01*
X146435101Y-87080471D01*
X146287142Y-87141758D01*
X146130075Y-87173000D01*
X145969925Y-87173000D01*
X145812858Y-87141758D01*
X145664899Y-87080471D01*
X145531745Y-86991501D01*
X145418499Y-86878255D01*
X145329529Y-86745101D01*
X145268242Y-86597142D01*
X145237000Y-86440075D01*
X145237000Y-86279925D01*
X145268242Y-86122858D01*
X145329529Y-85974899D01*
X145418499Y-85841745D01*
X145531745Y-85728499D01*
X145664899Y-85639529D01*
X145812858Y-85578242D01*
X145969925Y-85547000D01*
X146130075Y-85547000D01*
X146287142Y-85578242D01*
X146287142Y-85578242D01*
G37*
G36*
X105647142Y-85578242D02*
G01*
X105795101Y-85639529D01*
X105928255Y-85728499D01*
X106041501Y-85841745D01*
X106130471Y-85974899D01*
X106191758Y-86122858D01*
X106223000Y-86279925D01*
X106223000Y-86440075D01*
X106191758Y-86597142D01*
X106130471Y-86745101D01*
X106041501Y-86878255D01*
X105928255Y-86991501D01*
X105795101Y-87080471D01*
X105647142Y-87141758D01*
X105490075Y-87173000D01*
X105329925Y-87173000D01*
X105172858Y-87141758D01*
X105024899Y-87080471D01*
X104891745Y-86991501D01*
X104778499Y-86878255D01*
X104689529Y-86745101D01*
X104628242Y-86597142D01*
X104597000Y-86440075D01*
X104597000Y-86279925D01*
X104628242Y-86122858D01*
X104689529Y-85974899D01*
X104778499Y-85841745D01*
X104891745Y-85728499D01*
X105024899Y-85639529D01*
X105172858Y-85578242D01*
X105329925Y-85547000D01*
X105490075Y-85547000D01*
X105647142Y-85578242D01*
X105647142Y-85578242D01*
G37*
G36*
X125967142Y-85578242D02*
G01*
X126115101Y-85639529D01*
X126248255Y-85728499D01*
X126361501Y-85841745D01*
X126450471Y-85974899D01*
X126511758Y-86122858D01*
X126543000Y-86279925D01*
X126543000Y-86440075D01*
X126511758Y-86597142D01*
X126450471Y-86745101D01*
X126361501Y-86878255D01*
X126248255Y-86991501D01*
X126115101Y-87080471D01*
X125967142Y-87141758D01*
X125810075Y-87173000D01*
X125649925Y-87173000D01*
X125492858Y-87141758D01*
X125344899Y-87080471D01*
X125211745Y-86991501D01*
X125098499Y-86878255D01*
X125009529Y-86745101D01*
X124948242Y-86597142D01*
X124917000Y-86440075D01*
X124917000Y-86279925D01*
X124948242Y-86122858D01*
X125009529Y-85974899D01*
X125098499Y-85841745D01*
X125211745Y-85728499D01*
X125344899Y-85639529D01*
X125492858Y-85578242D01*
X125649925Y-85547000D01*
X125810075Y-85547000D01*
X125967142Y-85578242D01*
X125967142Y-85578242D01*
G37*
G36*
X156447142Y-83038242D02*
G01*
X156595101Y-83099529D01*
X156728255Y-83188499D01*
X156841501Y-83301745D01*
X156930471Y-83434899D01*
X156991758Y-83582858D01*
X157023000Y-83739925D01*
X157023000Y-83900075D01*
X156991758Y-84057142D01*
X156930471Y-84205101D01*
X156841501Y-84338255D01*
X156728255Y-84451501D01*
X156595101Y-84540471D01*
X156447142Y-84601758D01*
X156290075Y-84633000D01*
X156129925Y-84633000D01*
X155972858Y-84601758D01*
X155824899Y-84540471D01*
X155691745Y-84451501D01*
X155578499Y-84338255D01*
X155489529Y-84205101D01*
X155428242Y-84057142D01*
X155397000Y-83900075D01*
X155397000Y-83739925D01*
X155428242Y-83582858D01*
X155489529Y-83434899D01*
X155578499Y-83301745D01*
X155691745Y-83188499D01*
X155824899Y-83099529D01*
X155972858Y-83038242D01*
X156129925Y-83007000D01*
X156290075Y-83007000D01*
X156447142Y-83038242D01*
X156447142Y-83038242D01*
G37*
G36*
X161527142Y-83038242D02*
G01*
X161675101Y-83099529D01*
X161808255Y-83188499D01*
X161921501Y-83301745D01*
X162010471Y-83434899D01*
X162071758Y-83582858D01*
X162103000Y-83739925D01*
X162103000Y-83900075D01*
X162071758Y-84057142D01*
X162010471Y-84205101D01*
X161921501Y-84338255D01*
X161808255Y-84451501D01*
X161675101Y-84540471D01*
X161527142Y-84601758D01*
X161370075Y-84633000D01*
X161209925Y-84633000D01*
X161052858Y-84601758D01*
X160904899Y-84540471D01*
X160771745Y-84451501D01*
X160658499Y-84338255D01*
X160569529Y-84205101D01*
X160508242Y-84057142D01*
X160477000Y-83900075D01*
X160477000Y-83739925D01*
X160508242Y-83582858D01*
X160569529Y-83434899D01*
X160658499Y-83301745D01*
X160771745Y-83188499D01*
X160904899Y-83099529D01*
X161052858Y-83038242D01*
X161209925Y-83007000D01*
X161370075Y-83007000D01*
X161527142Y-83038242D01*
X161527142Y-83038242D01*
G37*
G36*
X120887142Y-83038242D02*
G01*
X121035101Y-83099529D01*
X121168255Y-83188499D01*
X121281501Y-83301745D01*
X121370471Y-83434899D01*
X121431758Y-83582858D01*
X121463000Y-83739925D01*
X121463000Y-83900075D01*
X121431758Y-84057142D01*
X121370471Y-84205101D01*
X121281501Y-84338255D01*
X121168255Y-84451501D01*
X121035101Y-84540471D01*
X120887142Y-84601758D01*
X120730075Y-84633000D01*
X120569925Y-84633000D01*
X120412858Y-84601758D01*
X120264899Y-84540471D01*
X120131745Y-84451501D01*
X120018499Y-84338255D01*
X119929529Y-84205101D01*
X119868242Y-84057142D01*
X119837000Y-83900075D01*
X119837000Y-83739925D01*
X119868242Y-83582858D01*
X119929529Y-83434899D01*
X120018499Y-83301745D01*
X120131745Y-83188499D01*
X120264899Y-83099529D01*
X120412858Y-83038242D01*
X120569925Y-83007000D01*
X120730075Y-83007000D01*
X120887142Y-83038242D01*
X120887142Y-83038242D01*
G37*
G36*
X172957142Y-83038242D02*
G01*
X173105101Y-83099529D01*
X173238255Y-83188499D01*
X173351501Y-83301745D01*
X173440471Y-83434899D01*
X173501758Y-83582858D01*
X173533000Y-83739925D01*
X173533000Y-83900075D01*
X173501758Y-84057142D01*
X173440471Y-84205101D01*
X173351501Y-84338255D01*
X173238255Y-84451501D01*
X173105101Y-84540471D01*
X172957142Y-84601758D01*
X172800075Y-84633000D01*
X172639925Y-84633000D01*
X172482858Y-84601758D01*
X172334899Y-84540471D01*
X172201745Y-84451501D01*
X172088499Y-84338255D01*
X171999529Y-84205101D01*
X171938242Y-84057142D01*
X171907000Y-83900075D01*
X171907000Y-83739925D01*
X171938242Y-83582858D01*
X171999529Y-83434899D01*
X172088499Y-83301745D01*
X172201745Y-83188499D01*
X172334899Y-83099529D01*
X172482858Y-83038242D01*
X172639925Y-83007000D01*
X172800075Y-83007000D01*
X172957142Y-83038242D01*
X172957142Y-83038242D01*
G37*
G36*
X178037142Y-83038242D02*
G01*
X178185101Y-83099529D01*
X178318255Y-83188499D01*
X178431501Y-83301745D01*
X178520471Y-83434899D01*
X178581758Y-83582858D01*
X178613000Y-83739925D01*
X178613000Y-83900075D01*
X178581758Y-84057142D01*
X178520471Y-84205101D01*
X178431501Y-84338255D01*
X178318255Y-84451501D01*
X178185101Y-84540471D01*
X178037142Y-84601758D01*
X177880075Y-84633000D01*
X177719925Y-84633000D01*
X177562858Y-84601758D01*
X177414899Y-84540471D01*
X177281745Y-84451501D01*
X177168499Y-84338255D01*
X177079529Y-84205101D01*
X177018242Y-84057142D01*
X176987000Y-83900075D01*
X176987000Y-83739925D01*
X177018242Y-83582858D01*
X177079529Y-83434899D01*
X177168499Y-83301745D01*
X177281745Y-83188499D01*
X177414899Y-83099529D01*
X177562858Y-83038242D01*
X177719925Y-83007000D01*
X177880075Y-83007000D01*
X178037142Y-83038242D01*
X178037142Y-83038242D01*
G37*
G36*
X105647142Y-83038242D02*
G01*
X105795101Y-83099529D01*
X105928255Y-83188499D01*
X106041501Y-83301745D01*
X106130471Y-83434899D01*
X106191758Y-83582858D01*
X106223000Y-83739925D01*
X106223000Y-83900075D01*
X106191758Y-84057142D01*
X106130471Y-84205101D01*
X106041501Y-84338255D01*
X105928255Y-84451501D01*
X105795101Y-84540471D01*
X105647142Y-84601758D01*
X105490075Y-84633000D01*
X105329925Y-84633000D01*
X105172858Y-84601758D01*
X105024899Y-84540471D01*
X104891745Y-84451501D01*
X104778499Y-84338255D01*
X104689529Y-84205101D01*
X104628242Y-84057142D01*
X104597000Y-83900075D01*
X104597000Y-83739925D01*
X104628242Y-83582858D01*
X104689529Y-83434899D01*
X104778499Y-83301745D01*
X104891745Y-83188499D01*
X105024899Y-83099529D01*
X105172858Y-83038242D01*
X105329925Y-83007000D01*
X105490075Y-83007000D01*
X105647142Y-83038242D01*
X105647142Y-83038242D01*
G37*
G36*
X125967142Y-83038242D02*
G01*
X126115101Y-83099529D01*
X126248255Y-83188499D01*
X126361501Y-83301745D01*
X126450471Y-83434899D01*
X126511758Y-83582858D01*
X126543000Y-83739925D01*
X126543000Y-83900075D01*
X126511758Y-84057142D01*
X126450471Y-84205101D01*
X126361501Y-84338255D01*
X126248255Y-84451501D01*
X126115101Y-84540471D01*
X125967142Y-84601758D01*
X125810075Y-84633000D01*
X125649925Y-84633000D01*
X125492858Y-84601758D01*
X125344899Y-84540471D01*
X125211745Y-84451501D01*
X125098499Y-84338255D01*
X125009529Y-84205101D01*
X124948242Y-84057142D01*
X124917000Y-83900075D01*
X124917000Y-83739925D01*
X124948242Y-83582858D01*
X125009529Y-83434899D01*
X125098499Y-83301745D01*
X125211745Y-83188499D01*
X125344899Y-83099529D01*
X125492858Y-83038242D01*
X125649925Y-83007000D01*
X125810075Y-83007000D01*
X125967142Y-83038242D01*
X125967142Y-83038242D01*
G37*
G36*
X146287142Y-83038242D02*
G01*
X146435101Y-83099529D01*
X146568255Y-83188499D01*
X146681501Y-83301745D01*
X146770471Y-83434899D01*
X146831758Y-83582858D01*
X146863000Y-83739925D01*
X146863000Y-83900075D01*
X146831758Y-84057142D01*
X146770471Y-84205101D01*
X146681501Y-84338255D01*
X146568255Y-84451501D01*
X146435101Y-84540471D01*
X146287142Y-84601758D01*
X146130075Y-84633000D01*
X145969925Y-84633000D01*
X145812858Y-84601758D01*
X145664899Y-84540471D01*
X145531745Y-84451501D01*
X145418499Y-84338255D01*
X145329529Y-84205101D01*
X145268242Y-84057142D01*
X145237000Y-83900075D01*
X145237000Y-83739925D01*
X145268242Y-83582858D01*
X145329529Y-83434899D01*
X145418499Y-83301745D01*
X145531745Y-83188499D01*
X145664899Y-83099529D01*
X145812858Y-83038242D01*
X145969925Y-83007000D01*
X146130075Y-83007000D01*
X146287142Y-83038242D01*
X146287142Y-83038242D01*
G37*
G36*
X105647142Y-80498242D02*
G01*
X105795101Y-80559529D01*
X105928255Y-80648499D01*
X106041501Y-80761745D01*
X106130471Y-80894899D01*
X106191758Y-81042858D01*
X106223000Y-81199925D01*
X106223000Y-81360075D01*
X106191758Y-81517142D01*
X106130471Y-81665101D01*
X106041501Y-81798255D01*
X105928255Y-81911501D01*
X105795101Y-82000471D01*
X105647142Y-82061758D01*
X105490075Y-82093000D01*
X105329925Y-82093000D01*
X105172858Y-82061758D01*
X105024899Y-82000471D01*
X104891745Y-81911501D01*
X104778499Y-81798255D01*
X104689529Y-81665101D01*
X104628242Y-81517142D01*
X104597000Y-81360075D01*
X104597000Y-81199925D01*
X104628242Y-81042858D01*
X104689529Y-80894899D01*
X104778499Y-80761745D01*
X104891745Y-80648499D01*
X105024899Y-80559529D01*
X105172858Y-80498242D01*
X105329925Y-80467000D01*
X105490075Y-80467000D01*
X105647142Y-80498242D01*
X105647142Y-80498242D01*
G37*
G36*
X98027142Y-80498242D02*
G01*
X98175101Y-80559529D01*
X98308255Y-80648499D01*
X98421501Y-80761745D01*
X98510471Y-80894899D01*
X98571758Y-81042858D01*
X98603000Y-81199925D01*
X98603000Y-81360075D01*
X98571758Y-81517142D01*
X98510471Y-81665101D01*
X98421501Y-81798255D01*
X98308255Y-81911501D01*
X98175101Y-82000471D01*
X98027142Y-82061758D01*
X97870075Y-82093000D01*
X97709925Y-82093000D01*
X97552858Y-82061758D01*
X97404899Y-82000471D01*
X97271745Y-81911501D01*
X97158499Y-81798255D01*
X97069529Y-81665101D01*
X97008242Y-81517142D01*
X96977000Y-81360075D01*
X96977000Y-81199925D01*
X97008242Y-81042858D01*
X97069529Y-80894899D01*
X97158499Y-80761745D01*
X97271745Y-80648499D01*
X97404899Y-80559529D01*
X97552858Y-80498242D01*
X97709925Y-80467000D01*
X97870075Y-80467000D01*
X98027142Y-80498242D01*
X98027142Y-80498242D01*
G37*
G36*
X95487142Y-80498242D02*
G01*
X95635101Y-80559529D01*
X95768255Y-80648499D01*
X95881501Y-80761745D01*
X95970471Y-80894899D01*
X96031758Y-81042858D01*
X96063000Y-81199925D01*
X96063000Y-81360075D01*
X96031758Y-81517142D01*
X95970471Y-81665101D01*
X95881501Y-81798255D01*
X95768255Y-81911501D01*
X95635101Y-82000471D01*
X95487142Y-82061758D01*
X95330075Y-82093000D01*
X95169925Y-82093000D01*
X95012858Y-82061758D01*
X94864899Y-82000471D01*
X94731745Y-81911501D01*
X94618499Y-81798255D01*
X94529529Y-81665101D01*
X94468242Y-81517142D01*
X94437000Y-81360075D01*
X94437000Y-81199925D01*
X94468242Y-81042858D01*
X94529529Y-80894899D01*
X94618499Y-80761745D01*
X94731745Y-80648499D01*
X94864899Y-80559529D01*
X95012858Y-80498242D01*
X95169925Y-80467000D01*
X95330075Y-80467000D01*
X95487142Y-80498242D01*
X95487142Y-80498242D01*
G37*
G36*
X125967142Y-80498242D02*
G01*
X126115101Y-80559529D01*
X126248255Y-80648499D01*
X126361501Y-80761745D01*
X126450471Y-80894899D01*
X126511758Y-81042858D01*
X126543000Y-81199925D01*
X126543000Y-81360075D01*
X126511758Y-81517142D01*
X126450471Y-81665101D01*
X126361501Y-81798255D01*
X126248255Y-81911501D01*
X126115101Y-82000471D01*
X125967142Y-82061758D01*
X125810075Y-82093000D01*
X125649925Y-82093000D01*
X125492858Y-82061758D01*
X125344899Y-82000471D01*
X125211745Y-81911501D01*
X125098499Y-81798255D01*
X125009529Y-81665101D01*
X124948242Y-81517142D01*
X124917000Y-81360075D01*
X124917000Y-81199925D01*
X124948242Y-81042858D01*
X125009529Y-80894899D01*
X125098499Y-80761745D01*
X125211745Y-80648499D01*
X125344899Y-80559529D01*
X125492858Y-80498242D01*
X125649925Y-80467000D01*
X125810075Y-80467000D01*
X125967142Y-80498242D01*
X125967142Y-80498242D01*
G37*
G36*
X92947142Y-80498242D02*
G01*
X93095101Y-80559529D01*
X93228255Y-80648499D01*
X93341501Y-80761745D01*
X93430471Y-80894899D01*
X93491758Y-81042858D01*
X93523000Y-81199925D01*
X93523000Y-81360075D01*
X93491758Y-81517142D01*
X93430471Y-81665101D01*
X93341501Y-81798255D01*
X93228255Y-81911501D01*
X93095101Y-82000471D01*
X92947142Y-82061758D01*
X92790075Y-82093000D01*
X92629925Y-82093000D01*
X92472858Y-82061758D01*
X92324899Y-82000471D01*
X92191745Y-81911501D01*
X92078499Y-81798255D01*
X91989529Y-81665101D01*
X91928242Y-81517142D01*
X91897000Y-81360075D01*
X91897000Y-81199925D01*
X91928242Y-81042858D01*
X91989529Y-80894899D01*
X92078499Y-80761745D01*
X92191745Y-80648499D01*
X92324899Y-80559529D01*
X92472858Y-80498242D01*
X92629925Y-80467000D01*
X92790075Y-80467000D01*
X92947142Y-80498242D01*
X92947142Y-80498242D01*
G37*
G36*
X120887142Y-80498242D02*
G01*
X121035101Y-80559529D01*
X121168255Y-80648499D01*
X121281501Y-80761745D01*
X121370471Y-80894899D01*
X121431758Y-81042858D01*
X121463000Y-81199925D01*
X121463000Y-81360075D01*
X121431758Y-81517142D01*
X121370471Y-81665101D01*
X121281501Y-81798255D01*
X121168255Y-81911501D01*
X121035101Y-82000471D01*
X120887142Y-82061758D01*
X120730075Y-82093000D01*
X120569925Y-82093000D01*
X120412858Y-82061758D01*
X120264899Y-82000471D01*
X120131745Y-81911501D01*
X120018499Y-81798255D01*
X119929529Y-81665101D01*
X119868242Y-81517142D01*
X119837000Y-81360075D01*
X119837000Y-81199925D01*
X119868242Y-81042858D01*
X119929529Y-80894899D01*
X120018499Y-80761745D01*
X120131745Y-80648499D01*
X120264899Y-80559529D01*
X120412858Y-80498242D01*
X120569925Y-80467000D01*
X120730075Y-80467000D01*
X120887142Y-80498242D01*
X120887142Y-80498242D01*
G37*
G36*
X146287142Y-80498242D02*
G01*
X146435101Y-80559529D01*
X146568255Y-80648499D01*
X146681501Y-80761745D01*
X146770471Y-80894899D01*
X146831758Y-81042858D01*
X146863000Y-81199925D01*
X146863000Y-81360075D01*
X146831758Y-81517142D01*
X146770471Y-81665101D01*
X146681501Y-81798255D01*
X146568255Y-81911501D01*
X146435101Y-82000471D01*
X146287142Y-82061758D01*
X146130075Y-82093000D01*
X145969925Y-82093000D01*
X145812858Y-82061758D01*
X145664899Y-82000471D01*
X145531745Y-81911501D01*
X145418499Y-81798255D01*
X145329529Y-81665101D01*
X145268242Y-81517142D01*
X145237000Y-81360075D01*
X145237000Y-81199925D01*
X145268242Y-81042858D01*
X145329529Y-80894899D01*
X145418499Y-80761745D01*
X145531745Y-80648499D01*
X145664899Y-80559529D01*
X145812858Y-80498242D01*
X145969925Y-80467000D01*
X146130075Y-80467000D01*
X146287142Y-80498242D01*
X146287142Y-80498242D01*
G37*
G36*
X146287142Y-77958242D02*
G01*
X146435101Y-78019529D01*
X146568255Y-78108499D01*
X146681501Y-78221745D01*
X146770471Y-78354899D01*
X146831758Y-78502858D01*
X146863000Y-78659925D01*
X146863000Y-78820075D01*
X146831758Y-78977142D01*
X146770471Y-79125101D01*
X146681501Y-79258255D01*
X146568255Y-79371501D01*
X146435101Y-79460471D01*
X146287142Y-79521758D01*
X146130075Y-79553000D01*
X145969925Y-79553000D01*
X145812858Y-79521758D01*
X145664899Y-79460471D01*
X145531745Y-79371501D01*
X145418499Y-79258255D01*
X145329529Y-79125101D01*
X145268242Y-78977142D01*
X145237000Y-78820075D01*
X145237000Y-78659925D01*
X145268242Y-78502858D01*
X145329529Y-78354899D01*
X145418499Y-78221745D01*
X145531745Y-78108499D01*
X145664899Y-78019529D01*
X145812858Y-77958242D01*
X145969925Y-77927000D01*
X146130075Y-77927000D01*
X146287142Y-77958242D01*
X146287142Y-77958242D01*
G37*
G36*
X125967142Y-77958242D02*
G01*
X126115101Y-78019529D01*
X126248255Y-78108499D01*
X126361501Y-78221745D01*
X126450471Y-78354899D01*
X126511758Y-78502858D01*
X126543000Y-78659925D01*
X126543000Y-78820075D01*
X126511758Y-78977142D01*
X126450471Y-79125101D01*
X126361501Y-79258255D01*
X126248255Y-79371501D01*
X126115101Y-79460471D01*
X125967142Y-79521758D01*
X125810075Y-79553000D01*
X125649925Y-79553000D01*
X125492858Y-79521758D01*
X125344899Y-79460471D01*
X125211745Y-79371501D01*
X125098499Y-79258255D01*
X125009529Y-79125101D01*
X124948242Y-78977142D01*
X124917000Y-78820075D01*
X124917000Y-78659925D01*
X124948242Y-78502858D01*
X125009529Y-78354899D01*
X125098499Y-78221745D01*
X125211745Y-78108499D01*
X125344899Y-78019529D01*
X125492858Y-77958242D01*
X125649925Y-77927000D01*
X125810075Y-77927000D01*
X125967142Y-77958242D01*
X125967142Y-77958242D01*
G37*
G36*
X105647142Y-77958242D02*
G01*
X105795101Y-78019529D01*
X105928255Y-78108499D01*
X106041501Y-78221745D01*
X106130471Y-78354899D01*
X106191758Y-78502858D01*
X106223000Y-78659925D01*
X106223000Y-78820075D01*
X106191758Y-78977142D01*
X106130471Y-79125101D01*
X106041501Y-79258255D01*
X105928255Y-79371501D01*
X105795101Y-79460471D01*
X105647142Y-79521758D01*
X105490075Y-79553000D01*
X105329925Y-79553000D01*
X105172858Y-79521758D01*
X105024899Y-79460471D01*
X104891745Y-79371501D01*
X104778499Y-79258255D01*
X104689529Y-79125101D01*
X104628242Y-78977142D01*
X104597000Y-78820075D01*
X104597000Y-78659925D01*
X104628242Y-78502858D01*
X104689529Y-78354899D01*
X104778499Y-78221745D01*
X104891745Y-78108499D01*
X105024899Y-78019529D01*
X105172858Y-77958242D01*
X105329925Y-77927000D01*
X105490075Y-77927000D01*
X105647142Y-77958242D01*
X105647142Y-77958242D01*
G37*
G36*
X120887142Y-77958242D02*
G01*
X121035101Y-78019529D01*
X121168255Y-78108499D01*
X121281501Y-78221745D01*
X121370471Y-78354899D01*
X121431758Y-78502858D01*
X121463000Y-78659925D01*
X121463000Y-78820075D01*
X121431758Y-78977142D01*
X121370471Y-79125101D01*
X121281501Y-79258255D01*
X121168255Y-79371501D01*
X121035101Y-79460471D01*
X120887142Y-79521758D01*
X120730075Y-79553000D01*
X120569925Y-79553000D01*
X120412858Y-79521758D01*
X120264899Y-79460471D01*
X120131745Y-79371501D01*
X120018499Y-79258255D01*
X119929529Y-79125101D01*
X119868242Y-78977142D01*
X119837000Y-78820075D01*
X119837000Y-78659925D01*
X119868242Y-78502858D01*
X119929529Y-78354899D01*
X120018499Y-78221745D01*
X120131745Y-78108499D01*
X120264899Y-78019529D01*
X120412858Y-77958242D01*
X120569925Y-77927000D01*
X120730075Y-77927000D01*
X120887142Y-77958242D01*
X120887142Y-77958242D01*
G37*
G36*
X92947142Y-75418242D02*
G01*
X93095101Y-75479529D01*
X93228255Y-75568499D01*
X93341501Y-75681745D01*
X93430471Y-75814899D01*
X93491758Y-75962858D01*
X93523000Y-76119925D01*
X93523000Y-76280075D01*
X93491758Y-76437142D01*
X93430471Y-76585101D01*
X93341501Y-76718255D01*
X93228255Y-76831501D01*
X93095101Y-76920471D01*
X92947142Y-76981758D01*
X92790075Y-77013000D01*
X92629925Y-77013000D01*
X92472858Y-76981758D01*
X92324899Y-76920471D01*
X92191745Y-76831501D01*
X92078499Y-76718255D01*
X91989529Y-76585101D01*
X91928242Y-76437142D01*
X91897000Y-76280075D01*
X91897000Y-76119925D01*
X91928242Y-75962858D01*
X91989529Y-75814899D01*
X92078499Y-75681745D01*
X92191745Y-75568499D01*
X92324899Y-75479529D01*
X92472858Y-75418242D01*
X92629925Y-75387000D01*
X92790075Y-75387000D01*
X92947142Y-75418242D01*
X92947142Y-75418242D01*
G37*
G36*
X95487142Y-75418242D02*
G01*
X95635101Y-75479529D01*
X95768255Y-75568499D01*
X95881501Y-75681745D01*
X95970471Y-75814899D01*
X96031758Y-75962858D01*
X96063000Y-76119925D01*
X96063000Y-76280075D01*
X96031758Y-76437142D01*
X95970471Y-76585101D01*
X95881501Y-76718255D01*
X95768255Y-76831501D01*
X95635101Y-76920471D01*
X95487142Y-76981758D01*
X95330075Y-77013000D01*
X95169925Y-77013000D01*
X95012858Y-76981758D01*
X94864899Y-76920471D01*
X94731745Y-76831501D01*
X94618499Y-76718255D01*
X94529529Y-76585101D01*
X94468242Y-76437142D01*
X94437000Y-76280075D01*
X94437000Y-76119925D01*
X94468242Y-75962858D01*
X94529529Y-75814899D01*
X94618499Y-75681745D01*
X94731745Y-75568499D01*
X94864899Y-75479529D01*
X95012858Y-75418242D01*
X95169925Y-75387000D01*
X95330075Y-75387000D01*
X95487142Y-75418242D01*
X95487142Y-75418242D01*
G37*
G36*
X105647142Y-75418242D02*
G01*
X105795101Y-75479529D01*
X105928255Y-75568499D01*
X106041501Y-75681745D01*
X106130471Y-75814899D01*
X106191758Y-75962858D01*
X106223000Y-76119925D01*
X106223000Y-76280075D01*
X106191758Y-76437142D01*
X106130471Y-76585101D01*
X106041501Y-76718255D01*
X105928255Y-76831501D01*
X105795101Y-76920471D01*
X105647142Y-76981758D01*
X105490075Y-77013000D01*
X105329925Y-77013000D01*
X105172858Y-76981758D01*
X105024899Y-76920471D01*
X104891745Y-76831501D01*
X104778499Y-76718255D01*
X104689529Y-76585101D01*
X104628242Y-76437142D01*
X104597000Y-76280075D01*
X104597000Y-76119925D01*
X104628242Y-75962858D01*
X104689529Y-75814899D01*
X104778499Y-75681745D01*
X104891745Y-75568499D01*
X105024899Y-75479529D01*
X105172858Y-75418242D01*
X105329925Y-75387000D01*
X105490075Y-75387000D01*
X105647142Y-75418242D01*
X105647142Y-75418242D01*
G37*
G36*
X120887142Y-75418242D02*
G01*
X121035101Y-75479529D01*
X121168255Y-75568499D01*
X121281501Y-75681745D01*
X121370471Y-75814899D01*
X121431758Y-75962858D01*
X121463000Y-76119925D01*
X121463000Y-76280075D01*
X121431758Y-76437142D01*
X121370471Y-76585101D01*
X121281501Y-76718255D01*
X121168255Y-76831501D01*
X121035101Y-76920471D01*
X120887142Y-76981758D01*
X120730075Y-77013000D01*
X120569925Y-77013000D01*
X120412858Y-76981758D01*
X120264899Y-76920471D01*
X120131745Y-76831501D01*
X120018499Y-76718255D01*
X119929529Y-76585101D01*
X119868242Y-76437142D01*
X119837000Y-76280075D01*
X119837000Y-76119925D01*
X119868242Y-75962858D01*
X119929529Y-75814899D01*
X120018499Y-75681745D01*
X120131745Y-75568499D01*
X120264899Y-75479529D01*
X120412858Y-75418242D01*
X120569925Y-75387000D01*
X120730075Y-75387000D01*
X120887142Y-75418242D01*
X120887142Y-75418242D01*
G37*
G36*
X146287142Y-75418242D02*
G01*
X146435101Y-75479529D01*
X146568255Y-75568499D01*
X146681501Y-75681745D01*
X146770471Y-75814899D01*
X146831758Y-75962858D01*
X146863000Y-76119925D01*
X146863000Y-76280075D01*
X146831758Y-76437142D01*
X146770471Y-76585101D01*
X146681501Y-76718255D01*
X146568255Y-76831501D01*
X146435101Y-76920471D01*
X146287142Y-76981758D01*
X146130075Y-77013000D01*
X145969925Y-77013000D01*
X145812858Y-76981758D01*
X145664899Y-76920471D01*
X145531745Y-76831501D01*
X145418499Y-76718255D01*
X145329529Y-76585101D01*
X145268242Y-76437142D01*
X145237000Y-76280075D01*
X145237000Y-76119925D01*
X145268242Y-75962858D01*
X145329529Y-75814899D01*
X145418499Y-75681745D01*
X145531745Y-75568499D01*
X145664899Y-75479529D01*
X145812858Y-75418242D01*
X145969925Y-75387000D01*
X146130075Y-75387000D01*
X146287142Y-75418242D01*
X146287142Y-75418242D01*
G37*
G36*
X98027142Y-75418242D02*
G01*
X98175101Y-75479529D01*
X98308255Y-75568499D01*
X98421501Y-75681745D01*
X98510471Y-75814899D01*
X98571758Y-75962858D01*
X98603000Y-76119925D01*
X98603000Y-76280075D01*
X98571758Y-76437142D01*
X98510471Y-76585101D01*
X98421501Y-76718255D01*
X98308255Y-76831501D01*
X98175101Y-76920471D01*
X98027142Y-76981758D01*
X97870075Y-77013000D01*
X97709925Y-77013000D01*
X97552858Y-76981758D01*
X97404899Y-76920471D01*
X97271745Y-76831501D01*
X97158499Y-76718255D01*
X97069529Y-76585101D01*
X97008242Y-76437142D01*
X96977000Y-76280075D01*
X96977000Y-76119925D01*
X97008242Y-75962858D01*
X97069529Y-75814899D01*
X97158499Y-75681745D01*
X97271745Y-75568499D01*
X97404899Y-75479529D01*
X97552858Y-75418242D01*
X97709925Y-75387000D01*
X97870075Y-75387000D01*
X98027142Y-75418242D01*
X98027142Y-75418242D01*
G37*
G36*
X125967142Y-75418242D02*
G01*
X126115101Y-75479529D01*
X126248255Y-75568499D01*
X126361501Y-75681745D01*
X126450471Y-75814899D01*
X126511758Y-75962858D01*
X126543000Y-76119925D01*
X126543000Y-76280075D01*
X126511758Y-76437142D01*
X126450471Y-76585101D01*
X126361501Y-76718255D01*
X126248255Y-76831501D01*
X126115101Y-76920471D01*
X125967142Y-76981758D01*
X125810075Y-77013000D01*
X125649925Y-77013000D01*
X125492858Y-76981758D01*
X125344899Y-76920471D01*
X125211745Y-76831501D01*
X125098499Y-76718255D01*
X125009529Y-76585101D01*
X124948242Y-76437142D01*
X124917000Y-76280075D01*
X124917000Y-76119925D01*
X124948242Y-75962858D01*
X125009529Y-75814899D01*
X125098499Y-75681745D01*
X125211745Y-75568499D01*
X125344899Y-75479529D01*
X125492858Y-75418242D01*
X125649925Y-75387000D01*
X125810075Y-75387000D01*
X125967142Y-75418242D01*
X125967142Y-75418242D01*
G37*
G36*
X105647142Y-72878242D02*
G01*
X105795101Y-72939529D01*
X105928255Y-73028499D01*
X106041501Y-73141745D01*
X106130471Y-73274899D01*
X106191758Y-73422858D01*
X106223000Y-73579925D01*
X106223000Y-73740075D01*
X106191758Y-73897142D01*
X106130471Y-74045101D01*
X106041501Y-74178255D01*
X105928255Y-74291501D01*
X105795101Y-74380471D01*
X105647142Y-74441758D01*
X105490075Y-74473000D01*
X105329925Y-74473000D01*
X105172858Y-74441758D01*
X105024899Y-74380471D01*
X104891745Y-74291501D01*
X104778499Y-74178255D01*
X104689529Y-74045101D01*
X104628242Y-73897142D01*
X104597000Y-73740075D01*
X104597000Y-73579925D01*
X104628242Y-73422858D01*
X104689529Y-73274899D01*
X104778499Y-73141745D01*
X104891745Y-73028499D01*
X105024899Y-72939529D01*
X105172858Y-72878242D01*
X105329925Y-72847000D01*
X105490075Y-72847000D01*
X105647142Y-72878242D01*
X105647142Y-72878242D01*
G37*
G36*
X120887142Y-72878242D02*
G01*
X121035101Y-72939529D01*
X121168255Y-73028499D01*
X121281501Y-73141745D01*
X121370471Y-73274899D01*
X121431758Y-73422858D01*
X121463000Y-73579925D01*
X121463000Y-73740075D01*
X121431758Y-73897142D01*
X121370471Y-74045101D01*
X121281501Y-74178255D01*
X121168255Y-74291501D01*
X121035101Y-74380471D01*
X120887142Y-74441758D01*
X120730075Y-74473000D01*
X120569925Y-74473000D01*
X120412858Y-74441758D01*
X120264899Y-74380471D01*
X120131745Y-74291501D01*
X120018499Y-74178255D01*
X119929529Y-74045101D01*
X119868242Y-73897142D01*
X119837000Y-73740075D01*
X119837000Y-73579925D01*
X119868242Y-73422858D01*
X119929529Y-73274899D01*
X120018499Y-73141745D01*
X120131745Y-73028499D01*
X120264899Y-72939529D01*
X120412858Y-72878242D01*
X120569925Y-72847000D01*
X120730075Y-72847000D01*
X120887142Y-72878242D01*
X120887142Y-72878242D01*
G37*
G36*
X146287142Y-72878242D02*
G01*
X146435101Y-72939529D01*
X146568255Y-73028499D01*
X146681501Y-73141745D01*
X146770471Y-73274899D01*
X146831758Y-73422858D01*
X146863000Y-73579925D01*
X146863000Y-73740075D01*
X146831758Y-73897142D01*
X146770471Y-74045101D01*
X146681501Y-74178255D01*
X146568255Y-74291501D01*
X146435101Y-74380471D01*
X146287142Y-74441758D01*
X146130075Y-74473000D01*
X145969925Y-74473000D01*
X145812858Y-74441758D01*
X145664899Y-74380471D01*
X145531745Y-74291501D01*
X145418499Y-74178255D01*
X145329529Y-74045101D01*
X145268242Y-73897142D01*
X145237000Y-73740075D01*
X145237000Y-73579925D01*
X145268242Y-73422858D01*
X145329529Y-73274899D01*
X145418499Y-73141745D01*
X145531745Y-73028499D01*
X145664899Y-72939529D01*
X145812858Y-72878242D01*
X145969925Y-72847000D01*
X146130075Y-72847000D01*
X146287142Y-72878242D01*
X146287142Y-72878242D01*
G37*
G36*
X125967142Y-72878242D02*
G01*
X126115101Y-72939529D01*
X126248255Y-73028499D01*
X126361501Y-73141745D01*
X126450471Y-73274899D01*
X126511758Y-73422858D01*
X126543000Y-73579925D01*
X126543000Y-73740075D01*
X126511758Y-73897142D01*
X126450471Y-74045101D01*
X126361501Y-74178255D01*
X126248255Y-74291501D01*
X126115101Y-74380471D01*
X125967142Y-74441758D01*
X125810075Y-74473000D01*
X125649925Y-74473000D01*
X125492858Y-74441758D01*
X125344899Y-74380471D01*
X125211745Y-74291501D01*
X125098499Y-74178255D01*
X125009529Y-74045101D01*
X124948242Y-73897142D01*
X124917000Y-73740075D01*
X124917000Y-73579925D01*
X124948242Y-73422858D01*
X125009529Y-73274899D01*
X125098499Y-73141745D01*
X125211745Y-73028499D01*
X125344899Y-72939529D01*
X125492858Y-72878242D01*
X125649925Y-72847000D01*
X125810075Y-72847000D01*
X125967142Y-72878242D01*
X125967142Y-72878242D01*
G37*
G36*
X120887142Y-70338242D02*
G01*
X121035101Y-70399529D01*
X121168255Y-70488499D01*
X121281501Y-70601745D01*
X121370471Y-70734899D01*
X121431758Y-70882858D01*
X121463000Y-71039925D01*
X121463000Y-71200075D01*
X121431758Y-71357142D01*
X121370471Y-71505101D01*
X121281501Y-71638255D01*
X121168255Y-71751501D01*
X121035101Y-71840471D01*
X120887142Y-71901758D01*
X120730075Y-71933000D01*
X120569925Y-71933000D01*
X120412858Y-71901758D01*
X120264899Y-71840471D01*
X120131745Y-71751501D01*
X120018499Y-71638255D01*
X119929529Y-71505101D01*
X119868242Y-71357142D01*
X119837000Y-71200075D01*
X119837000Y-71039925D01*
X119868242Y-70882858D01*
X119929529Y-70734899D01*
X120018499Y-70601745D01*
X120131745Y-70488499D01*
X120264899Y-70399529D01*
X120412858Y-70338242D01*
X120569925Y-70307000D01*
X120730075Y-70307000D01*
X120887142Y-70338242D01*
X120887142Y-70338242D01*
G37*
G36*
X125967142Y-70338242D02*
G01*
X126115101Y-70399529D01*
X126248255Y-70488499D01*
X126361501Y-70601745D01*
X126450471Y-70734899D01*
X126511758Y-70882858D01*
X126543000Y-71039925D01*
X126543000Y-71200075D01*
X126511758Y-71357142D01*
X126450471Y-71505101D01*
X126361501Y-71638255D01*
X126248255Y-71751501D01*
X126115101Y-71840471D01*
X125967142Y-71901758D01*
X125810075Y-71933000D01*
X125649925Y-71933000D01*
X125492858Y-71901758D01*
X125344899Y-71840471D01*
X125211745Y-71751501D01*
X125098499Y-71638255D01*
X125009529Y-71505101D01*
X124948242Y-71357142D01*
X124917000Y-71200075D01*
X124917000Y-71039925D01*
X124948242Y-70882858D01*
X125009529Y-70734899D01*
X125098499Y-70601745D01*
X125211745Y-70488499D01*
X125344899Y-70399529D01*
X125492858Y-70338242D01*
X125649925Y-70307000D01*
X125810075Y-70307000D01*
X125967142Y-70338242D01*
X125967142Y-70338242D01*
G37*
G36*
X95487142Y-70338242D02*
G01*
X95635101Y-70399529D01*
X95768255Y-70488499D01*
X95881501Y-70601745D01*
X95970471Y-70734899D01*
X96031758Y-70882858D01*
X96063000Y-71039925D01*
X96063000Y-71200075D01*
X96031758Y-71357142D01*
X95970471Y-71505101D01*
X95881501Y-71638255D01*
X95768255Y-71751501D01*
X95635101Y-71840471D01*
X95487142Y-71901758D01*
X95330075Y-71933000D01*
X95169925Y-71933000D01*
X95012858Y-71901758D01*
X94864899Y-71840471D01*
X94731745Y-71751501D01*
X94618499Y-71638255D01*
X94529529Y-71505101D01*
X94468242Y-71357142D01*
X94437000Y-71200075D01*
X94437000Y-71039925D01*
X94468242Y-70882858D01*
X94529529Y-70734899D01*
X94618499Y-70601745D01*
X94731745Y-70488499D01*
X94864899Y-70399529D01*
X95012858Y-70338242D01*
X95169925Y-70307000D01*
X95330075Y-70307000D01*
X95487142Y-70338242D01*
X95487142Y-70338242D01*
G37*
G36*
X105647142Y-70338242D02*
G01*
X105795101Y-70399529D01*
X105928255Y-70488499D01*
X106041501Y-70601745D01*
X106130471Y-70734899D01*
X106191758Y-70882858D01*
X106223000Y-71039925D01*
X106223000Y-71200075D01*
X106191758Y-71357142D01*
X106130471Y-71505101D01*
X106041501Y-71638255D01*
X105928255Y-71751501D01*
X105795101Y-71840471D01*
X105647142Y-71901758D01*
X105490075Y-71933000D01*
X105329925Y-71933000D01*
X105172858Y-71901758D01*
X105024899Y-71840471D01*
X104891745Y-71751501D01*
X104778499Y-71638255D01*
X104689529Y-71505101D01*
X104628242Y-71357142D01*
X104597000Y-71200075D01*
X104597000Y-71039925D01*
X104628242Y-70882858D01*
X104689529Y-70734899D01*
X104778499Y-70601745D01*
X104891745Y-70488499D01*
X105024899Y-70399529D01*
X105172858Y-70338242D01*
X105329925Y-70307000D01*
X105490075Y-70307000D01*
X105647142Y-70338242D01*
X105647142Y-70338242D01*
G37*
G36*
X146287142Y-70338242D02*
G01*
X146435101Y-70399529D01*
X146568255Y-70488499D01*
X146681501Y-70601745D01*
X146770471Y-70734899D01*
X146831758Y-70882858D01*
X146863000Y-71039925D01*
X146863000Y-71200075D01*
X146831758Y-71357142D01*
X146770471Y-71505101D01*
X146681501Y-71638255D01*
X146568255Y-71751501D01*
X146435101Y-71840471D01*
X146287142Y-71901758D01*
X146130075Y-71933000D01*
X145969925Y-71933000D01*
X145812858Y-71901758D01*
X145664899Y-71840471D01*
X145531745Y-71751501D01*
X145418499Y-71638255D01*
X145329529Y-71505101D01*
X145268242Y-71357142D01*
X145237000Y-71200075D01*
X145237000Y-71039925D01*
X145268242Y-70882858D01*
X145329529Y-70734899D01*
X145418499Y-70601745D01*
X145531745Y-70488499D01*
X145664899Y-70399529D01*
X145812858Y-70338242D01*
X145969925Y-70307000D01*
X146130075Y-70307000D01*
X146287142Y-70338242D01*
X146287142Y-70338242D01*
G37*
G36*
X92947142Y-70338242D02*
G01*
X93095101Y-70399529D01*
X93228255Y-70488499D01*
X93341501Y-70601745D01*
X93430471Y-70734899D01*
X93491758Y-70882858D01*
X93523000Y-71039925D01*
X93523000Y-71200075D01*
X93491758Y-71357142D01*
X93430471Y-71505101D01*
X93341501Y-71638255D01*
X93228255Y-71751501D01*
X93095101Y-71840471D01*
X92947142Y-71901758D01*
X92790075Y-71933000D01*
X92629925Y-71933000D01*
X92472858Y-71901758D01*
X92324899Y-71840471D01*
X92191745Y-71751501D01*
X92078499Y-71638255D01*
X91989529Y-71505101D01*
X91928242Y-71357142D01*
X91897000Y-71200075D01*
X91897000Y-71039925D01*
X91928242Y-70882858D01*
X91989529Y-70734899D01*
X92078499Y-70601745D01*
X92191745Y-70488499D01*
X92324899Y-70399529D01*
X92472858Y-70338242D01*
X92629925Y-70307000D01*
X92790075Y-70307000D01*
X92947142Y-70338242D01*
X92947142Y-70338242D01*
G37*
G36*
X98027142Y-70338242D02*
G01*
X98175101Y-70399529D01*
X98308255Y-70488499D01*
X98421501Y-70601745D01*
X98510471Y-70734899D01*
X98571758Y-70882858D01*
X98603000Y-71039925D01*
X98603000Y-71200075D01*
X98571758Y-71357142D01*
X98510471Y-71505101D01*
X98421501Y-71638255D01*
X98308255Y-71751501D01*
X98175101Y-71840471D01*
X98027142Y-71901758D01*
X97870075Y-71933000D01*
X97709925Y-71933000D01*
X97552858Y-71901758D01*
X97404899Y-71840471D01*
X97271745Y-71751501D01*
X97158499Y-71638255D01*
X97069529Y-71505101D01*
X97008242Y-71357142D01*
X96977000Y-71200075D01*
X96977000Y-71039925D01*
X97008242Y-70882858D01*
X97069529Y-70734899D01*
X97158499Y-70601745D01*
X97271745Y-70488499D01*
X97404899Y-70399529D01*
X97552858Y-70338242D01*
X97709925Y-70307000D01*
X97870075Y-70307000D01*
X98027142Y-70338242D01*
X98027142Y-70338242D01*
G37*
G36*
X125967142Y-67798242D02*
G01*
X126115101Y-67859529D01*
X126248255Y-67948499D01*
X126361501Y-68061745D01*
X126450471Y-68194899D01*
X126511758Y-68342858D01*
X126543000Y-68499925D01*
X126543000Y-68660075D01*
X126511758Y-68817142D01*
X126450471Y-68965101D01*
X126361501Y-69098255D01*
X126248255Y-69211501D01*
X126115101Y-69300471D01*
X125967142Y-69361758D01*
X125810075Y-69393000D01*
X125649925Y-69393000D01*
X125492858Y-69361758D01*
X125344899Y-69300471D01*
X125211745Y-69211501D01*
X125098499Y-69098255D01*
X125009529Y-68965101D01*
X124948242Y-68817142D01*
X124917000Y-68660075D01*
X124917000Y-68499925D01*
X124948242Y-68342858D01*
X125009529Y-68194899D01*
X125098499Y-68061745D01*
X125211745Y-67948499D01*
X125344899Y-67859529D01*
X125492858Y-67798242D01*
X125649925Y-67767000D01*
X125810075Y-67767000D01*
X125967142Y-67798242D01*
X125967142Y-67798242D01*
G37*
G36*
X146287142Y-67798242D02*
G01*
X146435101Y-67859529D01*
X146568255Y-67948499D01*
X146681501Y-68061745D01*
X146770471Y-68194899D01*
X146831758Y-68342858D01*
X146863000Y-68499925D01*
X146863000Y-68660075D01*
X146831758Y-68817142D01*
X146770471Y-68965101D01*
X146681501Y-69098255D01*
X146568255Y-69211501D01*
X146435101Y-69300471D01*
X146287142Y-69361758D01*
X146130075Y-69393000D01*
X145969925Y-69393000D01*
X145812858Y-69361758D01*
X145664899Y-69300471D01*
X145531745Y-69211501D01*
X145418499Y-69098255D01*
X145329529Y-68965101D01*
X145268242Y-68817142D01*
X145237000Y-68660075D01*
X145237000Y-68499925D01*
X145268242Y-68342858D01*
X145329529Y-68194899D01*
X145418499Y-68061745D01*
X145531745Y-67948499D01*
X145664899Y-67859529D01*
X145812858Y-67798242D01*
X145969925Y-67767000D01*
X146130075Y-67767000D01*
X146287142Y-67798242D01*
X146287142Y-67798242D01*
G37*
G36*
X105647142Y-67798242D02*
G01*
X105795101Y-67859529D01*
X105928255Y-67948499D01*
X106041501Y-68061745D01*
X106130471Y-68194899D01*
X106191758Y-68342858D01*
X106223000Y-68499925D01*
X106223000Y-68660075D01*
X106191758Y-68817142D01*
X106130471Y-68965101D01*
X106041501Y-69098255D01*
X105928255Y-69211501D01*
X105795101Y-69300471D01*
X105647142Y-69361758D01*
X105490075Y-69393000D01*
X105329925Y-69393000D01*
X105172858Y-69361758D01*
X105024899Y-69300471D01*
X104891745Y-69211501D01*
X104778499Y-69098255D01*
X104689529Y-68965101D01*
X104628242Y-68817142D01*
X104597000Y-68660075D01*
X104597000Y-68499925D01*
X104628242Y-68342858D01*
X104689529Y-68194899D01*
X104778499Y-68061745D01*
X104891745Y-67948499D01*
X105024899Y-67859529D01*
X105172858Y-67798242D01*
X105329925Y-67767000D01*
X105490075Y-67767000D01*
X105647142Y-67798242D01*
X105647142Y-67798242D01*
G37*
G36*
X120887142Y-67798242D02*
G01*
X121035101Y-67859529D01*
X121168255Y-67948499D01*
X121281501Y-68061745D01*
X121370471Y-68194899D01*
X121431758Y-68342858D01*
X121463000Y-68499925D01*
X121463000Y-68660075D01*
X121431758Y-68817142D01*
X121370471Y-68965101D01*
X121281501Y-69098255D01*
X121168255Y-69211501D01*
X121035101Y-69300471D01*
X120887142Y-69361758D01*
X120730075Y-69393000D01*
X120569925Y-69393000D01*
X120412858Y-69361758D01*
X120264899Y-69300471D01*
X120131745Y-69211501D01*
X120018499Y-69098255D01*
X119929529Y-68965101D01*
X119868242Y-68817142D01*
X119837000Y-68660075D01*
X119837000Y-68499925D01*
X119868242Y-68342858D01*
X119929529Y-68194899D01*
X120018499Y-68061745D01*
X120131745Y-67948499D01*
X120264899Y-67859529D01*
X120412858Y-67798242D01*
X120569925Y-67767000D01*
X120730075Y-67767000D01*
X120887142Y-67798242D01*
X120887142Y-67798242D01*
G37*
G36*
X105647142Y-65258242D02*
G01*
X105795101Y-65319529D01*
X105928255Y-65408499D01*
X106041501Y-65521745D01*
X106130471Y-65654899D01*
X106191758Y-65802858D01*
X106223000Y-65959925D01*
X106223000Y-66120075D01*
X106191758Y-66277142D01*
X106130471Y-66425101D01*
X106041501Y-66558255D01*
X105928255Y-66671501D01*
X105795101Y-66760471D01*
X105647142Y-66821758D01*
X105490075Y-66853000D01*
X105329925Y-66853000D01*
X105172858Y-66821758D01*
X105024899Y-66760471D01*
X104891745Y-66671501D01*
X104778499Y-66558255D01*
X104689529Y-66425101D01*
X104628242Y-66277142D01*
X104597000Y-66120075D01*
X104597000Y-65959925D01*
X104628242Y-65802858D01*
X104689529Y-65654899D01*
X104778499Y-65521745D01*
X104891745Y-65408499D01*
X105024899Y-65319529D01*
X105172858Y-65258242D01*
X105329925Y-65227000D01*
X105490075Y-65227000D01*
X105647142Y-65258242D01*
X105647142Y-65258242D01*
G37*
G36*
X146287142Y-65258242D02*
G01*
X146435101Y-65319529D01*
X146568255Y-65408499D01*
X146681501Y-65521745D01*
X146770471Y-65654899D01*
X146831758Y-65802858D01*
X146863000Y-65959925D01*
X146863000Y-66120075D01*
X146831758Y-66277142D01*
X146770471Y-66425101D01*
X146681501Y-66558255D01*
X146568255Y-66671501D01*
X146435101Y-66760471D01*
X146287142Y-66821758D01*
X146130075Y-66853000D01*
X145969925Y-66853000D01*
X145812858Y-66821758D01*
X145664899Y-66760471D01*
X145531745Y-66671501D01*
X145418499Y-66558255D01*
X145329529Y-66425101D01*
X145268242Y-66277142D01*
X145237000Y-66120075D01*
X145237000Y-65959925D01*
X145268242Y-65802858D01*
X145329529Y-65654899D01*
X145418499Y-65521745D01*
X145531745Y-65408499D01*
X145664899Y-65319529D01*
X145812858Y-65258242D01*
X145969925Y-65227000D01*
X146130075Y-65227000D01*
X146287142Y-65258242D01*
X146287142Y-65258242D01*
G37*
G36*
X120887142Y-65258242D02*
G01*
X121035101Y-65319529D01*
X121168255Y-65408499D01*
X121281501Y-65521745D01*
X121370471Y-65654899D01*
X121431758Y-65802858D01*
X121463000Y-65959925D01*
X121463000Y-66120075D01*
X121431758Y-66277142D01*
X121370471Y-66425101D01*
X121281501Y-66558255D01*
X121168255Y-66671501D01*
X121035101Y-66760471D01*
X120887142Y-66821758D01*
X120730075Y-66853000D01*
X120569925Y-66853000D01*
X120412858Y-66821758D01*
X120264899Y-66760471D01*
X120131745Y-66671501D01*
X120018499Y-66558255D01*
X119929529Y-66425101D01*
X119868242Y-66277142D01*
X119837000Y-66120075D01*
X119837000Y-65959925D01*
X119868242Y-65802858D01*
X119929529Y-65654899D01*
X120018499Y-65521745D01*
X120131745Y-65408499D01*
X120264899Y-65319529D01*
X120412858Y-65258242D01*
X120569925Y-65227000D01*
X120730075Y-65227000D01*
X120887142Y-65258242D01*
X120887142Y-65258242D01*
G37*
G36*
X125967142Y-65258242D02*
G01*
X126115101Y-65319529D01*
X126248255Y-65408499D01*
X126361501Y-65521745D01*
X126450471Y-65654899D01*
X126511758Y-65802858D01*
X126543000Y-65959925D01*
X126543000Y-66120075D01*
X126511758Y-66277142D01*
X126450471Y-66425101D01*
X126361501Y-66558255D01*
X126248255Y-66671501D01*
X126115101Y-66760471D01*
X125967142Y-66821758D01*
X125810075Y-66853000D01*
X125649925Y-66853000D01*
X125492858Y-66821758D01*
X125344899Y-66760471D01*
X125211745Y-66671501D01*
X125098499Y-66558255D01*
X125009529Y-66425101D01*
X124948242Y-66277142D01*
X124917000Y-66120075D01*
X124917000Y-65959925D01*
X124948242Y-65802858D01*
X125009529Y-65654899D01*
X125098499Y-65521745D01*
X125211745Y-65408499D01*
X125344899Y-65319529D01*
X125492858Y-65258242D01*
X125649925Y-65227000D01*
X125810075Y-65227000D01*
X125967142Y-65258242D01*
X125967142Y-65258242D01*
G37*
G36*
X94176719Y-63733520D02*
G01*
X94365880Y-63790901D01*
X94365883Y-63790902D01*
X94458333Y-63840318D01*
X94540212Y-63884083D01*
X94693015Y-64009485D01*
X94818417Y-64162288D01*
X94911599Y-64336619D01*
X94968980Y-64525780D01*
X94983500Y-64673206D01*
X94983500Y-64866793D01*
X94968980Y-65014219D01*
X94911599Y-65203380D01*
X94911598Y-65203383D01*
X94898974Y-65227000D01*
X94818417Y-65377712D01*
X94693015Y-65530515D01*
X94540212Y-65655917D01*
X94365881Y-65749099D01*
X94176720Y-65806480D01*
X93980000Y-65825855D01*
X93783281Y-65806480D01*
X93594120Y-65749099D01*
X93419788Y-65655917D01*
X93266985Y-65530515D01*
X93141583Y-65377712D01*
X93048401Y-65203381D01*
X92991020Y-65014220D01*
X92976500Y-64866794D01*
X92976500Y-64673207D01*
X92991020Y-64525781D01*
X93048401Y-64336620D01*
X93048402Y-64336617D01*
X93110484Y-64220471D01*
X93141583Y-64162288D01*
X93266985Y-64009485D01*
X93419788Y-63884083D01*
X93594119Y-63790901D01*
X93783280Y-63733520D01*
X93980000Y-63714145D01*
X94176719Y-63733520D01*
X94176719Y-63733520D01*
G37*
G36*
X96716719Y-63733520D02*
G01*
X96905880Y-63790901D01*
X96905883Y-63790902D01*
X96998333Y-63840318D01*
X97080212Y-63884083D01*
X97233015Y-64009485D01*
X97358417Y-64162288D01*
X97451599Y-64336619D01*
X97508980Y-64525780D01*
X97523500Y-64673206D01*
X97523500Y-64866793D01*
X97508980Y-65014219D01*
X97451599Y-65203380D01*
X97451598Y-65203383D01*
X97438974Y-65227000D01*
X97358417Y-65377712D01*
X97233015Y-65530515D01*
X97080212Y-65655917D01*
X96905881Y-65749099D01*
X96716720Y-65806480D01*
X96520000Y-65825855D01*
X96323281Y-65806480D01*
X96134120Y-65749099D01*
X95959788Y-65655917D01*
X95806985Y-65530515D01*
X95681583Y-65377712D01*
X95588401Y-65203381D01*
X95531020Y-65014220D01*
X95516500Y-64866794D01*
X95516500Y-64673207D01*
X95531020Y-64525781D01*
X95588401Y-64336620D01*
X95588402Y-64336617D01*
X95650484Y-64220471D01*
X95681583Y-64162288D01*
X95806985Y-64009485D01*
X95959788Y-63884083D01*
X96134119Y-63790901D01*
X96323280Y-63733520D01*
X96520000Y-63714145D01*
X96716719Y-63733520D01*
X96716719Y-63733520D01*
G37*
G36*
X92443500Y-65821000D02*
G01*
X90436500Y-65821000D01*
X90436500Y-63719000D01*
X92443500Y-63719000D01*
X92443500Y-65821000D01*
X92443500Y-65821000D01*
G37*
G36*
X120887142Y-62718242D02*
G01*
X121035101Y-62779529D01*
X121168255Y-62868499D01*
X121281501Y-62981745D01*
X121370471Y-63114899D01*
X121431758Y-63262858D01*
X121463000Y-63419925D01*
X121463000Y-63580075D01*
X121431758Y-63737142D01*
X121370471Y-63885101D01*
X121281501Y-64018255D01*
X121168255Y-64131501D01*
X121035101Y-64220471D01*
X120887142Y-64281758D01*
X120730075Y-64313000D01*
X120569925Y-64313000D01*
X120412858Y-64281758D01*
X120264899Y-64220471D01*
X120131745Y-64131501D01*
X120018499Y-64018255D01*
X119929529Y-63885101D01*
X119868242Y-63737142D01*
X119837000Y-63580075D01*
X119837000Y-63419925D01*
X119868242Y-63262858D01*
X119929529Y-63114899D01*
X120018499Y-62981745D01*
X120131745Y-62868499D01*
X120264899Y-62779529D01*
X120412858Y-62718242D01*
X120569925Y-62687000D01*
X120730075Y-62687000D01*
X120887142Y-62718242D01*
X120887142Y-62718242D01*
G37*
G36*
X125967142Y-62718242D02*
G01*
X126115101Y-62779529D01*
X126248255Y-62868499D01*
X126361501Y-62981745D01*
X126450471Y-63114899D01*
X126511758Y-63262858D01*
X126543000Y-63419925D01*
X126543000Y-63580075D01*
X126511758Y-63737142D01*
X126450471Y-63885101D01*
X126361501Y-64018255D01*
X126248255Y-64131501D01*
X126115101Y-64220471D01*
X125967142Y-64281758D01*
X125810075Y-64313000D01*
X125649925Y-64313000D01*
X125492858Y-64281758D01*
X125344899Y-64220471D01*
X125211745Y-64131501D01*
X125098499Y-64018255D01*
X125009529Y-63885101D01*
X124948242Y-63737142D01*
X124917000Y-63580075D01*
X124917000Y-63419925D01*
X124948242Y-63262858D01*
X125009529Y-63114899D01*
X125098499Y-62981745D01*
X125211745Y-62868499D01*
X125344899Y-62779529D01*
X125492858Y-62718242D01*
X125649925Y-62687000D01*
X125810075Y-62687000D01*
X125967142Y-62718242D01*
X125967142Y-62718242D01*
G37*
G36*
X146287142Y-62718242D02*
G01*
X146435101Y-62779529D01*
X146568255Y-62868499D01*
X146681501Y-62981745D01*
X146770471Y-63114899D01*
X146831758Y-63262858D01*
X146863000Y-63419925D01*
X146863000Y-63580075D01*
X146831758Y-63737142D01*
X146770471Y-63885101D01*
X146681501Y-64018255D01*
X146568255Y-64131501D01*
X146435101Y-64220471D01*
X146287142Y-64281758D01*
X146130075Y-64313000D01*
X145969925Y-64313000D01*
X145812858Y-64281758D01*
X145664899Y-64220471D01*
X145531745Y-64131501D01*
X145418499Y-64018255D01*
X145329529Y-63885101D01*
X145268242Y-63737142D01*
X145237000Y-63580075D01*
X145237000Y-63419925D01*
X145268242Y-63262858D01*
X145329529Y-63114899D01*
X145418499Y-62981745D01*
X145531745Y-62868499D01*
X145664899Y-62779529D01*
X145812858Y-62718242D01*
X145969925Y-62687000D01*
X146130075Y-62687000D01*
X146287142Y-62718242D01*
X146287142Y-62718242D01*
G37*
G36*
X105647142Y-62718242D02*
G01*
X105795101Y-62779529D01*
X105928255Y-62868499D01*
X106041501Y-62981745D01*
X106130471Y-63114899D01*
X106191758Y-63262858D01*
X106223000Y-63419925D01*
X106223000Y-63580075D01*
X106191758Y-63737142D01*
X106130471Y-63885101D01*
X106041501Y-64018255D01*
X105928255Y-64131501D01*
X105795101Y-64220471D01*
X105647142Y-64281758D01*
X105490075Y-64313000D01*
X105329925Y-64313000D01*
X105172858Y-64281758D01*
X105024899Y-64220471D01*
X104891745Y-64131501D01*
X104778499Y-64018255D01*
X104689529Y-63885101D01*
X104628242Y-63737142D01*
X104597000Y-63580075D01*
X104597000Y-63419925D01*
X104628242Y-63262858D01*
X104689529Y-63114899D01*
X104778499Y-62981745D01*
X104891745Y-62868499D01*
X105024899Y-62779529D01*
X105172858Y-62718242D01*
X105329925Y-62687000D01*
X105490075Y-62687000D01*
X105647142Y-62718242D01*
X105647142Y-62718242D01*
G37*
G36*
X125967142Y-60178242D02*
G01*
X126115101Y-60239529D01*
X126248255Y-60328499D01*
X126361501Y-60441745D01*
X126450471Y-60574899D01*
X126511758Y-60722858D01*
X126543000Y-60879925D01*
X126543000Y-61040075D01*
X126511758Y-61197142D01*
X126450471Y-61345101D01*
X126361501Y-61478255D01*
X126248255Y-61591501D01*
X126115101Y-61680471D01*
X125967142Y-61741758D01*
X125810075Y-61773000D01*
X125649925Y-61773000D01*
X125492858Y-61741758D01*
X125344899Y-61680471D01*
X125211745Y-61591501D01*
X125098499Y-61478255D01*
X125009529Y-61345101D01*
X124948242Y-61197142D01*
X124917000Y-61040075D01*
X124917000Y-60879925D01*
X124948242Y-60722858D01*
X125009529Y-60574899D01*
X125098499Y-60441745D01*
X125211745Y-60328499D01*
X125344899Y-60239529D01*
X125492858Y-60178242D01*
X125649925Y-60147000D01*
X125810075Y-60147000D01*
X125967142Y-60178242D01*
X125967142Y-60178242D01*
G37*
G36*
X146287142Y-60178242D02*
G01*
X146435101Y-60239529D01*
X146568255Y-60328499D01*
X146681501Y-60441745D01*
X146770471Y-60574899D01*
X146831758Y-60722858D01*
X146863000Y-60879925D01*
X146863000Y-61040075D01*
X146831758Y-61197142D01*
X146770471Y-61345101D01*
X146681501Y-61478255D01*
X146568255Y-61591501D01*
X146435101Y-61680471D01*
X146287142Y-61741758D01*
X146130075Y-61773000D01*
X145969925Y-61773000D01*
X145812858Y-61741758D01*
X145664899Y-61680471D01*
X145531745Y-61591501D01*
X145418499Y-61478255D01*
X145329529Y-61345101D01*
X145268242Y-61197142D01*
X145237000Y-61040075D01*
X145237000Y-60879925D01*
X145268242Y-60722858D01*
X145329529Y-60574899D01*
X145418499Y-60441745D01*
X145531745Y-60328499D01*
X145664899Y-60239529D01*
X145812858Y-60178242D01*
X145969925Y-60147000D01*
X146130075Y-60147000D01*
X146287142Y-60178242D01*
X146287142Y-60178242D01*
G37*
G36*
X94217142Y-56368242D02*
G01*
X94365101Y-56429529D01*
X94498255Y-56518499D01*
X94611501Y-56631745D01*
X94700471Y-56764899D01*
X94761758Y-56912858D01*
X94793000Y-57069925D01*
X94793000Y-57230075D01*
X94761758Y-57387142D01*
X94700471Y-57535101D01*
X94611501Y-57668255D01*
X94498255Y-57781501D01*
X94365101Y-57870471D01*
X94217142Y-57931758D01*
X94060075Y-57963000D01*
X93899925Y-57963000D01*
X93742858Y-57931758D01*
X93594899Y-57870471D01*
X93461745Y-57781501D01*
X93348499Y-57668255D01*
X93259529Y-57535101D01*
X93198242Y-57387142D01*
X93167000Y-57230075D01*
X93167000Y-57069925D01*
X93198242Y-56912858D01*
X93259529Y-56764899D01*
X93348499Y-56631745D01*
X93461745Y-56518499D01*
X93594899Y-56429529D01*
X93742858Y-56368242D01*
X93899925Y-56337000D01*
X94060075Y-56337000D01*
X94217142Y-56368242D01*
X94217142Y-56368242D01*
G37*
G36*
X89137142Y-56368242D02*
G01*
X89285101Y-56429529D01*
X89418255Y-56518499D01*
X89531501Y-56631745D01*
X89620471Y-56764899D01*
X89681758Y-56912858D01*
X89713000Y-57069925D01*
X89713000Y-57230075D01*
X89681758Y-57387142D01*
X89620471Y-57535101D01*
X89531501Y-57668255D01*
X89418255Y-57781501D01*
X89285101Y-57870471D01*
X89137142Y-57931758D01*
X88980075Y-57963000D01*
X88819925Y-57963000D01*
X88662858Y-57931758D01*
X88514899Y-57870471D01*
X88381745Y-57781501D01*
X88268499Y-57668255D01*
X88179529Y-57535101D01*
X88118242Y-57387142D01*
X88087000Y-57230075D01*
X88087000Y-57069925D01*
X88118242Y-56912858D01*
X88179529Y-56764899D01*
X88268499Y-56631745D01*
X88381745Y-56518499D01*
X88514899Y-56429529D01*
X88662858Y-56368242D01*
X88819925Y-56337000D01*
X88980075Y-56337000D01*
X89137142Y-56368242D01*
X89137142Y-56368242D01*
G37*
G36*
X91677142Y-56368242D02*
G01*
X91825101Y-56429529D01*
X91958255Y-56518499D01*
X92071501Y-56631745D01*
X92160471Y-56764899D01*
X92221758Y-56912858D01*
X92253000Y-57069925D01*
X92253000Y-57230075D01*
X92221758Y-57387142D01*
X92160471Y-57535101D01*
X92071501Y-57668255D01*
X91958255Y-57781501D01*
X91825101Y-57870471D01*
X91677142Y-57931758D01*
X91520075Y-57963000D01*
X91359925Y-57963000D01*
X91202858Y-57931758D01*
X91054899Y-57870471D01*
X90921745Y-57781501D01*
X90808499Y-57668255D01*
X90719529Y-57535101D01*
X90658242Y-57387142D01*
X90627000Y-57230075D01*
X90627000Y-57069925D01*
X90658242Y-56912858D01*
X90719529Y-56764899D01*
X90808499Y-56631745D01*
X90921745Y-56518499D01*
X91054899Y-56429529D01*
X91202858Y-56368242D01*
X91359925Y-56337000D01*
X91520075Y-56337000D01*
X91677142Y-56368242D01*
X91677142Y-56368242D01*
G37*
G36*
X94217142Y-51288242D02*
G01*
X94365101Y-51349529D01*
X94498255Y-51438499D01*
X94611501Y-51551745D01*
X94700471Y-51684899D01*
X94761758Y-51832858D01*
X94793000Y-51989925D01*
X94793000Y-52150075D01*
X94761758Y-52307142D01*
X94700471Y-52455101D01*
X94611501Y-52588255D01*
X94498255Y-52701501D01*
X94365101Y-52790471D01*
X94217142Y-52851758D01*
X94060075Y-52883000D01*
X93899925Y-52883000D01*
X93742858Y-52851758D01*
X93594899Y-52790471D01*
X93461745Y-52701501D01*
X93348499Y-52588255D01*
X93259529Y-52455101D01*
X93198242Y-52307142D01*
X93167000Y-52150075D01*
X93167000Y-51989925D01*
X93198242Y-51832858D01*
X93259529Y-51684899D01*
X93348499Y-51551745D01*
X93461745Y-51438499D01*
X93594899Y-51349529D01*
X93742858Y-51288242D01*
X93899925Y-51257000D01*
X94060075Y-51257000D01*
X94217142Y-51288242D01*
X94217142Y-51288242D01*
G37*
G36*
X91677142Y-51288242D02*
G01*
X91825101Y-51349529D01*
X91958255Y-51438499D01*
X92071501Y-51551745D01*
X92160471Y-51684899D01*
X92221758Y-51832858D01*
X92253000Y-51989925D01*
X92253000Y-52150075D01*
X92221758Y-52307142D01*
X92160471Y-52455101D01*
X92071501Y-52588255D01*
X91958255Y-52701501D01*
X91825101Y-52790471D01*
X91677142Y-52851758D01*
X91520075Y-52883000D01*
X91359925Y-52883000D01*
X91202858Y-52851758D01*
X91054899Y-52790471D01*
X90921745Y-52701501D01*
X90808499Y-52588255D01*
X90719529Y-52455101D01*
X90658242Y-52307142D01*
X90627000Y-52150075D01*
X90627000Y-51989925D01*
X90658242Y-51832858D01*
X90719529Y-51684899D01*
X90808499Y-51551745D01*
X90921745Y-51438499D01*
X91054899Y-51349529D01*
X91202858Y-51288242D01*
X91359925Y-51257000D01*
X91520075Y-51257000D01*
X91677142Y-51288242D01*
X91677142Y-51288242D01*
G37*
G36*
X89137142Y-51288242D02*
G01*
X89285101Y-51349529D01*
X89418255Y-51438499D01*
X89531501Y-51551745D01*
X89620471Y-51684899D01*
X89681758Y-51832858D01*
X89713000Y-51989925D01*
X89713000Y-52150075D01*
X89681758Y-52307142D01*
X89620471Y-52455101D01*
X89531501Y-52588255D01*
X89418255Y-52701501D01*
X89285101Y-52790471D01*
X89137142Y-52851758D01*
X88980075Y-52883000D01*
X88819925Y-52883000D01*
X88662858Y-52851758D01*
X88514899Y-52790471D01*
X88381745Y-52701501D01*
X88268499Y-52588255D01*
X88179529Y-52455101D01*
X88118242Y-52307142D01*
X88087000Y-52150075D01*
X88087000Y-51989925D01*
X88118242Y-51832858D01*
X88179529Y-51684899D01*
X88268499Y-51551745D01*
X88381745Y-51438499D01*
X88514899Y-51349529D01*
X88662858Y-51288242D01*
X88819925Y-51257000D01*
X88980075Y-51257000D01*
X89137142Y-51288242D01*
X89137142Y-51288242D01*
G37*
G36*
X124697142Y-50018242D02*
G01*
X124845101Y-50079529D01*
X124978255Y-50168499D01*
X125091501Y-50281745D01*
X125180471Y-50414899D01*
X125241758Y-50562858D01*
X125273000Y-50719925D01*
X125273000Y-50880075D01*
X125241758Y-51037142D01*
X125180471Y-51185101D01*
X125091501Y-51318255D01*
X124978255Y-51431501D01*
X124845101Y-51520471D01*
X124697142Y-51581758D01*
X124540075Y-51613000D01*
X124379925Y-51613000D01*
X124222858Y-51581758D01*
X124074899Y-51520471D01*
X123941745Y-51431501D01*
X123828499Y-51318255D01*
X123739529Y-51185101D01*
X123678242Y-51037142D01*
X123647000Y-50880075D01*
X123647000Y-50719925D01*
X123678242Y-50562858D01*
X123739529Y-50414899D01*
X123828499Y-50281745D01*
X123941745Y-50168499D01*
X124074899Y-50079529D01*
X124222858Y-50018242D01*
X124379925Y-49987000D01*
X124540075Y-49987000D01*
X124697142Y-50018242D01*
X124697142Y-50018242D01*
G37*
G36*
X113267142Y-50018242D02*
G01*
X113415101Y-50079529D01*
X113548255Y-50168499D01*
X113661501Y-50281745D01*
X113750471Y-50414899D01*
X113811758Y-50562858D01*
X113843000Y-50719925D01*
X113843000Y-50880075D01*
X113811758Y-51037142D01*
X113750471Y-51185101D01*
X113661501Y-51318255D01*
X113548255Y-51431501D01*
X113415101Y-51520471D01*
X113267142Y-51581758D01*
X113110075Y-51613000D01*
X112949925Y-51613000D01*
X112792858Y-51581758D01*
X112644899Y-51520471D01*
X112511745Y-51431501D01*
X112398499Y-51318255D01*
X112309529Y-51185101D01*
X112248242Y-51037142D01*
X112217000Y-50880075D01*
X112217000Y-50719925D01*
X112248242Y-50562858D01*
X112309529Y-50414899D01*
X112398499Y-50281745D01*
X112511745Y-50168499D01*
X112644899Y-50079529D01*
X112792858Y-50018242D01*
X112949925Y-49987000D01*
X113110075Y-49987000D01*
X113267142Y-50018242D01*
X113267142Y-50018242D01*
G37*
G36*
X122157142Y-50018242D02*
G01*
X122305101Y-50079529D01*
X122438255Y-50168499D01*
X122551501Y-50281745D01*
X122640471Y-50414899D01*
X122701758Y-50562858D01*
X122733000Y-50719925D01*
X122733000Y-50880075D01*
X122701758Y-51037142D01*
X122640471Y-51185101D01*
X122551501Y-51318255D01*
X122438255Y-51431501D01*
X122305101Y-51520471D01*
X122157142Y-51581758D01*
X122000075Y-51613000D01*
X121839925Y-51613000D01*
X121682858Y-51581758D01*
X121534899Y-51520471D01*
X121401745Y-51431501D01*
X121288499Y-51318255D01*
X121199529Y-51185101D01*
X121138242Y-51037142D01*
X121107000Y-50880075D01*
X121107000Y-50719925D01*
X121138242Y-50562858D01*
X121199529Y-50414899D01*
X121288499Y-50281745D01*
X121401745Y-50168499D01*
X121534899Y-50079529D01*
X121682858Y-50018242D01*
X121839925Y-49987000D01*
X122000075Y-49987000D01*
X122157142Y-50018242D01*
X122157142Y-50018242D01*
G37*
G36*
X127237142Y-50018242D02*
G01*
X127385101Y-50079529D01*
X127518255Y-50168499D01*
X127631501Y-50281745D01*
X127720471Y-50414899D01*
X127781758Y-50562858D01*
X127813000Y-50719925D01*
X127813000Y-50880075D01*
X127781758Y-51037142D01*
X127720471Y-51185101D01*
X127631501Y-51318255D01*
X127518255Y-51431501D01*
X127385101Y-51520471D01*
X127237142Y-51581758D01*
X127080075Y-51613000D01*
X126919925Y-51613000D01*
X126762858Y-51581758D01*
X126614899Y-51520471D01*
X126481745Y-51431501D01*
X126368499Y-51318255D01*
X126279529Y-51185101D01*
X126218242Y-51037142D01*
X126187000Y-50880075D01*
X126187000Y-50719925D01*
X126218242Y-50562858D01*
X126279529Y-50414899D01*
X126368499Y-50281745D01*
X126481745Y-50168499D01*
X126614899Y-50079529D01*
X126762858Y-50018242D01*
X126919925Y-49987000D01*
X127080075Y-49987000D01*
X127237142Y-50018242D01*
X127237142Y-50018242D01*
G37*
G36*
X108187142Y-50018242D02*
G01*
X108335101Y-50079529D01*
X108468255Y-50168499D01*
X108581501Y-50281745D01*
X108670471Y-50414899D01*
X108731758Y-50562858D01*
X108763000Y-50719925D01*
X108763000Y-50880075D01*
X108731758Y-51037142D01*
X108670471Y-51185101D01*
X108581501Y-51318255D01*
X108468255Y-51431501D01*
X108335101Y-51520471D01*
X108187142Y-51581758D01*
X108030075Y-51613000D01*
X107869925Y-51613000D01*
X107712858Y-51581758D01*
X107564899Y-51520471D01*
X107431745Y-51431501D01*
X107318499Y-51318255D01*
X107229529Y-51185101D01*
X107168242Y-51037142D01*
X107137000Y-50880075D01*
X107137000Y-50719925D01*
X107168242Y-50562858D01*
X107229529Y-50414899D01*
X107318499Y-50281745D01*
X107431745Y-50168499D01*
X107564899Y-50079529D01*
X107712858Y-50018242D01*
X107869925Y-49987000D01*
X108030075Y-49987000D01*
X108187142Y-50018242D01*
X108187142Y-50018242D01*
G37*
G36*
X110727142Y-50018242D02*
G01*
X110875101Y-50079529D01*
X111008255Y-50168499D01*
X111121501Y-50281745D01*
X111210471Y-50414899D01*
X111271758Y-50562858D01*
X111303000Y-50719925D01*
X111303000Y-50880075D01*
X111271758Y-51037142D01*
X111210471Y-51185101D01*
X111121501Y-51318255D01*
X111008255Y-51431501D01*
X110875101Y-51520471D01*
X110727142Y-51581758D01*
X110570075Y-51613000D01*
X110409925Y-51613000D01*
X110252858Y-51581758D01*
X110104899Y-51520471D01*
X109971745Y-51431501D01*
X109858499Y-51318255D01*
X109769529Y-51185101D01*
X109708242Y-51037142D01*
X109677000Y-50880075D01*
X109677000Y-50719925D01*
X109708242Y-50562858D01*
X109769529Y-50414899D01*
X109858499Y-50281745D01*
X109971745Y-50168499D01*
X110104899Y-50079529D01*
X110252858Y-50018242D01*
X110409925Y-49987000D01*
X110570075Y-49987000D01*
X110727142Y-50018242D01*
X110727142Y-50018242D01*
G37*
G36*
X157717142Y-47478242D02*
G01*
X157865101Y-47539529D01*
X157998255Y-47628499D01*
X158111501Y-47741745D01*
X158200471Y-47874899D01*
X158261758Y-48022858D01*
X158293000Y-48179925D01*
X158293000Y-48340075D01*
X158261758Y-48497142D01*
X158200471Y-48645101D01*
X158111501Y-48778255D01*
X157998255Y-48891501D01*
X157865101Y-48980471D01*
X157717142Y-49041758D01*
X157560075Y-49073000D01*
X157399925Y-49073000D01*
X157242858Y-49041758D01*
X157094899Y-48980471D01*
X156961745Y-48891501D01*
X156848499Y-48778255D01*
X156759529Y-48645101D01*
X156698242Y-48497142D01*
X156667000Y-48340075D01*
X156667000Y-48179925D01*
X156698242Y-48022858D01*
X156759529Y-47874899D01*
X156848499Y-47741745D01*
X156961745Y-47628499D01*
X157094899Y-47539529D01*
X157242858Y-47478242D01*
X157399925Y-47447000D01*
X157560075Y-47447000D01*
X157717142Y-47478242D01*
X157717142Y-47478242D01*
G37*
G36*
X160257142Y-47478242D02*
G01*
X160405101Y-47539529D01*
X160538255Y-47628499D01*
X160651501Y-47741745D01*
X160740471Y-47874899D01*
X160801758Y-48022858D01*
X160833000Y-48179925D01*
X160833000Y-48340075D01*
X160801758Y-48497142D01*
X160740471Y-48645101D01*
X160651501Y-48778255D01*
X160538255Y-48891501D01*
X160405101Y-48980471D01*
X160257142Y-49041758D01*
X160100075Y-49073000D01*
X159939925Y-49073000D01*
X159782858Y-49041758D01*
X159634899Y-48980471D01*
X159501745Y-48891501D01*
X159388499Y-48778255D01*
X159299529Y-48645101D01*
X159238242Y-48497142D01*
X159207000Y-48340075D01*
X159207000Y-48179925D01*
X159238242Y-48022858D01*
X159299529Y-47874899D01*
X159388499Y-47741745D01*
X159501745Y-47628499D01*
X159634899Y-47539529D01*
X159782858Y-47478242D01*
X159939925Y-47447000D01*
X160100075Y-47447000D01*
X160257142Y-47478242D01*
X160257142Y-47478242D01*
G37*
G36*
X162797142Y-47478242D02*
G01*
X162945101Y-47539529D01*
X163078255Y-47628499D01*
X163191501Y-47741745D01*
X163280471Y-47874899D01*
X163341758Y-48022858D01*
X163373000Y-48179925D01*
X163373000Y-48340075D01*
X163341758Y-48497142D01*
X163280471Y-48645101D01*
X163191501Y-48778255D01*
X163078255Y-48891501D01*
X162945101Y-48980471D01*
X162797142Y-49041758D01*
X162640075Y-49073000D01*
X162479925Y-49073000D01*
X162322858Y-49041758D01*
X162174899Y-48980471D01*
X162041745Y-48891501D01*
X161928499Y-48778255D01*
X161839529Y-48645101D01*
X161778242Y-48497142D01*
X161747000Y-48340075D01*
X161747000Y-48179925D01*
X161778242Y-48022858D01*
X161839529Y-47874899D01*
X161928499Y-47741745D01*
X162041745Y-47628499D01*
X162174899Y-47539529D01*
X162322858Y-47478242D01*
X162479925Y-47447000D01*
X162640075Y-47447000D01*
X162797142Y-47478242D01*
X162797142Y-47478242D01*
G37*
G36*
X176767142Y-47478242D02*
G01*
X176915101Y-47539529D01*
X177048255Y-47628499D01*
X177161501Y-47741745D01*
X177250471Y-47874899D01*
X177311758Y-48022858D01*
X177343000Y-48179925D01*
X177343000Y-48340075D01*
X177311758Y-48497142D01*
X177250471Y-48645101D01*
X177161501Y-48778255D01*
X177048255Y-48891501D01*
X176915101Y-48980471D01*
X176767142Y-49041758D01*
X176610075Y-49073000D01*
X176449925Y-49073000D01*
X176292858Y-49041758D01*
X176144899Y-48980471D01*
X176011745Y-48891501D01*
X175898499Y-48778255D01*
X175809529Y-48645101D01*
X175748242Y-48497142D01*
X175717000Y-48340075D01*
X175717000Y-48179925D01*
X175748242Y-48022858D01*
X175809529Y-47874899D01*
X175898499Y-47741745D01*
X176011745Y-47628499D01*
X176144899Y-47539529D01*
X176292858Y-47478242D01*
X176449925Y-47447000D01*
X176610075Y-47447000D01*
X176767142Y-47478242D01*
X176767142Y-47478242D01*
G37*
G36*
X174227142Y-47478242D02*
G01*
X174375101Y-47539529D01*
X174508255Y-47628499D01*
X174621501Y-47741745D01*
X174710471Y-47874899D01*
X174771758Y-48022858D01*
X174803000Y-48179925D01*
X174803000Y-48340075D01*
X174771758Y-48497142D01*
X174710471Y-48645101D01*
X174621501Y-48778255D01*
X174508255Y-48891501D01*
X174375101Y-48980471D01*
X174227142Y-49041758D01*
X174070075Y-49073000D01*
X173909925Y-49073000D01*
X173752858Y-49041758D01*
X173604899Y-48980471D01*
X173471745Y-48891501D01*
X173358499Y-48778255D01*
X173269529Y-48645101D01*
X173208242Y-48497142D01*
X173177000Y-48340075D01*
X173177000Y-48179925D01*
X173208242Y-48022858D01*
X173269529Y-47874899D01*
X173358499Y-47741745D01*
X173471745Y-47628499D01*
X173604899Y-47539529D01*
X173752858Y-47478242D01*
X173909925Y-47447000D01*
X174070075Y-47447000D01*
X174227142Y-47478242D01*
X174227142Y-47478242D01*
G37*
G36*
X171687142Y-47478242D02*
G01*
X171835101Y-47539529D01*
X171968255Y-47628499D01*
X172081501Y-47741745D01*
X172170471Y-47874899D01*
X172231758Y-48022858D01*
X172263000Y-48179925D01*
X172263000Y-48340075D01*
X172231758Y-48497142D01*
X172170471Y-48645101D01*
X172081501Y-48778255D01*
X171968255Y-48891501D01*
X171835101Y-48980471D01*
X171687142Y-49041758D01*
X171530075Y-49073000D01*
X171369925Y-49073000D01*
X171212858Y-49041758D01*
X171064899Y-48980471D01*
X170931745Y-48891501D01*
X170818499Y-48778255D01*
X170729529Y-48645101D01*
X170668242Y-48497142D01*
X170637000Y-48340075D01*
X170637000Y-48179925D01*
X170668242Y-48022858D01*
X170729529Y-47874899D01*
X170818499Y-47741745D01*
X170931745Y-47628499D01*
X171064899Y-47539529D01*
X171212858Y-47478242D01*
X171369925Y-47447000D01*
X171530075Y-47447000D01*
X171687142Y-47478242D01*
X171687142Y-47478242D01*
G37*
G36*
X155177142Y-47478242D02*
G01*
X155325101Y-47539529D01*
X155458255Y-47628499D01*
X155571501Y-47741745D01*
X155660471Y-47874899D01*
X155721758Y-48022858D01*
X155753000Y-48179925D01*
X155753000Y-48340075D01*
X155721758Y-48497142D01*
X155660471Y-48645101D01*
X155571501Y-48778255D01*
X155458255Y-48891501D01*
X155325101Y-48980471D01*
X155177142Y-49041758D01*
X155020075Y-49073000D01*
X154859925Y-49073000D01*
X154702858Y-49041758D01*
X154554899Y-48980471D01*
X154421745Y-48891501D01*
X154308499Y-48778255D01*
X154219529Y-48645101D01*
X154158242Y-48497142D01*
X154127000Y-48340075D01*
X154127000Y-48179925D01*
X154158242Y-48022858D01*
X154219529Y-47874899D01*
X154308499Y-47741745D01*
X154421745Y-47628499D01*
X154554899Y-47539529D01*
X154702858Y-47478242D01*
X154859925Y-47447000D01*
X155020075Y-47447000D01*
X155177142Y-47478242D01*
X155177142Y-47478242D01*
G37*
G36*
X179307142Y-47478242D02*
G01*
X179455101Y-47539529D01*
X179588255Y-47628499D01*
X179701501Y-47741745D01*
X179790471Y-47874899D01*
X179851758Y-48022858D01*
X179883000Y-48179925D01*
X179883000Y-48340075D01*
X179851758Y-48497142D01*
X179790471Y-48645101D01*
X179701501Y-48778255D01*
X179588255Y-48891501D01*
X179455101Y-48980471D01*
X179307142Y-49041758D01*
X179150075Y-49073000D01*
X178989925Y-49073000D01*
X178832858Y-49041758D01*
X178684899Y-48980471D01*
X178551745Y-48891501D01*
X178438499Y-48778255D01*
X178349529Y-48645101D01*
X178288242Y-48497142D01*
X178257000Y-48340075D01*
X178257000Y-48179925D01*
X178288242Y-48022858D01*
X178349529Y-47874899D01*
X178438499Y-47741745D01*
X178551745Y-47628499D01*
X178684899Y-47539529D01*
X178832858Y-47478242D01*
X178989925Y-47447000D01*
X179150075Y-47447000D01*
X179307142Y-47478242D01*
X179307142Y-47478242D01*
G37*
G36*
X180715256Y-41486298D02*
G01*
X180821579Y-41507447D01*
X181122042Y-41631903D01*
X181392451Y-41812585D01*
X181622415Y-42042549D01*
X181803097Y-42312958D01*
X181927553Y-42613421D01*
X181991000Y-42932391D01*
X181991000Y-43257609D01*
X181927553Y-43576579D01*
X181803097Y-43877042D01*
X181622415Y-44147451D01*
X181392451Y-44377415D01*
X181122042Y-44558097D01*
X180821579Y-44682553D01*
X180715256Y-44703702D01*
X180502611Y-44746000D01*
X180177389Y-44746000D01*
X179964744Y-44703702D01*
X179858421Y-44682553D01*
X179557958Y-44558097D01*
X179287549Y-44377415D01*
X179057585Y-44147451D01*
X178876903Y-43877042D01*
X178752447Y-43576579D01*
X178689000Y-43257609D01*
X178689000Y-42932391D01*
X178752447Y-42613421D01*
X178876903Y-42312958D01*
X179057585Y-42042549D01*
X179287549Y-41812585D01*
X179557958Y-41631903D01*
X179858421Y-41507447D01*
X179964744Y-41486298D01*
X180177389Y-41444000D01*
X180502611Y-41444000D01*
X180715256Y-41486298D01*
X180715256Y-41486298D01*
G37*
G36*
X87645256Y-41486298D02*
G01*
X87751579Y-41507447D01*
X88052042Y-41631903D01*
X88322451Y-41812585D01*
X88552415Y-42042549D01*
X88733097Y-42312958D01*
X88857553Y-42613421D01*
X88921000Y-42932391D01*
X88921000Y-43257609D01*
X88857553Y-43576579D01*
X88733097Y-43877042D01*
X88552415Y-44147451D01*
X88322451Y-44377415D01*
X88052042Y-44558097D01*
X87751579Y-44682553D01*
X87645256Y-44703702D01*
X87432611Y-44746000D01*
X87107389Y-44746000D01*
X86894744Y-44703702D01*
X86788421Y-44682553D01*
X86487958Y-44558097D01*
X86217549Y-44377415D01*
X85987585Y-44147451D01*
X85806903Y-43877042D01*
X85682447Y-43576579D01*
X85619000Y-43257609D01*
X85619000Y-42932391D01*
X85682447Y-42613421D01*
X85806903Y-42312958D01*
X85987585Y-42042549D01*
X86217549Y-41812585D01*
X86487958Y-41631903D01*
X86788421Y-41507447D01*
X86894744Y-41486298D01*
X87107389Y-41444000D01*
X87432611Y-41444000D01*
X87645256Y-41486298D01*
X87645256Y-41486298D01*
G37*
M02*
