G04 #@! TF.GenerationSoftware,KiCad,Pcbnew,(5.1.0)-1*
G04 #@! TF.CreationDate,2019-05-21T15:47:20-04:00*
G04 #@! TF.ProjectId,Tardis Board,54617264-6973-4204-926f-6172642e6b69,rev?*
G04 #@! TF.SameCoordinates,Original*
G04 #@! TF.FileFunction,Copper,L2,Bot*
G04 #@! TF.FilePolarity,Positive*
%FSLAX46Y46*%
G04 Gerber Fmt 4.6, Leading zero omitted, Abs format (unit mm)*
G04 Created by KiCad (PCBNEW (5.1.0)-1) date 2019-05-21 15:47:20*
%MOMM*%
%LPD*%
G04 APERTURE LIST*
%ADD10C,1.524000*%
%ADD11O,1.905000X2.000000*%
%ADD12R,1.905000X2.000000*%
G04 APERTURE END LIST*
D10*
X125730000Y-60960000D03*
X125730000Y-63500000D03*
X125730000Y-66040000D03*
X125730000Y-68580000D03*
X125730000Y-71120000D03*
X125730000Y-73660000D03*
X125730000Y-76200000D03*
X125730000Y-78740000D03*
X125730000Y-81280000D03*
X125730000Y-83820000D03*
X125730000Y-86360000D03*
X146050000Y-86360000D03*
X146050000Y-83820000D03*
X146050000Y-81280000D03*
X146050000Y-78740000D03*
X146050000Y-76200000D03*
X146050000Y-73660000D03*
X146050000Y-71120000D03*
X146050000Y-68580000D03*
X146050000Y-66040000D03*
X146050000Y-63500000D03*
X146050000Y-60960000D03*
X105410000Y-91440000D03*
X105410000Y-88900000D03*
X105410000Y-86360000D03*
X105410000Y-83820000D03*
X105410000Y-81280000D03*
X105410000Y-78740000D03*
X105410000Y-76200000D03*
X105410000Y-73660000D03*
X105410000Y-71120000D03*
X105410000Y-68580000D03*
X105410000Y-66040000D03*
X105410000Y-63500000D03*
X120650000Y-63500000D03*
X120650000Y-66040000D03*
X120650000Y-68580000D03*
X120650000Y-71120000D03*
X120650000Y-73660000D03*
X120650000Y-76200000D03*
X120650000Y-78740000D03*
X120650000Y-81280000D03*
X120650000Y-83820000D03*
X120650000Y-86360000D03*
X120650000Y-88900000D03*
X120650000Y-91440000D03*
X156210000Y-83820000D03*
X161290000Y-83820000D03*
X154940000Y-48260000D03*
X157480000Y-48260000D03*
X160020000Y-48260000D03*
X162560000Y-48260000D03*
X175260000Y-91440000D03*
X172720000Y-91440000D03*
X177800000Y-91440000D03*
X172720000Y-83820000D03*
X177800000Y-83820000D03*
X171450000Y-48260000D03*
X173990000Y-48260000D03*
X176530000Y-48260000D03*
X179070000Y-48260000D03*
X91440000Y-52070000D03*
X93980000Y-52070000D03*
X88900000Y-52070000D03*
D11*
X96520000Y-64770000D03*
X93980000Y-64770000D03*
D12*
X91440000Y-64770000D03*
D10*
X110490000Y-50800000D03*
X113030000Y-50800000D03*
X107950000Y-50800000D03*
X91440000Y-57150000D03*
X88900000Y-57150000D03*
X93980000Y-57150000D03*
X95250000Y-96520000D03*
X92710000Y-96520000D03*
X97790000Y-96520000D03*
X95250000Y-91440000D03*
X92710000Y-91440000D03*
X97790000Y-91440000D03*
X95250000Y-86360000D03*
X92710000Y-86360000D03*
X97790000Y-86360000D03*
X95250000Y-81280000D03*
X92710000Y-81280000D03*
X97790000Y-81280000D03*
X95250000Y-76200000D03*
X92710000Y-76200000D03*
X97790000Y-76200000D03*
X95250000Y-71120000D03*
X92710000Y-71120000D03*
X97790000Y-71120000D03*
X124460000Y-50800000D03*
X127000000Y-50800000D03*
X121920000Y-50800000D03*
X158750000Y-91440000D03*
X156210000Y-91440000D03*
X161290000Y-91440000D03*
M02*
