G04 #@! TF.GenerationSoftware,KiCad,Pcbnew,(5.1.0)-1*
G04 #@! TF.CreationDate,2019-05-21T15:47:20-04:00*
G04 #@! TF.ProjectId,Tardis Board,54617264-6973-4204-926f-6172642e6b69,rev?*
G04 #@! TF.SameCoordinates,Original*
G04 #@! TF.FileFunction,Legend,Top*
G04 #@! TF.FilePolarity,Positive*
%FSLAX46Y46*%
G04 Gerber Fmt 4.6, Leading zero omitted, Abs format (unit mm)*
G04 Created by KiCad (PCBNEW (5.1.0)-1) date 2019-05-21 15:47:20*
%MOMM*%
%LPD*%
G04 APERTURE LIST*
%ADD10C,0.120000*%
%ADD11C,0.150000*%
%ADD12C,0.375000*%
%ADD13C,0.500000*%
G04 APERTURE END LIST*
D10*
X140970000Y-57150000D02*
X140970000Y-53340000D01*
X133350000Y-57150000D02*
X140970000Y-57150000D01*
X133350000Y-53340000D02*
X133350000Y-57150000D01*
X133350000Y-53340000D02*
X140970000Y-53340000D01*
X109220000Y-96520000D02*
X109220000Y-95250000D01*
X116840000Y-96520000D02*
X109220000Y-96520000D01*
X116840000Y-95250000D02*
X116840000Y-96520000D01*
X116840000Y-92710000D02*
X116840000Y-95250000D01*
X109220000Y-92710000D02*
X116840000Y-92710000D01*
X109220000Y-95250000D02*
X109220000Y-92710000D01*
D11*
X173490000Y-51561904D02*
X173442380Y-51657142D01*
X173442380Y-51800000D01*
X173490000Y-51942857D01*
X173585238Y-52038095D01*
X173680476Y-52085714D01*
X173870952Y-52133333D01*
X174013809Y-52133333D01*
X174204285Y-52085714D01*
X174299523Y-52038095D01*
X174394761Y-51942857D01*
X174442380Y-51800000D01*
X174442380Y-51704761D01*
X174394761Y-51561904D01*
X174347142Y-51514285D01*
X174013809Y-51514285D01*
X174013809Y-51704761D01*
X174442380Y-51085714D02*
X173442380Y-51085714D01*
X174442380Y-50514285D01*
X173442380Y-50514285D01*
X174442380Y-50038095D02*
X173442380Y-50038095D01*
X173442380Y-49800000D01*
X173490000Y-49657142D01*
X173585238Y-49561904D01*
X173680476Y-49514285D01*
X173870952Y-49466666D01*
X174013809Y-49466666D01*
X174204285Y-49514285D01*
X174299523Y-49561904D01*
X174394761Y-49657142D01*
X174442380Y-49800000D01*
X174442380Y-50038095D01*
X177736666Y-50236428D02*
X178498571Y-50236428D01*
X178117619Y-50617380D02*
X178117619Y-49855476D01*
X179498571Y-50617380D02*
X178927142Y-50617380D01*
X179212857Y-50617380D02*
X179212857Y-49617380D01*
X179117619Y-49760238D01*
X179022380Y-49855476D01*
X178927142Y-49903095D01*
X179879523Y-49712619D02*
X179927142Y-49665000D01*
X180022380Y-49617380D01*
X180260476Y-49617380D01*
X180355714Y-49665000D01*
X180403333Y-49712619D01*
X180450952Y-49807857D01*
X180450952Y-49903095D01*
X180403333Y-50045952D01*
X179831904Y-50617380D01*
X180450952Y-50617380D01*
X170950000Y-51561904D02*
X170902380Y-51657142D01*
X170902380Y-51800000D01*
X170950000Y-51942857D01*
X171045238Y-52038095D01*
X171140476Y-52085714D01*
X171330952Y-52133333D01*
X171473809Y-52133333D01*
X171664285Y-52085714D01*
X171759523Y-52038095D01*
X171854761Y-51942857D01*
X171902380Y-51800000D01*
X171902380Y-51704761D01*
X171854761Y-51561904D01*
X171807142Y-51514285D01*
X171473809Y-51514285D01*
X171473809Y-51704761D01*
X171902380Y-51085714D02*
X170902380Y-51085714D01*
X171902380Y-50514285D01*
X170902380Y-50514285D01*
X171902380Y-50038095D02*
X170902380Y-50038095D01*
X170902380Y-49800000D01*
X170950000Y-49657142D01*
X171045238Y-49561904D01*
X171140476Y-49514285D01*
X171330952Y-49466666D01*
X171473809Y-49466666D01*
X171664285Y-49514285D01*
X171759523Y-49561904D01*
X171854761Y-49657142D01*
X171902380Y-49800000D01*
X171902380Y-50038095D01*
X176982380Y-50617380D02*
X175982380Y-50617380D01*
X176315714Y-50141190D02*
X176982380Y-50141190D01*
X176410952Y-50141190D02*
X176363333Y-50093571D01*
X176315714Y-49998333D01*
X176315714Y-49855476D01*
X176363333Y-49760238D01*
X176458571Y-49712619D01*
X176982380Y-49712619D01*
X150923809Y-91368571D02*
X151066666Y-91416190D01*
X151114285Y-91463809D01*
X151161904Y-91559047D01*
X151161904Y-91701904D01*
X151114285Y-91797142D01*
X151066666Y-91844761D01*
X150971428Y-91892380D01*
X150590476Y-91892380D01*
X150590476Y-90892380D01*
X150923809Y-90892380D01*
X151019047Y-90940000D01*
X151066666Y-90987619D01*
X151114285Y-91082857D01*
X151114285Y-91178095D01*
X151066666Y-91273333D01*
X151019047Y-91320952D01*
X150923809Y-91368571D01*
X150590476Y-91368571D01*
X151733333Y-91892380D02*
X151638095Y-91844761D01*
X151590476Y-91749523D01*
X151590476Y-90892380D01*
X152542857Y-91892380D02*
X152542857Y-91368571D01*
X152495238Y-91273333D01*
X152400000Y-91225714D01*
X152209523Y-91225714D01*
X152114285Y-91273333D01*
X152542857Y-91844761D02*
X152447619Y-91892380D01*
X152209523Y-91892380D01*
X152114285Y-91844761D01*
X152066666Y-91749523D01*
X152066666Y-91654285D01*
X152114285Y-91559047D01*
X152209523Y-91511428D01*
X152447619Y-91511428D01*
X152542857Y-91463809D01*
X153447619Y-91844761D02*
X153352380Y-91892380D01*
X153161904Y-91892380D01*
X153066666Y-91844761D01*
X153019047Y-91797142D01*
X152971428Y-91701904D01*
X152971428Y-91416190D01*
X153019047Y-91320952D01*
X153066666Y-91273333D01*
X153161904Y-91225714D01*
X153352380Y-91225714D01*
X153447619Y-91273333D01*
X153876190Y-91892380D02*
X153876190Y-90892380D01*
X153971428Y-91511428D02*
X154257142Y-91892380D01*
X154257142Y-91225714D02*
X153876190Y-91606666D01*
X180403571Y-91892380D02*
X180070238Y-91416190D01*
X179832142Y-91892380D02*
X179832142Y-90892380D01*
X180213095Y-90892380D01*
X180308333Y-90940000D01*
X180355952Y-90987619D01*
X180403571Y-91082857D01*
X180403571Y-91225714D01*
X180355952Y-91320952D01*
X180308333Y-91368571D01*
X180213095Y-91416190D01*
X179832142Y-91416190D01*
X181213095Y-91844761D02*
X181117857Y-91892380D01*
X180927380Y-91892380D01*
X180832142Y-91844761D01*
X180784523Y-91749523D01*
X180784523Y-91368571D01*
X180832142Y-91273333D01*
X180927380Y-91225714D01*
X181117857Y-91225714D01*
X181213095Y-91273333D01*
X181260714Y-91368571D01*
X181260714Y-91463809D01*
X180784523Y-91559047D01*
X182117857Y-91892380D02*
X182117857Y-90892380D01*
X182117857Y-91844761D02*
X182022619Y-91892380D01*
X181832142Y-91892380D01*
X181736904Y-91844761D01*
X181689285Y-91797142D01*
X181641666Y-91701904D01*
X181641666Y-91416190D01*
X181689285Y-91320952D01*
X181736904Y-91273333D01*
X181832142Y-91225714D01*
X182022619Y-91225714D01*
X182117857Y-91273333D01*
X179522380Y-69150952D02*
X179522380Y-69627142D01*
X178522380Y-69627142D01*
X179474761Y-68436666D02*
X179522380Y-68531904D01*
X179522380Y-68722380D01*
X179474761Y-68817619D01*
X179379523Y-68865238D01*
X178998571Y-68865238D01*
X178903333Y-68817619D01*
X178855714Y-68722380D01*
X178855714Y-68531904D01*
X178903333Y-68436666D01*
X178998571Y-68389047D01*
X179093809Y-68389047D01*
X179189047Y-68865238D01*
X178855714Y-68103333D02*
X178855714Y-67722380D01*
X179522380Y-67960476D02*
X178665238Y-67960476D01*
X178570000Y-67912857D01*
X178522380Y-67817619D01*
X178522380Y-67722380D01*
X178855714Y-67531904D02*
X178855714Y-67150952D01*
X178522380Y-67389047D02*
X179379523Y-67389047D01*
X179474761Y-67341428D01*
X179522380Y-67246190D01*
X179522380Y-67150952D01*
X179236666Y-66103333D02*
X179236666Y-65627142D01*
X179522380Y-66198571D02*
X178522380Y-65865238D01*
X179522380Y-65531904D01*
X179522380Y-65198571D02*
X178855714Y-65198571D01*
X178950952Y-65198571D02*
X178903333Y-65150952D01*
X178855714Y-65055714D01*
X178855714Y-64912857D01*
X178903333Y-64817619D01*
X178998571Y-64770000D01*
X179522380Y-64770000D01*
X178998571Y-64770000D02*
X178903333Y-64722380D01*
X178855714Y-64627142D01*
X178855714Y-64484285D01*
X178903333Y-64389047D01*
X178998571Y-64341428D01*
X179522380Y-64341428D01*
X178855714Y-63865238D02*
X179855714Y-63865238D01*
X178903333Y-63865238D02*
X178855714Y-63770000D01*
X178855714Y-63579523D01*
X178903333Y-63484285D01*
X178950952Y-63436666D01*
X179046190Y-63389047D01*
X179331904Y-63389047D01*
X179427142Y-63436666D01*
X179474761Y-63484285D01*
X179522380Y-63579523D01*
X179522380Y-63770000D01*
X179474761Y-63865238D01*
X179522380Y-62817619D02*
X179474761Y-62912857D01*
X179379523Y-62960476D01*
X178522380Y-62960476D01*
X179522380Y-62436666D02*
X178855714Y-62436666D01*
X178522380Y-62436666D02*
X178570000Y-62484285D01*
X178617619Y-62436666D01*
X178570000Y-62389047D01*
X178522380Y-62436666D01*
X178617619Y-62436666D01*
X178855714Y-62103333D02*
X178855714Y-61722380D01*
X179522380Y-61960476D02*
X178665238Y-61960476D01*
X178570000Y-61912857D01*
X178522380Y-61817619D01*
X178522380Y-61722380D01*
X179522380Y-61389047D02*
X178855714Y-61389047D01*
X178522380Y-61389047D02*
X178570000Y-61436666D01*
X178617619Y-61389047D01*
X178570000Y-61341428D01*
X178522380Y-61389047D01*
X178617619Y-61389047D01*
X179474761Y-60531904D02*
X179522380Y-60627142D01*
X179522380Y-60817619D01*
X179474761Y-60912857D01*
X179379523Y-60960476D01*
X178998571Y-60960476D01*
X178903333Y-60912857D01*
X178855714Y-60817619D01*
X178855714Y-60627142D01*
X178903333Y-60531904D01*
X178998571Y-60484285D01*
X179093809Y-60484285D01*
X179189047Y-60960476D01*
X179522380Y-60055714D02*
X178855714Y-60055714D01*
X179046190Y-60055714D02*
X178950952Y-60008095D01*
X178903333Y-59960476D01*
X178855714Y-59865238D01*
X178855714Y-59770000D01*
X147828095Y-85860000D02*
X147732857Y-85812380D01*
X147590000Y-85812380D01*
X147447142Y-85860000D01*
X147351904Y-85955238D01*
X147304285Y-86050476D01*
X147256666Y-86240952D01*
X147256666Y-86383809D01*
X147304285Y-86574285D01*
X147351904Y-86669523D01*
X147447142Y-86764761D01*
X147590000Y-86812380D01*
X147685238Y-86812380D01*
X147828095Y-86764761D01*
X147875714Y-86717142D01*
X147875714Y-86383809D01*
X147685238Y-86383809D01*
X148304285Y-86812380D02*
X148304285Y-85812380D01*
X148875714Y-86812380D01*
X148875714Y-85812380D01*
X149351904Y-86812380D02*
X149351904Y-85812380D01*
X149590000Y-85812380D01*
X149732857Y-85860000D01*
X149828095Y-85955238D01*
X149875714Y-86050476D01*
X149923333Y-86240952D01*
X149923333Y-86383809D01*
X149875714Y-86574285D01*
X149828095Y-86669523D01*
X149732857Y-86764761D01*
X149590000Y-86812380D01*
X149351904Y-86812380D01*
X147899523Y-84272380D02*
X147423333Y-84272380D01*
X147423333Y-83272380D01*
X148613809Y-84224761D02*
X148518571Y-84272380D01*
X148328095Y-84272380D01*
X148232857Y-84224761D01*
X148185238Y-84129523D01*
X148185238Y-83748571D01*
X148232857Y-83653333D01*
X148328095Y-83605714D01*
X148518571Y-83605714D01*
X148613809Y-83653333D01*
X148661428Y-83748571D01*
X148661428Y-83843809D01*
X148185238Y-83939047D01*
X148947142Y-83605714D02*
X149328095Y-83605714D01*
X149090000Y-84272380D02*
X149090000Y-83415238D01*
X149137619Y-83320000D01*
X149232857Y-83272380D01*
X149328095Y-83272380D01*
X149518571Y-83605714D02*
X149899523Y-83605714D01*
X149661428Y-83272380D02*
X149661428Y-84129523D01*
X149709047Y-84224761D01*
X149804285Y-84272380D01*
X149899523Y-84272380D01*
X163893571Y-91892380D02*
X163560238Y-91416190D01*
X163322142Y-91892380D02*
X163322142Y-90892380D01*
X163703095Y-90892380D01*
X163798333Y-90940000D01*
X163845952Y-90987619D01*
X163893571Y-91082857D01*
X163893571Y-91225714D01*
X163845952Y-91320952D01*
X163798333Y-91368571D01*
X163703095Y-91416190D01*
X163322142Y-91416190D01*
X164703095Y-91844761D02*
X164607857Y-91892380D01*
X164417380Y-91892380D01*
X164322142Y-91844761D01*
X164274523Y-91749523D01*
X164274523Y-91368571D01*
X164322142Y-91273333D01*
X164417380Y-91225714D01*
X164607857Y-91225714D01*
X164703095Y-91273333D01*
X164750714Y-91368571D01*
X164750714Y-91463809D01*
X164274523Y-91559047D01*
X165607857Y-91892380D02*
X165607857Y-90892380D01*
X165607857Y-91844761D02*
X165512619Y-91892380D01*
X165322142Y-91892380D01*
X165226904Y-91844761D01*
X165179285Y-91797142D01*
X165131666Y-91701904D01*
X165131666Y-91416190D01*
X165179285Y-91320952D01*
X165226904Y-91273333D01*
X165322142Y-91225714D01*
X165512619Y-91225714D01*
X165607857Y-91273333D01*
D12*
X126197142Y-101008571D02*
X126197142Y-99508571D01*
X126554285Y-99508571D01*
X126768571Y-99580000D01*
X126911428Y-99722857D01*
X126982857Y-99865714D01*
X127054285Y-100151428D01*
X127054285Y-100365714D01*
X126982857Y-100651428D01*
X126911428Y-100794285D01*
X126768571Y-100937142D01*
X126554285Y-101008571D01*
X126197142Y-101008571D01*
X128268571Y-100937142D02*
X128125714Y-101008571D01*
X127840000Y-101008571D01*
X127697142Y-100937142D01*
X127625714Y-100794285D01*
X127625714Y-100222857D01*
X127697142Y-100080000D01*
X127840000Y-100008571D01*
X128125714Y-100008571D01*
X128268571Y-100080000D01*
X128340000Y-100222857D01*
X128340000Y-100365714D01*
X127625714Y-100508571D01*
X128911428Y-100937142D02*
X129054285Y-101008571D01*
X129340000Y-101008571D01*
X129482857Y-100937142D01*
X129554285Y-100794285D01*
X129554285Y-100722857D01*
X129482857Y-100580000D01*
X129340000Y-100508571D01*
X129125714Y-100508571D01*
X128982857Y-100437142D01*
X128911428Y-100294285D01*
X128911428Y-100222857D01*
X128982857Y-100080000D01*
X129125714Y-100008571D01*
X129340000Y-100008571D01*
X129482857Y-100080000D01*
X130197142Y-101008571D02*
X130197142Y-100008571D01*
X130197142Y-99508571D02*
X130125714Y-99580000D01*
X130197142Y-99651428D01*
X130268571Y-99580000D01*
X130197142Y-99508571D01*
X130197142Y-99651428D01*
X131554285Y-100008571D02*
X131554285Y-101222857D01*
X131482857Y-101365714D01*
X131411428Y-101437142D01*
X131268571Y-101508571D01*
X131054285Y-101508571D01*
X130911428Y-101437142D01*
X131554285Y-100937142D02*
X131411428Y-101008571D01*
X131125714Y-101008571D01*
X130982857Y-100937142D01*
X130911428Y-100865714D01*
X130840000Y-100722857D01*
X130840000Y-100294285D01*
X130911428Y-100151428D01*
X130982857Y-100080000D01*
X131125714Y-100008571D01*
X131411428Y-100008571D01*
X131554285Y-100080000D01*
X132268571Y-100008571D02*
X132268571Y-101008571D01*
X132268571Y-100151428D02*
X132340000Y-100080000D01*
X132482857Y-100008571D01*
X132697142Y-100008571D01*
X132840000Y-100080000D01*
X132911428Y-100222857D01*
X132911428Y-101008571D01*
X134197142Y-100937142D02*
X134054285Y-101008571D01*
X133768571Y-101008571D01*
X133625714Y-100937142D01*
X133554285Y-100794285D01*
X133554285Y-100222857D01*
X133625714Y-100080000D01*
X133768571Y-100008571D01*
X134054285Y-100008571D01*
X134197142Y-100080000D01*
X134268571Y-100222857D01*
X134268571Y-100365714D01*
X133554285Y-100508571D01*
X135554285Y-101008571D02*
X135554285Y-99508571D01*
X135554285Y-100937142D02*
X135411428Y-101008571D01*
X135125714Y-101008571D01*
X134982857Y-100937142D01*
X134911428Y-100865714D01*
X134840000Y-100722857D01*
X134840000Y-100294285D01*
X134911428Y-100151428D01*
X134982857Y-100080000D01*
X135125714Y-100008571D01*
X135411428Y-100008571D01*
X135554285Y-100080000D01*
X137411428Y-101008571D02*
X137411428Y-99508571D01*
X137411428Y-100080000D02*
X137554285Y-100008571D01*
X137840000Y-100008571D01*
X137982857Y-100080000D01*
X138054285Y-100151428D01*
X138125714Y-100294285D01*
X138125714Y-100722857D01*
X138054285Y-100865714D01*
X137982857Y-100937142D01*
X137840000Y-101008571D01*
X137554285Y-101008571D01*
X137411428Y-100937142D01*
X138625714Y-100008571D02*
X138982857Y-101008571D01*
X139340000Y-100008571D02*
X138982857Y-101008571D01*
X138840000Y-101365714D01*
X138768571Y-101437142D01*
X138625714Y-101508571D01*
X141911428Y-100865714D02*
X141840000Y-100937142D01*
X141625714Y-101008571D01*
X141482857Y-101008571D01*
X141268571Y-100937142D01*
X141125714Y-100794285D01*
X141054285Y-100651428D01*
X140982857Y-100365714D01*
X140982857Y-100151428D01*
X141054285Y-99865714D01*
X141125714Y-99722857D01*
X141268571Y-99580000D01*
X141482857Y-99508571D01*
X141625714Y-99508571D01*
X141840000Y-99580000D01*
X141911428Y-99651428D01*
X142554285Y-101008571D02*
X142554285Y-99508571D01*
X143197142Y-101008571D02*
X143197142Y-100222857D01*
X143125714Y-100080000D01*
X142982857Y-100008571D01*
X142768571Y-100008571D01*
X142625714Y-100080000D01*
X142554285Y-100151428D01*
X143911428Y-101008571D02*
X143911428Y-100008571D01*
X143911428Y-100294285D02*
X143982857Y-100151428D01*
X144054285Y-100080000D01*
X144197142Y-100008571D01*
X144340000Y-100008571D01*
X144840000Y-101008571D02*
X144840000Y-100008571D01*
X144840000Y-99508571D02*
X144768571Y-99580000D01*
X144840000Y-99651428D01*
X144911428Y-99580000D01*
X144840000Y-99508571D01*
X144840000Y-99651428D01*
X145482857Y-100937142D02*
X145625714Y-101008571D01*
X145911428Y-101008571D01*
X146054285Y-100937142D01*
X146125714Y-100794285D01*
X146125714Y-100722857D01*
X146054285Y-100580000D01*
X145911428Y-100508571D01*
X145697142Y-100508571D01*
X145554285Y-100437142D01*
X145482857Y-100294285D01*
X145482857Y-100222857D01*
X145554285Y-100080000D01*
X145697142Y-100008571D01*
X145911428Y-100008571D01*
X146054285Y-100080000D01*
X146554285Y-100008571D02*
X147125714Y-100008571D01*
X146768571Y-99508571D02*
X146768571Y-100794285D01*
X146840000Y-100937142D01*
X146982857Y-101008571D01*
X147125714Y-101008571D01*
X147840000Y-101008571D02*
X147697142Y-100937142D01*
X147625714Y-100865714D01*
X147554285Y-100722857D01*
X147554285Y-100294285D01*
X147625714Y-100151428D01*
X147697142Y-100080000D01*
X147840000Y-100008571D01*
X148054285Y-100008571D01*
X148197142Y-100080000D01*
X148268571Y-100151428D01*
X148340000Y-100294285D01*
X148340000Y-100722857D01*
X148268571Y-100865714D01*
X148197142Y-100937142D01*
X148054285Y-101008571D01*
X147840000Y-101008571D01*
X148982857Y-100008571D02*
X148982857Y-101508571D01*
X148982857Y-100080000D02*
X149125714Y-100008571D01*
X149411428Y-100008571D01*
X149554285Y-100080000D01*
X149625714Y-100151428D01*
X149697142Y-100294285D01*
X149697142Y-100722857D01*
X149625714Y-100865714D01*
X149554285Y-100937142D01*
X149411428Y-101008571D01*
X149125714Y-101008571D01*
X148982857Y-100937142D01*
X150340000Y-101008571D02*
X150340000Y-99508571D01*
X150982857Y-101008571D02*
X150982857Y-100222857D01*
X150911428Y-100080000D01*
X150768571Y-100008571D01*
X150554285Y-100008571D01*
X150411428Y-100080000D01*
X150340000Y-100151428D01*
X152268571Y-100937142D02*
X152125714Y-101008571D01*
X151840000Y-101008571D01*
X151697142Y-100937142D01*
X151625714Y-100794285D01*
X151625714Y-100222857D01*
X151697142Y-100080000D01*
X151840000Y-100008571D01*
X152125714Y-100008571D01*
X152268571Y-100080000D01*
X152340000Y-100222857D01*
X152340000Y-100365714D01*
X151625714Y-100508571D01*
X152982857Y-101008571D02*
X152982857Y-100008571D01*
X152982857Y-100294285D02*
X153054285Y-100151428D01*
X153125714Y-100080000D01*
X153268571Y-100008571D01*
X153411428Y-100008571D01*
X154982857Y-100937142D02*
X155197142Y-101008571D01*
X155554285Y-101008571D01*
X155697142Y-100937142D01*
X155768571Y-100865714D01*
X155840000Y-100722857D01*
X155840000Y-100580000D01*
X155768571Y-100437142D01*
X155697142Y-100365714D01*
X155554285Y-100294285D01*
X155268571Y-100222857D01*
X155125714Y-100151428D01*
X155054285Y-100080000D01*
X154982857Y-99937142D01*
X154982857Y-99794285D01*
X155054285Y-99651428D01*
X155125714Y-99580000D01*
X155268571Y-99508571D01*
X155625714Y-99508571D01*
X155840000Y-99580000D01*
X156482857Y-100008571D02*
X156482857Y-101508571D01*
X156482857Y-100080000D02*
X156625714Y-100008571D01*
X156911428Y-100008571D01*
X157054285Y-100080000D01*
X157125714Y-100151428D01*
X157197142Y-100294285D01*
X157197142Y-100722857D01*
X157125714Y-100865714D01*
X157054285Y-100937142D01*
X156911428Y-101008571D01*
X156625714Y-101008571D01*
X156482857Y-100937142D01*
X158054285Y-101008571D02*
X157911428Y-100937142D01*
X157840000Y-100865714D01*
X157768571Y-100722857D01*
X157768571Y-100294285D01*
X157840000Y-100151428D01*
X157911428Y-100080000D01*
X158054285Y-100008571D01*
X158268571Y-100008571D01*
X158411428Y-100080000D01*
X158482857Y-100151428D01*
X158554285Y-100294285D01*
X158554285Y-100722857D01*
X158482857Y-100865714D01*
X158411428Y-100937142D01*
X158268571Y-101008571D01*
X158054285Y-101008571D01*
X159411428Y-101008571D02*
X159268571Y-100937142D01*
X159197142Y-100865714D01*
X159125714Y-100722857D01*
X159125714Y-100294285D01*
X159197142Y-100151428D01*
X159268571Y-100080000D01*
X159411428Y-100008571D01*
X159625714Y-100008571D01*
X159768571Y-100080000D01*
X159840000Y-100151428D01*
X159911428Y-100294285D01*
X159911428Y-100722857D01*
X159840000Y-100865714D01*
X159768571Y-100937142D01*
X159625714Y-101008571D01*
X159411428Y-101008571D01*
X160554285Y-100008571D02*
X160554285Y-101008571D01*
X160554285Y-100151428D02*
X160625714Y-100080000D01*
X160768571Y-100008571D01*
X160982857Y-100008571D01*
X161125714Y-100080000D01*
X161197142Y-100222857D01*
X161197142Y-101008571D01*
X162482857Y-100937142D02*
X162340000Y-101008571D01*
X162054285Y-101008571D01*
X161911428Y-100937142D01*
X161840000Y-100794285D01*
X161840000Y-100222857D01*
X161911428Y-100080000D01*
X162054285Y-100008571D01*
X162340000Y-100008571D01*
X162482857Y-100080000D01*
X162554285Y-100222857D01*
X162554285Y-100365714D01*
X161840000Y-100508571D01*
X163197142Y-101008571D02*
X163197142Y-100008571D01*
X163197142Y-100294285D02*
X163268571Y-100151428D01*
X163340000Y-100080000D01*
X163482857Y-100008571D01*
X163625714Y-100008571D01*
X164197142Y-100937142D02*
X164197142Y-101008571D01*
X164125714Y-101151428D01*
X164054285Y-101222857D01*
X165911428Y-99651428D02*
X165982857Y-99580000D01*
X166125714Y-99508571D01*
X166482857Y-99508571D01*
X166625714Y-99580000D01*
X166697142Y-99651428D01*
X166768571Y-99794285D01*
X166768571Y-99937142D01*
X166697142Y-100151428D01*
X165840000Y-101008571D01*
X166768571Y-101008571D01*
X167697142Y-99508571D02*
X167840000Y-99508571D01*
X167982857Y-99580000D01*
X168054285Y-99651428D01*
X168125714Y-99794285D01*
X168197142Y-100080000D01*
X168197142Y-100437142D01*
X168125714Y-100722857D01*
X168054285Y-100865714D01*
X167982857Y-100937142D01*
X167840000Y-101008571D01*
X167697142Y-101008571D01*
X167554285Y-100937142D01*
X167482857Y-100865714D01*
X167411428Y-100722857D01*
X167340000Y-100437142D01*
X167340000Y-100080000D01*
X167411428Y-99794285D01*
X167482857Y-99651428D01*
X167554285Y-99580000D01*
X167697142Y-99508571D01*
X169625714Y-101008571D02*
X168768571Y-101008571D01*
X169197142Y-101008571D02*
X169197142Y-99508571D01*
X169054285Y-99722857D01*
X168911428Y-99865714D01*
X168768571Y-99937142D01*
X170340000Y-101008571D02*
X170625714Y-101008571D01*
X170768571Y-100937142D01*
X170840000Y-100865714D01*
X170982857Y-100651428D01*
X171054285Y-100365714D01*
X171054285Y-99794285D01*
X170982857Y-99651428D01*
X170911428Y-99580000D01*
X170768571Y-99508571D01*
X170482857Y-99508571D01*
X170340000Y-99580000D01*
X170268571Y-99651428D01*
X170197142Y-99794285D01*
X170197142Y-100151428D01*
X170268571Y-100294285D01*
X170340000Y-100365714D01*
X170482857Y-100437142D01*
X170768571Y-100437142D01*
X170911428Y-100365714D01*
X170982857Y-100294285D01*
X171054285Y-100151428D01*
D13*
X126875714Y-95424761D02*
X128018571Y-95424761D01*
X127447142Y-97424761D02*
X127447142Y-95424761D01*
X128590000Y-96853333D02*
X129542380Y-96853333D01*
X128399523Y-97424761D02*
X129066190Y-95424761D01*
X129732857Y-97424761D01*
X131542380Y-97424761D02*
X130875714Y-96472380D01*
X130399523Y-97424761D02*
X130399523Y-95424761D01*
X131161428Y-95424761D01*
X131351904Y-95520000D01*
X131447142Y-95615238D01*
X131542380Y-95805714D01*
X131542380Y-96091428D01*
X131447142Y-96281904D01*
X131351904Y-96377142D01*
X131161428Y-96472380D01*
X130399523Y-96472380D01*
X132399523Y-97424761D02*
X132399523Y-95424761D01*
X132875714Y-95424761D01*
X133161428Y-95520000D01*
X133351904Y-95710476D01*
X133447142Y-95900952D01*
X133542380Y-96281904D01*
X133542380Y-96567619D01*
X133447142Y-96948571D01*
X133351904Y-97139047D01*
X133161428Y-97329523D01*
X132875714Y-97424761D01*
X132399523Y-97424761D01*
X134399523Y-97424761D02*
X134399523Y-95424761D01*
X135256666Y-97329523D02*
X135542380Y-97424761D01*
X136018571Y-97424761D01*
X136209047Y-97329523D01*
X136304285Y-97234285D01*
X136399523Y-97043809D01*
X136399523Y-96853333D01*
X136304285Y-96662857D01*
X136209047Y-96567619D01*
X136018571Y-96472380D01*
X135637619Y-96377142D01*
X135447142Y-96281904D01*
X135351904Y-96186666D01*
X135256666Y-95996190D01*
X135256666Y-95805714D01*
X135351904Y-95615238D01*
X135447142Y-95520000D01*
X135637619Y-95424761D01*
X136113809Y-95424761D01*
X136399523Y-95520000D01*
X138685238Y-97329523D02*
X138970952Y-97424761D01*
X139447142Y-97424761D01*
X139637619Y-97329523D01*
X139732857Y-97234285D01*
X139828095Y-97043809D01*
X139828095Y-96853333D01*
X139732857Y-96662857D01*
X139637619Y-96567619D01*
X139447142Y-96472380D01*
X139066190Y-96377142D01*
X138875714Y-96281904D01*
X138780476Y-96186666D01*
X138685238Y-95996190D01*
X138685238Y-95805714D01*
X138780476Y-95615238D01*
X138875714Y-95520000D01*
X139066190Y-95424761D01*
X139542380Y-95424761D01*
X139828095Y-95520000D01*
X140970952Y-97424761D02*
X140780476Y-97329523D01*
X140685238Y-97234285D01*
X140590000Y-97043809D01*
X140590000Y-96472380D01*
X140685238Y-96281904D01*
X140780476Y-96186666D01*
X140970952Y-96091428D01*
X141256666Y-96091428D01*
X141447142Y-96186666D01*
X141542380Y-96281904D01*
X141637619Y-96472380D01*
X141637619Y-97043809D01*
X141542380Y-97234285D01*
X141447142Y-97329523D01*
X141256666Y-97424761D01*
X140970952Y-97424761D01*
X143351904Y-96091428D02*
X143351904Y-97424761D01*
X142494761Y-96091428D02*
X142494761Y-97139047D01*
X142590000Y-97329523D01*
X142780476Y-97424761D01*
X143066190Y-97424761D01*
X143256666Y-97329523D01*
X143351904Y-97234285D01*
X144304285Y-96091428D02*
X144304285Y-97424761D01*
X144304285Y-96281904D02*
X144399523Y-96186666D01*
X144590000Y-96091428D01*
X144875714Y-96091428D01*
X145066190Y-96186666D01*
X145161428Y-96377142D01*
X145161428Y-97424761D01*
X146970952Y-97424761D02*
X146970952Y-95424761D01*
X146970952Y-97329523D02*
X146780476Y-97424761D01*
X146399523Y-97424761D01*
X146209047Y-97329523D01*
X146113809Y-97234285D01*
X146018571Y-97043809D01*
X146018571Y-96472380D01*
X146113809Y-96281904D01*
X146209047Y-96186666D01*
X146399523Y-96091428D01*
X146780476Y-96091428D01*
X146970952Y-96186666D01*
X151066190Y-97424761D02*
X150970952Y-97424761D01*
X150780476Y-97329523D01*
X150494761Y-97043809D01*
X150018571Y-96472380D01*
X149828095Y-96186666D01*
X149732857Y-95900952D01*
X149732857Y-95710476D01*
X149828095Y-95520000D01*
X150018571Y-95424761D01*
X150113809Y-95424761D01*
X150304285Y-95520000D01*
X150399523Y-95710476D01*
X150399523Y-95805714D01*
X150304285Y-95996190D01*
X150209047Y-96091428D01*
X149637619Y-96472380D01*
X149542380Y-96567619D01*
X149447142Y-96758095D01*
X149447142Y-97043809D01*
X149542380Y-97234285D01*
X149637619Y-97329523D01*
X149828095Y-97424761D01*
X150113809Y-97424761D01*
X150304285Y-97329523D01*
X150399523Y-97234285D01*
X150685238Y-96853333D01*
X150780476Y-96567619D01*
X150780476Y-96377142D01*
X154399523Y-97424761D02*
X153447142Y-97424761D01*
X153447142Y-95424761D01*
X155066190Y-97424761D02*
X155066190Y-96091428D01*
X155066190Y-95424761D02*
X154970952Y-95520000D01*
X155066190Y-95615238D01*
X155161428Y-95520000D01*
X155066190Y-95424761D01*
X155066190Y-95615238D01*
X156875714Y-96091428D02*
X156875714Y-97710476D01*
X156780476Y-97900952D01*
X156685238Y-97996190D01*
X156494761Y-98091428D01*
X156209047Y-98091428D01*
X156018571Y-97996190D01*
X156875714Y-97329523D02*
X156685238Y-97424761D01*
X156304285Y-97424761D01*
X156113809Y-97329523D01*
X156018571Y-97234285D01*
X155923333Y-97043809D01*
X155923333Y-96472380D01*
X156018571Y-96281904D01*
X156113809Y-96186666D01*
X156304285Y-96091428D01*
X156685238Y-96091428D01*
X156875714Y-96186666D01*
X157828095Y-97424761D02*
X157828095Y-95424761D01*
X158685238Y-97424761D02*
X158685238Y-96377142D01*
X158590000Y-96186666D01*
X158399523Y-96091428D01*
X158113809Y-96091428D01*
X157923333Y-96186666D01*
X157828095Y-96281904D01*
X159351904Y-96091428D02*
X160113809Y-96091428D01*
X159637619Y-95424761D02*
X159637619Y-97139047D01*
X159732857Y-97329523D01*
X159923333Y-97424761D01*
X160113809Y-97424761D01*
X162970952Y-96377142D02*
X163256666Y-96472380D01*
X163351904Y-96567619D01*
X163447142Y-96758095D01*
X163447142Y-97043809D01*
X163351904Y-97234285D01*
X163256666Y-97329523D01*
X163066190Y-97424761D01*
X162304285Y-97424761D01*
X162304285Y-95424761D01*
X162970952Y-95424761D01*
X163161428Y-95520000D01*
X163256666Y-95615238D01*
X163351904Y-95805714D01*
X163351904Y-95996190D01*
X163256666Y-96186666D01*
X163161428Y-96281904D01*
X162970952Y-96377142D01*
X162304285Y-96377142D01*
X164590000Y-97424761D02*
X164399523Y-97329523D01*
X164304285Y-97234285D01*
X164209047Y-97043809D01*
X164209047Y-96472380D01*
X164304285Y-96281904D01*
X164399523Y-96186666D01*
X164590000Y-96091428D01*
X164875714Y-96091428D01*
X165066190Y-96186666D01*
X165161428Y-96281904D01*
X165256666Y-96472380D01*
X165256666Y-97043809D01*
X165161428Y-97234285D01*
X165066190Y-97329523D01*
X164875714Y-97424761D01*
X164590000Y-97424761D01*
X166970952Y-97424761D02*
X166970952Y-96377142D01*
X166875714Y-96186666D01*
X166685238Y-96091428D01*
X166304285Y-96091428D01*
X166113809Y-96186666D01*
X166970952Y-97329523D02*
X166780476Y-97424761D01*
X166304285Y-97424761D01*
X166113809Y-97329523D01*
X166018571Y-97139047D01*
X166018571Y-96948571D01*
X166113809Y-96758095D01*
X166304285Y-96662857D01*
X166780476Y-96662857D01*
X166970952Y-96567619D01*
X167923333Y-97424761D02*
X167923333Y-96091428D01*
X167923333Y-96472380D02*
X168018571Y-96281904D01*
X168113809Y-96186666D01*
X168304285Y-96091428D01*
X168494761Y-96091428D01*
X170018571Y-97424761D02*
X170018571Y-95424761D01*
X170018571Y-97329523D02*
X169828095Y-97424761D01*
X169447142Y-97424761D01*
X169256666Y-97329523D01*
X169161428Y-97234285D01*
X169066190Y-97043809D01*
X169066190Y-96472380D01*
X169161428Y-96281904D01*
X169256666Y-96186666D01*
X169447142Y-96091428D01*
X169828095Y-96091428D01*
X170018571Y-96186666D01*
D11*
X124968095Y-48395000D02*
X124872857Y-48347380D01*
X124730000Y-48347380D01*
X124587142Y-48395000D01*
X124491904Y-48490238D01*
X124444285Y-48585476D01*
X124396666Y-48775952D01*
X124396666Y-48918809D01*
X124444285Y-49109285D01*
X124491904Y-49204523D01*
X124587142Y-49299761D01*
X124730000Y-49347380D01*
X124825238Y-49347380D01*
X124968095Y-49299761D01*
X125015714Y-49252142D01*
X125015714Y-48918809D01*
X124825238Y-48918809D01*
X125444285Y-49347380D02*
X125444285Y-48347380D01*
X126015714Y-49347380D01*
X126015714Y-48347380D01*
X126491904Y-49347380D02*
X126491904Y-48347380D01*
X126730000Y-48347380D01*
X126872857Y-48395000D01*
X126968095Y-48490238D01*
X127015714Y-48585476D01*
X127063333Y-48775952D01*
X127063333Y-48918809D01*
X127015714Y-49109285D01*
X126968095Y-49204523D01*
X126872857Y-49299761D01*
X126730000Y-49347380D01*
X126491904Y-49347380D01*
X106553095Y-88400000D02*
X106457857Y-88352380D01*
X106315000Y-88352380D01*
X106172142Y-88400000D01*
X106076904Y-88495238D01*
X106029285Y-88590476D01*
X105981666Y-88780952D01*
X105981666Y-88923809D01*
X106029285Y-89114285D01*
X106076904Y-89209523D01*
X106172142Y-89304761D01*
X106315000Y-89352380D01*
X106410238Y-89352380D01*
X106553095Y-89304761D01*
X106600714Y-89257142D01*
X106600714Y-88923809D01*
X106410238Y-88923809D01*
X107029285Y-89352380D02*
X107029285Y-88352380D01*
X107600714Y-89352380D01*
X107600714Y-88352380D01*
X108076904Y-89352380D02*
X108076904Y-88352380D01*
X108315000Y-88352380D01*
X108457857Y-88400000D01*
X108553095Y-88495238D01*
X108600714Y-88590476D01*
X108648333Y-88780952D01*
X108648333Y-88923809D01*
X108600714Y-89114285D01*
X108553095Y-89209523D01*
X108457857Y-89304761D01*
X108315000Y-89352380D01*
X108076904Y-89352380D01*
X98925000Y-64008095D02*
X98972619Y-63912857D01*
X98972619Y-63770000D01*
X98925000Y-63627142D01*
X98829761Y-63531904D01*
X98734523Y-63484285D01*
X98544047Y-63436666D01*
X98401190Y-63436666D01*
X98210714Y-63484285D01*
X98115476Y-63531904D01*
X98020238Y-63627142D01*
X97972619Y-63770000D01*
X97972619Y-63865238D01*
X98020238Y-64008095D01*
X98067857Y-64055714D01*
X98401190Y-64055714D01*
X98401190Y-63865238D01*
X97972619Y-64484285D02*
X98972619Y-64484285D01*
X97972619Y-65055714D01*
X98972619Y-65055714D01*
X97972619Y-65531904D02*
X98972619Y-65531904D01*
X98972619Y-65770000D01*
X98925000Y-65912857D01*
X98829761Y-66008095D01*
X98734523Y-66055714D01*
X98544047Y-66103333D01*
X98401190Y-66103333D01*
X98210714Y-66055714D01*
X98115476Y-66008095D01*
X98020238Y-65912857D01*
X97972619Y-65770000D01*
X97972619Y-65531904D01*
X147828095Y-78240000D02*
X147732857Y-78192380D01*
X147590000Y-78192380D01*
X147447142Y-78240000D01*
X147351904Y-78335238D01*
X147304285Y-78430476D01*
X147256666Y-78620952D01*
X147256666Y-78763809D01*
X147304285Y-78954285D01*
X147351904Y-79049523D01*
X147447142Y-79144761D01*
X147590000Y-79192380D01*
X147685238Y-79192380D01*
X147828095Y-79144761D01*
X147875714Y-79097142D01*
X147875714Y-78763809D01*
X147685238Y-78763809D01*
X148304285Y-79192380D02*
X148304285Y-78192380D01*
X148875714Y-79192380D01*
X148875714Y-78192380D01*
X149351904Y-79192380D02*
X149351904Y-78192380D01*
X149590000Y-78192380D01*
X149732857Y-78240000D01*
X149828095Y-78335238D01*
X149875714Y-78430476D01*
X149923333Y-78620952D01*
X149923333Y-78763809D01*
X149875714Y-78954285D01*
X149828095Y-79049523D01*
X149732857Y-79144761D01*
X149590000Y-79192380D01*
X149351904Y-79192380D01*
X148105952Y-81732380D02*
X147772619Y-81256190D01*
X147534523Y-81732380D02*
X147534523Y-80732380D01*
X147915476Y-80732380D01*
X148010714Y-80780000D01*
X148058333Y-80827619D01*
X148105952Y-80922857D01*
X148105952Y-81065714D01*
X148058333Y-81160952D01*
X148010714Y-81208571D01*
X147915476Y-81256190D01*
X147534523Y-81256190D01*
X148534523Y-81732380D02*
X148534523Y-81065714D01*
X148534523Y-80732380D02*
X148486904Y-80780000D01*
X148534523Y-80827619D01*
X148582142Y-80780000D01*
X148534523Y-80732380D01*
X148534523Y-80827619D01*
X149439285Y-81065714D02*
X149439285Y-81875238D01*
X149391666Y-81970476D01*
X149344047Y-82018095D01*
X149248809Y-82065714D01*
X149105952Y-82065714D01*
X149010714Y-82018095D01*
X149439285Y-81684761D02*
X149344047Y-81732380D01*
X149153571Y-81732380D01*
X149058333Y-81684761D01*
X149010714Y-81637142D01*
X148963095Y-81541904D01*
X148963095Y-81256190D01*
X149010714Y-81160952D01*
X149058333Y-81113333D01*
X149153571Y-81065714D01*
X149344047Y-81065714D01*
X149439285Y-81113333D01*
X149915476Y-81732380D02*
X149915476Y-80732380D01*
X150344047Y-81732380D02*
X150344047Y-81208571D01*
X150296428Y-81113333D01*
X150201190Y-81065714D01*
X150058333Y-81065714D01*
X149963095Y-81113333D01*
X149915476Y-81160952D01*
X150677380Y-81065714D02*
X151058333Y-81065714D01*
X150820238Y-80732380D02*
X150820238Y-81589523D01*
X150867857Y-81684761D01*
X150963095Y-81732380D01*
X151058333Y-81732380D01*
X160472380Y-50617380D02*
X159472380Y-50617380D01*
X159805714Y-50141190D02*
X160472380Y-50141190D01*
X159900952Y-50141190D02*
X159853333Y-50093571D01*
X159805714Y-49998333D01*
X159805714Y-49855476D01*
X159853333Y-49760238D01*
X159948571Y-49712619D01*
X160472380Y-49712619D01*
X156980000Y-51561904D02*
X156932380Y-51657142D01*
X156932380Y-51800000D01*
X156980000Y-51942857D01*
X157075238Y-52038095D01*
X157170476Y-52085714D01*
X157360952Y-52133333D01*
X157503809Y-52133333D01*
X157694285Y-52085714D01*
X157789523Y-52038095D01*
X157884761Y-51942857D01*
X157932380Y-51800000D01*
X157932380Y-51704761D01*
X157884761Y-51561904D01*
X157837142Y-51514285D01*
X157503809Y-51514285D01*
X157503809Y-51704761D01*
X157932380Y-51085714D02*
X156932380Y-51085714D01*
X157932380Y-50514285D01*
X156932380Y-50514285D01*
X157932380Y-50038095D02*
X156932380Y-50038095D01*
X156932380Y-49800000D01*
X156980000Y-49657142D01*
X157075238Y-49561904D01*
X157170476Y-49514285D01*
X157360952Y-49466666D01*
X157503809Y-49466666D01*
X157694285Y-49514285D01*
X157789523Y-49561904D01*
X157884761Y-49657142D01*
X157932380Y-49800000D01*
X157932380Y-50038095D01*
X154440000Y-51561904D02*
X154392380Y-51657142D01*
X154392380Y-51800000D01*
X154440000Y-51942857D01*
X154535238Y-52038095D01*
X154630476Y-52085714D01*
X154820952Y-52133333D01*
X154963809Y-52133333D01*
X155154285Y-52085714D01*
X155249523Y-52038095D01*
X155344761Y-51942857D01*
X155392380Y-51800000D01*
X155392380Y-51704761D01*
X155344761Y-51561904D01*
X155297142Y-51514285D01*
X154963809Y-51514285D01*
X154963809Y-51704761D01*
X155392380Y-51085714D02*
X154392380Y-51085714D01*
X155392380Y-50514285D01*
X154392380Y-50514285D01*
X155392380Y-50038095D02*
X154392380Y-50038095D01*
X154392380Y-49800000D01*
X154440000Y-49657142D01*
X154535238Y-49561904D01*
X154630476Y-49514285D01*
X154820952Y-49466666D01*
X154963809Y-49466666D01*
X155154285Y-49514285D01*
X155249523Y-49561904D01*
X155344761Y-49657142D01*
X155392380Y-49800000D01*
X155392380Y-50038095D01*
X147828095Y-63000000D02*
X147732857Y-62952380D01*
X147590000Y-62952380D01*
X147447142Y-63000000D01*
X147351904Y-63095238D01*
X147304285Y-63190476D01*
X147256666Y-63380952D01*
X147256666Y-63523809D01*
X147304285Y-63714285D01*
X147351904Y-63809523D01*
X147447142Y-63904761D01*
X147590000Y-63952380D01*
X147685238Y-63952380D01*
X147828095Y-63904761D01*
X147875714Y-63857142D01*
X147875714Y-63523809D01*
X147685238Y-63523809D01*
X148304285Y-63952380D02*
X148304285Y-62952380D01*
X148875714Y-63952380D01*
X148875714Y-62952380D01*
X149351904Y-63952380D02*
X149351904Y-62952380D01*
X149590000Y-62952380D01*
X149732857Y-63000000D01*
X149828095Y-63095238D01*
X149875714Y-63190476D01*
X149923333Y-63380952D01*
X149923333Y-63523809D01*
X149875714Y-63714285D01*
X149828095Y-63809523D01*
X149732857Y-63904761D01*
X149590000Y-63952380D01*
X149351904Y-63952380D01*
X96393095Y-56650000D02*
X96297857Y-56602380D01*
X96155000Y-56602380D01*
X96012142Y-56650000D01*
X95916904Y-56745238D01*
X95869285Y-56840476D01*
X95821666Y-57030952D01*
X95821666Y-57173809D01*
X95869285Y-57364285D01*
X95916904Y-57459523D01*
X96012142Y-57554761D01*
X96155000Y-57602380D01*
X96250238Y-57602380D01*
X96393095Y-57554761D01*
X96440714Y-57507142D01*
X96440714Y-57173809D01*
X96250238Y-57173809D01*
X96869285Y-57602380D02*
X96869285Y-56602380D01*
X97440714Y-57602380D01*
X97440714Y-56602380D01*
X97916904Y-57602380D02*
X97916904Y-56602380D01*
X98155000Y-56602380D01*
X98297857Y-56650000D01*
X98393095Y-56745238D01*
X98440714Y-56840476D01*
X98488333Y-57030952D01*
X98488333Y-57173809D01*
X98440714Y-57364285D01*
X98393095Y-57459523D01*
X98297857Y-57554761D01*
X98155000Y-57602380D01*
X97916904Y-57602380D01*
X84391666Y-57221428D02*
X85153571Y-57221428D01*
X84772619Y-57602380D02*
X84772619Y-56840476D01*
X86153571Y-57602380D02*
X85582142Y-57602380D01*
X85867857Y-57602380D02*
X85867857Y-56602380D01*
X85772619Y-56745238D01*
X85677380Y-56840476D01*
X85582142Y-56888095D01*
X86534523Y-56697619D02*
X86582142Y-56650000D01*
X86677380Y-56602380D01*
X86915476Y-56602380D01*
X87010714Y-56650000D01*
X87058333Y-56697619D01*
X87105952Y-56792857D01*
X87105952Y-56888095D01*
X87058333Y-57030952D01*
X86486904Y-57602380D01*
X87105952Y-57602380D01*
X161226666Y-50236428D02*
X161988571Y-50236428D01*
X161607619Y-50617380D02*
X161607619Y-49855476D01*
X162988571Y-50617380D02*
X162417142Y-50617380D01*
X162702857Y-50617380D02*
X162702857Y-49617380D01*
X162607619Y-49760238D01*
X162512380Y-49855476D01*
X162417142Y-49903095D01*
X163369523Y-49712619D02*
X163417142Y-49665000D01*
X163512380Y-49617380D01*
X163750476Y-49617380D01*
X163845714Y-49665000D01*
X163893333Y-49712619D01*
X163940952Y-49807857D01*
X163940952Y-49903095D01*
X163893333Y-50045952D01*
X163321904Y-50617380D01*
X163940952Y-50617380D01*
X105981666Y-91511428D02*
X106743571Y-91511428D01*
X106362619Y-91892380D02*
X106362619Y-91130476D01*
X107743571Y-91892380D02*
X107172142Y-91892380D01*
X107457857Y-91892380D02*
X107457857Y-90892380D01*
X107362619Y-91035238D01*
X107267380Y-91130476D01*
X107172142Y-91178095D01*
X108124523Y-90987619D02*
X108172142Y-90940000D01*
X108267380Y-90892380D01*
X108505476Y-90892380D01*
X108600714Y-90940000D01*
X108648333Y-90987619D01*
X108695952Y-91082857D01*
X108695952Y-91178095D01*
X108648333Y-91320952D01*
X108076904Y-91892380D01*
X108695952Y-91892380D01*
X147732857Y-61031428D02*
X148494761Y-61031428D01*
X148113809Y-61412380D02*
X148113809Y-60650476D01*
X149447142Y-60412380D02*
X148970952Y-60412380D01*
X148923333Y-60888571D01*
X148970952Y-60840952D01*
X149066190Y-60793333D01*
X149304285Y-60793333D01*
X149399523Y-60840952D01*
X149447142Y-60888571D01*
X149494761Y-60983809D01*
X149494761Y-61221904D01*
X149447142Y-61317142D01*
X149399523Y-61364761D01*
X149304285Y-61412380D01*
X149066190Y-61412380D01*
X148970952Y-61364761D01*
X148923333Y-61317142D01*
X90582857Y-48966428D02*
X91344761Y-48966428D01*
X90963809Y-49347380D02*
X90963809Y-48585476D01*
X92297142Y-48347380D02*
X91820952Y-48347380D01*
X91773333Y-48823571D01*
X91820952Y-48775952D01*
X91916190Y-48728333D01*
X92154285Y-48728333D01*
X92249523Y-48775952D01*
X92297142Y-48823571D01*
X92344761Y-48918809D01*
X92344761Y-49156904D01*
X92297142Y-49252142D01*
X92249523Y-49299761D01*
X92154285Y-49347380D01*
X91916190Y-49347380D01*
X91820952Y-49299761D01*
X91773333Y-49252142D01*
X105822857Y-83891428D02*
X106584761Y-83891428D01*
X106203809Y-84272380D02*
X106203809Y-83510476D01*
X107537142Y-83272380D02*
X107060952Y-83272380D01*
X107013333Y-83748571D01*
X107060952Y-83700952D01*
X107156190Y-83653333D01*
X107394285Y-83653333D01*
X107489523Y-83700952D01*
X107537142Y-83748571D01*
X107584761Y-83843809D01*
X107584761Y-84081904D01*
X107537142Y-84177142D01*
X107489523Y-84224761D01*
X107394285Y-84272380D01*
X107156190Y-84272380D01*
X107060952Y-84224761D01*
X107013333Y-84177142D01*
X160456666Y-85177380D02*
X160647142Y-85177380D01*
X160742380Y-85225000D01*
X160837619Y-85320238D01*
X160885238Y-85510714D01*
X160885238Y-85844047D01*
X160837619Y-86034523D01*
X160742380Y-86129761D01*
X160647142Y-86177380D01*
X160456666Y-86177380D01*
X160361428Y-86129761D01*
X160266190Y-86034523D01*
X160218571Y-85844047D01*
X160218571Y-85510714D01*
X160266190Y-85320238D01*
X160361428Y-85225000D01*
X160456666Y-85177380D01*
X161742380Y-85510714D02*
X161742380Y-86177380D01*
X161313809Y-85510714D02*
X161313809Y-86034523D01*
X161361428Y-86129761D01*
X161456666Y-86177380D01*
X161599523Y-86177380D01*
X161694761Y-86129761D01*
X161742380Y-86082142D01*
X162075714Y-85510714D02*
X162456666Y-85510714D01*
X162218571Y-85177380D02*
X162218571Y-86034523D01*
X162266190Y-86129761D01*
X162361428Y-86177380D01*
X162456666Y-86177380D01*
X155448095Y-85225000D02*
X155352857Y-85177380D01*
X155210000Y-85177380D01*
X155067142Y-85225000D01*
X154971904Y-85320238D01*
X154924285Y-85415476D01*
X154876666Y-85605952D01*
X154876666Y-85748809D01*
X154924285Y-85939285D01*
X154971904Y-86034523D01*
X155067142Y-86129761D01*
X155210000Y-86177380D01*
X155305238Y-86177380D01*
X155448095Y-86129761D01*
X155495714Y-86082142D01*
X155495714Y-85748809D01*
X155305238Y-85748809D01*
X155924285Y-86177380D02*
X155924285Y-85177380D01*
X156495714Y-86177380D01*
X156495714Y-85177380D01*
X156971904Y-86177380D02*
X156971904Y-85177380D01*
X157210000Y-85177380D01*
X157352857Y-85225000D01*
X157448095Y-85320238D01*
X157495714Y-85415476D01*
X157543333Y-85605952D01*
X157543333Y-85748809D01*
X157495714Y-85939285D01*
X157448095Y-86034523D01*
X157352857Y-86129761D01*
X157210000Y-86177380D01*
X156971904Y-86177380D01*
X90670476Y-67572380D02*
X90670476Y-66572380D01*
X91718095Y-67572380D02*
X91384761Y-67096190D01*
X91146666Y-67572380D02*
X91146666Y-66572380D01*
X91527619Y-66572380D01*
X91622857Y-66620000D01*
X91670476Y-66667619D01*
X91718095Y-66762857D01*
X91718095Y-66905714D01*
X91670476Y-67000952D01*
X91622857Y-67048571D01*
X91527619Y-67096190D01*
X91146666Y-67096190D01*
X92622857Y-67572380D02*
X92146666Y-67572380D01*
X92146666Y-66572380D01*
X93289523Y-67048571D02*
X93432380Y-67096190D01*
X93480000Y-67143809D01*
X93527619Y-67239047D01*
X93527619Y-67381904D01*
X93480000Y-67477142D01*
X93432380Y-67524761D01*
X93337142Y-67572380D01*
X92956190Y-67572380D01*
X92956190Y-66572380D01*
X93289523Y-66572380D01*
X93384761Y-66620000D01*
X93432380Y-66667619D01*
X93480000Y-66762857D01*
X93480000Y-66858095D01*
X93432380Y-66953333D01*
X93384761Y-67000952D01*
X93289523Y-67048571D01*
X92956190Y-67048571D01*
X94099047Y-67000952D02*
X94003809Y-66953333D01*
X93956190Y-66905714D01*
X93908571Y-66810476D01*
X93908571Y-66762857D01*
X93956190Y-66667619D01*
X94003809Y-66620000D01*
X94099047Y-66572380D01*
X94289523Y-66572380D01*
X94384761Y-66620000D01*
X94432380Y-66667619D01*
X94480000Y-66762857D01*
X94480000Y-66810476D01*
X94432380Y-66905714D01*
X94384761Y-66953333D01*
X94289523Y-67000952D01*
X94099047Y-67000952D01*
X94003809Y-67048571D01*
X93956190Y-67096190D01*
X93908571Y-67191428D01*
X93908571Y-67381904D01*
X93956190Y-67477142D01*
X94003809Y-67524761D01*
X94099047Y-67572380D01*
X94289523Y-67572380D01*
X94384761Y-67524761D01*
X94432380Y-67477142D01*
X94480000Y-67381904D01*
X94480000Y-67191428D01*
X94432380Y-67096190D01*
X94384761Y-67048571D01*
X94289523Y-67000952D01*
X94813333Y-66572380D02*
X95480000Y-66572380D01*
X95051428Y-67572380D01*
X95813333Y-66667619D02*
X95860952Y-66620000D01*
X95956190Y-66572380D01*
X96194285Y-66572380D01*
X96289523Y-66620000D01*
X96337142Y-66667619D01*
X96384761Y-66762857D01*
X96384761Y-66858095D01*
X96337142Y-67000952D01*
X95765714Y-67572380D01*
X96384761Y-67572380D01*
X97337142Y-67572380D02*
X96765714Y-67572380D01*
X97051428Y-67572380D02*
X97051428Y-66572380D01*
X96956190Y-66715238D01*
X96860952Y-66810476D01*
X96765714Y-66858095D01*
X92170476Y-69222380D02*
X92170476Y-68222380D01*
X92503809Y-68936666D01*
X92837142Y-68222380D01*
X92837142Y-69222380D01*
X93456190Y-69222380D02*
X93360952Y-69174761D01*
X93313333Y-69127142D01*
X93265714Y-69031904D01*
X93265714Y-68746190D01*
X93313333Y-68650952D01*
X93360952Y-68603333D01*
X93456190Y-68555714D01*
X93599047Y-68555714D01*
X93694285Y-68603333D01*
X93741904Y-68650952D01*
X93789523Y-68746190D01*
X93789523Y-69031904D01*
X93741904Y-69127142D01*
X93694285Y-69174761D01*
X93599047Y-69222380D01*
X93456190Y-69222380D01*
X94170476Y-69174761D02*
X94265714Y-69222380D01*
X94456190Y-69222380D01*
X94551428Y-69174761D01*
X94599047Y-69079523D01*
X94599047Y-69031904D01*
X94551428Y-68936666D01*
X94456190Y-68889047D01*
X94313333Y-68889047D01*
X94218095Y-68841428D01*
X94170476Y-68746190D01*
X94170476Y-68698571D01*
X94218095Y-68603333D01*
X94313333Y-68555714D01*
X94456190Y-68555714D01*
X94551428Y-68603333D01*
X94884761Y-68555714D02*
X95265714Y-68555714D01*
X95027619Y-69222380D02*
X95027619Y-68365238D01*
X95075238Y-68270000D01*
X95170476Y-68222380D01*
X95265714Y-68222380D01*
X95980000Y-69174761D02*
X95884761Y-69222380D01*
X95694285Y-69222380D01*
X95599047Y-69174761D01*
X95551428Y-69079523D01*
X95551428Y-68698571D01*
X95599047Y-68603333D01*
X95694285Y-68555714D01*
X95884761Y-68555714D01*
X95980000Y-68603333D01*
X96027619Y-68698571D01*
X96027619Y-68793809D01*
X95551428Y-68889047D01*
X96313333Y-68555714D02*
X96694285Y-68555714D01*
X96456190Y-68222380D02*
X96456190Y-69079523D01*
X96503809Y-69174761D01*
X96599047Y-69222380D01*
X96694285Y-69222380D01*
X89352380Y-60261428D02*
X88876190Y-60594761D01*
X89352380Y-60832857D02*
X88352380Y-60832857D01*
X88352380Y-60451904D01*
X88400000Y-60356666D01*
X88447619Y-60309047D01*
X88542857Y-60261428D01*
X88685714Y-60261428D01*
X88780952Y-60309047D01*
X88828571Y-60356666D01*
X88876190Y-60451904D01*
X88876190Y-60832857D01*
X89304761Y-59451904D02*
X89352380Y-59547142D01*
X89352380Y-59737619D01*
X89304761Y-59832857D01*
X89209523Y-59880476D01*
X88828571Y-59880476D01*
X88733333Y-59832857D01*
X88685714Y-59737619D01*
X88685714Y-59547142D01*
X88733333Y-59451904D01*
X88828571Y-59404285D01*
X88923809Y-59404285D01*
X89019047Y-59880476D01*
X89352380Y-58547142D02*
X88352380Y-58547142D01*
X89304761Y-58547142D02*
X89352380Y-58642380D01*
X89352380Y-58832857D01*
X89304761Y-58928095D01*
X89257142Y-58975714D01*
X89161904Y-59023333D01*
X88876190Y-59023333D01*
X88780952Y-58975714D01*
X88733333Y-58928095D01*
X88685714Y-58832857D01*
X88685714Y-58642380D01*
X88733333Y-58547142D01*
X84963095Y-51570000D02*
X84867857Y-51522380D01*
X84725000Y-51522380D01*
X84582142Y-51570000D01*
X84486904Y-51665238D01*
X84439285Y-51760476D01*
X84391666Y-51950952D01*
X84391666Y-52093809D01*
X84439285Y-52284285D01*
X84486904Y-52379523D01*
X84582142Y-52474761D01*
X84725000Y-52522380D01*
X84820238Y-52522380D01*
X84963095Y-52474761D01*
X85010714Y-52427142D01*
X85010714Y-52093809D01*
X84820238Y-52093809D01*
X85439285Y-52522380D02*
X85439285Y-51522380D01*
X86010714Y-52522380D01*
X86010714Y-51522380D01*
X86486904Y-52522380D02*
X86486904Y-51522380D01*
X86725000Y-51522380D01*
X86867857Y-51570000D01*
X86963095Y-51665238D01*
X87010714Y-51760476D01*
X87058333Y-51950952D01*
X87058333Y-52093809D01*
X87010714Y-52284285D01*
X86963095Y-52379523D01*
X86867857Y-52474761D01*
X86725000Y-52522380D01*
X86486904Y-52522380D01*
X95702619Y-52522380D02*
X95702619Y-51522380D01*
X95940714Y-51522380D01*
X96083571Y-51570000D01*
X96178809Y-51665238D01*
X96226428Y-51760476D01*
X96274047Y-51950952D01*
X96274047Y-52093809D01*
X96226428Y-52284285D01*
X96178809Y-52379523D01*
X96083571Y-52474761D01*
X95940714Y-52522380D01*
X95702619Y-52522380D01*
X97131190Y-52522380D02*
X97131190Y-51998571D01*
X97083571Y-51903333D01*
X96988333Y-51855714D01*
X96797857Y-51855714D01*
X96702619Y-51903333D01*
X97131190Y-52474761D02*
X97035952Y-52522380D01*
X96797857Y-52522380D01*
X96702619Y-52474761D01*
X96655000Y-52379523D01*
X96655000Y-52284285D01*
X96702619Y-52189047D01*
X96797857Y-52141428D01*
X97035952Y-52141428D01*
X97131190Y-52093809D01*
X97464523Y-51855714D02*
X97845476Y-51855714D01*
X97607380Y-51522380D02*
X97607380Y-52379523D01*
X97655000Y-52474761D01*
X97750238Y-52522380D01*
X97845476Y-52522380D01*
X98607380Y-52522380D02*
X98607380Y-51998571D01*
X98559761Y-51903333D01*
X98464523Y-51855714D01*
X98274047Y-51855714D01*
X98178809Y-51903333D01*
X98607380Y-52474761D02*
X98512142Y-52522380D01*
X98274047Y-52522380D01*
X98178809Y-52474761D01*
X98131190Y-52379523D01*
X98131190Y-52284285D01*
X98178809Y-52189047D01*
X98274047Y-52141428D01*
X98512142Y-52141428D01*
X98607380Y-52093809D01*
X88654285Y-55697380D02*
X88178095Y-55697380D01*
X88178095Y-54697380D01*
X88987619Y-55173571D02*
X89320952Y-55173571D01*
X89463809Y-55697380D02*
X88987619Y-55697380D01*
X88987619Y-54697380D01*
X89463809Y-54697380D01*
X89892380Y-55697380D02*
X89892380Y-54697380D01*
X90130476Y-54697380D01*
X90273333Y-54745000D01*
X90368571Y-54840238D01*
X90416190Y-54935476D01*
X90463809Y-55125952D01*
X90463809Y-55268809D01*
X90416190Y-55459285D01*
X90368571Y-55554523D01*
X90273333Y-55649761D01*
X90130476Y-55697380D01*
X89892380Y-55697380D01*
X91606666Y-55649761D02*
X91749523Y-55697380D01*
X91987619Y-55697380D01*
X92082857Y-55649761D01*
X92130476Y-55602142D01*
X92178095Y-55506904D01*
X92178095Y-55411666D01*
X92130476Y-55316428D01*
X92082857Y-55268809D01*
X91987619Y-55221190D01*
X91797142Y-55173571D01*
X91701904Y-55125952D01*
X91654285Y-55078333D01*
X91606666Y-54983095D01*
X91606666Y-54887857D01*
X91654285Y-54792619D01*
X91701904Y-54745000D01*
X91797142Y-54697380D01*
X92035238Y-54697380D01*
X92178095Y-54745000D01*
X92463809Y-55030714D02*
X92844761Y-55030714D01*
X92606666Y-54697380D02*
X92606666Y-55554523D01*
X92654285Y-55649761D01*
X92749523Y-55697380D01*
X92844761Y-55697380D01*
X93178095Y-55697380D02*
X93178095Y-55030714D01*
X93178095Y-55221190D02*
X93225714Y-55125952D01*
X93273333Y-55078333D01*
X93368571Y-55030714D01*
X93463809Y-55030714D01*
X93797142Y-55697380D02*
X93797142Y-55030714D01*
X93797142Y-54697380D02*
X93749523Y-54745000D01*
X93797142Y-54792619D01*
X93844761Y-54745000D01*
X93797142Y-54697380D01*
X93797142Y-54792619D01*
X94273333Y-55030714D02*
X94273333Y-56030714D01*
X94273333Y-55078333D02*
X94368571Y-55030714D01*
X94559047Y-55030714D01*
X94654285Y-55078333D01*
X94701904Y-55125952D01*
X94749523Y-55221190D01*
X94749523Y-55506904D01*
X94701904Y-55602142D01*
X94654285Y-55649761D01*
X94559047Y-55697380D01*
X94368571Y-55697380D01*
X94273333Y-55649761D01*
X88440000Y-50617380D02*
X88440000Y-49617380D01*
X89011428Y-50617380D01*
X89011428Y-49617380D01*
X89868571Y-50569761D02*
X89773333Y-50617380D01*
X89582857Y-50617380D01*
X89487619Y-50569761D01*
X89440000Y-50474523D01*
X89440000Y-50093571D01*
X89487619Y-49998333D01*
X89582857Y-49950714D01*
X89773333Y-49950714D01*
X89868571Y-49998333D01*
X89916190Y-50093571D01*
X89916190Y-50188809D01*
X89440000Y-50284047D01*
X90487619Y-50617380D02*
X90392380Y-50569761D01*
X90344761Y-50522142D01*
X90297142Y-50426904D01*
X90297142Y-50141190D01*
X90344761Y-50045952D01*
X90392380Y-49998333D01*
X90487619Y-49950714D01*
X90630476Y-49950714D01*
X90725714Y-49998333D01*
X90773333Y-50045952D01*
X90820952Y-50141190D01*
X90820952Y-50426904D01*
X90773333Y-50522142D01*
X90725714Y-50569761D01*
X90630476Y-50617380D01*
X90487619Y-50617380D01*
X91249523Y-50617380D02*
X91249523Y-49617380D01*
X91630476Y-49617380D01*
X91725714Y-49665000D01*
X91773333Y-49712619D01*
X91820952Y-49807857D01*
X91820952Y-49950714D01*
X91773333Y-50045952D01*
X91725714Y-50093571D01*
X91630476Y-50141190D01*
X91249523Y-50141190D01*
X92249523Y-50617380D02*
X92249523Y-49950714D01*
X92249523Y-49617380D02*
X92201904Y-49665000D01*
X92249523Y-49712619D01*
X92297142Y-49665000D01*
X92249523Y-49617380D01*
X92249523Y-49712619D01*
X92630476Y-50617380D02*
X93154285Y-49950714D01*
X92630476Y-49950714D02*
X93154285Y-50617380D01*
X93916190Y-50569761D02*
X93820952Y-50617380D01*
X93630476Y-50617380D01*
X93535238Y-50569761D01*
X93487619Y-50474523D01*
X93487619Y-50093571D01*
X93535238Y-49998333D01*
X93630476Y-49950714D01*
X93820952Y-49950714D01*
X93916190Y-49998333D01*
X93963809Y-50093571D01*
X93963809Y-50188809D01*
X93487619Y-50284047D01*
X94535238Y-50617380D02*
X94440000Y-50569761D01*
X94392380Y-50474523D01*
X94392380Y-49617380D01*
X109148809Y-53602380D02*
X109148809Y-52602380D01*
X109529761Y-52602380D01*
X109625000Y-52650000D01*
X109672619Y-52697619D01*
X109720238Y-52792857D01*
X109720238Y-52935714D01*
X109672619Y-53030952D01*
X109625000Y-53078571D01*
X109529761Y-53126190D01*
X109148809Y-53126190D01*
X110291666Y-53602380D02*
X110196428Y-53554761D01*
X110148809Y-53507142D01*
X110101190Y-53411904D01*
X110101190Y-53126190D01*
X110148809Y-53030952D01*
X110196428Y-52983333D01*
X110291666Y-52935714D01*
X110434523Y-52935714D01*
X110529761Y-52983333D01*
X110577380Y-53030952D01*
X110625000Y-53126190D01*
X110625000Y-53411904D01*
X110577380Y-53507142D01*
X110529761Y-53554761D01*
X110434523Y-53602380D01*
X110291666Y-53602380D01*
X110958333Y-52935714D02*
X111148809Y-53602380D01*
X111339285Y-53126190D01*
X111529761Y-53602380D01*
X111720238Y-52935714D01*
X112482142Y-53554761D02*
X112386904Y-53602380D01*
X112196428Y-53602380D01*
X112101190Y-53554761D01*
X112053571Y-53459523D01*
X112053571Y-53078571D01*
X112101190Y-52983333D01*
X112196428Y-52935714D01*
X112386904Y-52935714D01*
X112482142Y-52983333D01*
X112529761Y-53078571D01*
X112529761Y-53173809D01*
X112053571Y-53269047D01*
X112958333Y-53602380D02*
X112958333Y-52935714D01*
X112958333Y-53126190D02*
X113005952Y-53030952D01*
X113053571Y-52983333D01*
X113148809Y-52935714D01*
X113244047Y-52935714D01*
X109672619Y-55204761D02*
X109815476Y-55252380D01*
X110053571Y-55252380D01*
X110148809Y-55204761D01*
X110196428Y-55157142D01*
X110244047Y-55061904D01*
X110244047Y-54966666D01*
X110196428Y-54871428D01*
X110148809Y-54823809D01*
X110053571Y-54776190D01*
X109863095Y-54728571D01*
X109767857Y-54680952D01*
X109720238Y-54633333D01*
X109672619Y-54538095D01*
X109672619Y-54442857D01*
X109720238Y-54347619D01*
X109767857Y-54300000D01*
X109863095Y-54252380D01*
X110101190Y-54252380D01*
X110244047Y-54300000D01*
X110577380Y-54585714D02*
X110767857Y-55252380D01*
X110958333Y-54776190D01*
X111148809Y-55252380D01*
X111339285Y-54585714D01*
X111720238Y-55252380D02*
X111720238Y-54585714D01*
X111720238Y-54252380D02*
X111672619Y-54300000D01*
X111720238Y-54347619D01*
X111767857Y-54300000D01*
X111720238Y-54252380D01*
X111720238Y-54347619D01*
X112053571Y-54585714D02*
X112434523Y-54585714D01*
X112196428Y-54252380D02*
X112196428Y-55109523D01*
X112244047Y-55204761D01*
X112339285Y-55252380D01*
X112434523Y-55252380D01*
X113196428Y-55204761D02*
X113101190Y-55252380D01*
X112910714Y-55252380D01*
X112815476Y-55204761D01*
X112767857Y-55157142D01*
X112720238Y-55061904D01*
X112720238Y-54776190D01*
X112767857Y-54680952D01*
X112815476Y-54633333D01*
X112910714Y-54585714D01*
X113101190Y-54585714D01*
X113196428Y-54633333D01*
X113625000Y-55252380D02*
X113625000Y-54252380D01*
X114053571Y-55252380D02*
X114053571Y-54728571D01*
X114005952Y-54633333D01*
X113910714Y-54585714D01*
X113767857Y-54585714D01*
X113672619Y-54633333D01*
X113625000Y-54680952D01*
X124412619Y-53602380D02*
X123841190Y-53602380D01*
X124126904Y-53602380D02*
X124126904Y-52602380D01*
X124031666Y-52745238D01*
X123936428Y-52840476D01*
X123841190Y-52888095D01*
X124793571Y-52697619D02*
X124841190Y-52650000D01*
X124936428Y-52602380D01*
X125174523Y-52602380D01*
X125269761Y-52650000D01*
X125317380Y-52697619D01*
X125365000Y-52792857D01*
X125365000Y-52888095D01*
X125317380Y-53030952D01*
X124745952Y-53602380D01*
X125365000Y-53602380D01*
X126460238Y-52935714D02*
X126698333Y-53602380D01*
X126936428Y-52935714D01*
X127460238Y-53602380D02*
X127365000Y-53554761D01*
X127317380Y-53507142D01*
X127269761Y-53411904D01*
X127269761Y-53126190D01*
X127317380Y-53030952D01*
X127365000Y-52983333D01*
X127460238Y-52935714D01*
X127603095Y-52935714D01*
X127698333Y-52983333D01*
X127745952Y-53030952D01*
X127793571Y-53126190D01*
X127793571Y-53411904D01*
X127745952Y-53507142D01*
X127698333Y-53554761D01*
X127603095Y-53602380D01*
X127460238Y-53602380D01*
X128365000Y-53602380D02*
X128269761Y-53554761D01*
X128222142Y-53459523D01*
X128222142Y-52602380D01*
X128603095Y-52935714D02*
X128984047Y-52935714D01*
X128745952Y-52602380D02*
X128745952Y-53459523D01*
X128793571Y-53554761D01*
X128888809Y-53602380D01*
X128984047Y-53602380D01*
X124388809Y-55252380D02*
X124388809Y-54252380D01*
X124769761Y-54252380D01*
X124865000Y-54300000D01*
X124912619Y-54347619D01*
X124960238Y-54442857D01*
X124960238Y-54585714D01*
X124912619Y-54680952D01*
X124865000Y-54728571D01*
X124769761Y-54776190D01*
X124388809Y-54776190D01*
X125531666Y-55252380D02*
X125436428Y-55204761D01*
X125388809Y-55157142D01*
X125341190Y-55061904D01*
X125341190Y-54776190D01*
X125388809Y-54680952D01*
X125436428Y-54633333D01*
X125531666Y-54585714D01*
X125674523Y-54585714D01*
X125769761Y-54633333D01*
X125817380Y-54680952D01*
X125865000Y-54776190D01*
X125865000Y-55061904D01*
X125817380Y-55157142D01*
X125769761Y-55204761D01*
X125674523Y-55252380D01*
X125531666Y-55252380D01*
X126198333Y-54585714D02*
X126388809Y-55252380D01*
X126579285Y-54776190D01*
X126769761Y-55252380D01*
X126960238Y-54585714D01*
X127722142Y-55204761D02*
X127626904Y-55252380D01*
X127436428Y-55252380D01*
X127341190Y-55204761D01*
X127293571Y-55109523D01*
X127293571Y-54728571D01*
X127341190Y-54633333D01*
X127436428Y-54585714D01*
X127626904Y-54585714D01*
X127722142Y-54633333D01*
X127769761Y-54728571D01*
X127769761Y-54823809D01*
X127293571Y-54919047D01*
X128198333Y-55252380D02*
X128198333Y-54585714D01*
X128198333Y-54776190D02*
X128245952Y-54680952D01*
X128293571Y-54633333D01*
X128388809Y-54585714D01*
X128484047Y-54585714D01*
X154297619Y-94432380D02*
X153964285Y-93956190D01*
X153726190Y-94432380D02*
X153726190Y-93432380D01*
X154107142Y-93432380D01*
X154202380Y-93480000D01*
X154250000Y-93527619D01*
X154297619Y-93622857D01*
X154297619Y-93765714D01*
X154250000Y-93860952D01*
X154202380Y-93908571D01*
X154107142Y-93956190D01*
X153726190Y-93956190D01*
X154726190Y-94432380D02*
X154726190Y-93765714D01*
X154726190Y-93432380D02*
X154678571Y-93480000D01*
X154726190Y-93527619D01*
X154773809Y-93480000D01*
X154726190Y-93432380D01*
X154726190Y-93527619D01*
X155630952Y-93765714D02*
X155630952Y-94575238D01*
X155583333Y-94670476D01*
X155535714Y-94718095D01*
X155440476Y-94765714D01*
X155297619Y-94765714D01*
X155202380Y-94718095D01*
X155630952Y-94384761D02*
X155535714Y-94432380D01*
X155345238Y-94432380D01*
X155250000Y-94384761D01*
X155202380Y-94337142D01*
X155154761Y-94241904D01*
X155154761Y-93956190D01*
X155202380Y-93860952D01*
X155250000Y-93813333D01*
X155345238Y-93765714D01*
X155535714Y-93765714D01*
X155630952Y-93813333D01*
X156107142Y-94432380D02*
X156107142Y-93432380D01*
X156535714Y-94432380D02*
X156535714Y-93908571D01*
X156488095Y-93813333D01*
X156392857Y-93765714D01*
X156250000Y-93765714D01*
X156154761Y-93813333D01*
X156107142Y-93860952D01*
X156869047Y-93765714D02*
X157250000Y-93765714D01*
X157011904Y-93432380D02*
X157011904Y-94289523D01*
X157059523Y-94384761D01*
X157154761Y-94432380D01*
X157250000Y-94432380D01*
X158297619Y-94384761D02*
X158440476Y-94432380D01*
X158678571Y-94432380D01*
X158773809Y-94384761D01*
X158821428Y-94337142D01*
X158869047Y-94241904D01*
X158869047Y-94146666D01*
X158821428Y-94051428D01*
X158773809Y-94003809D01*
X158678571Y-93956190D01*
X158488095Y-93908571D01*
X158392857Y-93860952D01*
X158345238Y-93813333D01*
X158297619Y-93718095D01*
X158297619Y-93622857D01*
X158345238Y-93527619D01*
X158392857Y-93480000D01*
X158488095Y-93432380D01*
X158726190Y-93432380D01*
X158869047Y-93480000D01*
X159297619Y-93765714D02*
X159297619Y-94765714D01*
X159297619Y-93813333D02*
X159392857Y-93765714D01*
X159583333Y-93765714D01*
X159678571Y-93813333D01*
X159726190Y-93860952D01*
X159773809Y-93956190D01*
X159773809Y-94241904D01*
X159726190Y-94337142D01*
X159678571Y-94384761D01*
X159583333Y-94432380D01*
X159392857Y-94432380D01*
X159297619Y-94384761D01*
X160583333Y-94384761D02*
X160488095Y-94432380D01*
X160297619Y-94432380D01*
X160202380Y-94384761D01*
X160154761Y-94289523D01*
X160154761Y-93908571D01*
X160202380Y-93813333D01*
X160297619Y-93765714D01*
X160488095Y-93765714D01*
X160583333Y-93813333D01*
X160630952Y-93908571D01*
X160630952Y-94003809D01*
X160154761Y-94099047D01*
X161488095Y-94432380D02*
X161488095Y-93908571D01*
X161440476Y-93813333D01*
X161345238Y-93765714D01*
X161154761Y-93765714D01*
X161059523Y-93813333D01*
X161488095Y-94384761D02*
X161392857Y-94432380D01*
X161154761Y-94432380D01*
X161059523Y-94384761D01*
X161011904Y-94289523D01*
X161011904Y-94194285D01*
X161059523Y-94099047D01*
X161154761Y-94051428D01*
X161392857Y-94051428D01*
X161488095Y-94003809D01*
X161964285Y-94432380D02*
X161964285Y-93432380D01*
X162059523Y-94051428D02*
X162345238Y-94432380D01*
X162345238Y-93765714D02*
X161964285Y-94146666D01*
X163154761Y-94384761D02*
X163059523Y-94432380D01*
X162869047Y-94432380D01*
X162773809Y-94384761D01*
X162726190Y-94289523D01*
X162726190Y-93908571D01*
X162773809Y-93813333D01*
X162869047Y-93765714D01*
X163059523Y-93765714D01*
X163154761Y-93813333D01*
X163202380Y-93908571D01*
X163202380Y-94003809D01*
X162726190Y-94099047D01*
X163630952Y-94432380D02*
X163630952Y-93765714D01*
X163630952Y-93956190D02*
X163678571Y-93860952D01*
X163726190Y-93813333D01*
X163821428Y-93765714D01*
X163916666Y-93765714D01*
X163012380Y-69579523D02*
X162536190Y-69912857D01*
X163012380Y-70150952D02*
X162012380Y-70150952D01*
X162012380Y-69770000D01*
X162060000Y-69674761D01*
X162107619Y-69627142D01*
X162202857Y-69579523D01*
X162345714Y-69579523D01*
X162440952Y-69627142D01*
X162488571Y-69674761D01*
X162536190Y-69770000D01*
X162536190Y-70150952D01*
X163012380Y-69150952D02*
X162345714Y-69150952D01*
X162012380Y-69150952D02*
X162060000Y-69198571D01*
X162107619Y-69150952D01*
X162060000Y-69103333D01*
X162012380Y-69150952D01*
X162107619Y-69150952D01*
X162345714Y-68246190D02*
X163155238Y-68246190D01*
X163250476Y-68293809D01*
X163298095Y-68341428D01*
X163345714Y-68436666D01*
X163345714Y-68579523D01*
X163298095Y-68674761D01*
X162964761Y-68246190D02*
X163012380Y-68341428D01*
X163012380Y-68531904D01*
X162964761Y-68627142D01*
X162917142Y-68674761D01*
X162821904Y-68722380D01*
X162536190Y-68722380D01*
X162440952Y-68674761D01*
X162393333Y-68627142D01*
X162345714Y-68531904D01*
X162345714Y-68341428D01*
X162393333Y-68246190D01*
X163012380Y-67770000D02*
X162012380Y-67770000D01*
X163012380Y-67341428D02*
X162488571Y-67341428D01*
X162393333Y-67389047D01*
X162345714Y-67484285D01*
X162345714Y-67627142D01*
X162393333Y-67722380D01*
X162440952Y-67770000D01*
X162345714Y-67008095D02*
X162345714Y-66627142D01*
X162012380Y-66865238D02*
X162869523Y-66865238D01*
X162964761Y-66817619D01*
X163012380Y-66722380D01*
X163012380Y-66627142D01*
X162726666Y-65579523D02*
X162726666Y-65103333D01*
X163012380Y-65674761D02*
X162012380Y-65341428D01*
X163012380Y-65008095D01*
X163012380Y-64674761D02*
X162345714Y-64674761D01*
X162440952Y-64674761D02*
X162393333Y-64627142D01*
X162345714Y-64531904D01*
X162345714Y-64389047D01*
X162393333Y-64293809D01*
X162488571Y-64246190D01*
X163012380Y-64246190D01*
X162488571Y-64246190D02*
X162393333Y-64198571D01*
X162345714Y-64103333D01*
X162345714Y-63960476D01*
X162393333Y-63865238D01*
X162488571Y-63817619D01*
X163012380Y-63817619D01*
X162345714Y-63341428D02*
X163345714Y-63341428D01*
X162393333Y-63341428D02*
X162345714Y-63246190D01*
X162345714Y-63055714D01*
X162393333Y-62960476D01*
X162440952Y-62912857D01*
X162536190Y-62865238D01*
X162821904Y-62865238D01*
X162917142Y-62912857D01*
X162964761Y-62960476D01*
X163012380Y-63055714D01*
X163012380Y-63246190D01*
X162964761Y-63341428D01*
X163012380Y-62293809D02*
X162964761Y-62389047D01*
X162869523Y-62436666D01*
X162012380Y-62436666D01*
X163012380Y-61912857D02*
X162345714Y-61912857D01*
X162012380Y-61912857D02*
X162060000Y-61960476D01*
X162107619Y-61912857D01*
X162060000Y-61865238D01*
X162012380Y-61912857D01*
X162107619Y-61912857D01*
X162345714Y-61579523D02*
X162345714Y-61198571D01*
X163012380Y-61436666D02*
X162155238Y-61436666D01*
X162060000Y-61389047D01*
X162012380Y-61293809D01*
X162012380Y-61198571D01*
X163012380Y-60865238D02*
X162345714Y-60865238D01*
X162012380Y-60865238D02*
X162060000Y-60912857D01*
X162107619Y-60865238D01*
X162060000Y-60817619D01*
X162012380Y-60865238D01*
X162107619Y-60865238D01*
X162964761Y-60008095D02*
X163012380Y-60103333D01*
X163012380Y-60293809D01*
X162964761Y-60389047D01*
X162869523Y-60436666D01*
X162488571Y-60436666D01*
X162393333Y-60389047D01*
X162345714Y-60293809D01*
X162345714Y-60103333D01*
X162393333Y-60008095D01*
X162488571Y-59960476D01*
X162583809Y-59960476D01*
X162679047Y-60436666D01*
X163012380Y-59531904D02*
X162345714Y-59531904D01*
X162536190Y-59531904D02*
X162440952Y-59484285D01*
X162393333Y-59436666D01*
X162345714Y-59341428D01*
X162345714Y-59246190D01*
X138596666Y-85890000D02*
X138596666Y-85413809D01*
X138882380Y-85985238D02*
X137882380Y-85651904D01*
X138882380Y-85318571D01*
X138882380Y-84556666D02*
X137882380Y-84556666D01*
X138834761Y-84556666D02*
X138882380Y-84651904D01*
X138882380Y-84842380D01*
X138834761Y-84937619D01*
X138787142Y-84985238D01*
X138691904Y-85032857D01*
X138406190Y-85032857D01*
X138310952Y-84985238D01*
X138263333Y-84937619D01*
X138215714Y-84842380D01*
X138215714Y-84651904D01*
X138263333Y-84556666D01*
X138882380Y-83651904D02*
X138358571Y-83651904D01*
X138263333Y-83699523D01*
X138215714Y-83794761D01*
X138215714Y-83985238D01*
X138263333Y-84080476D01*
X138834761Y-83651904D02*
X138882380Y-83747142D01*
X138882380Y-83985238D01*
X138834761Y-84080476D01*
X138739523Y-84128095D01*
X138644285Y-84128095D01*
X138549047Y-84080476D01*
X138501428Y-83985238D01*
X138501428Y-83747142D01*
X138453809Y-83651904D01*
X138215714Y-83318571D02*
X138215714Y-82937619D01*
X138882380Y-83175714D02*
X138025238Y-83175714D01*
X137930000Y-83128095D01*
X137882380Y-83032857D01*
X137882380Y-82937619D01*
X138882380Y-82604285D02*
X138215714Y-82604285D01*
X138406190Y-82604285D02*
X138310952Y-82556666D01*
X138263333Y-82509047D01*
X138215714Y-82413809D01*
X138215714Y-82318571D01*
X138215714Y-81556666D02*
X138882380Y-81556666D01*
X138215714Y-81985238D02*
X138739523Y-81985238D01*
X138834761Y-81937619D01*
X138882380Y-81842380D01*
X138882380Y-81699523D01*
X138834761Y-81604285D01*
X138787142Y-81556666D01*
X138882380Y-81080476D02*
X138215714Y-81080476D01*
X137882380Y-81080476D02*
X137930000Y-81128095D01*
X137977619Y-81080476D01*
X137930000Y-81032857D01*
X137882380Y-81080476D01*
X137977619Y-81080476D01*
X138215714Y-80747142D02*
X138215714Y-80366190D01*
X137882380Y-80604285D02*
X138739523Y-80604285D01*
X138834761Y-80556666D01*
X138882380Y-80461428D01*
X138882380Y-80366190D01*
X138596666Y-79318571D02*
X138596666Y-78842380D01*
X138882380Y-79413809D02*
X137882380Y-79080476D01*
X138882380Y-78747142D01*
X138215714Y-77985238D02*
X138882380Y-77985238D01*
X138215714Y-78413809D02*
X138739523Y-78413809D01*
X138834761Y-78366190D01*
X138882380Y-78270952D01*
X138882380Y-78128095D01*
X138834761Y-78032857D01*
X138787142Y-77985238D01*
X138882380Y-77080476D02*
X137882380Y-77080476D01*
X138834761Y-77080476D02*
X138882380Y-77175714D01*
X138882380Y-77366190D01*
X138834761Y-77461428D01*
X138787142Y-77509047D01*
X138691904Y-77556666D01*
X138406190Y-77556666D01*
X138310952Y-77509047D01*
X138263333Y-77461428D01*
X138215714Y-77366190D01*
X138215714Y-77175714D01*
X138263333Y-77080476D01*
X138882380Y-76604285D02*
X138215714Y-76604285D01*
X137882380Y-76604285D02*
X137930000Y-76651904D01*
X137977619Y-76604285D01*
X137930000Y-76556666D01*
X137882380Y-76604285D01*
X137977619Y-76604285D01*
X138882380Y-75985238D02*
X138834761Y-76080476D01*
X138787142Y-76128095D01*
X138691904Y-76175714D01*
X138406190Y-76175714D01*
X138310952Y-76128095D01*
X138263333Y-76080476D01*
X138215714Y-75985238D01*
X138215714Y-75842380D01*
X138263333Y-75747142D01*
X138310952Y-75699523D01*
X138406190Y-75651904D01*
X138691904Y-75651904D01*
X138787142Y-75699523D01*
X138834761Y-75747142D01*
X138882380Y-75842380D01*
X138882380Y-75985238D01*
X138358571Y-74128095D02*
X138358571Y-74461428D01*
X138882380Y-74461428D02*
X137882380Y-74461428D01*
X137882380Y-73985238D01*
X137882380Y-73699523D02*
X138882380Y-73032857D01*
X137882380Y-73032857D02*
X138882380Y-73699523D01*
X138882380Y-71890000D02*
X137882380Y-71890000D01*
X138596666Y-71556666D01*
X137882380Y-71223333D01*
X138882380Y-71223333D01*
X138882380Y-70747142D02*
X138215714Y-70747142D01*
X137882380Y-70747142D02*
X137930000Y-70794761D01*
X137977619Y-70747142D01*
X137930000Y-70699523D01*
X137882380Y-70747142D01*
X137977619Y-70747142D01*
X138215714Y-70270952D02*
X138882380Y-70270952D01*
X138310952Y-70270952D02*
X138263333Y-70223333D01*
X138215714Y-70128095D01*
X138215714Y-69985238D01*
X138263333Y-69890000D01*
X138358571Y-69842380D01*
X138882380Y-69842380D01*
X138882380Y-69366190D02*
X138215714Y-69366190D01*
X137882380Y-69366190D02*
X137930000Y-69413809D01*
X137977619Y-69366190D01*
X137930000Y-69318571D01*
X137882380Y-69366190D01*
X137977619Y-69366190D01*
X138834761Y-68175714D02*
X138882380Y-68032857D01*
X138882380Y-67794761D01*
X138834761Y-67699523D01*
X138787142Y-67651904D01*
X138691904Y-67604285D01*
X138596666Y-67604285D01*
X138501428Y-67651904D01*
X138453809Y-67699523D01*
X138406190Y-67794761D01*
X138358571Y-67985238D01*
X138310952Y-68080476D01*
X138263333Y-68128095D01*
X138168095Y-68175714D01*
X138072857Y-68175714D01*
X137977619Y-68128095D01*
X137930000Y-68080476D01*
X137882380Y-67985238D01*
X137882380Y-67747142D01*
X137930000Y-67604285D01*
X138882380Y-67032857D02*
X138834761Y-67128095D01*
X138787142Y-67175714D01*
X138691904Y-67223333D01*
X138406190Y-67223333D01*
X138310952Y-67175714D01*
X138263333Y-67128095D01*
X138215714Y-67032857D01*
X138215714Y-66890000D01*
X138263333Y-66794761D01*
X138310952Y-66747142D01*
X138406190Y-66699523D01*
X138691904Y-66699523D01*
X138787142Y-66747142D01*
X138834761Y-66794761D01*
X138882380Y-66890000D01*
X138882380Y-67032857D01*
X138215714Y-65842380D02*
X138882380Y-65842380D01*
X138215714Y-66270952D02*
X138739523Y-66270952D01*
X138834761Y-66223333D01*
X138882380Y-66128095D01*
X138882380Y-65985238D01*
X138834761Y-65890000D01*
X138787142Y-65842380D01*
X138215714Y-65366190D02*
X138882380Y-65366190D01*
X138310952Y-65366190D02*
X138263333Y-65318571D01*
X138215714Y-65223333D01*
X138215714Y-65080476D01*
X138263333Y-64985238D01*
X138358571Y-64937619D01*
X138882380Y-64937619D01*
X138882380Y-64032857D02*
X137882380Y-64032857D01*
X138834761Y-64032857D02*
X138882380Y-64128095D01*
X138882380Y-64318571D01*
X138834761Y-64413809D01*
X138787142Y-64461428D01*
X138691904Y-64509047D01*
X138406190Y-64509047D01*
X138310952Y-64461428D01*
X138263333Y-64413809D01*
X138215714Y-64318571D01*
X138215714Y-64128095D01*
X138263333Y-64032857D01*
X138358571Y-62461428D02*
X138406190Y-62318571D01*
X138453809Y-62270952D01*
X138549047Y-62223333D01*
X138691904Y-62223333D01*
X138787142Y-62270952D01*
X138834761Y-62318571D01*
X138882380Y-62413809D01*
X138882380Y-62794761D01*
X137882380Y-62794761D01*
X137882380Y-62461428D01*
X137930000Y-62366190D01*
X137977619Y-62318571D01*
X138072857Y-62270952D01*
X138168095Y-62270952D01*
X138263333Y-62318571D01*
X138310952Y-62366190D01*
X138358571Y-62461428D01*
X138358571Y-62794761D01*
X138882380Y-61651904D02*
X138834761Y-61747142D01*
X138787142Y-61794761D01*
X138691904Y-61842380D01*
X138406190Y-61842380D01*
X138310952Y-61794761D01*
X138263333Y-61747142D01*
X138215714Y-61651904D01*
X138215714Y-61509047D01*
X138263333Y-61413809D01*
X138310952Y-61366190D01*
X138406190Y-61318571D01*
X138691904Y-61318571D01*
X138787142Y-61366190D01*
X138834761Y-61413809D01*
X138882380Y-61509047D01*
X138882380Y-61651904D01*
X138882380Y-60461428D02*
X138358571Y-60461428D01*
X138263333Y-60509047D01*
X138215714Y-60604285D01*
X138215714Y-60794761D01*
X138263333Y-60890000D01*
X138834761Y-60461428D02*
X138882380Y-60556666D01*
X138882380Y-60794761D01*
X138834761Y-60890000D01*
X138739523Y-60937619D01*
X138644285Y-60937619D01*
X138549047Y-60890000D01*
X138501428Y-60794761D01*
X138501428Y-60556666D01*
X138453809Y-60461428D01*
X138882380Y-59985238D02*
X138215714Y-59985238D01*
X138406190Y-59985238D02*
X138310952Y-59937619D01*
X138263333Y-59890000D01*
X138215714Y-59794761D01*
X138215714Y-59699523D01*
X138882380Y-58937619D02*
X137882380Y-58937619D01*
X138834761Y-58937619D02*
X138882380Y-59032857D01*
X138882380Y-59223333D01*
X138834761Y-59318571D01*
X138787142Y-59366190D01*
X138691904Y-59413809D01*
X138406190Y-59413809D01*
X138310952Y-59366190D01*
X138263333Y-59318571D01*
X138215714Y-59223333D01*
X138215714Y-59032857D01*
X138263333Y-58937619D01*
X116371666Y-85359047D02*
X116371666Y-84882857D01*
X116657380Y-85454285D02*
X115657380Y-85120952D01*
X116657380Y-84787619D01*
X116657380Y-84454285D02*
X115990714Y-84454285D01*
X116181190Y-84454285D02*
X116085952Y-84406666D01*
X116038333Y-84359047D01*
X115990714Y-84263809D01*
X115990714Y-84168571D01*
X116657380Y-83406666D02*
X115657380Y-83406666D01*
X116609761Y-83406666D02*
X116657380Y-83501904D01*
X116657380Y-83692380D01*
X116609761Y-83787619D01*
X116562142Y-83835238D01*
X116466904Y-83882857D01*
X116181190Y-83882857D01*
X116085952Y-83835238D01*
X116038333Y-83787619D01*
X115990714Y-83692380D01*
X115990714Y-83501904D01*
X116038333Y-83406666D01*
X115990714Y-82501904D02*
X116657380Y-82501904D01*
X115990714Y-82930476D02*
X116514523Y-82930476D01*
X116609761Y-82882857D01*
X116657380Y-82787619D01*
X116657380Y-82644761D01*
X116609761Y-82549523D01*
X116562142Y-82501904D01*
X116657380Y-82025714D02*
X115990714Y-82025714D01*
X115657380Y-82025714D02*
X115705000Y-82073333D01*
X115752619Y-82025714D01*
X115705000Y-81978095D01*
X115657380Y-82025714D01*
X115752619Y-82025714D01*
X115990714Y-81549523D02*
X116657380Y-81549523D01*
X116085952Y-81549523D02*
X116038333Y-81501904D01*
X115990714Y-81406666D01*
X115990714Y-81263809D01*
X116038333Y-81168571D01*
X116133571Y-81120952D01*
X116657380Y-81120952D01*
X116657380Y-80501904D02*
X116609761Y-80597142D01*
X116562142Y-80644761D01*
X116466904Y-80692380D01*
X116181190Y-80692380D01*
X116085952Y-80644761D01*
X116038333Y-80597142D01*
X115990714Y-80501904D01*
X115990714Y-80359047D01*
X116038333Y-80263809D01*
X116085952Y-80216190D01*
X116181190Y-80168571D01*
X116466904Y-80168571D01*
X116562142Y-80216190D01*
X116609761Y-80263809D01*
X116657380Y-80359047D01*
X116657380Y-80501904D01*
X116657380Y-78978095D02*
X115657380Y-78978095D01*
X115657380Y-78597142D01*
X115705000Y-78501904D01*
X115752619Y-78454285D01*
X115847857Y-78406666D01*
X115990714Y-78406666D01*
X116085952Y-78454285D01*
X116133571Y-78501904D01*
X116181190Y-78597142D01*
X116181190Y-78978095D01*
X116657380Y-77978095D02*
X115990714Y-77978095D01*
X116181190Y-77978095D02*
X116085952Y-77930476D01*
X116038333Y-77882857D01*
X115990714Y-77787619D01*
X115990714Y-77692380D01*
X116657380Y-77216190D02*
X116609761Y-77311428D01*
X116562142Y-77359047D01*
X116466904Y-77406666D01*
X116181190Y-77406666D01*
X116085952Y-77359047D01*
X116038333Y-77311428D01*
X115990714Y-77216190D01*
X115990714Y-77073333D01*
X116038333Y-76978095D01*
X116085952Y-76930476D01*
X116181190Y-76882857D01*
X116466904Y-76882857D01*
X116562142Y-76930476D01*
X116609761Y-76978095D01*
X116657380Y-77073333D01*
X116657380Y-77216190D01*
X116657380Y-75692380D02*
X115657380Y-75692380D01*
X116371666Y-75359047D01*
X115657380Y-75025714D01*
X116657380Y-75025714D01*
X116657380Y-74549523D02*
X115990714Y-74549523D01*
X115657380Y-74549523D02*
X115705000Y-74597142D01*
X115752619Y-74549523D01*
X115705000Y-74501904D01*
X115657380Y-74549523D01*
X115752619Y-74549523D01*
X116609761Y-73644761D02*
X116657380Y-73740000D01*
X116657380Y-73930476D01*
X116609761Y-74025714D01*
X116562142Y-74073333D01*
X116466904Y-74120952D01*
X116181190Y-74120952D01*
X116085952Y-74073333D01*
X116038333Y-74025714D01*
X115990714Y-73930476D01*
X115990714Y-73740000D01*
X116038333Y-73644761D01*
X116657380Y-73216190D02*
X115990714Y-73216190D01*
X116181190Y-73216190D02*
X116085952Y-73168571D01*
X116038333Y-73120952D01*
X115990714Y-73025714D01*
X115990714Y-72930476D01*
X116657380Y-72454285D02*
X116609761Y-72549523D01*
X116562142Y-72597142D01*
X116466904Y-72644761D01*
X116181190Y-72644761D01*
X116085952Y-72597142D01*
X116038333Y-72549523D01*
X115990714Y-72454285D01*
X115990714Y-72311428D01*
X116038333Y-72216190D01*
X116085952Y-72168571D01*
X116181190Y-72120952D01*
X116466904Y-72120952D01*
X116562142Y-72168571D01*
X116609761Y-72216190D01*
X116657380Y-72311428D01*
X116657380Y-72454285D01*
X167433809Y-91368571D02*
X167576666Y-91416190D01*
X167624285Y-91463809D01*
X167671904Y-91559047D01*
X167671904Y-91701904D01*
X167624285Y-91797142D01*
X167576666Y-91844761D01*
X167481428Y-91892380D01*
X167100476Y-91892380D01*
X167100476Y-90892380D01*
X167433809Y-90892380D01*
X167529047Y-90940000D01*
X167576666Y-90987619D01*
X167624285Y-91082857D01*
X167624285Y-91178095D01*
X167576666Y-91273333D01*
X167529047Y-91320952D01*
X167433809Y-91368571D01*
X167100476Y-91368571D01*
X168243333Y-91892380D02*
X168148095Y-91844761D01*
X168100476Y-91749523D01*
X168100476Y-90892380D01*
X169052857Y-91892380D02*
X169052857Y-91368571D01*
X169005238Y-91273333D01*
X168910000Y-91225714D01*
X168719523Y-91225714D01*
X168624285Y-91273333D01*
X169052857Y-91844761D02*
X168957619Y-91892380D01*
X168719523Y-91892380D01*
X168624285Y-91844761D01*
X168576666Y-91749523D01*
X168576666Y-91654285D01*
X168624285Y-91559047D01*
X168719523Y-91511428D01*
X168957619Y-91511428D01*
X169052857Y-91463809D01*
X169957619Y-91844761D02*
X169862380Y-91892380D01*
X169671904Y-91892380D01*
X169576666Y-91844761D01*
X169529047Y-91797142D01*
X169481428Y-91701904D01*
X169481428Y-91416190D01*
X169529047Y-91320952D01*
X169576666Y-91273333D01*
X169671904Y-91225714D01*
X169862380Y-91225714D01*
X169957619Y-91273333D01*
X170386190Y-91892380D02*
X170386190Y-90892380D01*
X170481428Y-91511428D02*
X170767142Y-91892380D01*
X170767142Y-91225714D02*
X170386190Y-91606666D01*
X121070238Y-52157619D02*
X121022619Y-52300476D01*
X121022619Y-52538571D01*
X121070238Y-52633809D01*
X121117857Y-52681428D01*
X121213095Y-52729047D01*
X121308333Y-52729047D01*
X121403571Y-52681428D01*
X121451190Y-52633809D01*
X121498809Y-52538571D01*
X121546428Y-52348095D01*
X121594047Y-52252857D01*
X121641666Y-52205238D01*
X121736904Y-52157619D01*
X121832142Y-52157619D01*
X121927380Y-52205238D01*
X121975000Y-52252857D01*
X122022619Y-52348095D01*
X122022619Y-52586190D01*
X121975000Y-52729047D01*
X121689285Y-53014761D02*
X121689285Y-53395714D01*
X122022619Y-53157619D02*
X121165476Y-53157619D01*
X121070238Y-53205238D01*
X121022619Y-53300476D01*
X121022619Y-53395714D01*
X121022619Y-53729047D02*
X121689285Y-53729047D01*
X121498809Y-53729047D02*
X121594047Y-53776666D01*
X121641666Y-53824285D01*
X121689285Y-53919523D01*
X121689285Y-54014761D01*
X121022619Y-54348095D02*
X121689285Y-54348095D01*
X122022619Y-54348095D02*
X121975000Y-54300476D01*
X121927380Y-54348095D01*
X121975000Y-54395714D01*
X122022619Y-54348095D01*
X121927380Y-54348095D01*
X121689285Y-54824285D02*
X120689285Y-54824285D01*
X121641666Y-54824285D02*
X121689285Y-54919523D01*
X121689285Y-55110000D01*
X121641666Y-55205238D01*
X121594047Y-55252857D01*
X121498809Y-55300476D01*
X121213095Y-55300476D01*
X121117857Y-55252857D01*
X121070238Y-55205238D01*
X121022619Y-55110000D01*
X121022619Y-54919523D01*
X121070238Y-54824285D01*
X121070238Y-56110000D02*
X121022619Y-56014761D01*
X121022619Y-55824285D01*
X121070238Y-55729047D01*
X121165476Y-55681428D01*
X121546428Y-55681428D01*
X121641666Y-55729047D01*
X121689285Y-55824285D01*
X121689285Y-56014761D01*
X121641666Y-56110000D01*
X121546428Y-56157619D01*
X121451190Y-56157619D01*
X121355952Y-55681428D01*
X121022619Y-57014761D02*
X122022619Y-57014761D01*
X121070238Y-57014761D02*
X121022619Y-56919523D01*
X121022619Y-56729047D01*
X121070238Y-56633809D01*
X121117857Y-56586190D01*
X121213095Y-56538571D01*
X121498809Y-56538571D01*
X121594047Y-56586190D01*
X121641666Y-56633809D01*
X121689285Y-56729047D01*
X121689285Y-56919523D01*
X121641666Y-57014761D01*
X119896428Y-53133809D02*
X119848809Y-53276666D01*
X119801190Y-53324285D01*
X119705952Y-53371904D01*
X119563095Y-53371904D01*
X119467857Y-53324285D01*
X119420238Y-53276666D01*
X119372619Y-53181428D01*
X119372619Y-52800476D01*
X120372619Y-52800476D01*
X120372619Y-53133809D01*
X120325000Y-53229047D01*
X120277380Y-53276666D01*
X120182142Y-53324285D01*
X120086904Y-53324285D01*
X119991666Y-53276666D01*
X119944047Y-53229047D01*
X119896428Y-53133809D01*
X119896428Y-52800476D01*
X119372619Y-53943333D02*
X119420238Y-53848095D01*
X119515476Y-53800476D01*
X120372619Y-53800476D01*
X119372619Y-54752857D02*
X119896428Y-54752857D01*
X119991666Y-54705238D01*
X120039285Y-54610000D01*
X120039285Y-54419523D01*
X119991666Y-54324285D01*
X119420238Y-54752857D02*
X119372619Y-54657619D01*
X119372619Y-54419523D01*
X119420238Y-54324285D01*
X119515476Y-54276666D01*
X119610714Y-54276666D01*
X119705952Y-54324285D01*
X119753571Y-54419523D01*
X119753571Y-54657619D01*
X119801190Y-54752857D01*
X119420238Y-55657619D02*
X119372619Y-55562380D01*
X119372619Y-55371904D01*
X119420238Y-55276666D01*
X119467857Y-55229047D01*
X119563095Y-55181428D01*
X119848809Y-55181428D01*
X119944047Y-55229047D01*
X119991666Y-55276666D01*
X120039285Y-55371904D01*
X120039285Y-55562380D01*
X119991666Y-55657619D01*
X119372619Y-56086190D02*
X120372619Y-56086190D01*
X119753571Y-56181428D02*
X119372619Y-56467142D01*
X120039285Y-56467142D02*
X119658333Y-56086190D01*
D10*
X124460000Y-90170000D02*
X124460000Y-54610000D01*
X147320000Y-90170000D02*
X124460000Y-90170000D01*
X147320000Y-54610000D02*
X147320000Y-90170000D01*
X124460000Y-54610000D02*
X147320000Y-54610000D01*
X121920000Y-62230000D02*
X121920000Y-95250000D01*
X104140000Y-62230000D02*
X121920000Y-62230000D01*
X104140000Y-95250000D02*
X104140000Y-62230000D01*
X121920000Y-95250000D02*
X104140000Y-95250000D01*
X165100000Y-87630000D02*
X165100000Y-46990000D01*
X152400000Y-87630000D02*
X165100000Y-87630000D01*
X152400000Y-46990000D02*
X152400000Y-87630000D01*
X165100000Y-46990000D02*
X152400000Y-46990000D01*
X179070000Y-90170000D02*
X179070000Y-92710000D01*
X171450000Y-90170000D02*
X179070000Y-90170000D01*
X171450000Y-92710000D02*
X171450000Y-90170000D01*
X179070000Y-92710000D02*
X171450000Y-92710000D01*
X181610000Y-87630000D02*
X181610000Y-46990000D01*
X168910000Y-87630000D02*
X181610000Y-87630000D01*
X168910000Y-46990000D02*
X168910000Y-87630000D01*
X181610000Y-46990000D02*
X168910000Y-46990000D01*
X87630000Y-53340000D02*
X87630000Y-50800000D01*
X95250000Y-53340000D02*
X87630000Y-53340000D01*
X95250000Y-50800000D02*
X95250000Y-53340000D01*
X87630000Y-50800000D02*
X95250000Y-50800000D01*
X95831000Y-61500000D02*
X95831000Y-63010000D01*
X92130000Y-61500000D02*
X92130000Y-63010000D01*
X88860000Y-63010000D02*
X99100000Y-63010000D01*
X99100000Y-61500000D02*
X99100000Y-66141000D01*
X88860000Y-61500000D02*
X88860000Y-66141000D01*
X88860000Y-66141000D02*
X99100000Y-66141000D01*
X88860000Y-61500000D02*
X99100000Y-61500000D01*
X106680000Y-52070000D02*
X106680000Y-49530000D01*
X114300000Y-52070000D02*
X106680000Y-52070000D01*
X114300000Y-49530000D02*
X114300000Y-52070000D01*
X106680000Y-49530000D02*
X114300000Y-49530000D01*
X95250000Y-55880000D02*
X95250000Y-58420000D01*
X87630000Y-55880000D02*
X95250000Y-55880000D01*
X87630000Y-58420000D02*
X87630000Y-55880000D01*
X95250000Y-58420000D02*
X87630000Y-58420000D01*
X99060000Y-95250000D02*
X99060000Y-97790000D01*
X91440000Y-95250000D02*
X99060000Y-95250000D01*
X91440000Y-97790000D02*
X91440000Y-95250000D01*
X99060000Y-97790000D02*
X91440000Y-97790000D01*
X99060000Y-90170000D02*
X99060000Y-92710000D01*
X91440000Y-90170000D02*
X99060000Y-90170000D01*
X91440000Y-92710000D02*
X91440000Y-90170000D01*
X99060000Y-92710000D02*
X91440000Y-92710000D01*
X99060000Y-85090000D02*
X99060000Y-87630000D01*
X91440000Y-85090000D02*
X99060000Y-85090000D01*
X91440000Y-87630000D02*
X91440000Y-85090000D01*
X99060000Y-87630000D02*
X91440000Y-87630000D01*
X99060000Y-80010000D02*
X99060000Y-82550000D01*
X91440000Y-80010000D02*
X99060000Y-80010000D01*
X91440000Y-82550000D02*
X91440000Y-80010000D01*
X99060000Y-82550000D02*
X91440000Y-82550000D01*
X99060000Y-74930000D02*
X99060000Y-77470000D01*
X91440000Y-74930000D02*
X99060000Y-74930000D01*
X91440000Y-77470000D02*
X91440000Y-74930000D01*
X99060000Y-77470000D02*
X91440000Y-77470000D01*
X99060000Y-69850000D02*
X99060000Y-72390000D01*
X91440000Y-69850000D02*
X99060000Y-69850000D01*
X91440000Y-72390000D02*
X91440000Y-69850000D01*
X99060000Y-72390000D02*
X91440000Y-72390000D01*
X120650000Y-52070000D02*
X120650000Y-49530000D01*
X128270000Y-52070000D02*
X120650000Y-52070000D01*
X128270000Y-49530000D02*
X128270000Y-52070000D01*
X120650000Y-49530000D02*
X128270000Y-49530000D01*
X162560000Y-90170000D02*
X162560000Y-92710000D01*
X154940000Y-90170000D02*
X162560000Y-90170000D01*
X154940000Y-92710000D02*
X154940000Y-90170000D01*
X162560000Y-92710000D02*
X154940000Y-92710000D01*
D11*
X133754761Y-75326666D02*
X133802380Y-75183809D01*
X133802380Y-74945714D01*
X133754761Y-74850476D01*
X133707142Y-74802857D01*
X133611904Y-74755238D01*
X133516666Y-74755238D01*
X133421428Y-74802857D01*
X133373809Y-74850476D01*
X133326190Y-74945714D01*
X133278571Y-75136190D01*
X133230952Y-75231428D01*
X133183333Y-75279047D01*
X133088095Y-75326666D01*
X132992857Y-75326666D01*
X132897619Y-75279047D01*
X132850000Y-75231428D01*
X132802380Y-75136190D01*
X132802380Y-74898095D01*
X132850000Y-74755238D01*
X133278571Y-73993333D02*
X133278571Y-74326666D01*
X133802380Y-74326666D02*
X132802380Y-74326666D01*
X132802380Y-73850476D01*
X132802380Y-73564761D02*
X133802380Y-72898095D01*
X132802380Y-72898095D02*
X133802380Y-73564761D01*
X133802380Y-71993333D02*
X133802380Y-72564761D01*
X133802380Y-72279047D02*
X132802380Y-72279047D01*
X132945238Y-72374285D01*
X133040476Y-72469523D01*
X133088095Y-72564761D01*
X117641666Y-78946190D02*
X117641666Y-78470000D01*
X117927380Y-79041428D02*
X116927380Y-78708095D01*
X117927380Y-78374761D01*
X117927380Y-78041428D02*
X117260714Y-78041428D01*
X117451190Y-78041428D02*
X117355952Y-77993809D01*
X117308333Y-77946190D01*
X117260714Y-77850952D01*
X117260714Y-77755714D01*
X117927380Y-76993809D02*
X116927380Y-76993809D01*
X117879761Y-76993809D02*
X117927380Y-77089047D01*
X117927380Y-77279523D01*
X117879761Y-77374761D01*
X117832142Y-77422380D01*
X117736904Y-77470000D01*
X117451190Y-77470000D01*
X117355952Y-77422380D01*
X117308333Y-77374761D01*
X117260714Y-77279523D01*
X117260714Y-77089047D01*
X117308333Y-76993809D01*
X117927380Y-75993809D02*
X117927380Y-76565238D01*
X117927380Y-76279523D02*
X116927380Y-76279523D01*
X117070238Y-76374761D01*
X117165476Y-76470000D01*
X117213095Y-76565238D01*
X179781666Y-40152380D02*
X179448333Y-39676190D01*
X179210238Y-40152380D02*
X179210238Y-39152380D01*
X179591190Y-39152380D01*
X179686428Y-39200000D01*
X179734047Y-39247619D01*
X179781666Y-39342857D01*
X179781666Y-39485714D01*
X179734047Y-39580952D01*
X179686428Y-39628571D01*
X179591190Y-39676190D01*
X179210238Y-39676190D01*
X180210238Y-39628571D02*
X180543571Y-39628571D01*
X180686428Y-40152380D02*
X180210238Y-40152380D01*
X180210238Y-39152380D01*
X180686428Y-39152380D01*
X181448333Y-39628571D02*
X181115000Y-39628571D01*
X181115000Y-40152380D02*
X181115000Y-39152380D01*
X181591190Y-39152380D01*
X182115000Y-39152380D02*
X182115000Y-39390476D01*
X181876904Y-39295238D02*
X182115000Y-39390476D01*
X182353095Y-39295238D01*
X181972142Y-39580952D02*
X182115000Y-39390476D01*
X182257857Y-39580952D01*
X182876904Y-39152380D02*
X182876904Y-39390476D01*
X182638809Y-39295238D02*
X182876904Y-39390476D01*
X183115000Y-39295238D01*
X182734047Y-39580952D02*
X182876904Y-39390476D01*
X183019761Y-39580952D01*
X160186666Y-66555714D02*
X160186666Y-66079523D01*
X160472380Y-66650952D02*
X159472380Y-66317619D01*
X160472380Y-65984285D01*
X160472380Y-65650952D02*
X159472380Y-65650952D01*
X160186666Y-65317619D01*
X159472380Y-64984285D01*
X160472380Y-64984285D01*
X160472380Y-64508095D02*
X159472380Y-64508095D01*
X159472380Y-64127142D01*
X159520000Y-64031904D01*
X159567619Y-63984285D01*
X159662857Y-63936666D01*
X159805714Y-63936666D01*
X159900952Y-63984285D01*
X159948571Y-64031904D01*
X159996190Y-64127142D01*
X159996190Y-64508095D01*
X160472380Y-62984285D02*
X160472380Y-63555714D01*
X160472380Y-63270000D02*
X159472380Y-63270000D01*
X159615238Y-63365238D01*
X159710476Y-63460476D01*
X159758095Y-63555714D01*
X171236190Y-94432380D02*
X170760000Y-94432380D01*
X170760000Y-93432380D01*
X171950476Y-94384761D02*
X171855238Y-94432380D01*
X171664761Y-94432380D01*
X171569523Y-94384761D01*
X171521904Y-94289523D01*
X171521904Y-93908571D01*
X171569523Y-93813333D01*
X171664761Y-93765714D01*
X171855238Y-93765714D01*
X171950476Y-93813333D01*
X171998095Y-93908571D01*
X171998095Y-94003809D01*
X171521904Y-94099047D01*
X172283809Y-93765714D02*
X172664761Y-93765714D01*
X172426666Y-94432380D02*
X172426666Y-93575238D01*
X172474285Y-93480000D01*
X172569523Y-93432380D01*
X172664761Y-93432380D01*
X172855238Y-93765714D02*
X173236190Y-93765714D01*
X172998095Y-93432380D02*
X172998095Y-94289523D01*
X173045714Y-94384761D01*
X173140952Y-94432380D01*
X173236190Y-94432380D01*
X174283809Y-94384761D02*
X174426666Y-94432380D01*
X174664761Y-94432380D01*
X174760000Y-94384761D01*
X174807619Y-94337142D01*
X174855238Y-94241904D01*
X174855238Y-94146666D01*
X174807619Y-94051428D01*
X174760000Y-94003809D01*
X174664761Y-93956190D01*
X174474285Y-93908571D01*
X174379047Y-93860952D01*
X174331428Y-93813333D01*
X174283809Y-93718095D01*
X174283809Y-93622857D01*
X174331428Y-93527619D01*
X174379047Y-93480000D01*
X174474285Y-93432380D01*
X174712380Y-93432380D01*
X174855238Y-93480000D01*
X175283809Y-93765714D02*
X175283809Y-94765714D01*
X175283809Y-93813333D02*
X175379047Y-93765714D01*
X175569523Y-93765714D01*
X175664761Y-93813333D01*
X175712380Y-93860952D01*
X175760000Y-93956190D01*
X175760000Y-94241904D01*
X175712380Y-94337142D01*
X175664761Y-94384761D01*
X175569523Y-94432380D01*
X175379047Y-94432380D01*
X175283809Y-94384761D01*
X176569523Y-94384761D02*
X176474285Y-94432380D01*
X176283809Y-94432380D01*
X176188571Y-94384761D01*
X176140952Y-94289523D01*
X176140952Y-93908571D01*
X176188571Y-93813333D01*
X176283809Y-93765714D01*
X176474285Y-93765714D01*
X176569523Y-93813333D01*
X176617142Y-93908571D01*
X176617142Y-94003809D01*
X176140952Y-94099047D01*
X177474285Y-94432380D02*
X177474285Y-93908571D01*
X177426666Y-93813333D01*
X177331428Y-93765714D01*
X177140952Y-93765714D01*
X177045714Y-93813333D01*
X177474285Y-94384761D02*
X177379047Y-94432380D01*
X177140952Y-94432380D01*
X177045714Y-94384761D01*
X176998095Y-94289523D01*
X176998095Y-94194285D01*
X177045714Y-94099047D01*
X177140952Y-94051428D01*
X177379047Y-94051428D01*
X177474285Y-94003809D01*
X177950476Y-94432380D02*
X177950476Y-93432380D01*
X178045714Y-94051428D02*
X178331428Y-94432380D01*
X178331428Y-93765714D02*
X177950476Y-94146666D01*
X179140952Y-94384761D02*
X179045714Y-94432380D01*
X178855238Y-94432380D01*
X178760000Y-94384761D01*
X178712380Y-94289523D01*
X178712380Y-93908571D01*
X178760000Y-93813333D01*
X178855238Y-93765714D01*
X179045714Y-93765714D01*
X179140952Y-93813333D01*
X179188571Y-93908571D01*
X179188571Y-94003809D01*
X178712380Y-94099047D01*
X179617142Y-94432380D02*
X179617142Y-93765714D01*
X179617142Y-93956190D02*
X179664761Y-93860952D01*
X179712380Y-93813333D01*
X179807619Y-93765714D01*
X179902857Y-93765714D01*
X176696666Y-66555714D02*
X176696666Y-66079523D01*
X176982380Y-66650952D02*
X175982380Y-66317619D01*
X176982380Y-65984285D01*
X176982380Y-65650952D02*
X175982380Y-65650952D01*
X176696666Y-65317619D01*
X175982380Y-64984285D01*
X176982380Y-64984285D01*
X176982380Y-64508095D02*
X175982380Y-64508095D01*
X175982380Y-64127142D01*
X176030000Y-64031904D01*
X176077619Y-63984285D01*
X176172857Y-63936666D01*
X176315714Y-63936666D01*
X176410952Y-63984285D01*
X176458571Y-64031904D01*
X176506190Y-64127142D01*
X176506190Y-64508095D01*
X176077619Y-63555714D02*
X176030000Y-63508095D01*
X175982380Y-63412857D01*
X175982380Y-63174761D01*
X176030000Y-63079523D01*
X176077619Y-63031904D01*
X176172857Y-62984285D01*
X176268095Y-62984285D01*
X176410952Y-63031904D01*
X176982380Y-63603333D01*
X176982380Y-62984285D01*
X184086666Y-101417380D02*
X183753333Y-100941190D01*
X183515238Y-101417380D02*
X183515238Y-100417380D01*
X183896190Y-100417380D01*
X183991428Y-100465000D01*
X184039047Y-100512619D01*
X184086666Y-100607857D01*
X184086666Y-100750714D01*
X184039047Y-100845952D01*
X183991428Y-100893571D01*
X183896190Y-100941190D01*
X183515238Y-100941190D01*
X184515238Y-100893571D02*
X184848571Y-100893571D01*
X184991428Y-101417380D02*
X184515238Y-101417380D01*
X184515238Y-100417380D01*
X184991428Y-100417380D01*
X185753333Y-100893571D02*
X185420000Y-100893571D01*
X185420000Y-101417380D02*
X185420000Y-100417380D01*
X185896190Y-100417380D01*
X186420000Y-100417380D02*
X186420000Y-100655476D01*
X186181904Y-100560238D02*
X186420000Y-100655476D01*
X186658095Y-100560238D01*
X186277142Y-100845952D02*
X186420000Y-100655476D01*
X186562857Y-100845952D01*
X187181904Y-100417380D02*
X187181904Y-100655476D01*
X186943809Y-100560238D02*
X187181904Y-100655476D01*
X187420000Y-100560238D01*
X187039047Y-100845952D02*
X187181904Y-100655476D01*
X187324761Y-100845952D01*
X80941666Y-104827380D02*
X80608333Y-104351190D01*
X80370238Y-104827380D02*
X80370238Y-103827380D01*
X80751190Y-103827380D01*
X80846428Y-103875000D01*
X80894047Y-103922619D01*
X80941666Y-104017857D01*
X80941666Y-104160714D01*
X80894047Y-104255952D01*
X80846428Y-104303571D01*
X80751190Y-104351190D01*
X80370238Y-104351190D01*
X81370238Y-104303571D02*
X81703571Y-104303571D01*
X81846428Y-104827380D02*
X81370238Y-104827380D01*
X81370238Y-103827380D01*
X81846428Y-103827380D01*
X82608333Y-104303571D02*
X82275000Y-104303571D01*
X82275000Y-104827380D02*
X82275000Y-103827380D01*
X82751190Y-103827380D01*
X83275000Y-103827380D02*
X83275000Y-104065476D01*
X83036904Y-103970238D02*
X83275000Y-104065476D01*
X83513095Y-103970238D01*
X83132142Y-104255952D02*
X83275000Y-104065476D01*
X83417857Y-104255952D01*
X84036904Y-103827380D02*
X84036904Y-104065476D01*
X83798809Y-103970238D02*
X84036904Y-104065476D01*
X84275000Y-103970238D01*
X83894047Y-104255952D02*
X84036904Y-104065476D01*
X84179761Y-104255952D01*
X86296666Y-38162380D02*
X85963333Y-37686190D01*
X85725238Y-38162380D02*
X85725238Y-37162380D01*
X86106190Y-37162380D01*
X86201428Y-37210000D01*
X86249047Y-37257619D01*
X86296666Y-37352857D01*
X86296666Y-37495714D01*
X86249047Y-37590952D01*
X86201428Y-37638571D01*
X86106190Y-37686190D01*
X85725238Y-37686190D01*
X86725238Y-37638571D02*
X87058571Y-37638571D01*
X87201428Y-38162380D02*
X86725238Y-38162380D01*
X86725238Y-37162380D01*
X87201428Y-37162380D01*
X87963333Y-37638571D02*
X87630000Y-37638571D01*
X87630000Y-38162380D02*
X87630000Y-37162380D01*
X88106190Y-37162380D01*
X88630000Y-37162380D02*
X88630000Y-37400476D01*
X88391904Y-37305238D02*
X88630000Y-37400476D01*
X88868095Y-37305238D01*
X88487142Y-37590952D02*
X88630000Y-37400476D01*
X88772857Y-37590952D01*
X89391904Y-37162380D02*
X89391904Y-37400476D01*
X89153809Y-37305238D02*
X89391904Y-37400476D01*
X89630000Y-37305238D01*
X89249047Y-37590952D02*
X89391904Y-37400476D01*
X89534761Y-37590952D01*
X74303095Y-51252380D02*
X74303095Y-50252380D01*
X74874523Y-51252380D01*
X74874523Y-50252380D01*
X75350714Y-51252380D02*
X75350714Y-50252380D01*
X75731666Y-50252380D01*
X75826904Y-50300000D01*
X75874523Y-50347619D01*
X75922142Y-50442857D01*
X75922142Y-50585714D01*
X75874523Y-50680952D01*
X75826904Y-50728571D01*
X75731666Y-50776190D01*
X75350714Y-50776190D01*
X76874523Y-51252380D02*
X76303095Y-51252380D01*
X76588809Y-51252380D02*
X76588809Y-50252380D01*
X76493571Y-50395238D01*
X76398333Y-50490476D01*
X76303095Y-50538095D01*
X90074761Y-62777619D02*
X89979523Y-62730000D01*
X89884285Y-62634761D01*
X89741428Y-62491904D01*
X89646190Y-62444285D01*
X89550952Y-62444285D01*
X89598571Y-62682380D02*
X89503333Y-62634761D01*
X89408095Y-62539523D01*
X89360476Y-62349047D01*
X89360476Y-62015714D01*
X89408095Y-61825238D01*
X89503333Y-61730000D01*
X89598571Y-61682380D01*
X89789047Y-61682380D01*
X89884285Y-61730000D01*
X89979523Y-61825238D01*
X90027142Y-62015714D01*
X90027142Y-62349047D01*
X89979523Y-62539523D01*
X89884285Y-62634761D01*
X89789047Y-62682380D01*
X89598571Y-62682380D01*
X90979523Y-62682380D02*
X90408095Y-62682380D01*
X90693809Y-62682380D02*
X90693809Y-61682380D01*
X90598571Y-61825238D01*
X90503333Y-61920476D01*
X90408095Y-61968095D01*
X108521666Y-39774761D02*
X108664523Y-39822380D01*
X108902619Y-39822380D01*
X108997857Y-39774761D01*
X109045476Y-39727142D01*
X109093095Y-39631904D01*
X109093095Y-39536666D01*
X109045476Y-39441428D01*
X108997857Y-39393809D01*
X108902619Y-39346190D01*
X108712142Y-39298571D01*
X108616904Y-39250952D01*
X108569285Y-39203333D01*
X108521666Y-39108095D01*
X108521666Y-39012857D01*
X108569285Y-38917619D01*
X108616904Y-38870000D01*
X108712142Y-38822380D01*
X108950238Y-38822380D01*
X109093095Y-38870000D01*
X109426428Y-38822380D02*
X109664523Y-39822380D01*
X109855000Y-39108095D01*
X110045476Y-39822380D01*
X110283571Y-38822380D01*
X111188333Y-39822380D02*
X110616904Y-39822380D01*
X110902619Y-39822380D02*
X110902619Y-38822380D01*
X110807380Y-38965238D01*
X110712142Y-39060476D01*
X110616904Y-39108095D01*
X75461904Y-54427380D02*
X75461904Y-53427380D01*
X75700000Y-53427380D01*
X75842857Y-53475000D01*
X75938095Y-53570238D01*
X75985714Y-53665476D01*
X76033333Y-53855952D01*
X76033333Y-53998809D01*
X75985714Y-54189285D01*
X75938095Y-54284523D01*
X75842857Y-54379761D01*
X75700000Y-54427380D01*
X75461904Y-54427380D01*
X76985714Y-54427380D02*
X76414285Y-54427380D01*
X76700000Y-54427380D02*
X76700000Y-53427380D01*
X76604761Y-53570238D01*
X76509523Y-53665476D01*
X76414285Y-53713095D01*
X87566666Y-96924761D02*
X87709523Y-96972380D01*
X87947619Y-96972380D01*
X88042857Y-96924761D01*
X88090476Y-96877142D01*
X88138095Y-96781904D01*
X88138095Y-96686666D01*
X88090476Y-96591428D01*
X88042857Y-96543809D01*
X87947619Y-96496190D01*
X87757142Y-96448571D01*
X87661904Y-96400952D01*
X87614285Y-96353333D01*
X87566666Y-96258095D01*
X87566666Y-96162857D01*
X87614285Y-96067619D01*
X87661904Y-96020000D01*
X87757142Y-95972380D01*
X87995238Y-95972380D01*
X88138095Y-96020000D01*
X88471428Y-95972380D02*
X88709523Y-96972380D01*
X88900000Y-96258095D01*
X89090476Y-96972380D01*
X89328571Y-95972380D01*
X89614285Y-95972380D02*
X90280952Y-95972380D01*
X89852380Y-96972380D01*
X87566666Y-91844761D02*
X87709523Y-91892380D01*
X87947619Y-91892380D01*
X88042857Y-91844761D01*
X88090476Y-91797142D01*
X88138095Y-91701904D01*
X88138095Y-91606666D01*
X88090476Y-91511428D01*
X88042857Y-91463809D01*
X87947619Y-91416190D01*
X87757142Y-91368571D01*
X87661904Y-91320952D01*
X87614285Y-91273333D01*
X87566666Y-91178095D01*
X87566666Y-91082857D01*
X87614285Y-90987619D01*
X87661904Y-90940000D01*
X87757142Y-90892380D01*
X87995238Y-90892380D01*
X88138095Y-90940000D01*
X88471428Y-90892380D02*
X88709523Y-91892380D01*
X88900000Y-91178095D01*
X89090476Y-91892380D01*
X89328571Y-90892380D01*
X90138095Y-90892380D02*
X89947619Y-90892380D01*
X89852380Y-90940000D01*
X89804761Y-90987619D01*
X89709523Y-91130476D01*
X89661904Y-91320952D01*
X89661904Y-91701904D01*
X89709523Y-91797142D01*
X89757142Y-91844761D01*
X89852380Y-91892380D01*
X90042857Y-91892380D01*
X90138095Y-91844761D01*
X90185714Y-91797142D01*
X90233333Y-91701904D01*
X90233333Y-91463809D01*
X90185714Y-91368571D01*
X90138095Y-91320952D01*
X90042857Y-91273333D01*
X89852380Y-91273333D01*
X89757142Y-91320952D01*
X89709523Y-91368571D01*
X89661904Y-91463809D01*
X87566666Y-86764761D02*
X87709523Y-86812380D01*
X87947619Y-86812380D01*
X88042857Y-86764761D01*
X88090476Y-86717142D01*
X88138095Y-86621904D01*
X88138095Y-86526666D01*
X88090476Y-86431428D01*
X88042857Y-86383809D01*
X87947619Y-86336190D01*
X87757142Y-86288571D01*
X87661904Y-86240952D01*
X87614285Y-86193333D01*
X87566666Y-86098095D01*
X87566666Y-86002857D01*
X87614285Y-85907619D01*
X87661904Y-85860000D01*
X87757142Y-85812380D01*
X87995238Y-85812380D01*
X88138095Y-85860000D01*
X88471428Y-85812380D02*
X88709523Y-86812380D01*
X88900000Y-86098095D01*
X89090476Y-86812380D01*
X89328571Y-85812380D01*
X90185714Y-85812380D02*
X89709523Y-85812380D01*
X89661904Y-86288571D01*
X89709523Y-86240952D01*
X89804761Y-86193333D01*
X90042857Y-86193333D01*
X90138095Y-86240952D01*
X90185714Y-86288571D01*
X90233333Y-86383809D01*
X90233333Y-86621904D01*
X90185714Y-86717142D01*
X90138095Y-86764761D01*
X90042857Y-86812380D01*
X89804761Y-86812380D01*
X89709523Y-86764761D01*
X89661904Y-86717142D01*
X87566666Y-81684761D02*
X87709523Y-81732380D01*
X87947619Y-81732380D01*
X88042857Y-81684761D01*
X88090476Y-81637142D01*
X88138095Y-81541904D01*
X88138095Y-81446666D01*
X88090476Y-81351428D01*
X88042857Y-81303809D01*
X87947619Y-81256190D01*
X87757142Y-81208571D01*
X87661904Y-81160952D01*
X87614285Y-81113333D01*
X87566666Y-81018095D01*
X87566666Y-80922857D01*
X87614285Y-80827619D01*
X87661904Y-80780000D01*
X87757142Y-80732380D01*
X87995238Y-80732380D01*
X88138095Y-80780000D01*
X88471428Y-80732380D02*
X88709523Y-81732380D01*
X88900000Y-81018095D01*
X89090476Y-81732380D01*
X89328571Y-80732380D01*
X90138095Y-81065714D02*
X90138095Y-81732380D01*
X89900000Y-80684761D02*
X89661904Y-81399047D01*
X90280952Y-81399047D01*
X87566666Y-76604761D02*
X87709523Y-76652380D01*
X87947619Y-76652380D01*
X88042857Y-76604761D01*
X88090476Y-76557142D01*
X88138095Y-76461904D01*
X88138095Y-76366666D01*
X88090476Y-76271428D01*
X88042857Y-76223809D01*
X87947619Y-76176190D01*
X87757142Y-76128571D01*
X87661904Y-76080952D01*
X87614285Y-76033333D01*
X87566666Y-75938095D01*
X87566666Y-75842857D01*
X87614285Y-75747619D01*
X87661904Y-75700000D01*
X87757142Y-75652380D01*
X87995238Y-75652380D01*
X88138095Y-75700000D01*
X88471428Y-75652380D02*
X88709523Y-76652380D01*
X88900000Y-75938095D01*
X89090476Y-76652380D01*
X89328571Y-75652380D01*
X89614285Y-75652380D02*
X90233333Y-75652380D01*
X89900000Y-76033333D01*
X90042857Y-76033333D01*
X90138095Y-76080952D01*
X90185714Y-76128571D01*
X90233333Y-76223809D01*
X90233333Y-76461904D01*
X90185714Y-76557142D01*
X90138095Y-76604761D01*
X90042857Y-76652380D01*
X89757142Y-76652380D01*
X89661904Y-76604761D01*
X89614285Y-76557142D01*
X87566666Y-71524761D02*
X87709523Y-71572380D01*
X87947619Y-71572380D01*
X88042857Y-71524761D01*
X88090476Y-71477142D01*
X88138095Y-71381904D01*
X88138095Y-71286666D01*
X88090476Y-71191428D01*
X88042857Y-71143809D01*
X87947619Y-71096190D01*
X87757142Y-71048571D01*
X87661904Y-71000952D01*
X87614285Y-70953333D01*
X87566666Y-70858095D01*
X87566666Y-70762857D01*
X87614285Y-70667619D01*
X87661904Y-70620000D01*
X87757142Y-70572380D01*
X87995238Y-70572380D01*
X88138095Y-70620000D01*
X88471428Y-70572380D02*
X88709523Y-71572380D01*
X88900000Y-70858095D01*
X89090476Y-71572380D01*
X89328571Y-70572380D01*
X89661904Y-70667619D02*
X89709523Y-70620000D01*
X89804761Y-70572380D01*
X90042857Y-70572380D01*
X90138095Y-70620000D01*
X90185714Y-70667619D01*
X90233333Y-70762857D01*
X90233333Y-70858095D01*
X90185714Y-71000952D01*
X89614285Y-71572380D01*
X90233333Y-71572380D01*
X129841666Y-50252380D02*
X129841666Y-50966666D01*
X129794047Y-51109523D01*
X129698809Y-51204761D01*
X129555952Y-51252380D01*
X129460714Y-51252380D01*
X130841666Y-51252380D02*
X130270238Y-51252380D01*
X130555952Y-51252380D02*
X130555952Y-50252380D01*
X130460714Y-50395238D01*
X130365476Y-50490476D01*
X130270238Y-50538095D01*
X158107142Y-84907380D02*
X157630952Y-84907380D01*
X157630952Y-83907380D01*
X158392857Y-84859761D02*
X158535714Y-84907380D01*
X158773809Y-84907380D01*
X158869047Y-84859761D01*
X158916666Y-84812142D01*
X158964285Y-84716904D01*
X158964285Y-84621666D01*
X158916666Y-84526428D01*
X158869047Y-84478809D01*
X158773809Y-84431190D01*
X158583333Y-84383571D01*
X158488095Y-84335952D01*
X158440476Y-84288333D01*
X158392857Y-84193095D01*
X158392857Y-84097857D01*
X158440476Y-84002619D01*
X158488095Y-83955000D01*
X158583333Y-83907380D01*
X158821428Y-83907380D01*
X158964285Y-83955000D01*
X159916666Y-84907380D02*
X159345238Y-84907380D01*
X159630952Y-84907380D02*
X159630952Y-83907380D01*
X159535714Y-84050238D01*
X159440476Y-84145476D01*
X159345238Y-84193095D01*
M02*
